<svg xmlns="http://www.w3.org/2000/svg" xmlns:xlink="http://www.w3.org/1999/xlink" width="108" height="108" viewBox="0 0 108 108">
  <defs>
    <filter id="Trazado_904820" x="0" y="0" width="108" height="108" filterUnits="userSpaceOnUse">
      <feOffset dy="3" input="SourceAlpha"/>
      <feGaussianBlur stdDeviation="3" result="blur"/>
      <feFlood flood-opacity="0.161"/>
      <feComposite operator="in" in2="blur"/>
      <feComposite in="SourceGraphic"/>
    </filter>
  </defs>
  <g id="Grupo_1225414" data-name="Grupo 1225414" transform="translate(-619 -3958)">
    <g id="Grupo_1225105" data-name="Grupo 1225105" transform="translate(419.5 772.892)">
      <g id="Grupo_1219746" data-name="Grupo 1219746" transform="translate(0 1895.108)">
        <g id="Grupo_1202418" data-name="Grupo 1202418" transform="translate(-419.977 876.813)">
          <g id="Grupo_1177315" data-name="Grupo 1177315" transform="translate(-0.523 -112.813)">
            <g id="Grupo_1173585" data-name="Grupo 1173585" transform="translate(629 532)">
              <g id="Grupo_1173428" data-name="Grupo 1173428" transform="translate(0 0)">
                <g id="Grupo_1171958" data-name="Grupo 1171958">
                  <g id="Grupo_1167341" data-name="Grupo 1167341">
                    <g id="Grupo_1166792" data-name="Grupo 1166792">
                      <g transform="matrix(1, 0, 0, 1, -9, -6)" filter="url(#Trazado_904820)">
                        <g id="Trazado_904820-2" data-name="Trazado 904820" transform="translate(9 6)" fill="#fff4e6">
                          <path d="M 44.99999618530273 88.49999237060547 C 39.12687301635742 88.49999237060547 33.43022155761719 87.35006713867188 28.06829643249512 85.08216857910156 C 22.88852119445801 82.89130401611328 18.23629570007324 79.75457763671875 14.24084663391113 75.75914001464844 C 10.24540901184082 71.76369476318359 7.108683586120605 67.11146545410156 4.917821407318115 61.93169403076172 C 2.649921178817749 56.56976699829102 1.499996185302734 50.87311553955078 1.499996185302734 44.99999237060547 C 1.499996185302734 39.12686920166016 2.649921178817749 33.43021774291992 4.917821407318115 28.06829261779785 C 7.108683586120605 22.88851737976074 10.24540901184082 18.23630523681641 14.24084663391113 14.24085521697998 C 18.23629570007324 10.24540519714355 22.88852119445801 7.108692169189453 28.06829643249512 4.917829990386963 C 33.43022155761719 2.649929761886597 39.12687301635742 1.500004887580872 44.99999618530273 1.500004887580872 C 50.87311935424805 1.500004887580872 56.56977081298828 2.649929761886597 61.93169784545898 4.917829990386963 C 67.11147308349609 7.108692169189453 71.76369476318359 10.24540519714355 75.75914764404297 14.24085521697998 C 79.75458526611328 18.23630523681641 82.89131164550781 22.88851737976074 85.08216857910156 28.06829261779785 C 87.35007476806641 33.43021774291992 88.5 39.12686920166016 88.5 44.99999237060547 C 88.5 50.87311553955078 87.35007476806641 56.56976699829102 85.08216857910156 61.93169403076172 C 82.89131164550781 67.11146545410156 79.75458526611328 71.76369476318359 75.75914764404297 75.75914001464844 C 71.76369476318359 79.75457763671875 67.11147308349609 82.89130401611328 61.93169784545898 85.08216857910156 C 56.56977081298828 87.35006713867188 50.87311935424805 88.49999237060547 44.99999618530273 88.49999237060547 Z" stroke="none"/>
                          <path d="M 44.99999618530273 2.999992370605469 C 39.32870864868164 2.999992370605469 33.82865142822266 4.11004638671875 28.65262603759766 6.299331665039062 C 23.65165710449219 8.414566040039062 19.15968322753906 11.44333648681641 15.301513671875 15.30150604248047 C 11.44333648681641 19.15967559814453 8.414566040039062 23.65164947509766 6.299339294433594 28.65262222290039 C 4.110054016113281 33.82864761352539 2.999992370605469 39.32870483398438 2.999992370605469 44.99999237060547 C 2.999992370605469 50.67127990722656 4.110054016113281 56.17132186889648 6.299339294433594 61.34736633300781 C 8.414566040039062 66.34833526611328 11.44333648681641 70.84029388427734 15.301513671875 74.69846343994141 C 19.15968322753906 78.55663299560547 23.65165710449219 81.58540344238281 28.65262603759766 83.70063781738281 C 33.82865142822266 85.88992309570312 39.32870864868164 86.99997711181641 44.99999618530273 86.99997711181641 C 50.67128372192383 86.99997711181641 56.17134094238281 85.88992309570312 61.34736633300781 83.70063781738281 C 66.34834289550781 81.58540344238281 70.84030914306641 78.55663299560547 74.69847869873047 74.69846343994141 C 78.55665588378906 70.84029388427734 81.58542633056641 66.34833526611328 83.70065307617188 61.34736633300781 C 85.88993835449219 56.17132186889648 87 50.67127990722656 87 44.99999237060547 C 87 39.32870483398438 85.88993835449219 33.82864761352539 83.70065307617188 28.65262222290039 C 81.58542633056641 23.65164947509766 78.55665588378906 19.15967559814453 74.69847869873047 15.30150604248047 C 70.84030914306641 11.44333648681641 66.34834289550781 8.414566040039062 61.34736633300781 6.299331665039062 C 56.17134094238281 4.11004638671875 50.67128372192383 2.999992370605469 44.99999618530273 2.999992370605469 M 44.99999618530273 -7.62939453125e-06 C 69.85281372070312 -7.62939453125e-06 90 20.14717864990234 90 44.99999237060547 C 90 69.85279083251953 69.85281372070312 89.99997711181641 44.99999618530273 89.99997711181641 C 20.14717864990234 89.99997711181641 -7.62939453125e-06 69.85279083251953 -7.62939453125e-06 44.99999237060547 C -7.62939453125e-06 20.14717864990234 20.14717864990234 -7.62939453125e-06 44.99999618530273 -7.62939453125e-06 Z" stroke="none" fill="#ff9d1c"/>
                        </g>
                      </g>
                    </g>
                  </g>
                </g>
              </g>
            </g>
          </g>
        </g>
      </g>
    </g>
    <g id="Layer_35" transform="translate(637.988 3972.6)">
      <g id="Grupo_1225413" data-name="Grupo 1225413" transform="translate(5.012 6.4)">
        <g id="Grupo_1225404" data-name="Grupo 1225404" transform="translate(11.319 5.549)">
          <path id="Trazado_1176016" data-name="Trazado 1176016" d="M46.09,30.125a12.1,12.1,0,0,1-2.545-7.445A11.719,11.719,0,0,1,45.2,16.571a24.34,24.34,0,0,0-21.445,2.418,8.29,8.29,0,0,0-.955.636c1.782,2.864,4.327,2.736,6.809,2.354,4.073-.7,4.327,2.545,4.582,4.709.382,3.182,2.1,6.364,5.664,6.745C42.145,33.689,44.5,32.352,46.09,30.125Z" transform="translate(-22.8 -15.12)" fill="#92e0c4" fill-rule="evenodd"/>
        </g>
        <g id="Grupo_1225405" data-name="Grupo 1225405" transform="translate(2.792 10.118)">
          <path id="Trazado_1176017" data-name="Trazado 1176017" d="M53.817,53.354A24.531,24.531,0,0,0,55.79,36.363,12.158,12.158,0,0,1,41.218,32.8c-1.591,2.227-3.945,3.564-6.236,3.309-3.5-.382-5.218-3.564-5.664-6.745-.255-2.164-.509-5.409-4.582-4.709-2.482.445-5.027.509-6.809-2.354A24.163,24.163,0,0,0,9.4,32.927c1.909,2.036,5.218,2.545,8.4,2.291,4.391-.445,4.264,3.436,3.245,5.345-1.145,2.036-4.391,4.009-.255,5.854a3.993,3.993,0,0,1,2.8,4.518c-.255,2.673-1.273,4.136.509,4.964,5.027,2.354,1.209,5.282-3.5,8.082a24.461,24.461,0,0,0,24.563-1.018,23.826,23.826,0,0,0,5.218-4.518l-4.709-4.709-4.518,4.518L28.236,45.209l4.2-4.2,8.782,8.782,4.518-4.518Z" transform="translate(-9.4 -22.3)" fill="#70bbfa" fill-rule="evenodd"/>
        </g>
        <g id="Grupo_1225406" data-name="Grupo 1225406" transform="translate(0.936 20.618)">
          <path id="Trazado_1176018" data-name="Trazado 1176018" d="M22.53,56.809a3.993,3.993,0,0,0-2.8-4.518c-4.136-1.845-.891-3.818.255-5.854,1.082-1.845,1.145-5.727-3.245-5.345-3.182.318-6.491-.191-8.4-2.291a24.519,24.519,0,0,0,1.973,22.527,23.989,23.989,0,0,0,9.227,8.463c4.709-2.864,8.527-5.791,3.5-8.082-1.782-.827-.827-2.227-.509-4.9Z" transform="translate(-6.483 -38.8)" fill="#92e0c4" fill-rule="evenodd"/>
        </g>
        <g id="Grupo_1225407" data-name="Grupo 1225407" transform="translate(21.437 5.586)">
          <path id="Trazado_1176019" data-name="Trazado 1176019" d="M59.763,22.128A24.442,24.442,0,0,0,38.7,15.51a24.468,24.468,0,0,1,15.718,9.609c1.209-1.336,3.182-1.591,5.154-2.864Z" transform="translate(-38.7 -15.178)" fill="#84c9b0" fill-rule="evenodd"/>
        </g>
        <g id="Grupo_1225408" data-name="Grupo 1225408" transform="translate(21.501 12.536)">
          <path id="Trazado_1176020" data-name="Trazado 1176020" d="M63.363,30.427a26.013,26.013,0,0,0-3.5-4.327l-.191.127c-1.973,1.273-3.945,1.464-5.154,2.864.318.445.636.891.955,1.4a24.487,24.487,0,0,1-7.509,33.727,23.8,23.8,0,0,1-9.163,3.5,24.436,24.436,0,0,0,24.563-37.29Z" transform="translate(-38.8 -26.1)" fill="#60a4db" fill-rule="evenodd"/>
        </g>
        <g id="Grupo_1225409" data-name="Grupo 1225409" transform="translate(32.001 0.955)">
          <path id="Trazado_1176021" data-name="Trazado 1176021" d="M79.609,20.054a12.149,12.149,0,0,0-22.654-6.109A12.349,12.349,0,0,0,55.3,20.054,12.114,12.114,0,0,0,72.418,31.063,11.98,11.98,0,0,0,79.609,20.054Z" transform="translate(-55.3 -7.9)" fill="#ffb92f" fill-rule="evenodd"/>
        </g>
        <g id="Grupo_1225410" data-name="Grupo 1225410" transform="translate(41.355 0.955)">
          <path id="Trazado_1176022" data-name="Trazado 1176022" d="M84.954,20.054A12.153,12.153,0,0,0,72.8,7.9a13.481,13.481,0,0,0-2.8.318,12.1,12.1,0,0,1,0,23.545,13.481,13.481,0,0,0,2.8.318A11.966,11.966,0,0,0,84.954,20.054Z" transform="translate(-70 -7.9)" fill="#edab26" fill-rule="evenodd"/>
        </g>
        <g id="Grupo_1225411" data-name="Grupo 1225411" transform="translate(21.628 28.827)">
          <path id="Trazado_1176023" data-name="Trazado 1176023" d="M51.982,60.418,43.264,51.7,39,55.9,51.982,68.881,56.5,64.363l4.709,4.709,3.818,3.818-4.518,4.454H73.681V64.172l-4.454,4.518-4.645-4.645L56.5,55.964Z" transform="translate(-39 -51.7)" fill="#db5565" fill-rule="evenodd"/>
        </g>
        <g id="Grupo_1225412" data-name="Grupo 1225412">
          <path id="Trazado_1176024" data-name="Trazado 1176024" d="M61.7,46.872a.971.971,0,0,0-1.018.191l-3.818,3.818-3.5-3.5A25.7,25.7,0,0,0,55.276,31.09,13.094,13.094,0,1,0,38.286,12.254a25.176,25.176,0,0,0-21.509,2.736A25.4,25.4,0,0,0,30.458,61.826a24.928,24.928,0,0,0,13.618-4.009,25.377,25.377,0,0,0,4.773-3.945l2.418,2.418-3.818,3.818a.88.88,0,0,0-.191,1.018.9.9,0,0,0,.891.573H61.322a.979.979,0,0,0,.955-.955V47.7a.906.906,0,0,0-.573-.827ZM49.167,8.309a11.2,11.2,0,1,1-11.2,11.2A11.216,11.216,0,0,1,49.167,8.309ZM37.331,13.973a13.339,13.339,0,0,0-1.273,5.536,13.707,13.707,0,0,0,2.291,7.445,5.762,5.762,0,0,1-4.9,2.418c-3.818-.445-4.645-4.645-4.773-5.918V23.2c-.191-1.464-.445-3.5-1.973-4.645a4.673,4.673,0,0,0-3.691-.636c-2.354.318-4.009.255-5.282-1.273l.064-.064A23.494,23.494,0,0,1,37.331,13.973ZM10.6,49.1A23.565,23.565,0,0,1,8.25,28.672c2.545,1.782,6.045,1.782,8.082,1.591a2.491,2.491,0,0,1,2.482.764,3.59,3.59,0,0,1-.127,3.118,11.84,11.84,0,0,1-.891,1.273c-.827,1.018-1.782,2.227-1.464,3.564.255.955,1.082,1.718,2.545,2.418h.064A3.046,3.046,0,0,1,21.1,44.9a11.309,11.309,0,0,1-.318,1.782c-.318,1.527-.636,3.182,1.4,4.136,1.145.509,1.782,1.082,1.845,1.591.064,1.336-3.309,3.5-4.964,4.518A22.642,22.642,0,0,1,10.6,49.1ZM43.058,56.29a23.565,23.565,0,0,1-22.081,1.655c3.054-1.973,4.964-3.691,4.836-5.6-.064-1.273-1.018-2.354-2.927-3.245-.573-.255-.636-.382-.318-2.036a14.231,14.231,0,0,0,.318-1.973,4.865,4.865,0,0,0-3.309-5.409h-.064c-1.209-.509-1.4-.955-1.464-1.082-.127-.445.573-1.273,1.082-1.909a13.178,13.178,0,0,0,1.082-1.527,5.02,5.02,0,0,0,.064-5.091c-.573-.891-1.782-1.845-4.264-1.591-3.054.318-5.6-.255-7.127-1.527a22.789,22.789,0,0,1,7.127-9.036c1.973,2.418,4.582,2.354,7.191,1.909a2.869,2.869,0,0,1,2.291.318c.827.636,1.018,2.164,1.209,3.373v.255c.445,3.373,2.354,7.127,6.491,7.573.255,0,.445.064.7.064a7.736,7.736,0,0,0,5.664-2.8A13.118,13.118,0,0,0,49.1,32.745a12.393,12.393,0,0,0,4.327-.764A23.692,23.692,0,0,1,51.9,46.045L44.84,38.79a.923.923,0,0,0-1.336,0l-3.818,3.818L31.54,34.527a.922.922,0,0,0-1.336,0l-4.2,4.2a.923.923,0,0,0,0,1.336L38.986,53.045a.922.922,0,0,0,1.336,0l3.818-3.818L47.513,52.6a24.982,24.982,0,0,1-4.454,3.691Zm17.309,3.627H50.5l2.864-2.864a.923.923,0,0,0,0-1.336L44.84,47.254a1,1,0,0,0-1.4,0l-3.818,3.818L27.977,39.427l2.864-2.864,8.082,8.082a.923.923,0,0,0,1.336,0l3.818-3.818L56.1,52.854a.923.923,0,0,0,1.336,0l2.927-2.8Z" transform="translate(-5.012 -6.4)"/>
          <path id="Trazado_1176025" data-name="Trazado 1176025" d="M72.618,26.227H69.755a.955.955,0,0,0,0,1.909h1.718v1.4a.955.955,0,1,0,1.909,0V28.072a3.354,3.354,0,0,0,2.673-3.309,3.4,3.4,0,0,0-3.373-3.373h-.509a1.464,1.464,0,1,1,0-2.927h2.8a.955.955,0,1,0,0-1.909H73.382v-1.4a.955.955,0,0,0-1.909,0v1.464A3.354,3.354,0,0,0,68.8,19.927,3.4,3.4,0,0,0,72.173,23.3h.509a1.464,1.464,0,1,1-.064,2.927Z" transform="translate(-28.209 -9.236)"/>
        </g>
      </g>
    </g>
  </g>
</svg>
