<svg xmlns="http://www.w3.org/2000/svg" xmlns:xlink="http://www.w3.org/1999/xlink" width="108" height="108" viewBox="0 0 108 108">
  <defs>
    <filter id="Trazado_904820" x="0" y="0" width="108" height="108" filterUnits="userSpaceOnUse">
      <feOffset dy="3" input="SourceAlpha"/>
      <feGaussianBlur stdDeviation="3" result="blur"/>
      <feFlood flood-opacity="0.161"/>
      <feComposite operator="in" in2="blur"/>
      <feComposite in="SourceGraphic"/>
    </filter>
  </defs>
  <g id="Grupo_1225325" data-name="Grupo 1225325" transform="translate(-199.058 -910)">
    <g id="Grupo_1225100" data-name="Grupo 1225100" transform="translate(208.059 916)">
      <g id="Grupo_1219746" data-name="Grupo 1219746" transform="translate(0 0)">
        <g id="Grupo_1202418" data-name="Grupo 1202418" transform="translate(0 0)">
          <g id="Grupo_1177315" data-name="Grupo 1177315">
            <g id="Grupo_1173585" data-name="Grupo 1173585">
              <g id="Grupo_1173428" data-name="Grupo 1173428">
                <g id="Grupo_1171958" data-name="Grupo 1171958">
                  <g id="Grupo_1167341" data-name="Grupo 1167341">
                    <g id="Grupo_1166792" data-name="Grupo 1166792">
                      <g transform="matrix(1, 0, 0, 1, -9, -6)" filter="url(#Trazado_904820)">
                        <g id="Trazado_904820-2" data-name="Trazado 904820" transform="translate(9 6)" fill="#e9f9fd">
                          <path d="M 44.99999618530273 88.49996948242188 C 39.12687301635742 88.49996948242188 33.43022155761719 87.35004425048828 28.06829643249512 85.08214569091797 C 22.88852119445801 82.89128112792969 18.23629570007324 79.75457000732422 14.24084663391113 75.75912475585938 C 10.24540901184082 71.763671875 7.108683586120605 67.1114501953125 4.917821407318115 61.93168640136719 C 2.649921178817749 56.56974792480469 1.499996185302734 50.87310791015625 1.499996185302734 44.99998474121094 C 1.499996185302734 39.12686157226562 2.649921178817749 33.43021011352539 4.917821407318115 28.06828498840332 C 7.108683586120605 22.88850975036621 10.24540901184082 18.23629760742188 14.24084663391113 14.24084758758545 C 18.23629570007324 10.24539756774902 22.88852119445801 7.108684539794922 28.06829643249512 4.917822360992432 C 33.43022155761719 2.649922132492065 39.12687301635742 1.49999725818634 44.99999618530273 1.49999725818634 C 50.87311935424805 1.49999725818634 56.56977081298828 2.649922132492065 61.93169784545898 4.917822360992432 C 67.11147308349609 7.108684539794922 71.76369476318359 10.24539756774902 75.75914764404297 14.24084758758545 C 79.75458526611328 18.23629760742188 82.89131164550781 22.88850975036621 85.08216857910156 28.06828498840332 C 87.35007476806641 33.43021011352539 88.5 39.12686157226562 88.5 44.99998474121094 C 88.5 50.87310791015625 87.35007476806641 56.56974792480469 85.08216857910156 61.93168640136719 C 82.89131164550781 67.1114501953125 79.75458526611328 71.763671875 75.75914764404297 75.75912475585938 C 71.76369476318359 79.75457000732422 67.11147308349609 82.89128112792969 61.93169784545898 85.08214569091797 C 56.56977081298828 87.35004425048828 50.87311935424805 88.49996948242188 44.99999618530273 88.49996948242188 Z" stroke="none"/>
                          <path d="M 44.99999618530273 3 C 39.32870864868164 3 33.82865142822266 4.110054016113281 28.65262603759766 6.299324035644531 C 23.65165710449219 8.414573669433594 19.15968322753906 11.44332885742188 15.301513671875 15.301513671875 C 11.44333648681641 19.15968322753906 8.414566040039062 23.65164184570312 6.299339294433594 28.65261459350586 C 4.110054016113281 33.82863998413086 2.999992370605469 39.32869720458984 2.999992370605469 44.99998474121094 C 2.999992370605469 50.67127227783203 4.110054016113281 56.17131423950195 6.299339294433594 61.34735870361328 C 8.414566040039062 66.34832763671875 11.44333648681641 70.84028625488281 15.301513671875 74.69845581054688 C 19.15968322753906 78.55662536621094 23.65165710449219 81.58539581298828 28.65262603759766 83.70063018798828 C 33.82865142822266 85.88991546630859 39.32870864868164 86.99996948242188 44.99999618530273 86.99996948242188 C 50.67128372192383 86.99996948242188 56.17134094238281 85.88991546630859 61.34736633300781 83.70063018798828 C 66.34834289550781 81.58539581298828 70.84030914306641 78.55662536621094 74.69847869873047 74.69845581054688 C 78.55665588378906 70.84028625488281 81.58542633056641 66.34832763671875 83.70065307617188 61.34735870361328 C 85.88993835449219 56.17131423950195 87 50.67127227783203 87 44.99998474121094 C 87 39.32869720458984 85.88993835449219 33.82863998413086 83.70065307617188 28.65261459350586 C 81.58542633056641 23.65164184570312 78.55665588378906 19.15968322753906 74.69847869873047 15.301513671875 C 70.84030914306641 11.44332885742188 66.34834289550781 8.414573669433594 61.34736633300781 6.299324035644531 C 56.17134094238281 4.110054016113281 50.67128372192383 3 44.99999618530273 3 M 44.99999618530273 0 C 69.85281372070312 0 90 20.14717102050781 90 44.99998474121094 C 90 69.852783203125 69.85281372070312 89.99996948242188 44.99999618530273 89.99996948242188 C 20.14717864990234 89.99996948242188 -7.62939453125e-06 69.852783203125 -7.62939453125e-06 44.99998474121094 C -7.62939453125e-06 20.14717102050781 20.14717864990234 0 44.99999618530273 0 Z" stroke="none" fill="#1d7083"/>
                        </g>
                      </g>
                    </g>
                  </g>
                </g>
              </g>
            </g>
          </g>
        </g>
      </g>
    </g>
    <g id="graph_1303242" transform="translate(221.989 930.43)">
      <path id="Trazado_1175457" data-name="Trazado 1175457" d="M66.446,33.645A29.724,29.724,0,0,0,42.029,7.28C18.584,3.148-.345,27.25,9.981,49.177A29.752,29.752,0,0,0,24.193,63.412h-.006c20.8,9.84,44.527-6.849,42.259-29.769Zm0,0" transform="translate(-5.807 -6)" fill="#e4e3e1"/>
      <path id="Trazado_1175458" data-name="Trazado 1175458" d="M90.89,62.027A26,26,0,0,0,71.757,39.21h0a26,26,0,0,0-21.175,3.5v0A25.945,25.945,0,0,0,39.22,67.226s0,0,0,0A26.08,26.08,0,0,0,41,74.17l0,0a26.008,26.008,0,0,0,15.63,14.708h0A25.994,25.994,0,0,0,90.89,62.027Zm0,0" transform="translate(-33.951 -33.75)" fill="#4b98d4"/>
      <path id="Trazado_1175459" data-name="Trazado 1175459" d="M256.512,38.32V62.242a2.046,2.046,0,0,0,2.046,2.046H282.48A25.968,25.968,0,0,0,256.512,38.32Zm0,0" transform="translate(-225.441 -33.744)" fill="#9ad14b"/>
      <path id="Trazado_1175460" data-name="Trazado 1175460" d="M26.578,63.424l.006,0A29.752,29.752,0,0,1,12.371,49.187C3.018,29.325,17.669,7.679,37.937,6.849,16.455,5.992.263,28.552,9.98,49.187A29.752,29.752,0,0,0,24.193,63.422h-.006a29.388,29.388,0,0,0,13.853,2.858,29.565,29.565,0,0,1-11.462-2.857Zm0,0" transform="translate(-5.806 -6.01)" fill="#d1d0cf"/>
      <path id="Trazado_1175461" data-name="Trazado 1175461" d="M59.019,88.881a26.011,26.011,0,0,1-15.63-14.708l0,0a26.082,26.082,0,0,1-1.782-6.948v0A25.946,25.946,0,0,1,52.972,42.71s0,0,0,.005a25.906,25.906,0,0,1,13.26-4.353,25.943,25.943,0,0,0-15.651,4.353V42.71A25.946,25.946,0,0,0,39.219,67.232s0,0,0,0A26.083,26.083,0,0,0,41,74.176l0,0A26.053,26.053,0,0,0,66.246,90.265a26.136,26.136,0,0,1-7.228-1.384Zm0,0" transform="translate(-33.95 -33.756)" fill="#2472b2"/>
      <path id="Trazado_1175462" data-name="Trazado 1175462" d="M258.9,62.242V38.431c-.787-.072-1.585-.111-2.391-.111V62.242a2.046,2.046,0,0,0,2.046,2.046h2.392a2.046,2.046,0,0,1-2.046-2.046Zm0,0" transform="translate(-225.441 -33.744)" fill="#76ab29"/>
      <path id="Trazado_1175463" data-name="Trazado 1175463" d="M53.253,227.029c0-5.3-3.78-7.405-8.08-9.084v-7.86a9.259,9.259,0,0,1,3.444,1.133,3.437,3.437,0,0,0,1.564.542c1.607,0,2.256-2.232,2.256-3.162,0-2.579-4.7-3.2-7.265-3.383v-2.2a.161.161,0,0,0-.161-.161h-3.47a.178.178,0,0,0-.178.178v2.324c-5.018.914-8.428,3.581-8.428,8.63,0,5.11,4.046,7.018,8.428,8.71v8.533a10.524,10.524,0,0,1-4.4-2.139,4.553,4.553,0,0,0-2.313-1.149c-1.371,0-2.528,2-2.528,3.253,0,2.346,3.476,4.929,9.243,5.34v1.985a.367.367,0,0,0,.366.366h3.114a.329.329,0,0,0,.329-.329V236.3l.432-.1c4.86-1.077,7.648-4.42,7.648-9.171ZM41.364,216.576c-1.172-.64-2.919-1.419-2.919-3.268a3.019,3.019,0,0,1,2.162-2.73l.758-.306Zm3.809,14.482v-6.847c1.048.743,2.571,1.6,2.571,3.543,0,2.079-1.559,2.75-2.571,3.3Zm0,0" transform="translate(-27.846 -178.632)" fill="#f3a334"/>
      <path id="Trazado_1175464" data-name="Trazado 1175464" d="M47.552,202.855a.178.178,0,0,0-.178.178v2.325c-5.018.914-8.428,3.58-8.428,8.629,0,4.973,3.83,6.913,8.073,8.572-3.49-1.6-6.319-3.711-6.319-8.148,0-5.025,3.134-7.776,7.814-8.831a.784.784,0,0,0,.614-.764V203.04a.181.181,0,0,1,.178-.185Zm0,0" transform="translate(-33.855 -178.631)" fill="#e87e04"/>
      <path id="Trazado_1175465" data-name="Trazado 1175465" d="M33.875,417.275c0-1.3,1.157-3.377,2.528-3.377a1.577,1.577,0,0,1,.347.042,4.037,4.037,0,0,0-2.1-1c-1.371,0-2.528,2-2.528,3.253,0,1.334,1.124,2.743,3.152,3.787a3.82,3.82,0,0,1-1.4-2.706Zm0,0" transform="translate(-27.846 -363.63)" fill="#e87e04"/>
      <path id="Trazado_1175466" data-name="Trazado 1175466" d="M81.355,257.421c-.74.3-3.48,1.166-3.48,3.867,0,2.4,2.147,3.379,3.386,4.055a.9.9,0,0,0,1.327-.787v-6.3a.9.9,0,0,0-1.232-.832Zm-.561,5.588a2.046,2.046,0,0,1-1.125-1.721,1.958,1.958,0,0,1,1.125-1.669Zm0,0" transform="translate(-68.136 -226.623)"/>
      <path id="Trazado_1175467" data-name="Trazado 1175467" d="M135.542,382.607c1.017-.557,3.037-1.451,3.037-4.091,0-2.378-1.775-3.442-2.949-4.275a.9.9,0,0,0-1.415.731v6.848A.9.9,0,0,0,135.542,382.607Zm.466-5.836a2.28,2.28,0,0,1,0,3.452Zm0,0" transform="translate(-117.748 -329.406)"/>
      <path id="Trazado_1175468" data-name="Trazado 1175468" d="M294.368,28.5a.9.9,0,0,0,.893.834c.021,0,.042,0,.063,0a.9.9,0,0,0,.832-.957A30.615,30.615,0,0,0,267.781,0a.9.9,0,1,0-.125,1.789A28.9,28.9,0,0,1,294.368,28.5Zm0,0" transform="translate(-234.52 -0.001)"/>
      <path id="Trazado_1175469" data-name="Trazado 1175469" d="M9.506,49.6A28.811,28.811,0,0,1,29.076,1.791.9.9,0,0,0,28.951,0,30.6,30.6,0,0,0,6.3,48.464c-1.7.389-2.89,2.572-2.89,4.088,0,2.929,3.766,5.559,9.243,6.159v1.166a1.265,1.265,0,0,0,1.263,1.263h3.114a1.227,1.227,0,0,0,1.225-1.225V58.37l.075-.019a30.612,30.612,0,0,0,43.3-25.663.9.9,0,1,0-1.789-.124,28.87,28.87,0,0,1-39.015,24.9,10.336,10.336,0,0,0,2.093-1.333A26.868,26.868,0,1,0,4.241,30.532a27.246,27.246,0,0,0,.156,2.88A8.473,8.473,0,0,0,6.319,40.9a27.082,27.082,0,0,0,6.339,9.157V51.4a11.669,11.669,0,0,1-3.151-1.8ZM32,5.479A25.1,25.1,0,0,1,56.16,29.636H33.152A1.151,1.151,0,0,1,32,28.487Zm-1.794,0V28.487a2.946,2.946,0,0,0,2.943,2.943H56.16A25.1,25.1,0,0,1,24.334,54.678a9.655,9.655,0,0,0,1.93-4.922c.667-5.909-2.521-8.849-8-11.063V32.525c1.957.445,2.828,1.592,4.3,1.482,2.033-.144,2.913-2.546,2.958-3.94.114-3.093-4.165-4.021-7.263-4.32V24.373A1.059,1.059,0,0,0,17.2,23.316h-3.47a1.064,1.064,0,0,0-.11.006,1.076,1.076,0,0,0-.965,1.069v1.591A11.343,11.343,0,0,0,6.049,29.7,25.1,25.1,0,0,1,30.21,5.479ZM9.508,43.264a29.438,29.438,0,0,0,3.15,1.4v2.837a25.443,25.443,0,0,1-3.15-4.242Zm3.744,10.171a.9.9,0,0,0,1.2-.847V44.054a.9.9,0,0,0-.574-.837c-4.3-1.658-7.854-3.395-7.854-7.873,0-4.6,3.116-6.911,7.68-7.745l.012,0a.9.9,0,0,0,.736-.883V25.109h2.016v1.464a.9.9,0,0,0,.834.894c1.85.129,6.431.661,6.431,2.489,0,.672-.536,2.543-1.644,2.219a15.286,15.286,0,0,0-4.448-1.594.93.93,0,0,0-.852.175.9.9,0,0,0-.32.687V39.3a.9.9,0,0,0,.57.835c4.636,1.81,7.509,3.821,7.509,8.249a8.041,8.041,0,0,1-2.444,6.07,9.856,9.856,0,0,1-4.933,2.322.9.9,0,0,0-.7.876v1.693H14.451V57.892A.9.9,0,0,0,13.618,57c-5.333-.38-8.41-2.7-8.41-4.445,0-.9.911-2.356,1.632-2.356.812,0,2.494,1.759,4.5,2.618a12.788,12.788,0,0,0,1.915.62Zm0,0" transform="translate(0 0)"/>
    </g>
  </g>
</svg>
