<svg xmlns="http://www.w3.org/2000/svg" xmlns:xlink="http://www.w3.org/1999/xlink" width="295" height="184" viewBox="0 0 295 184">
  <defs>
    <clipPath id="clip-path">
      <rect id="Rect치ngulo_421690" data-name="Rect치ngulo 421690" width="295" height="184" transform="translate(285 3470)" fill="#fff" stroke="#707070" stroke-width="1"/>
    </clipPath>
  </defs>
  <g id="Enmascarar_grupo_1211499" data-name="Enmascarar grupo 1211499" transform="translate(-285 -3470)" clip-path="url(#clip-path)">
    <g id="Grupo_1225403" data-name="Grupo 1225403">
      <rect id="Rect치ngulo_421687" data-name="Rect치ngulo 421687" width="162" height="176" transform="translate(370 3478)" fill="#86b60c"/>
      <g id="Grupo_1225333" data-name="Grupo 1225333" transform="translate(267.063 2823.092)">
        <path id="Trazado_1175482" data-name="Trazado 1175482" d="M328.192,822.33c-.634-.906-12.318-1.63-12.318-1.63l-1.449,6.34,9.329-.543L323.935,837l-10.235.272.906,6.431s14.13,0,14.492-.544S328.826,823.236,328.192,822.33Z" transform="translate(-26.357 -15.968)" fill="#ffc145"/>
        <path id="Trazado_1175483" data-name="Trazado 1175483" d="M256.9,758.2c-15.489-14.13-55.433-18.3-55.433-18.3s-37.589,15.489-48.911,26.811S130,825.042,130,825.042l17.391,14.13H282.35c6.069-51.266-25.361-80.885-25.361-80.885Z" transform="translate(-9.046 -8.354)" fill="#3a78dd"/>
        <g id="Grupo_1225330" data-name="Grupo 1225330" transform="translate(120.863 733.267)">
          <path id="Trazado_1175484" data-name="Trazado 1175484" d="M171.2,756.564c10.6,1.812,31.974,2.989,40.941-3.442,6.974-4.982-1.54-8.061-10.96-11.322-6.431,2.808-19.2,8.6-29.981,14.673Z" transform="translate(-133.792 -741.8)" fill="#2553ba"/>
          <path id="Trazado_1175485" data-name="Trazado 1175485" d="M265.856,842.182l-9.963-8.876c-12.5-15.76-15.036-29.437-15.217-30.343,0,.543.906,5.344-.181,4.257s-4.348-20.108-4.891-20.833,3.17,19.112,2.808,20.651-1.9.906-1.9.906-7.88-15.4-8.424-15.4,7.88,20.108,8.6,21.557c.725,1.54.543,17.3.543,17.3l-50.632-7.88s-6.34-7.7-6.974-12.59.906-23.278.362-23.1-1.359,18.387-1.9,17.844-7.518-18.387-7.7-17.844-12.952-9.329-20.38-15.036c-10.416,14.945-20.108,55.252-20.108,55.252l17.391,14.13H265.856Z" transform="translate(-129.9 -744.721)" fill="#2553ba"/>
        </g>
        <path id="Trazado_1175486" data-name="Trazado 1175486" d="M171.47,823.041s17.119-4.619,19.383-3.17c2.355,1.449,9.511,14.764,9.511,14.764l-.272,10.96-31.792-3.8,3.17-18.84Z" transform="translate(-12.655 -15.864)" fill="#ffb290"/>
        <path id="Trazado_1175487" data-name="Trazado 1175487" d="M201.58,835.418s-.181-.362-.543-1c-1.721.181-3.532.453-3.714.272-.181-.362-3.261-6.25-3.985-5.887-.815.362,3.351,6.34,3.351,6.34s-3.351,1.359-3.985,1.449-4.348-8.333-5.163-7.608c-.815.815,3.8,7.337,3.714,8.242s-4.348,2.083-4.348,2.083L181.2,827.9l3.8,16.576,16.3,1.9Z" transform="translate(-13.871 -16.647)" fill="#f88868"/>
        <path id="Trazado_1175488" data-name="Trazado 1175488" d="M276.211,818.9c-11.141-.362-25.543,13.677-26.448,14.4l-.362,13.224h46.828C297.949,831.761,287.352,819.262,276.211,818.9Z" transform="translate(-20.298 -15.798)" fill="#ffb290"/>
        <path id="Trazado_1175489" data-name="Trazado 1175489" d="M278.756,819.2a26.99,26.99,0,0,1,.453,4.8c0,10.054-5.706,18.206-12.681,18.206s-10.507-5.344-12.137-12.771c-2.536,2.083-4.257,3.714-4.529,3.895l-.362,13.224h46.828c1.63-13.677-7.337-25.362-17.572-27.354Z" transform="translate(-20.307 -15.827)" fill="#f88868"/>
        <path id="Trazado_1175490" data-name="Trazado 1175490" d="M248.5,831.071a3.787,3.787,0,0,1-4.619.634l-4.529-3.895s-13.224-4.529-17.119-3.623-13.5,15.307-13.5,15.307l-1.54,7.518h46.285L248.5,831.071Z" transform="translate(-16.321 -16.286)" fill="#ffb290"/>
        <path id="Trazado_1175491" data-name="Trazado 1175491" d="M232.28,844.546l-2.174-2.717.725-1.993s-2.355-.725-2.9-1-2.174-4.348-2.174-4.891,1.178-1.178,1-1.63-2.174-1-2.174-1-1.9-3.714-3.351-6.522c-4.348,2.536-12.59,14.945-12.59,14.945l-1.54,7.518h45.107l-20.017-2.536Z" transform="translate(-16.312 -16.355)" fill="#f88868"/>
        <path id="Trazado_1175492" data-name="Trazado 1175492" d="M213.781,840.891H74.927l-3.985-2.9S55,768.882,58.352,763.176c3.442-5.706,95.74-5.163,99.906,0,2.989,3.8,17.119,70.74,17.119,70.74l38.4,1.087a2.909,2.909,0,0,1,2.717,2.083h0a2.89,2.89,0,0,1-2.717,3.714Z" transform="translate(-2.251 -10.163)" fill="#fffcc5"/>
        <path id="Trazado_1175493" data-name="Trazado 1175493" d="M95.592,680.2H38.62a4.47,4.47,0,0,0-4.529,5.525l9.058,48.006a6.952,6.952,0,0,0,6.612,5.525h56.973a4.47,4.47,0,0,0,4.529-5.525L102.2,685.725A6.952,6.952,0,0,0,95.592,680.2Z" transform="translate(0 -2.729)" fill="#f43482"/>
        <g id="Grupo_1225331" data-name="Grupo 1225331" transform="translate(41.156 677.471)">
          <path id="Trazado_1175494" data-name="Trazado 1175494" d="M108.4,686.6l-8.6,40.85,17.481,9.42a4.752,4.752,0,0,0,.091-2.536Z" transform="translate(-47.356 -680.803)" fill="#ff5596"/>
          <path id="Trazado_1175495" data-name="Trazado 1175495" d="M58.2,680.2,41.9,723.043l1.993,10.688a6.952,6.952,0,0,0,6.612,5.525H75.232c3.714-13.224,13.134-43.839,17.844-59.056H58.2Z" transform="translate(-41.9 -680.2)" fill="#ff5596"/>
        </g>
        <path id="Trazado_1175496" data-name="Trazado 1175496" d="M152.414,702.5H124.969a2.144,2.144,0,0,0-2.174,2.627l4.348,23.188a3.376,3.376,0,0,0,3.17,2.627h27.445a2.144,2.144,0,0,0,2.174-2.627l-4.348-23.188A3.376,3.376,0,0,0,152.414,702.5Z" transform="translate(-8.363 -4.83)" fill="#c4c02c"/>
        <path id="Trazado_1175497" data-name="Trazado 1175497" d="M316.964,846.2H285.987L284.9,815.762a176.707,176.707,0,0,1,30.253.634l1.9,29.8Z" transform="translate(-23.643 -15.469)" fill="#ffd45a"/>
        <path id="Trazado_1175498" data-name="Trazado 1175498" d="M312.616,842.511c-.906.362-14.221-1.087-18.478-2.808-3.08-1.268-5.525-15.76-6.7-24a23.733,23.733,0,0,0-2.536.091l1.087,30.434h30.977l-1-16.3c-1.449,6.522-2.9,12.5-3.351,12.681Z" transform="translate(-23.643 -15.497)" fill="#ffc145"/>
        <path id="Trazado_1175499" data-name="Trazado 1175499" d="M226.408,743.388c0-.815-5.253-27.988-5.253-27.988l-29.437,10.688L189,746.105s6.34,6.612,19.474,7.156c13.224.543,17.844-9.873,17.844-9.873Z" transform="translate(-14.606 -6.046)" fill="#f96d61"/>
        <path id="Trazado_1175500" data-name="Trazado 1175500" d="M223.452,716.5c-3.532,14.221-9.148,27.988-12.952,36.774h.091c13.224.543,17.844-9.873,17.844-9.873C228.434,742.677,224.358,721.572,223.452,716.5Z" transform="translate(-16.632 -6.149)" fill="#ffb290"/>
        <path id="Trazado_1175501" data-name="Trazado 1175501" d="M184.169,696.13c-4.8-11.232-11.866-21.648-12.681-21.648s2.9-10.688,3.985-11.232c1.087-.634,3.532,1.177,3.532,1.177s-1.449-4.438,1-5.887,9.42-2.627,9.42-2.627-.453-3.533,1.54-4.167c1.9-.634,14.583-1.449,22.191,2.989S227.011,666.6,227.011,666.6v3.261c-.091,0,2.717-2.083,3.985-.634,1.359,1.449,3.08,7.156,3.261,8.877.181,1.812-2.9,10.96-2.9,10.96s2.536-.634,2.989.272,0,7.156-1.178,9.511-11.413,21.92-11.413,21.92c-5.072-23.1-23.278-20.742-37.68-24.637Z" transform="translate(-12.945 0)" fill="#9b384b"/>
        <path id="Trazado_1175502" data-name="Trazado 1175502" d="M217.5,701.2c1.177-6.159,3.261-20.2,3.623-21.738.181-.725,5.978-6.34,7.971-10.6a8.2,8.2,0,0,0-2.174,1V666.6c.091,0,0-.181-.362-.634-4.619,6.612-10.145,18.75-10.6,19.927-.543,1.54-16.666-13.949-16.666-13.949l-3.532-9.51s-4.076-6.069-5.253-10.235a4.579,4.579,0,0,0-1,3.17c1.63,1.721,5.978,8.7,6.069,10.326.362,4.62-11.866,3.8-11.866,3.8a19.892,19.892,0,0,0-4.8-5.163.938.938,0,0,0,.091.362s-2.446-1.812-3.532-1.177-4.8,11.232-3.985,11.232,7.88,10.326,12.681,21.648c14.4,3.8,32.608,1.449,37.68,24.637,0,0,2.174-4.167,4.619-8.877-2.717-1.54-9.963-5.706-8.967-10.688Z" transform="translate(-12.945 -0.09)" fill="#771e38"/>
        <path id="Trazado_1175503" data-name="Trazado 1175503" d="M175.664,734.663c6.884,5.525,29.709,3.8,34.6.272,4.982-3.533,10.416-23.912,10.416-23.912s-5.253,0-4.982-3.8,3.8-23.369,3.532-25-10.688-7.427-13.224-7.7c-2.446-.272-8.877,2.174-10.688.543-2.627-2.264-12.59-3.351-12.409-.815,0,0,2.264,2.174,1.178,4.619s-4.167,1.177-4.438,2.264.272,14.039.543,16.485,1.63,9.329,1.63,10.145-7.7,25.814-6.34,26.9Z" transform="translate(-13.317 -2.03)" fill="#ffb290"/>
        <path id="Trazado_1175504" data-name="Trazado 1175504" d="M222.891,714.244c-.272-.906,1.177-17.662,6.431-16.847,4.438.634,5.8,3.714,4.167,8.6-1.721,5.344-9.692,11.322-9.692,11.322l-1-3.08Z" transform="translate(-17.791 -4.346)" fill="#ffb290"/>
        <path id="Trazado_1175505" data-name="Trazado 1175505" d="M190.2,731.631l.634-9.782s14.673-1.54,15.126-1.449,0,9.148-.091,9.782-2.808,2.355-2.808,2.355c-5.163,1.087-9.6,1.087-12.771-.906Z" transform="translate(-14.719 -6.516)" fill="#5b1a2a"/>
        <path id="Trazado_1175506" data-name="Trazado 1175506" d="M248.191,832.385c3.261,2.083,5.435,15.126,5.435,15.126h9.692s-1.721-11.05-8.6-17.844a5.481,5.481,0,0,0-6.612,2.717Z" transform="translate(-20.175 -16.784)" fill="#fffcc5"/>
        <path id="Trazado_1175507" data-name="Trazado 1175507" d="M250.9,836.615a56.8,56.8,0,0,1,2.9,10.688,84.01,84.01,0,0,0,9.511-.725,42.452,42.452,0,0,0-4.076-10.779c-2.9.181-6.884.543-8.333.815Z" transform="translate(-20.439 -17.391)" fill="#f7d7a9"/>
        <path id="Trazado_1175508" data-name="Trazado 1175508" d="M254.828,845.778c-.362-.181-3.985-10.326-3.532-10.779s7.7-1.177,8.152-.906c.362.272,4.348,10.416,4.167,10.869-.272.453-8.242,1.087-8.7.815Z" transform="translate(-20.473 -17.225)" fill="#562448"/>
        <path id="Trazado_1175509" data-name="Trazado 1175509" d="M154.174,766.155s-61.049-7.971-96.374.815c0,15.126,13.043,71.374,13.043,71.374l3.985,2.9h95.74l-16.394-75.088Z" transform="translate(-2.243 -10.516)" fill="#f9e1a2"/>
        <g id="Grupo_1225332" data-name="Grupo 1225332" transform="translate(74.76 752.294)">
          <path id="Trazado_1175510" data-name="Trazado 1175510" d="M126.553,763.525a347.391,347.391,0,0,0-35.325-.453L79,841.24h31.611l15.851-77.715Z" transform="translate(-79 -762.807)" fill="#f7d394"/>
          <path id="Trazado_1175511" data-name="Trazado 1175511" d="M163.569,766.472s-.815-.09-2.174-.272L157.5,813.3l17.844,6.974-11.775-53.712Z" transform="translate(-86.397 -763.127)" fill="#f7d394"/>
          <path id="Trazado_1175512" data-name="Trazado 1175512" d="M142.655,764.472c-1.087,0-2.174-.181-3.261-.272-3.442,23.1-8.6,57.607-11.594,77.171h2.536Z" transform="translate(-83.599 -762.939)" fill="#f7d394"/>
        </g>
        <path id="Trazado_1175513" data-name="Trazado 1175513" d="M127.347,804.18c-.543-4.348-4.982-7.88-9.873-7.88s-8.424,3.533-7.88,7.88,4.982,7.88,9.873,7.88S127.891,808.528,127.347,804.18Z" transform="translate(-7.118 -13.669)" fill="#eabe78"/>
        <path id="Trazado_1175514" data-name="Trazado 1175514" d="M224.971,713.317a24.714,24.714,0,0,1,2.174-5.8s-1.721,4.257.453,2.717,2.446-7.156,2.446-7.156a5.665,5.665,0,0,1,2.536.725c-.272-1.54-1.359-2.536-3.351-2.808-3.714-.543-4.619,11.141-4.529,11.775l.181.544Z" transform="translate(-17.97 -4.687)" fill="#f96d61"/>
        <path id="Trazado_1175515" data-name="Trazado 1175515" d="M192.772,727.9A102.423,102.423,0,0,0,206,726.453c0-2.536.091-5.163-.091-5.253-.272-.091-9.511.815-13.405,1.268l.272,5.435Z" transform="translate(-14.936 -6.592)" fill="#fff"/>
        <path id="Trazado_1175516" data-name="Trazado 1175516" d="M199.407,737.947c-3.351,1.359-8.6-.815-3.714-1.178S204.026,736.045,199.407,737.947Z" transform="translate(-15.049 -8.032)" fill="#f96d61"/>
        <path id="Trazado_1175517" data-name="Trazado 1175517" d="M190.591,716.136a14.854,14.854,0,0,0,8.152.815,23.293,23.293,0,0,0,3.714-1.9l-.543-1.721-3.714-1.54-.272-15.489-3.623.453-1.9,14.221-1.9,5.163Z" transform="translate(-14.747 -4.246)" fill="#f88868"/>
        <path id="Trazado_1175518" data-name="Trazado 1175518" d="M210.029,703c0-2.083-1-3.8-2.264-3.8s-2.264,1.721-2.264,3.8,1,3.8,2.264,3.8S210.029,705.088,210.029,703Z" transform="translate(-16.161 -4.519)" fill="#5b1a2a"/>
        <path id="Trazado_1175519" data-name="Trazado 1175519" d="M189.448,702.595c0-2.174-1-3.895-2.174-3.895s-2.174,1.721-2.174,3.895,1,3.895,2.174,3.895S189.448,704.769,189.448,702.595Z" transform="translate(-14.239 -4.472)" fill="#5b1a2a"/>
        <path id="Trazado_1175520" data-name="Trazado 1175520" d="M178.887,696.124a53.87,53.87,0,0,0,9.873-1.54l-.543-6.884-3.17.815-.543,1.54-1.54-1.268s-5.163,1.993-5.163,2.536,1.178,4.71,1.178,4.71Z" transform="translate(-13.551 -3.435)" fill="#9b384b"/>
        <path id="Trazado_1175521" data-name="Trazado 1175521" d="M198,693.4c7.7,2.9,12.862,2.174,12.862,2.174l1.54-4.257-2.264-.453-1,1.178-.181-2.9-10.145-1.54L198,693.487Z" transform="translate(-15.454 -3.426)" fill="#9b384b"/>
        <path id="Trazado_1175522" data-name="Trazado 1175522" d="M136.889,718.916a8.093,8.093,0,0,1-1.449-.815,7.306,7.306,0,0,1-2.083-2.717c-.091-.272-.181-.634-.272-.906a8.53,8.53,0,0,1-.091-2.627,3.135,3.135,0,0,1,1.721-2.355,3.854,3.854,0,0,1,1-.181,5.7,5.7,0,0,1,2.536.725,4.294,4.294,0,0,1,1.087,1.177,8.264,8.264,0,0,0,.725,1.177,13.384,13.384,0,0,1,.815,2.536,8.292,8.292,0,0,1,.362,2.355,2.425,2.425,0,0,1-2.446,1.812,4.045,4.045,0,0,1-1.721-.181Zm1.087-2.083a1.022,1.022,0,0,0,.272-1,2.507,2.507,0,0,0-.091-.815,16.321,16.321,0,0,0-.725-1.9c-.272-.181-.362-.634-.815-.815h-.272c-.362,0-.543.272-.634.634a7.745,7.745,0,0,0,0,1.449c.091.453.272.906.362,1.268a1.922,1.922,0,0,0,.906,1.177h1Zm8.333-8.333c.181,0,.272,0,.272.272a1.258,1.258,0,0,1-.181,1c-.091.362-.453.725-.543,1.177-.453,1-.543,1.993-1,2.717-.634,1.54-1.359,3.17-1.993,4.891-.815,1.812-1.449,3.714-2.174,5.706-.181.362,0,.725-.362,1.177-.181.181-.815.181-1.177.181s-.453,0-.272-.181c0-.181.091-.453,0-.634a2.309,2.309,0,0,1,.543-1.177c.815-1.993,1.54-4.167,2.264-6.069.815-1.993,1.54-3.895,2.355-5.706.181-.725.634-1.721.815-2.536.181-.181,0-.544.453-.815h.906Zm5.616,12.681c.091.544.181,1,.272,1.54a2.928,2.928,0,0,1-.543,2.174,2.694,2.694,0,0,1-1.812,1.087,7.968,7.968,0,0,1-1.268-.091,4.9,4.9,0,0,1-2.989-1.9,9.881,9.881,0,0,1-1.359-3.17,5.409,5.409,0,0,1,.091-3.17,2.579,2.579,0,0,1,2.355-1.63h.362a4.92,4.92,0,0,1,3.08,1.449,5.615,5.615,0,0,1,1.178,1.721,12.829,12.829,0,0,1,.634,1.993Zm-2.264.272c-.181-.634-.362-1.268-.543-1.721-.181-.634-.634-1.721-1.449-1.721a1.509,1.509,0,0,0-1.268,1.812,3.989,3.989,0,0,0,.181,1.449,4.736,4.736,0,0,0,.543,1.449,2.1,2.1,0,0,0,1.54,1.359c1.087,0,1-1,1.087-1.721a2.508,2.508,0,0,0-.091-.815Z" transform="translate(-9.323 -5.395)" fill="#fffcc5"/>
        <path id="Trazado_1175523" data-name="Trazado 1175523" d="M102.855,736.344H53.22a6.65,6.65,0,0,1-6.25-5.253l-7.88-41.846a4.307,4.307,0,0,1,.906-3.8,4.457,4.457,0,0,1,3.532-1.54H93.164a6.65,6.65,0,0,1,6.25,5.253L107.294,731a4.308,4.308,0,0,1-.906,3.8A4.457,4.457,0,0,1,102.855,736.344ZM43.437,684.806a3.392,3.392,0,0,0-3.532,4.167l7.88,41.846a5.59,5.59,0,0,0,5.253,4.438h49.636a3.392,3.392,0,0,0,3.532-4.166l-7.88-41.846a5.59,5.59,0,0,0-5.253-4.438H43.437Z" transform="translate(-0.47 -3.077)" fill="#fffcc5"/>
        <path id="Trazado_1175524" data-name="Trazado 1175524" d="M62.964,711.119l8.333,5.435a.977.977,0,0,0,1,0l3.08-4.71,10.6,7.065A.684.684,0,0,0,86.7,719a.485.485,0,0,0,.453-.453l8.877-21.285,1.087,3.895a1.014,1.014,0,0,0,.725.634h.181a.612.612,0,0,0,.543-.815l-1.812-6.431c0-.272-.272-.453-.543-.543a1.766,1.766,0,0,0-.725.091l-4.8,3.895a.641.641,0,0,0,0,1,.833.833,0,0,0,1.087.091l2.717-2.264-8.6,20.38L75.554,710.3a.8.8,0,0,0-1,0l-3.17,4.71-8.333-5.435a.752.752,0,0,0-1.087.181L48.2,729.144l.362,2.174L62.873,711.21Z" transform="translate(-1.338 -4.029)" fill="#fffcc5"/>
        <path id="Trazado_1175525" data-name="Trazado 1175525" d="M309.191,818.1a18.471,18.471,0,0,1,5.887.815s.634,13.858.091,13.768c-.543-.181-6.069-14.583-6.069-14.583Z" transform="translate(-25.924 -15.721)" fill="#ffec9c"/>
        <path id="Trazado_1175526" data-name="Trazado 1175526" d="M328.89,822.368c-.362-.543-4.438-1-7.79-1.268l.453,3.623s4.348,0,4.529.362c0,.272,1.721,11.684,2.627,18.387a2.489,2.489,0,0,0,1.177-.181c.362-.543-.272-19.927-.906-20.833Z" transform="translate(-27.054 -16.006)" fill="#ffd45a"/>
        <path id="Trazado_1175527" data-name="Trazado 1175527" d="M255.825,844.3a72.652,72.652,0,0,1-3.442-9.6c-.634.091-1,.181-1.087.362-.453.453,3.17,10.6,3.532,10.779.453.272,8.424-.362,8.7-.815a2.99,2.99,0,0,0-.272-1.177,42.087,42.087,0,0,1-7.427.453Z" transform="translate(-20.473 -17.288)" fill="#3f1936"/>
        <path id="Trazado_1175528" data-name="Trazado 1175528" d="M212.5,762.113c10.507,1,19.927-11.413,18.84-11.413A43.187,43.187,0,0,1,212.5,762.113Z" transform="translate(-16.821 -9.372)" fill="#2553ba"/>
        <path id="Trazado_1175529" data-name="Trazado 1175529" d="M201.4,765.536l.181.453C213.9,770.88,225.946,763,225.946,763c-8.514,2.627-16.938,4.8-24.546,2.536Z" transform="translate(-15.775 -10.531)" fill="#2553ba"/>
      </g>
    </g>
  </g>
</svg>
