<svg xmlns="http://www.w3.org/2000/svg" xmlns:xlink="http://www.w3.org/1999/xlink" width="106.16" height="106.16" viewBox="0 0 106.16 106.16">
  <defs>
    <filter id="Trazado_982547" x="0" y="0" width="106.16" height="106.16" filterUnits="userSpaceOnUse">
      <feOffset dy="3" input="SourceAlpha"/>
      <feGaussianBlur stdDeviation="3" result="blur"/>
      <feFlood flood-opacity="0.161"/>
      <feComposite operator="in" in2="blur"/>
      <feComposite in="SourceGraphic"/>
    </filter>
  </defs>
  <g id="Grupo_1225202" data-name="Grupo 1225202" transform="translate(-190 -920)">
    <g id="Grupo_1224990" data-name="Grupo 1224990" transform="translate(-1 -803)">
      <g id="Grupo_1206130" data-name="Grupo 1206130" transform="translate(0 -59)">
        <g id="Grupo_1203672" data-name="Grupo 1203672" transform="translate(0.08 -4797.878)">
          <g id="Grupo_1203344" data-name="Grupo 1203344" transform="translate(-81.08 5174.875)">
            <g id="Grupo_1177900" data-name="Grupo 1177900" transform="translate(281 1411.003)">
              <g id="Grupo_1172010" data-name="Grupo 1172010" transform="translate(0)">
                <g id="Grupo_1171046" data-name="Grupo 1171046">
                  <g id="Grupo_1148525" data-name="Grupo 1148525">
                    <g transform="matrix(1, 0, 0, 1, -9, -6)" filter="url(#Trazado_982547)">
                      <g id="Trazado_982547-2" data-name="Trazado 982547" transform="translate(9 6)" fill="#e9f9fd">
                        <path d="M 44.0802001953125 86.660400390625 C 38.33124923706055 86.660400390625 32.75506210327148 85.53479766845703 27.50652503967285 83.31484985351562 C 22.43628692626953 81.17032623291016 17.88242530822754 78.09992218017578 13.97144985198975 74.18894958496094 C 10.06047534942627 70.27797698974609 6.99007511138916 65.72411346435547 4.845550060272217 60.65387344360352 C 2.625600099563599 55.40533828735352 1.500000238418579 49.82915115356445 1.500000238418579 44.0802001953125 C 1.500000238418579 38.33124923706055 2.625600099563599 32.75506210327148 4.845550060272217 27.50652503967285 C 6.99007511138916 22.43628692626953 10.06047534942627 17.88242530822754 13.97144985198975 13.97144985198975 C 17.88242530822754 10.06047534942627 22.43628692626953 6.99007511138916 27.50652503967285 4.845550060272217 C 32.75506210327148 2.625600099563599 38.33124923706055 1.500000238418579 44.0802001953125 1.500000238418579 C 49.82915115356445 1.500000238418579 55.40533828735352 2.625600099563599 60.65387344360352 4.845550060272217 C 65.72411346435547 6.99007511138916 70.27797698974609 10.06047534942627 74.18894958496094 13.97144985198975 C 78.09992218017578 17.88242530822754 81.17032623291016 22.43628692626953 83.31484985351562 27.50652503967285 C 85.53479766845703 32.75506210327148 86.660400390625 38.33124923706055 86.660400390625 44.0802001953125 C 86.660400390625 49.82915115356445 85.53479766845703 55.40533828735352 83.31484985351562 60.65387344360352 C 81.17032623291016 65.72411346435547 78.09992218017578 70.27797698974609 74.18894958496094 74.18894958496094 C 70.27797698974609 78.09992218017578 65.72411346435547 81.17032623291016 60.65387344360352 83.31484985351562 C 55.40533828735352 85.53479766845703 49.82915115356445 86.660400390625 44.0802001953125 86.660400390625 Z" stroke="none"/>
                        <path d="M 44.0802001953125 3 C 38.53308486938477 3 33.15349960327148 4.085746765136719 28.09085845947266 6.227058410644531 C 23.19941711425781 8.29595947265625 18.80581665039062 11.25841522216797 15.03211212158203 15.03211212158203 C 11.25841522216797 18.80581665039062 8.29595947265625 23.19941711425781 6.227058410644531 28.09085845947266 C 4.085746765136719 33.15349960327148 3 38.53308486938477 3 44.0802001953125 C 3 49.62731552124023 4.085746765136719 55.00691604614258 6.227058410644531 60.06954193115234 C 8.29595947265625 64.96098327636719 11.25841522216797 69.35458374023438 15.03211212158203 73.12828826904297 C 18.80581665039062 76.90198516845703 23.19941711425781 79.86444091796875 28.09085845947266 81.93334197998047 C 33.15349960327148 84.07466125488281 38.53308486938477 85.160400390625 44.0802001953125 85.160400390625 C 49.62731552124023 85.160400390625 55.00691604614258 84.07466125488281 60.06954193115234 81.93334197998047 C 64.96099853515625 79.86444091796875 69.35458374023438 76.90198516845703 73.12828826904297 73.12828826904297 C 76.90198516845703 69.35458374023438 79.86444091796875 64.96099853515625 81.93334197998047 60.06954193115234 C 84.07466125488281 55.00691604614258 85.160400390625 49.62731552124023 85.160400390625 44.0802001953125 C 85.160400390625 38.53308486938477 84.07466125488281 33.15349960327148 81.93334197998047 28.09085845947266 C 79.86444091796875 23.19941711425781 76.90198516845703 18.80581665039062 73.12828826904297 15.03211212158203 C 69.35458374023438 11.25841522216797 64.96098327636719 8.29595947265625 60.06954193115234 6.227058410644531 C 55.00691604614258 4.085746765136719 49.62731552124023 3 44.0802001953125 3 M 44.0802001953125 0 C 68.42502593994141 0 88.160400390625 19.73538970947266 88.160400390625 44.0802001953125 C 88.160400390625 68.42502593994141 68.42502593994141 88.160400390625 44.0802001953125 88.160400390625 C 19.73538970947266 88.160400390625 0 68.42502593994141 0 44.0802001953125 C 0 19.73538970947266 19.73538970947266 0 44.0802001953125 0 Z" stroke="none" fill="#1d7083"/>
                      </g>
                    </g>
                  </g>
                </g>
              </g>
            </g>
          </g>
        </g>
      </g>
    </g>
    <g id="economico_1_" data-name="economico (1)" transform="translate(201 928)">
      <path id="Trazado_1175045" data-name="Trazado 1175045" d="M87.716,43.843a19.858,19.858,0,0,1-39.716,0q0-.873.074-1.727a19.858,19.858,0,0,1,39.641,1.727Z" transform="translate(-28.546 -7.122)" fill="#9ce6ed"/>
      <path id="Trazado_1175046" data-name="Trazado 1175046" d="M244.721,85.161a19.844,19.844,0,0,1-9.435,16.905l-4.38-4.818V90.341h-3.454L224,85.161l3.454-2.59h4.317l2.59-3.454L232.634,74.8l5.4-4.5A19.811,19.811,0,0,1,244.721,85.161Z" transform="translate(-185.552 -48.44)" fill="#02c26a"/>
      <rect id="Rectángulo_421625" data-name="Rectángulo 421625" width="6.556" height="8.195" transform="translate(46.322 57.796)" fill="#4367e0"/>
      <rect id="Rectángulo_421626" data-name="Rectángulo 421626" width="7.376" height="15.571" transform="translate(52.879 50.42)" fill="#4976f2"/>
      <rect id="Rectángulo_421627" data-name="Rectángulo 421627" width="6.556" height="23.766" transform="translate(60.254 42.225)" fill="#548aff"/>
      <path id="Trazado_1175047" data-name="Trazado 1175047" d="M114.082,25.614l-6.147,6.147v5.18l-5.18,3.454L99.3,36.942H94.984V33.488l-3.994-2.4a19.875,19.875,0,0,1,23.092-5.477Z" transform="translate(-66.897 -7.128)" fill="#02c26a"/>
      <path id="Trazado_1175048" data-name="Trazado 1175048" d="M65.268,199.771l-3.454,2.59v10.287A19.866,19.866,0,0,1,48,193.727q0-.873.074-1.727H53.18l2.59,3.454h6.907Z" transform="translate(-28.546 -157.006)" fill="#02c26a"/>
      <path id="Trazado_1175049" data-name="Trazado 1175049" d="M32.634,257.727c0-.954-1.933-1.727-4.317-1.727S24,256.773,24,257.727v21.585c0,.954,1.933,1.727,4.317,1.727s4.317-.773,4.317-1.727Z" transform="translate(-7.137 -214.098)" fill="#ffc431"/>
      <ellipse id="Elipse_12636" data-name="Elipse 12636" cx="4.507" cy="1.639" rx="4.507" ry="1.639" transform="translate(16.82 42.225)" fill="#ffd873"/>
      <path id="Trazado_1175050" data-name="Trazado 1175050" d="M112.634,337.727c0-.954-1.933-1.727-4.317-1.727s-4.317.773-4.317,1.727v12.951c0,.954,1.933,1.727,4.317,1.727s4.317-.773,4.317-1.727Z" transform="translate(-78.503 -285.465)" fill="#ffc431"/>
      <ellipse id="Elipse_12637" data-name="Elipse 12637" cx="4.098" cy="1.639" rx="4.098" ry="1.639" transform="translate(25.834 50.42)" fill="#ffd873"/>
      <path id="Trazado_1175051" data-name="Trazado 1175051" d="M192.634,377.727c0-.954-1.933-1.727-4.317-1.727s-4.317.773-4.317,1.727v8.634c0,.954,1.933,1.727,4.317,1.727s4.317-.773,4.317-1.727Z" transform="translate(-149.869 -321.148)" fill="#ffc431"/>
      <ellipse id="Elipse_12638" data-name="Elipse 12638" cx="4.507" cy="2.049" rx="4.507" ry="2.049" transform="translate(34.03 54.518)" fill="#ffd873"/>
      <path id="Trazado_1175052" data-name="Trazado 1175052" d="M66.94,248H60.033a.863.863,0,0,0-.863.863v7.77H53.126a.863.863,0,0,0-.863.863v6.044H46.219a.863.863,0,0,0-.863.863v7.771H43.628v-8.634c0-.485-.235-1.394-1.807-2.023a10.309,10.309,0,0,0-6.746,0l-.08.033v-2.328c0-.485-.235-1.394-1.807-2.023a9.368,9.368,0,0,0-3.373-.568,9.369,9.369,0,0,0-3.373.568l-.08.033V250.59c0-.485-.235-1.394-1.807-2.023A9.368,9.368,0,0,0,21.18,248a9.368,9.368,0,0,0-3.373.568C16.235,249.2,16,250.1,16,250.59v21.585c0,.485.235,1.394,1.807,2.023a9.368,9.368,0,0,0,3.373.568,9.368,9.368,0,0,0,3.373-.568,4.161,4.161,0,0,0,.944-.512,4.161,4.161,0,0,0,.944.512,9.368,9.368,0,0,0,3.373.568,9.368,9.368,0,0,0,3.373-.568,4.161,4.161,0,0,0,.944-.512,4.161,4.161,0,0,0,.944.512,10.308,10.308,0,0,0,6.746,0,4.7,4.7,0,0,0,.614-.3h24.5a.863.863,0,0,0,.863-.863V248.863A.863.863,0,0,0,66.94,248ZM17.727,265.53l.08.033a9.367,9.367,0,0,0,3.373.568,9.368,9.368,0,0,0,3.373-.568l.08-.033v2.3c-.15.267-1.345.9-3.454.9s-3.3-.629-3.454-.9Zm0-4.317.08.033a9.367,9.367,0,0,0,3.373.568,9.369,9.369,0,0,0,3.373-.568l.08-.034v2.3c-.15.267-1.345.9-3.454.9s-3.3-.629-3.454-.9Zm0-4.317.08.033a9.368,9.368,0,0,0,3.373.568,9.368,9.368,0,0,0,3.373-.568l.08-.033v2.3c-.15.267-1.345.9-3.454.9s-3.3-.629-3.454-.9Zm0-4.317.08.033a9.368,9.368,0,0,0,3.373.568,9.368,9.368,0,0,0,3.373-.568l.08-.033v2.3c-.15.267-1.345.9-3.454.9s-3.3-.629-3.454-.9ZM29.814,264.4c-2.109,0-3.3-.629-3.454-.9v-2.3l.08.033a9.367,9.367,0,0,0,3.373.568,9.369,9.369,0,0,0,3.373-.568l.08-.034v2.3C33.118,263.776,31.923,264.4,29.814,264.4Zm-3.454,1.126.08.033a9.368,9.368,0,0,0,3.373.568,9.368,9.368,0,0,0,3.373-.568l.08-.033v2.3c-.15.267-1.345.9-3.454.9s-3.3-.629-3.454-.9Zm8.634,0,.08.033a10.308,10.308,0,0,0,6.746,0l.08-.033v2.3c-.15.267-1.345.9-3.454.9s-3.3-.629-3.454-.9Zm3.454-2.853c2.032,0,3.213.583,3.431.865-.224.283-1.407.862-3.431.862s-3.206-.579-3.431-.862C35.236,263.26,36.416,262.678,38.448,262.678Zm-8.634-4.317c2.032,0,3.213.583,3.431.865-.224.283-1.407.862-3.431.862s-3.21-.581-3.432-.863C26.6,258.942,27.787,258.361,29.814,258.361Zm-8.634-8.634c2.032,0,3.213.583,3.431.865-.225.283-1.407.862-3.431.862s-3.206-.579-3.431-.862C17.968,250.31,19.149,249.727,21.18,249.727Zm0,23.311c-2.105,0-3.3-.627-3.454-.895v-2.3l.08.033a9.367,9.367,0,0,0,3.373.568,9.368,9.368,0,0,0,3.373-.568l.08-.033v2.3C24.48,272.411,23.286,273.038,21.18,273.038Zm8.634,0c-2.109,0-3.3-.629-3.454-.9v-2.3l.08.033a9.367,9.367,0,0,0,3.373.568,9.368,9.368,0,0,0,3.373-.568l.08-.033v2.3C33.114,272.411,31.919,273.038,29.814,273.038Zm8.634,0c-2.105,0-3.3-.627-3.454-.895v-2.3l.08.033a10.308,10.308,0,0,0,6.746,0l.08-.033v2.3C41.748,272.411,40.553,273.038,38.448,273.038Zm8.634-7.77h5.18v6.907h-5.18Zm6.907-6.907h5.18v13.814h-5.18ZM60.9,272.175V249.727h5.18v22.448Z" transform="translate(0 -206.962)"/>
      <rect id="Rectángulo_421628" data-name="Rectángulo 421628" width="1.639" height="1.639" transform="translate(38.127 50.42)"/>
      <path id="Trazado_1175053" data-name="Trazado 1175053" d="M256,178.995v1.727h4.317a.864.864,0,0,0,.611-.253l17.521-17.521v1.369h1.727v-3.454a.863.863,0,0,0-.863-.863h-3.454v1.727h1.369l-17.268,17.268Z" transform="translate(-214.098 -128.459)"/>
      <path id="Trazado_1175054" data-name="Trazado 1175054" d="M74.765,21.485A20.721,20.721,0,0,0,40,36.721a20.988,20.988,0,0,0,.175,2.7l1.712-.223a19.256,19.256,0,0,1-.16-2.479c0-.289.008-.577.02-.863h3.865l2.331,3.108a.863.863,0,0,0,.691.345h6.418l1.938,3.23L54.16,44.664a.863.863,0,0,0-.345.691v2.59h1.727V45.787l3.108-2.331a.863.863,0,0,0,.222-1.135L56.281,38a.863.863,0,0,0-.74-.419H49.066l-2.331-3.108a.863.863,0,0,0-.691-.345H41.9A18.9,18.9,0,0,1,45.711,25.1l2.923,1.754v2.965a.863.863,0,0,0,.863.863h3.959l3.2,3.2a.863.863,0,0,0,1.089.108l5.18-3.454a.863.863,0,0,0,.384-.718V24.991l5.473-5.472a18.951,18.951,0,0,1,3.764,2.338L67.939,25.7a.863.863,0,0,0-.249.984l1.547,3.866-2.04,2.72H63.312a.864.864,0,0,0-.518.173L59.34,36.03a.863.863,0,0,0-.2,1.17l3.454,5.18a.863.863,0,0,0,.718.384H65.9v5.18h1.727V41.9a.863.863,0,0,0-.863-.863H63.774l-2.744-4.116,2.57-1.927h4.029a.863.863,0,0,0,.691-.345l2.59-3.454a.863.863,0,0,0,.111-.839l-1.494-3.735,4.337-3.614a18.924,18.924,0,0,1,5.782,12.06l1.72-.148a20.653,20.653,0,0,0-6.6-13.436ZM61.838,24.023a.863.863,0,0,0-.253.611v4.718l-4.207,2.8L54.425,29.2a.863.863,0,0,0-.61-.253H50.361v-2.59a.863.863,0,0,0-.419-.74l-3.095-1.857a18.986,18.986,0,0,1,20.2-4.954Z" transform="translate(-21.41 0)"/>
    </g>
  </g>
</svg>
