<svg xmlns="http://www.w3.org/2000/svg" xmlns:xlink="http://www.w3.org/1999/xlink" width="106.16" height="106.16" viewBox="0 0 106.16 106.16">
  <defs>
    <filter id="Trazado_982547" x="0" y="0" width="106.16" height="106.16" filterUnits="userSpaceOnUse">
      <feOffset dy="3" input="SourceAlpha"/>
      <feGaussianBlur stdDeviation="3" result="blur"/>
      <feFlood flood-opacity="0.161"/>
      <feComposite operator="in" in2="blur"/>
      <feComposite in="SourceGraphic"/>
    </filter>
  </defs>
  <g id="Grupo_1225222" data-name="Grupo 1225222" transform="translate(-1030.42 -920)">
    <g id="Grupo_1224994" data-name="Grupo 1224994" transform="translate(-1 -803.069)">
      <g id="Grupo_1224861" data-name="Grupo 1224861">
        <g id="Grupo_1206133" data-name="Grupo 1206133" transform="translate(0 -58.931)">
          <g id="Grupo_1203662" data-name="Grupo 1203662" transform="translate(0 -4797.878)">
            <g id="Grupo_1203346" data-name="Grupo 1203346" transform="translate(759.42 5174.875)">
              <g id="Grupo_1177900" data-name="Grupo 1177900" transform="translate(281 1411.003)">
                <g id="Grupo_1172010" data-name="Grupo 1172010" transform="translate(0)">
                  <g id="Grupo_1171046" data-name="Grupo 1171046">
                    <g id="Grupo_1148525" data-name="Grupo 1148525">
                      <g transform="matrix(1, 0, 0, 1, -9, -6)" filter="url(#Trazado_982547)">
                        <g id="Trazado_982547-2" data-name="Trazado 982547" transform="translate(9 6)" fill="#e9f9fd">
                          <path d="M 44.0802001953125 86.660400390625 C 38.33124923706055 86.660400390625 32.75506210327148 85.53479766845703 27.50652503967285 83.31484985351562 C 22.43628692626953 81.17032623291016 17.88242530822754 78.09992218017578 13.97144985198975 74.18894958496094 C 10.06047534942627 70.27797698974609 6.99007511138916 65.72411346435547 4.845550060272217 60.65387344360352 C 2.625600099563599 55.40533828735352 1.500000238418579 49.82915115356445 1.500000238418579 44.0802001953125 C 1.500000238418579 38.33124923706055 2.625600099563599 32.75506210327148 4.845550060272217 27.50652503967285 C 6.99007511138916 22.43628692626953 10.06047534942627 17.88242530822754 13.97144985198975 13.97144985198975 C 17.88242530822754 10.06047534942627 22.43628692626953 6.99007511138916 27.50652503967285 4.845550060272217 C 32.75506210327148 2.625600099563599 38.33124923706055 1.500000238418579 44.0802001953125 1.500000238418579 C 49.82915115356445 1.500000238418579 55.40533828735352 2.625600099563599 60.65387344360352 4.845550060272217 C 65.72411346435547 6.99007511138916 70.27797698974609 10.06047534942627 74.18894958496094 13.97144985198975 C 78.09992218017578 17.88242530822754 81.17032623291016 22.43628692626953 83.31484985351562 27.50652503967285 C 85.53479766845703 32.75506210327148 86.660400390625 38.33124923706055 86.660400390625 44.0802001953125 C 86.660400390625 49.82915115356445 85.53479766845703 55.40533828735352 83.31484985351562 60.65387344360352 C 81.17032623291016 65.72411346435547 78.09992218017578 70.27797698974609 74.18894958496094 74.18894958496094 C 70.27797698974609 78.09992218017578 65.72411346435547 81.17032623291016 60.65387344360352 83.31484985351562 C 55.40533828735352 85.53479766845703 49.82915115356445 86.660400390625 44.0802001953125 86.660400390625 Z" stroke="none"/>
                          <path d="M 44.0802001953125 3 C 38.53308486938477 3 33.15349960327148 4.085746765136719 28.09085845947266 6.227058410644531 C 23.19941711425781 8.29595947265625 18.80581665039062 11.25841522216797 15.03211212158203 15.03211212158203 C 11.25841522216797 18.80581665039062 8.29595947265625 23.19941711425781 6.227058410644531 28.09085845947266 C 4.085746765136719 33.15349960327148 3 38.53308486938477 3 44.0802001953125 C 3 49.62731552124023 4.085746765136719 55.00691604614258 6.227058410644531 60.06954193115234 C 8.29595947265625 64.96098327636719 11.25841522216797 69.35458374023438 15.03211212158203 73.12828826904297 C 18.80581665039062 76.90198516845703 23.19941711425781 79.86444091796875 28.09085845947266 81.93334197998047 C 33.15349960327148 84.07466125488281 38.53308486938477 85.160400390625 44.0802001953125 85.160400390625 C 49.62731552124023 85.160400390625 55.00691604614258 84.07466125488281 60.06954193115234 81.93334197998047 C 64.96099853515625 79.86444091796875 69.35458374023438 76.90198516845703 73.12828826904297 73.12828826904297 C 76.90198516845703 69.35458374023438 79.86444091796875 64.96099853515625 81.93334197998047 60.06954193115234 C 84.07466125488281 55.00691604614258 85.160400390625 49.62731552124023 85.160400390625 44.0802001953125 C 85.160400390625 38.53308486938477 84.07466125488281 33.15349960327148 81.93334197998047 28.09085845947266 C 79.86444091796875 23.19941711425781 76.90198516845703 18.80581665039062 73.12828826904297 15.03211212158203 C 69.35458374023438 11.25841522216797 64.96098327636719 8.29595947265625 60.06954193115234 6.227058410644531 C 55.00691604614258 4.085746765136719 49.62731552124023 3 44.0802001953125 3 M 44.0802001953125 0 C 68.42502593994141 0 88.160400390625 19.73538970947266 88.160400390625 44.0802001953125 C 88.160400390625 68.42502593994141 68.42502593994141 88.160400390625 44.0802001953125 88.160400390625 C 19.73538970947266 88.160400390625 0 68.42502593994141 0 44.0802001953125 C 0 19.73538970947266 19.73538970947266 0 44.0802001953125 0 Z" stroke="none" fill="#1d7083"/>
                        </g>
                      </g>
                    </g>
                  </g>
                </g>
              </g>
            </g>
          </g>
        </g>
      </g>
    </g>
    <g id="comercio" transform="translate(1055.115 941.695)">
      <g id="Grupo_1225220" data-name="Grupo 1225220" transform="translate(1.883 1.883)">
        <g id="Grupo_1225212" data-name="Grupo 1225212" transform="translate(15.958 15.958)">
          <circle id="Elipse_12639" data-name="Elipse 12639" cx="10.526" cy="10.526" r="10.526" transform="translate(0 0)" fill="#69d6f4"/>
        </g>
        <g id="Grupo_1225213" data-name="Grupo 1225213" transform="translate(0 0)">
          <path id="Trazado_1175074" data-name="Trazado 1175074" d="M2,2H17.9V16.134H2Z" transform="translate(-2 -2)" fill="#d3a06c"/>
        </g>
        <g id="Grupo_1225214" data-name="Grupo 1225214" transform="translate(5.3 0)">
          <path id="Trazado_1175075" data-name="Trazado 1175075" d="M8,2h5.3V5.534H8Z" transform="translate(-8 -2)" fill="#b27946"/>
        </g>
        <g id="Grupo_1225215" data-name="Grupo 1225215" transform="translate(34.905 0.169)">
          <circle id="Elipse_12640" data-name="Elipse 12640" cx="8.947" cy="8.947" r="8.947" transform="translate(0 0)" fill="#fcd770"/>
        </g>
        <g id="Grupo_1225216" data-name="Grupo 1225216" transform="translate(38.87 32.686)">
          <path id="Trazado_1175076" data-name="Trazado 1175076" d="M56.6,43.072a4.111,4.111,0,0,1-.68,2.253l-1.087,1.625V45.4a1.767,1.767,0,0,0-.981-1.581L51.3,42.534l-2.553,1.281a1.767,1.767,0,0,0-.981,1.581v1.555L46.68,45.325A4.072,4.072,0,0,1,50.072,39h2.456A4.068,4.068,0,0,1,56.6,43.073Z" transform="translate(-46 -39)" fill="#656d78"/>
        </g>
        <g id="Grupo_1225217" data-name="Grupo 1225217" transform="translate(35.336 44.17)">
          <path id="Trazado_1175077" data-name="Trazado 1175077" d="M59.668,60.834H42a8.834,8.834,0,1,1,17.668,0Z" transform="translate(-42 -52)" fill="#b4dd7f"/>
        </g>
        <g id="Grupo_1225218" data-name="Grupo 1225218" transform="translate(40.637 36.22)">
          <path id="Trazado_1175078" data-name="Trazado 1175078" d="M55.067,47.417V48.3a2.647,2.647,0,0,1-2.65,2.65H50.65A2.647,2.647,0,0,1,48,48.3V45.862a1.767,1.767,0,0,1,.981-1.581L51.534,43l2.553,1.281a1.767,1.767,0,0,1,.981,1.581Z" transform="translate(-48 -43)" fill="#f0d0b4"/>
        </g>
        <g id="Grupo_1225219" data-name="Grupo 1225219" transform="translate(0 35.336)">
          <path id="Trazado_1175079" data-name="Trazado 1175079" d="M19.668,49.067V52.6l-2.235.742c-.053.133-.1.256-.159.38l1.06,2.111-2.5,2.5-2.111-1.06c-.124.062-.247.106-.38.159L12.6,59.668H9.067l-.742-2.235c-.133-.053-.256-.1-.38-.159l-2.111,1.06-2.5-2.5,1.06-2.111c-.062-.124-.106-.247-.159-.38L2,52.6V49.067l2.235-.742c.053-.133.1-.256.159-.38l-1.06-2.111,2.5-2.5,2.111,1.06c.124-.062.247-.106.38-.159L9.067,42H12.6l.742,2.235c.133.053.256.1.38.159l2.111-1.06,2.5,2.5-1.06,2.111c.062.124.106.247.159.38Zm-5.3,1.767a3.534,3.534,0,1,0-3.534,3.534A3.533,3.533,0,0,0,14.368,50.834Z" transform="translate(-2 -42)" fill="#fcd770"/>
        </g>
      </g>
      <g id="Grupo_1225221" data-name="Grupo 1225221" transform="translate(1 1)">
        <path id="Trazado_1175080" data-name="Trazado 1175080" d="M30.484,41.969A11.484,11.484,0,1,0,19,30.484,11.5,11.5,0,0,0,30.484,41.969Zm0-21.2c.95,0,1.961,1.349,2.658,3.534H27.826C28.523,22.116,29.535,20.767,30.484,20.767Zm3.109,5.3A21.906,21.906,0,0,1,34,29.6h-7.03a22.006,22.006,0,0,1,.406-3.534ZM40.157,29.6H35.765a24.227,24.227,0,0,0-.361-3.534h3.725A9.628,9.628,0,0,1,40.157,29.6ZM30.484,40.2c-.95,0-1.961-1.349-2.658-3.534h5.316c-.7,2.185-1.709,3.534-2.658,3.534Zm-3.109-5.3a21.906,21.906,0,0,1-.406-3.534H34a22.006,22.006,0,0,1-.406,3.534Zm8.39-3.534h4.391A9.629,9.629,0,0,1,39.128,34.9H35.4A23.981,23.981,0,0,0,35.765,31.368ZM25.2,29.6H20.812a9.629,9.629,0,0,1,1.028-3.534h3.725A23.982,23.982,0,0,0,25.2,29.6Zm0,1.767a24.227,24.227,0,0,0,.361,3.534H21.839a9.646,9.646,0,0,1-1.028-3.534Zm-2.209,5.3h2.981A12.244,12.244,0,0,0,27.2,39.62,9.751,9.751,0,0,1,22.994,36.668ZM33.765,39.62a12.244,12.244,0,0,0,1.229-2.951h2.981A9.751,9.751,0,0,1,33.765,39.62ZM37.975,24.3H34.994a12.244,12.244,0,0,0-1.229-2.951A9.751,9.751,0,0,1,37.975,24.3ZM27.2,21.349A12.244,12.244,0,0,0,25.974,24.3H22.994A9.751,9.751,0,0,1,27.2,21.349Z" transform="translate(-3.099 -3.099)"/>
        <path id="Trazado_1175081" data-name="Trazado 1175081" d="M52.417,13.834H50.65a.884.884,0,0,1-.883-.883H48a2.653,2.653,0,0,0,2.65,2.65v1.767h1.767V15.6a2.65,2.65,0,0,0,0-5.3H50.65a.883.883,0,1,1,0-1.767h1.767a.884.884,0,0,1,.883.883h1.767a2.653,2.653,0,0,0-2.65-2.65V5H50.65V6.767a2.65,2.65,0,0,0,0,5.3h1.767a.883.883,0,1,1,0,1.767Z" transform="translate(-6.48 -1.466)"/>
        <path id="Trazado_1175082" data-name="Trazado 1175082" d="M50.717,20.435A9.717,9.717,0,1,0,41,10.717,9.729,9.729,0,0,0,50.717,20.435Zm0-17.668a7.951,7.951,0,1,1-7.951,7.951A7.96,7.96,0,0,1,50.717,2.767Z" transform="translate(-5.664 -1)"/>
        <path id="Trazado_1175083" data-name="Trazado 1175083" d="M54.169,50.129a3.51,3.51,0,0,0,.966-2.412V47.1l.936-1.4A4.952,4.952,0,0,0,51.95,38H49.486a4.952,4.952,0,0,0-4.121,7.7l.936,1.4v.616a3.51,3.51,0,0,0,.966,2.412A9.725,9.725,0,0,0,41,59.2v.883H60.435V59.2A9.725,9.725,0,0,0,54.169,50.129ZM49.485,39.767h2.464a3.169,3.169,0,0,1,2.939,4.394,2.639,2.639,0,0,0-1.218-1.255l-2.952-1.476-2.952,1.476a2.639,2.639,0,0,0-1.218,1.255,3.169,3.169,0,0,1,2.938-4.394Zm.349,9.717a1.769,1.769,0,0,1-1.767-1.767V45.276a.88.88,0,0,1,.489-.791l2.162-1.08,2.162,1.081a.879.879,0,0,1,.489.79v2.442A1.769,1.769,0,0,1,51.6,49.484Zm-7.019,8.834a7.951,7.951,0,0,1,15.8,0Z" transform="translate(-5.664 -5.314)"/>
        <path id="Trazado_1175084" data-name="Trazado 1175084" d="M19.288,45.546l-3.4-3.4-2.044,1.022L13.121,41H8.314L7.59,43.169,5.546,42.147l-3.4,3.4L3.17,47.591,1,48.314V53.12l2.17.723L2.147,55.888l3.4,3.4L7.59,58.265l.724,2.17H13.12l.724-2.169,2.044,1.022,3.4-3.4-1.023-2.045,2.171-.723V48.315l-2.17-.723Zm-.62,4.042v2.261l-2.03.677-.148.393c-.042.112-.087.223-.135.331l-.171.383.955,1.91-1.6,1.6-1.91-.955-.383.171c-.11.049-.222.093-.335.137l-.39.149-.676,2.026H9.587l-.676-2.027-.39-.149c-.113-.044-.225-.088-.335-.137L7.8,56.184l-1.91.955-1.6-1.6.955-1.91-.171-.383c-.049-.109-.093-.219-.135-.331L4.8,52.524l-2.029-.677V49.587L4.8,48.91l.148-.393c.042-.112.087-.223.135-.331l.171-.383L4.3,45.894l1.6-1.6,1.91.955.383-.171c.11-.049.222-.093.335-.137l.39-.149.677-2.027h2.261l.676,2.027.39.149c.113.044.225.088.335.137l.383.171,1.91-.955,1.6,1.6-.955,1.91.171.383c.049.109.093.219.135.331l.148.393Z" transform="translate(-1 -5.664)"/>
        <path id="Trazado_1175085" data-name="Trazado 1175085" d="M11.417,47a4.417,4.417,0,1,0,4.417,4.417A4.422,4.422,0,0,0,11.417,47Zm0,7.067a2.65,2.65,0,1,1,2.65-2.65A2.653,2.653,0,0,1,11.417,54.067Z" transform="translate(-1.7 -6.363)"/>
        <path id="Trazado_1175086" data-name="Trazado 1175086" d="M18.668,1H1V16.9H18.668ZM8.067,2.767H11.6V4.534H8.067ZM16.9,15.134H2.767V2.767H6.3V6.3h7.067V2.767H16.9Z" transform="translate(-1 -1)"/>
        <path id="Trazado_1175087" data-name="Trazado 1175087" d="M51,25h1.767v9.717H51Z" transform="translate(-6.83 -3.798)"/>
        <path id="Trazado_1175088" data-name="Trazado 1175088" d="M23,11H37.134v1.767H23Z" transform="translate(-3.565 -2.166)"/>
        <path id="Trazado_1175089" data-name="Trazado 1175089" d="M11,21h1.767V36.9H11Z" transform="translate(-2.166 -3.332)"/>
        <path id="Trazado_1175090" data-name="Trazado 1175090" d="M25,51H40.9v1.767H25Z" transform="translate(-3.798 -6.83)"/>
      </g>
    </g>
  </g>
</svg>
