<svg xmlns="http://www.w3.org/2000/svg" xmlns:xlink="http://www.w3.org/1999/xlink" width="106.16" height="106.16" viewBox="0 0 106.16 106.16">
  <defs>
    <filter id="Trazado_982547" x="0" y="0" width="106.16" height="106.16" filterUnits="userSpaceOnUse">
      <feOffset dy="3" input="SourceAlpha"/>
      <feGaussianBlur stdDeviation="3" result="blur"/>
      <feFlood flood-opacity="0.161"/>
      <feComposite operator="in" in2="blur"/>
      <feComposite in="SourceGraphic"/>
    </filter>
  </defs>
  <g id="Grupo_1225224" data-name="Grupo 1225224" transform="translate(-189.92 -1082.069)">
    <g id="Grupo_1224992" data-name="Grupo 1224992" transform="translate(-1 -799)">
      <g id="Grupo_1206129" data-name="Grupo 1206129" transform="translate(0 -58.931)">
        <g id="Grupo_1203795" data-name="Grupo 1203795" transform="translate(0 -4639.878)">
          <g id="Grupo_1203344" data-name="Grupo 1203344" transform="translate(-81.08 5174.875)">
            <g id="Grupo_1177900" data-name="Grupo 1177900" transform="translate(281 1411.003)">
              <g id="Grupo_1172010" data-name="Grupo 1172010" transform="translate(0)">
                <g id="Grupo_1171046" data-name="Grupo 1171046">
                  <g id="Grupo_1148525" data-name="Grupo 1148525">
                    <g transform="matrix(1, 0, 0, 1, -9, -6)" filter="url(#Trazado_982547)">
                      <g id="Trazado_982547-2" data-name="Trazado 982547" transform="translate(9 6)" fill="#e9f9fd">
                        <path d="M 44.0802001953125 86.660400390625 C 38.33124923706055 86.660400390625 32.75506210327148 85.53479766845703 27.50652503967285 83.31484985351562 C 22.43628692626953 81.17032623291016 17.88242530822754 78.09992218017578 13.97144985198975 74.18894958496094 C 10.06047534942627 70.27797698974609 6.99007511138916 65.72411346435547 4.845550060272217 60.65387344360352 C 2.625600099563599 55.40533828735352 1.500000238418579 49.82915115356445 1.500000238418579 44.0802001953125 C 1.500000238418579 38.33124923706055 2.625600099563599 32.75506210327148 4.845550060272217 27.50652503967285 C 6.99007511138916 22.43628692626953 10.06047534942627 17.88242530822754 13.97144985198975 13.97144985198975 C 17.88242530822754 10.06047534942627 22.43628692626953 6.99007511138916 27.50652503967285 4.845550060272217 C 32.75506210327148 2.625600099563599 38.33124923706055 1.500000238418579 44.0802001953125 1.500000238418579 C 49.82915115356445 1.500000238418579 55.40533828735352 2.625600099563599 60.65387344360352 4.845550060272217 C 65.72411346435547 6.99007511138916 70.27797698974609 10.06047534942627 74.18894958496094 13.97144985198975 C 78.09992218017578 17.88242530822754 81.17032623291016 22.43628692626953 83.31484985351562 27.50652503967285 C 85.53479766845703 32.75506210327148 86.660400390625 38.33124923706055 86.660400390625 44.0802001953125 C 86.660400390625 49.82915115356445 85.53479766845703 55.40533828735352 83.31484985351562 60.65387344360352 C 81.17032623291016 65.72411346435547 78.09992218017578 70.27797698974609 74.18894958496094 74.18894958496094 C 70.27797698974609 78.09992218017578 65.72411346435547 81.17032623291016 60.65387344360352 83.31484985351562 C 55.40533828735352 85.53479766845703 49.82915115356445 86.660400390625 44.0802001953125 86.660400390625 Z" stroke="none"/>
                        <path d="M 44.0802001953125 3 C 38.53308486938477 3 33.15349960327148 4.085746765136719 28.09085845947266 6.227058410644531 C 23.19941711425781 8.29595947265625 18.80581665039062 11.25841522216797 15.03211212158203 15.03211212158203 C 11.25841522216797 18.80581665039062 8.29595947265625 23.19941711425781 6.227058410644531 28.09085845947266 C 4.085746765136719 33.15349960327148 3 38.53308486938477 3 44.0802001953125 C 3 49.62731552124023 4.085746765136719 55.00691604614258 6.227058410644531 60.06954193115234 C 8.29595947265625 64.96098327636719 11.25841522216797 69.35458374023438 15.03211212158203 73.12828826904297 C 18.80581665039062 76.90198516845703 23.19941711425781 79.86444091796875 28.09085845947266 81.93334197998047 C 33.15349960327148 84.07466125488281 38.53308486938477 85.160400390625 44.0802001953125 85.160400390625 C 49.62731552124023 85.160400390625 55.00691604614258 84.07466125488281 60.06954193115234 81.93334197998047 C 64.96099853515625 79.86444091796875 69.35458374023438 76.90198516845703 73.12828826904297 73.12828826904297 C 76.90198516845703 69.35458374023438 79.86444091796875 64.96099853515625 81.93334197998047 60.06954193115234 C 84.07466125488281 55.00691604614258 85.160400390625 49.62731552124023 85.160400390625 44.0802001953125 C 85.160400390625 38.53308486938477 84.07466125488281 33.15349960327148 81.93334197998047 28.09085845947266 C 79.86444091796875 23.19941711425781 76.90198516845703 18.80581665039062 73.12828826904297 15.03211212158203 C 69.35458374023438 11.25841522216797 64.96098327636719 8.29595947265625 60.06954193115234 6.227058410644531 C 55.00691604614258 4.085746765136719 49.62731552124023 3 44.0802001953125 3 M 44.0802001953125 0 C 68.42502593994141 0 88.160400390625 19.73538970947266 88.160400390625 44.0802001953125 C 88.160400390625 68.42502593994141 68.42502593994141 88.160400390625 44.0802001953125 88.160400390625 C 19.73538970947266 88.160400390625 0 68.42502593994141 0 44.0802001953125 C 0 19.73538970947266 19.73538970947266 0 44.0802001953125 0 Z" stroke="none" fill="#1d7083"/>
                      </g>
                    </g>
                  </g>
                </g>
              </g>
            </g>
          </g>
        </g>
      </g>
    </g>
    <g id="banco" transform="translate(216.748 1105.897)">
      <path id="Trazado_1175091" data-name="Trazado 1175091" d="M5,12H48.987V28.291H5Z" transform="translate(-0.742 -2.04)" fill="#c0dafc"/>
      <path id="Trazado_1175092" data-name="Trazado 1175092" d="M19,16h4.887v9.775H19Z" transform="translate(-3.338 -2.781)" fill="#f2f2f2"/>
      <path id="Trazado_1175093" data-name="Trazado 1175093" d="M2,32H50.874v8.146H2Z" transform="translate(-0.185 -5.748)" fill="#5e87ca"/>
      <path id="Trazado_1175094" data-name="Trazado 1175094" d="M48.431,36.073V32H2v5.7H46.8A1.629,1.629,0,0,0,48.431,36.073Z" transform="translate(-0.185 -5.748)" fill="#78a0d4"/>
      <path id="Trazado_1175095" data-name="Trazado 1175095" d="M2,6H50.874v4.887H2Z" transform="translate(-0.185 -0.927)" fill="#5e87ca"/>
      <path id="Trazado_1175096" data-name="Trazado 1175096" d="M48.431,7.629V6H2V8.444H47.616A.815.815,0,0,0,48.431,7.629Z" transform="translate(-0.185 -0.927)" fill="#78a0d4"/>
      <path id="Trazado_1175097" data-name="Trazado 1175097" d="M29,16h4.887v9.775H29Z" transform="translate(-5.192 -2.781)" fill="#f2f2f2"/>
      <path id="Trazado_1175098" data-name="Trazado 1175098" d="M39,16h4.887v9.775H39Z" transform="translate(-7.046 -2.781)" fill="#f2f2f2"/>
      <path id="Trazado_1175099" data-name="Trazado 1175099" d="M49,16h4.887v9.775H49Z" transform="translate(-8.901 -2.781)" fill="#f2f2f2"/>
      <g id="Grupo_1225223" data-name="Grupo 1225223" transform="translate(15.662 13.219)">
        <path id="Trazado_1175100" data-name="Trazado 1175100" d="M49,16h3.258v8.146H49Z" transform="translate(-24.563 -16)" fill="#fff"/>
        <path id="Trazado_1175101" data-name="Trazado 1175101" d="M39,16h3.258v8.146H39Z" transform="translate(-22.709 -16)" fill="#fff"/>
        <path id="Trazado_1175102" data-name="Trazado 1175102" d="M29,16h3.258v8.146H29Z" transform="translate(-20.854 -16)" fill="#fff"/>
        <path id="Trazado_1175103" data-name="Trazado 1175103" d="M19,16h3.258v8.146H19Z" transform="translate(-19 -16)" fill="#fff"/>
      </g>
      <path id="Trazado_1175104" data-name="Trazado 1175104" d="M4,42V58.291H49.616V42" transform="translate(-0.556 -7.603)" fill="#c0dafc"/>
      <path id="Trazado_1175105" data-name="Trazado 1175105" d="M20,55.033V43.28L21.792,42h1.466V55.033Z" transform="translate(-3.523 -7.603)" fill="#5e87ca"/>
      <path id="Trazado_1175106" data-name="Trazado 1175106" d="M43.258,55.033V43.28L41.466,42H40V55.033Z" transform="translate(-7.232 -7.603)" fill="#5e87ca"/>
      <path id="Trazado_1175107" data-name="Trazado 1175107" d="M38.166,40.7H22.2L30.183,35Z" transform="translate(-3.931 -6.305)" fill="#3b5892"/>
      <path id="Trazado_1175108" data-name="Trazado 1175108" d="M28.848,34.073l11.4,8.146L42.7,39.775,28.848,30,15,39.775l2.444,2.444Z" transform="translate(-2.596 -5.377)" fill="#4c6cb5"/>
      <circle id="Elipse_12641" data-name="Elipse 12641" cx="7.5" cy="7.5" r="7.5" transform="translate(18.504 1.504)" fill="#f0ae42"/>
      <path id="Trazado_1175109" data-name="Trazado 1175109" d="M36.037,8.519A7.324,7.324,0,0,0,32.8,2.435a7.331,7.331,0,0,0-6.554,12.983,7.316,7.316,0,0,0,9.794-6.9Z" transform="translate(-4.083 -0.188)" fill="#f9d266"/>
      <path id="Trazado_1175110" data-name="Trazado 1175110" d="M34.517,8.073V7.258a2.444,2.444,0,0,0-2.444-2.444V4H30.444v.815A2.444,2.444,0,0,0,28,7.258v.815a2.444,2.444,0,0,0,2.444,2.444V12.96a.815.815,0,0,1-.815-.815v-.815H28v.815a2.444,2.444,0,0,0,2.444,2.444V15.4h1.629v-.815a2.444,2.444,0,0,0,2.444-2.444v-.815a2.444,2.444,0,0,0-2.444-2.444V6.444a.815.815,0,0,1,.815.815v.815Zm-1.629,3.258v.815a.815.815,0,0,1-.815.815V10.517A.815.815,0,0,1,32.887,11.331ZM30.444,8.887a.815.815,0,0,1-.815-.815V7.258a.815.815,0,0,1,.815-.815Z" transform="translate(-5.007 -0.556)" fill="#d5883e"/>
      <path id="Trazado_1175111" data-name="Trazado 1175111" d="M9,16h4.887v9.775H9Z" transform="translate(-1.483 -2.781)" fill="#f2f2f2"/>
      <path id="Trazado_1175112" data-name="Trazado 1175112" d="M18,61.258V58h6.517v3.258" transform="translate(-3.152 -10.569)" fill="#4c6cb5"/>
      <path id="Trazado_1175113" data-name="Trazado 1175113" d="M38,61.258V58h6.517v3.258" transform="translate(-6.861 -10.569)" fill="#4c6cb5"/>
      <path id="Trazado_1175114" data-name="Trazado 1175114" d="M29,59.589V51.444a2.444,2.444,0,0,1,4.887,0v8.146" transform="translate(-5.192 -8.901)" fill="#4c6cb5"/>
      <path id="Trazado_1175115" data-name="Trazado 1175115" d="M48,47h6.517v7.331H48Z" transform="translate(-8.715 -8.53)" fill="#f2f2f2"/>
      <path id="Trazado_1175116" data-name="Trazado 1175116" d="M48,47h4.887v5.7H48Z" transform="translate(-8.715 -8.53)" fill="#fff"/>
      <path id="Trazado_1175117" data-name="Trazado 1175117" d="M8,47h6.517v7.331H8Z" transform="translate(-1.298 -8.53)" fill="#f2f2f2"/>
      <path id="Trazado_1175118" data-name="Trazado 1175118" d="M8,47h4.887v5.7H8Z" transform="translate(-1.298 -8.53)" fill="#fff"/>
      <path id="Trazado_1175119" data-name="Trazado 1175119" d="M9,16h3.258v8.146H9Z" transform="translate(-1.483 -2.781)" fill="#fff"/>
      <path id="Trazado_1175120" data-name="Trazado 1175120" d="M30.444,14.589V15.4h1.629v-.815a2.444,2.444,0,0,0,2.444-2.444v-.815a2.444,2.444,0,0,0-2.444-2.444V6.444a.815.815,0,0,1,.815.815v.815h1.629V7.258a2.444,2.444,0,0,0-2.444-2.444V4H30.444v.815A2.444,2.444,0,0,0,28,7.258v.815a2.444,2.444,0,0,0,2.444,2.444V12.96a.815.815,0,0,1-.815-.815v-.815H28v.815a2.444,2.444,0,0,0,2.444,2.444Zm-.815-6.517V7.258a.815.815,0,0,1,.815-.815V8.887A.815.815,0,0,1,29.629,8.073Zm2.444,2.444a.815.815,0,0,1,.815.815v.815a.815.815,0,0,1-.815.815Z" transform="translate(-5.007 -0.556)"/>
      <path id="Trazado_1175121" data-name="Trazado 1175121" d="M50.689,10.775A.815.815,0,0,0,51.5,9.96V5.073a.815.815,0,0,0-.815-.815H32.753a8.115,8.115,0,0,0-13,0H1.815A.815.815,0,0,0,1,5.073V9.96a.815.815,0,0,0,.815.815H3.444V25.437H1.815A.815.815,0,0,0,1,26.252V34.4a.815.815,0,0,0,.815.815h.815V50.689a.815.815,0,0,0,.815.815H49.06a.815.815,0,0,0,.815-.815V35.212h.815A.815.815,0,0,0,51.5,34.4V26.252a.815.815,0,0,0-.815-.815H49.06V10.775Zm-.815-4.887V9.146H34.4a8.089,8.089,0,0,0-.685-3.259ZM32.768,14.033h3.258v8.146H32.768Zm-6.517-11.4a6.517,6.517,0,1,1-6.517,6.517,6.517,6.517,0,0,1,6.517-6.517Zm-1.629,14.5a8.146,8.146,0,0,0,3.258,0v5.05H24.623ZM2.629,5.887H18.791a8.088,8.088,0,0,0-.685,3.258H2.629Zm0,21.179H21.377l-9.232,6.517H2.629ZM27.881,49.874H24.623V42.543a1.629,1.629,0,1,1,3.258,0ZM26.252,39.285a3.258,3.258,0,0,0-3.258,3.258v7.331h-.815V47.431a.815.815,0,0,0-.815-.815H20.55v-11.4h11.4v11.4h-.815a.815.815,0,0,0-.815.815v2.444H29.51V42.543A3.258,3.258,0,0,0,26.252,39.285ZM18.53,35.212h.39v11.4H17.291V36.1ZM20.55,48.245v1.629H15.662V48.245Zm.261-14.662L26.252,29.7l5.441,3.886ZM31.954,48.245h4.887v1.629H31.954Zm1.629-1.629v-11.4h.39l1.239.885V46.616ZM26.725,28.032a.815.815,0,0,0-.947,0L14.936,35.777l-1.272-1.272L26.252,25.62l12.588,8.885-1.272,1.272ZM4.258,35.212h7.808l2.205,2.205a.815.815,0,0,0,1.049.087l.341-.244v9.356h-.815a.815.815,0,0,0-.815.815v2.444H4.258ZM48.245,49.874H38.47V47.431a.815.815,0,0,0-.815-.815h-.815V37.261l.341.244a.815.815,0,0,0,1.049-.087l2.205-2.206h7.808Zm1.629-16.291H40.359l-9.232-6.517H49.874Zm-2.444-8.146H28.818l-2.1-1.48a.815.815,0,0,0-.94,0l-2.1,1.48H5.073V10.775h13.2a8.064,8.064,0,0,0,.521,1.629H15.662a.815.815,0,0,0-.815.815v9.775a.815.815,0,0,0,.815.815H20.55a.815.815,0,0,0,.815-.815V15.647a8.139,8.139,0,0,0,1.629.96v6.387a.815.815,0,0,0,.815.815H28.7a.815.815,0,0,0,.815-.815V16.606a8.139,8.139,0,0,0,1.629-.96v7.347a.815.815,0,0,0,.815.815h4.887a.815.815,0,0,0,.815-.815V13.219a.815.815,0,0,0-.815-.815H33.712a8.064,8.064,0,0,0,.521-1.629h13.2Zm-27.7-11.4v8.146H16.477V14.033Z"/>
      <path id="Trazado_1175122" data-name="Trazado 1175122" d="M13.7,15H8.815A.815.815,0,0,0,8,15.815v9.775a.815.815,0,0,0,.815.815H13.7a.815.815,0,0,0,.815-.815V15.815A.815.815,0,0,0,13.7,15Zm-.815,9.775H9.629V16.629h3.258Z" transform="translate(-1.298 -2.596)"/>
      <path id="Trazado_1175123" data-name="Trazado 1175123" d="M48.815,26.4H53.7a.815.815,0,0,0,.815-.815V15.815A.815.815,0,0,0,53.7,15H48.815a.815.815,0,0,0-.815.815v9.775A.815.815,0,0,0,48.815,26.4Zm.815-9.775h3.258v8.146H49.629Z" transform="translate(-8.715 -2.596)"/>
      <path id="Trazado_1175124" data-name="Trazado 1175124" d="M47.815,46a.815.815,0,0,0-.815.815v7.331a.815.815,0,0,0,.815.815h6.517a.815.815,0,0,0,.815-.815V46.815A.815.815,0,0,0,54.331,46Zm5.7,7.331H48.629v-5.7h4.887Z" transform="translate(-8.53 -8.344)"/>
      <path id="Trazado_1175125" data-name="Trazado 1175125" d="M15.146,54.146V46.815A.815.815,0,0,0,14.331,46H7.815A.815.815,0,0,0,7,46.815v7.331a.815.815,0,0,0,.815.815h6.517A.815.815,0,0,0,15.146,54.146Zm-1.629-.815H8.629v-5.7h4.887Z" transform="translate(-1.113 -8.344)"/>
    </g>
  </g>
</svg>
