<svg xmlns="http://www.w3.org/2000/svg" xmlns:xlink="http://www.w3.org/1999/xlink" width="106.16" height="106.16" viewBox="0 0 106.16 106.16">
  <defs>
    <filter id="Trazado_982547" x="0" y="0" width="106.16" height="106.16" filterUnits="userSpaceOnUse">
      <feOffset dy="3" input="SourceAlpha"/>
      <feGaussianBlur stdDeviation="3" result="blur"/>
      <feFlood flood-opacity="0.161"/>
      <feComposite operator="in" in2="blur"/>
      <feComposite in="SourceGraphic"/>
    </filter>
  </defs>
  <g id="Grupo_1227803" data-name="Grupo 1227803" transform="translate(-609.92 -1082.069)">
    <g id="Grupo_1224993" data-name="Grupo 1224993" transform="translate(-1 -799)">
      <g id="Grupo_1206132" data-name="Grupo 1206132" transform="translate(0 -58.931)">
        <g id="Grupo_1203794" data-name="Grupo 1203794" transform="translate(0 -4639.878)">
          <g id="Grupo_1203345" data-name="Grupo 1203345" transform="translate(338.92 5174.875)">
            <g id="Grupo_1177900" data-name="Grupo 1177900" transform="translate(281 1411.003)">
              <g id="Grupo_1172010" data-name="Grupo 1172010" transform="translate(0)">
                <g id="Grupo_1171046" data-name="Grupo 1171046">
                  <g id="Grupo_1148525" data-name="Grupo 1148525">
                    <g transform="matrix(1, 0, 0, 1, -9, -6)" filter="url(#Trazado_982547)">
                      <g id="Trazado_982547-2" data-name="Trazado 982547" transform="translate(9 6)" fill="#e9f9fd">
                        <path d="M 44.0802001953125 86.660400390625 C 38.33124923706055 86.660400390625 32.75506210327148 85.53479766845703 27.50652503967285 83.31484985351562 C 22.43628692626953 81.17032623291016 17.88242530822754 78.09992218017578 13.97144985198975 74.18894958496094 C 10.06047534942627 70.27797698974609 6.99007511138916 65.72411346435547 4.845550060272217 60.65387344360352 C 2.625600099563599 55.40533828735352 1.500000238418579 49.82915115356445 1.500000238418579 44.0802001953125 C 1.500000238418579 38.33124923706055 2.625600099563599 32.75506210327148 4.845550060272217 27.50652503967285 C 6.99007511138916 22.43628692626953 10.06047534942627 17.88242530822754 13.97144985198975 13.97144985198975 C 17.88242530822754 10.06047534942627 22.43628692626953 6.99007511138916 27.50652503967285 4.845550060272217 C 32.75506210327148 2.625600099563599 38.33124923706055 1.500000238418579 44.0802001953125 1.500000238418579 C 49.82915115356445 1.500000238418579 55.40533828735352 2.625600099563599 60.65387344360352 4.845550060272217 C 65.72411346435547 6.99007511138916 70.27797698974609 10.06047534942627 74.18894958496094 13.97144985198975 C 78.09992218017578 17.88242530822754 81.17032623291016 22.43628692626953 83.31484985351562 27.50652503967285 C 85.53479766845703 32.75506210327148 86.660400390625 38.33124923706055 86.660400390625 44.0802001953125 C 86.660400390625 49.82915115356445 85.53479766845703 55.40533828735352 83.31484985351562 60.65387344360352 C 81.17032623291016 65.72411346435547 78.09992218017578 70.27797698974609 74.18894958496094 74.18894958496094 C 70.27797698974609 78.09992218017578 65.72411346435547 81.17032623291016 60.65387344360352 83.31484985351562 C 55.40533828735352 85.53479766845703 49.82915115356445 86.660400390625 44.0802001953125 86.660400390625 Z" stroke="none"/>
                        <path d="M 44.0802001953125 3 C 38.53308486938477 3 33.15349960327148 4.085746765136719 28.09085845947266 6.227058410644531 C 23.19941711425781 8.29595947265625 18.80581665039062 11.25841522216797 15.03211212158203 15.03211212158203 C 11.25841522216797 18.80581665039062 8.29595947265625 23.19941711425781 6.227058410644531 28.09085845947266 C 4.085746765136719 33.15349960327148 3 38.53308486938477 3 44.0802001953125 C 3 49.62731552124023 4.085746765136719 55.00691604614258 6.227058410644531 60.06954193115234 C 8.29595947265625 64.96098327636719 11.25841522216797 69.35458374023438 15.03211212158203 73.12828826904297 C 18.80581665039062 76.90198516845703 23.19941711425781 79.86444091796875 28.09085845947266 81.93334197998047 C 33.15349960327148 84.07466125488281 38.53308486938477 85.160400390625 44.0802001953125 85.160400390625 C 49.62731552124023 85.160400390625 55.00691604614258 84.07466125488281 60.06954193115234 81.93334197998047 C 64.96099853515625 79.86444091796875 69.35458374023438 76.90198516845703 73.12828826904297 73.12828826904297 C 76.90198516845703 69.35458374023438 79.86444091796875 64.96099853515625 81.93334197998047 60.06954193115234 C 84.07466125488281 55.00691604614258 85.160400390625 49.62731552124023 85.160400390625 44.0802001953125 C 85.160400390625 38.53308486938477 84.07466125488281 33.15349960327148 81.93334197998047 28.09085845947266 C 79.86444091796875 23.19941711425781 76.90198516845703 18.80581665039062 73.12828826904297 15.03211212158203 C 69.35458374023438 11.25841522216797 64.96098327636719 8.29595947265625 60.06954193115234 6.227058410644531 C 55.00691604614258 4.085746765136719 49.62731552124023 3 44.0802001953125 3 M 44.0802001953125 0 C 68.42502593994141 0 88.160400390625 19.73538970947266 88.160400390625 44.0802001953125 C 88.160400390625 68.42502593994141 68.42502593994141 88.160400390625 44.0802001953125 88.160400390625 C 19.73538970947266 88.160400390625 0 68.42502593994141 0 44.0802001953125 C 0 19.73538970947266 19.73538970947266 0 44.0802001953125 0 Z" stroke="none" fill="#1d7083"/>
                      </g>
                    </g>
                  </g>
                </g>
              </g>
            </g>
          </g>
        </g>
      </g>
    </g>
    <g id="administracion" transform="translate(635.87 1105.131)">
      <path id="Trazado_1175126" data-name="Trazado 1175126" d="M15,50H26.8v3.372H15Z" transform="translate(-2.199 -7.697)" fill="#aab2bd"/>
      <path id="Trazado_1175127" data-name="Trazado 1175127" d="M29.488,54.742a2.523,2.523,0,0,1,.742,1.787.845.845,0,0,1-.843.843H10.843A.845.845,0,0,1,10,56.529,2.525,2.525,0,0,1,12.529,54H27.7A2.523,2.523,0,0,1,29.488,54.742Z" transform="translate(-1.414 -8.326)" fill="#aab2bd"/>
      <path id="Trazado_1175128" data-name="Trazado 1175128" d="M32.345,45.6H5.372A3.372,3.372,0,0,1,2,42.23V25.372A3.372,3.372,0,0,1,5.372,22H32.345a3.372,3.372,0,0,1,3.372,3.372V42.23A3.372,3.372,0,0,1,32.345,45.6Z" transform="translate(-0.157 -3.299)" fill="#ccd1d9"/>
      <circle id="Elipse_12642" data-name="Elipse 12642" cx="6.666" cy="6.666" r="6.666" transform="translate(2.026 2.026)" fill="#ffeaa7"/>
      <path id="Trazado_1175129" data-name="Trazado 1175129" d="M9.127,12a5.051,5.051,0,0,1,4.687,3.161,6.739,6.739,0,0,1-9.373,0A5.051,5.051,0,0,1,9.127,12Z" transform="translate(-0.54 -1.728)" fill="#ff826e"/>
      <path id="Trazado_1175130" data-name="Trazado 1175130" d="M32.13,42.858H6.843A.843.843,0,0,1,6,42.015V26.843A.843.843,0,0,1,6.843,26H32.13a.843.843,0,0,1,.843.843V42.015A.843.843,0,0,1,32.13,42.858Z" transform="translate(-0.785 -3.927)" fill="#69d6f4"/>
      <circle id="Elipse_12643" data-name="Elipse 12643" cx="6.666" cy="6.666" r="6.666" transform="translate(15.357 15.357)" fill="#ffeaa7"/>
      <path id="Trazado_1175131" data-name="Trazado 1175131" d="M25.127,28a5.051,5.051,0,0,1,4.687,3.161,6.739,6.739,0,0,1-9.373,0A5.051,5.051,0,0,1,25.127,28Z" transform="translate(-3.054 -4.241)" fill="#ff826e"/>
      <circle id="Elipse_12644" data-name="Elipse 12644" cx="2.564" cy="2.564" r="2.564" transform="translate(6.128 5.102)" fill="#f0d0b4"/>
      <circle id="Elipse_12645" data-name="Elipse 12645" cx="2.564" cy="2.564" r="2.564" transform="translate(19.459 18.434)" fill="#f0d0b4"/>
      <path id="Trazado_1175132" data-name="Trazado 1175132" d="M55.544,9.586v3.372l-2.023.556a7.952,7.952,0,0,1-.539,1.3l1.037,1.821-2.385,2.385-1.821-1.037a16.21,16.21,0,0,1-1.854.877V15.487a1.4,1.4,0,0,0-.034-.329v-.008a4.215,4.215,0,1,0-3.3,0,1.477,1.477,0,0,0-.034.337v3.372a16.211,16.211,0,0,1-1.854-.877l-1.821,1.037-.16-.16-2.225-2.225,1.037-1.821a7.952,7.952,0,0,1-.539-1.3L37,12.958V9.586l2.023-.556a7.952,7.952,0,0,1,.539-1.3L38.526,5.911l2.385-2.385,1.821,1.037a7.952,7.952,0,0,1,1.3-.539L44.586,2h3.372l.556,2.023a7.952,7.952,0,0,1,1.3.539l1.821-1.037,2.385,2.385L52.982,7.732a7.952,7.952,0,0,1,.539,1.3Z" transform="translate(-5.655 -0.157)" fill="#ffc729"/>
      <path id="Trazado_1175133" data-name="Trazado 1175133" d="M57.858,54v6.743H41V54H57.858Z" transform="translate(-6.284 -8.326)" fill="#b4dd7f"/>
      <path id="Trazado_1175134" data-name="Trazado 1175134" d="M54.544,29.487A1.691,1.691,0,0,1,56.23,27.8a1.7,1.7,0,0,1,1.686,1.686V40.444A5.051,5.051,0,0,1,56.9,43.479L55.387,45.5v2.529H41.9V45.5l-1.264-2.6-1.6-3.3a5.018,5.018,0,0,1-.632-1.88l-.582-4.67a3.122,3.122,0,0,0-.135-.632,4.166,4.166,0,0,0-.6-1.34l-.868-1.307A1.261,1.261,0,0,1,36,29.057a1.291,1.291,0,0,1,1.3-1.29c.135,0,.261.008.388.017a4.585,4.585,0,0,1,3.262,1.787,4.489,4.489,0,0,1,.843,1.88l.952,4.746h.843l.489-.978a3.337,3.337,0,0,0,.354-1.509V17.686a1.476,1.476,0,0,1,.034-.337A1.7,1.7,0,0,1,46.115,16a1.648,1.648,0,0,1,1.189.5,1.631,1.631,0,0,1,.464.851v.008a1.4,1.4,0,0,1,.034.329V27.8a1.691,1.691,0,0,1,1.686-1.686A1.7,1.7,0,0,1,51.172,27.8a1.691,1.691,0,0,1,1.686-1.686A1.7,1.7,0,0,1,54.544,27.8Z" transform="translate(-5.498 -2.356)" fill="#f0d0b4"/>
      <path id="Trazado_1175135" data-name="Trazado 1175135" d="M52.08,41.628a5.932,5.932,0,0,0,1.18-3.54V27.13a2.52,2.52,0,0,0-3.469-2.343,2.506,2.506,0,0,0-4.117-1.214,2.451,2.451,0,0,0-2.529-.5v-3.8c.305-.137.647-.307.994-.486l1.984,1.131,3.293-3.294-1.139-1.993c.088-.19.169-.384.241-.577l2.213-.605V8.786l-2.213-.605c-.072-.194-.153-.387-.241-.577L49.417,5.61,46.123,2.316l-2,1.138c-.191-.088-.384-.169-.577-.241L42.947,1H38.288l-.605,2.213c-.193.072-.386.153-.577.241L35.111,2.316,31.818,5.61,32.956,7.6c-.088.19-.169.384-.241.577L30.5,8.786v1.486H25.444A2.532,2.532,0,0,0,22.916,12.8v1.736a7.168,7.168,0,0,0-1.686,0V10.272A2.532,2.532,0,0,0,18.7,7.743H16.123a7.586,7.586,0,1,0,0,1.686H18.7a.844.844,0,0,1,.843.843v4.657a7.618,7.618,0,0,0-3.775,2.929H5.215A4.219,4.219,0,0,0,1,22.073V38.931a4.219,4.219,0,0,0,4.215,4.215h6.743v1.686h-.843A3.375,3.375,0,0,0,7.743,48.2a1.688,1.688,0,0,0,1.686,1.686H27.973A1.688,1.688,0,0,0,29.659,48.2a3.375,3.375,0,0,0-3.372-3.372h-.843V43.145h6.743a4.174,4.174,0,0,0,2.762-1.059l.609,1.253v1.492H33.873V53.26H52.417V44.831H50.732V43.426ZM4.943,13.219a4.206,4.206,0,0,1,7.286,0,5.868,5.868,0,0,1-7.286,0ZM6.9,7.743A1.686,1.686,0,1,1,8.586,9.429,1.688,1.688,0,0,1,6.9,7.743Zm6.515,4.223a5.852,5.852,0,0,0-2.329-1.982,3.372,3.372,0,1,0-5,0,5.852,5.852,0,0,0-2.329,1.982,5.9,5.9,0,1,1,9.658,0Zm16.6,15.922.867,1.3a3.752,3.752,0,0,1,.459.985v7.913H6.057V22.916h8.479a7.583,7.583,0,0,0,15.073,0h1.736v1.7a2.135,2.135,0,0,0-1.327,3.272ZM20.387,21.23a1.686,1.686,0,1,1,1.686,1.686A1.688,1.688,0,0,1,20.387,21.23ZM22.073,24.6a4.192,4.192,0,0,1,3.643,2.1,5.868,5.868,0,0,1-7.286,0,4.192,4.192,0,0,1,3.643-2.1Zm9.272-3.372H29.609a7.533,7.533,0,0,0-.393-1.686h2.971a2.532,2.532,0,0,1,2.529,2.529v3.369a5.4,5.4,0,0,0-1.686-.715V22.916a1.688,1.688,0,0,0-1.686-1.686Zm4.264-1.6,1.486-.847c.338.175.684.346.994.486V31.357a2.528,2.528,0,0,1-.258,1.112l-.707-3.535a5.406,5.406,0,0,0-.722-1.8h0V22.073a4.179,4.179,0,0,0-.793-2.443Zm3-5.818a3.371,3.371,0,1,1,4.021,0,2.5,2.5,0,0,0-4.021,0Zm-6.419-3.74,1.848-.506.136-.443a6.75,6.75,0,0,1,.482-1.154l.217-.41-.952-1.668,1.474-1.475,1.668.952.41-.217a6.637,6.637,0,0,1,1.155-.481l.442-.137.507-1.848h2.085l.507,1.848.442.137a6.748,6.748,0,0,1,1.156.482l.409.216,1.668-.952,1.474,1.475L46.362,7.56l.217.41a6.682,6.682,0,0,1,.482,1.154l.136.443,1.848.506v2.085l-1.848.506-.136.443a6.749,6.749,0,0,1-.482,1.154l-.217.41.952,1.668L45.84,17.813l-1.668-.952-.409.216c-.227.12-.432.226-.617.32v-1.91a5.057,5.057,0,1,0-5.057,0V17.4c-.18-.091-.38-.195-.616-.319l-.41-.217-1.668.952-1.474-1.475.952-1.668-.217-.41a6.682,6.682,0,0,1-.482-1.154l-.136-.443-1.85-.506ZM24.6,12.8a.844.844,0,0,1,.843-.843H30.5v1.486l2.213.605c.072.194.153.387.241.577L31.817,16.62l1.371,1.371a4.168,4.168,0,0,0-1-.133H28.376A7.618,7.618,0,0,0,24.6,14.929Zm-2.529,3.372a5.893,5.893,0,0,1,4.829,9.28,5.852,5.852,0,0,0-2.329-1.982,3.372,3.372,0,1,0-5,0,5.852,5.852,0,0,0-2.329,1.982,5.893,5.893,0,0,1,4.829-9.28Zm5.9,32.031-18.544,0v0a1.688,1.688,0,0,1,1.686-1.686H26.287A1.688,1.688,0,0,1,27.973,48.2Zm-4.215-3.372H13.644V43.145H23.759Zm8.429-3.372H5.215a2.532,2.532,0,0,1-2.529-2.529V22.073a2.532,2.532,0,0,1,2.529-2.529h9.715a7.487,7.487,0,0,0-.393,1.686H6.057a1.688,1.688,0,0,0-1.686,1.686V38.088a1.688,1.688,0,0,0,1.686,1.686H31.345a1.686,1.686,0,0,0,1.682-1.643l1.131,2.326a2.5,2.5,0,0,1-1.97,1ZM50.732,51.575H35.559V46.517H50.732ZM37.245,44.831v-1.88l-2.981-6.125a4.162,4.162,0,0,1-.523-1.567l-.583-4.665a5.445,5.445,0,0,0-.87-2.339l-.868-1.3a.451.451,0,0,1,.375-.7,3.758,3.758,0,0,1,3.674,3.012l1.084,5.417h2.055l.72-1.441a4.237,4.237,0,0,0,.445-1.884V15.329a.843.843,0,0,1,1.686,0V28.816h1.686V25.444a.843.843,0,0,1,1.686,0v3.372h1.686V25.444a.843.843,0,1,1,1.686,0v3.372h1.686V27.13a.843.843,0,0,1,1.686,0V38.088a4.238,4.238,0,0,1-.843,2.529l-1.686,2.248v1.967Z" transform="translate(0 0)"/>
      <path id="Trazado_1175136" data-name="Trazado 1175136" d="M27.544,35.743H25.858v3.372H24.172V37.429H22.487v1.686H20.8V35.743H19.115v3.372H17.429V32.372H15.743v6.743H14.057V30.686H12.372v8.429H10.686V29H9V40.8H29.23V39.115H27.544Z" transform="translate(-1.257 -4.399)"/>
    </g>
  </g>
</svg>
