<svg xmlns="http://www.w3.org/2000/svg" xmlns:xlink="http://www.w3.org/1999/xlink" width="108" height="108" viewBox="0 0 108 108">
  <defs>
    <filter id="Trazado_904820" x="0" y="0" width="108" height="108" filterUnits="userSpaceOnUse">
      <feOffset dy="3" input="SourceAlpha"/>
      <feGaussianBlur stdDeviation="3" result="blur"/>
      <feFlood flood-opacity="0.161"/>
      <feComposite operator="in" in2="blur"/>
      <feComposite in="SourceGraphic"/>
    </filter>
  </defs>
  <g id="Grupo_1225239" data-name="Grupo 1225239" transform="translate(-619.97 -4569.773)">
    <g id="Grupo_1225020" data-name="Grupo 1225020" transform="translate(-0.029 4107.773)">
      <g id="Grupo_1203794" data-name="Grupo 1203794" transform="translate(0 -419)">
        <g id="Grupo_1203639" data-name="Grupo 1203639" transform="translate(0 81)">
          <g id="Grupo_1202437" data-name="Grupo 1202437" transform="translate(0.523 386.813)">
            <g id="Grupo_1177315" data-name="Grupo 1177315" transform="translate(-0.523 -112.813)">
              <g id="Grupo_1173585" data-name="Grupo 1173585" transform="translate(629 532)">
                <g id="Grupo_1173428" data-name="Grupo 1173428" transform="translate(0 0)">
                  <g id="Grupo_1171958" data-name="Grupo 1171958">
                    <g id="Grupo_1167341" data-name="Grupo 1167341">
                      <g id="Grupo_1166792" data-name="Grupo 1166792">
                        <g transform="matrix(1, 0, 0, 1, -9, -6)" filter="url(#Trazado_904820)">
                          <g id="Trazado_904820-2" data-name="Trazado 904820" transform="translate(9 6)" fill="#fff4e6">
                            <path d="M 44.99999618530273 88.49999237060547 C 39.12687301635742 88.49999237060547 33.43022155761719 87.35006713867188 28.06829643249512 85.08216857910156 C 22.88852119445801 82.89130401611328 18.23629570007324 79.75457763671875 14.24084663391113 75.75914001464844 C 10.24540901184082 71.76369476318359 7.108683586120605 67.11146545410156 4.917821407318115 61.93169403076172 C 2.649921178817749 56.56976699829102 1.499996185302734 50.87311553955078 1.499996185302734 44.99999237060547 C 1.499996185302734 39.12686920166016 2.649921178817749 33.43021774291992 4.917821407318115 28.06829261779785 C 7.108683586120605 22.88851737976074 10.24540901184082 18.23630523681641 14.24084663391113 14.24085521697998 C 18.23629570007324 10.24540519714355 22.88852119445801 7.108692169189453 28.06829643249512 4.917829990386963 C 33.43022155761719 2.649929761886597 39.12687301635742 1.500004887580872 44.99999618530273 1.500004887580872 C 50.87311935424805 1.500004887580872 56.56977081298828 2.649929761886597 61.93169784545898 4.917829990386963 C 67.11147308349609 7.108692169189453 71.76369476318359 10.24540519714355 75.75914764404297 14.24085521697998 C 79.75458526611328 18.23630523681641 82.89131164550781 22.88851737976074 85.08216857910156 28.06829261779785 C 87.35007476806641 33.43021774291992 88.5 39.12686920166016 88.5 44.99999237060547 C 88.5 50.87311553955078 87.35007476806641 56.56976699829102 85.08216857910156 61.93169403076172 C 82.89131164550781 67.11146545410156 79.75458526611328 71.76369476318359 75.75914764404297 75.75914001464844 C 71.76369476318359 79.75457763671875 67.11147308349609 82.89130401611328 61.93169784545898 85.08216857910156 C 56.56977081298828 87.35006713867188 50.87311935424805 88.49999237060547 44.99999618530273 88.49999237060547 Z" stroke="none"/>
                            <path d="M 44.99999618530273 2.999992370605469 C 39.32870864868164 2.999992370605469 33.82865142822266 4.11004638671875 28.65262603759766 6.299331665039062 C 23.65165710449219 8.414566040039062 19.15968322753906 11.44333648681641 15.301513671875 15.30150604248047 C 11.44333648681641 19.15967559814453 8.414566040039062 23.65164947509766 6.299339294433594 28.65262222290039 C 4.110054016113281 33.82864761352539 2.999992370605469 39.32870483398438 2.999992370605469 44.99999237060547 C 2.999992370605469 50.67127990722656 4.110054016113281 56.17132186889648 6.299339294433594 61.34736633300781 C 8.414566040039062 66.34833526611328 11.44333648681641 70.84029388427734 15.301513671875 74.69846343994141 C 19.15968322753906 78.55663299560547 23.65165710449219 81.58540344238281 28.65262603759766 83.70063781738281 C 33.82865142822266 85.88992309570312 39.32870864868164 86.99997711181641 44.99999618530273 86.99997711181641 C 50.67128372192383 86.99997711181641 56.17134094238281 85.88992309570312 61.34736633300781 83.70063781738281 C 66.34834289550781 81.58540344238281 70.84030914306641 78.55663299560547 74.69847869873047 74.69846343994141 C 78.55665588378906 70.84029388427734 81.58542633056641 66.34833526611328 83.70065307617188 61.34736633300781 C 85.88993835449219 56.17132186889648 87 50.67127990722656 87 44.99999237060547 C 87 39.32870483398438 85.88993835449219 33.82864761352539 83.70065307617188 28.65262222290039 C 81.58542633056641 23.65164947509766 78.55665588378906 19.15967559814453 74.69847869873047 15.30150604248047 C 70.84030914306641 11.44333648681641 66.34834289550781 8.414566040039062 61.34736633300781 6.299331665039062 C 56.17134094238281 4.11004638671875 50.67128372192383 2.999992370605469 44.99999618530273 2.999992370605469 M 44.99999618530273 -7.62939453125e-06 C 69.85281372070312 -7.62939453125e-06 90 20.14717864990234 90 44.99999237060547 C 90 69.85279083251953 69.85281372070312 89.99997711181641 44.99999618530273 89.99997711181641 C 20.14717864990234 89.99997711181641 -7.62939453125e-06 69.85279083251953 -7.62939453125e-06 44.99999237060547 C -7.62939453125e-06 20.14717864990234 20.14717864990234 -7.62939453125e-06 44.99999618530273 -7.62939453125e-06 Z" stroke="none" fill="#ff9d1c"/>
                          </g>
                        </g>
                      </g>
                    </g>
                  </g>
                </g>
              </g>
            </g>
          </g>
        </g>
      </g>
    </g>
    <g id="promocion" transform="translate(643.228 4590.058)">
      <g id="Grupo_1225234" data-name="Grupo 1225234" transform="translate(40.514 40.751)">
        <circle id="Elipse_12649" data-name="Elipse 12649" cx="9.336" cy="9.336" r="9.336" transform="translate(0)" fill="#ffab03"/>
        <path id="Trazado_1175165" data-name="Trazado 1175165" d="M53.221,43.84a9.306,9.306,0,0,0-5.048,1.491,9.325,9.325,0,0,0,14.17,9.817A9.327,9.327,0,0,0,53.221,43.84Z" transform="translate(-43.885 -43.84)" fill="#fff" opacity="0.3"/>
      </g>
      <path id="Trazado_1175166" data-name="Trazado 1175166" d="M45.393,46.78H32.112a.982.982,0,0,0-.982.982v3.362a.982.982,0,0,0,.982.982H42.744a9.283,9.283,0,0,1,2.649-5.325Z" transform="translate(-2.129 -3.306)" fill="#ffab03"/>
      <path id="Trazado_1175167" data-name="Trazado 1175167" d="M42.954,53.817a8.544,8.544,0,0,1,.1-1.3H36.332a.982.982,0,0,0-.982.982v3.362a.982.982,0,0,0,.982.982h7.539a9.349,9.349,0,0,1-.917-4.029Z" transform="translate(-2.44 -3.73)" fill="#ffab03"/>
      <path id="Trazado_1175168" data-name="Trazado 1175168" d="M43.559,58.26H32.112a.982.982,0,0,0-.982.982V62.6a.982.982,0,0,0,.982.982H46.7a.982.982,0,0,0,.982-.982V62.52a9.363,9.363,0,0,1-4.121-4.26Z" transform="translate(-2.129 -4.154)" fill="#ffab03"/>
      <path id="Trazado_1175169" data-name="Trazado 1175169" d="M35.992,61.779H46.772a9.4,9.4,0,0,1-2.927-3.519H35.01V60.8a.982.982,0,0,0,.982.982Z" transform="translate(-2.415 -4.154)" fill="#fff" opacity="0.3"/>
      <path id="Trazado_1175170" data-name="Trazado 1175170" d="M40.212,56.039h3.306a9.249,9.249,0,0,1-.278-2.223,8.544,8.544,0,0,1,.1-1.3h-4.1v2.538A.98.98,0,0,0,40.212,56.039Z" transform="translate(-2.727 -3.73)" fill="#fff" opacity="0.3"/>
      <path id="Trazado_1175171" data-name="Trazado 1175171" d="M35.992,50.3h7.483a9.409,9.409,0,0,1,2.2-3.519H35.01v2.538a.988.988,0,0,0,.982.982Z" transform="translate(-2.415 -3.306)" fill="#fff" opacity="0.3"/>
      <path id="Trazado_1175172" data-name="Trazado 1175172" d="M12.4,28.286,5.8,30.694a2.853,2.853,0,0,0-1.7,3.668l2.677,7.363a2.853,2.853,0,0,0,3.668,1.7l6.6-2.408a2.853,2.853,0,0,0,1.7-3.668l-2.686-7.382A2.852,2.852,0,0,0,12.4,28.286Z" transform="translate(-0.12 -1.928)" fill="#ef4a51"/>
      <path id="Trazado_1175173" data-name="Trazado 1175173" d="M4,35.474a1.906,1.906,0,0,0-1.139,2.445l1.01,2.76a1.906,1.906,0,0,0,2.445,1.139l.194-.074L4.2,35.4Z" transform="translate(-0.033 -2.466)" fill="#e2e2e2"/>
      <path id="Trazado_1175174" data-name="Trazado 1175174" d="M4.261,35.41l-.194.065a2.225,2.225,0,0,0-.213.1,1.913,1.913,0,0,0-.093,1.5l1.01,2.76a1.908,1.908,0,0,0,1.547,1.232Z" transform="translate(-0.1 -2.467)" fill="#fff" opacity="0.5"/>
      <path id="Trazado_1175175" data-name="Trazado 1175175" d="M40.75,21.22l2.843,7.808A4.155,4.155,0,0,0,40.75,21.22Z" transform="translate(-2.839 -1.401)" fill="#7cb5e8"/>
      <path id="Trazado_1175176" data-name="Trazado 1175176" d="M19.141,40.32a2,2,0,0,1-.157.315.325.325,0,0,1-.046.074,2.828,2.828,0,0,1-.759.834c-.639,3.427-1.852,6.233-3.362,6.557-2.714.593-3.242-1.852-4.084-3.723-.028.009-.046.009-.074.019-.083.157-.167.306-.241.454a6.611,6.611,0,0,0,.75,6.492A4.828,4.828,0,0,1,12,55.815L10.009,60.8h8.863l.5-2.649a6.041,6.041,0,0,1,1.454-2.89c7.261-8.058.593-13.439-1.686-14.939Z" transform="translate(-0.559 -2.829)" fill="#8aba55"/>
      <path id="Trazado_1175177" data-name="Trazado 1175177" d="M25.321,53.891a16.048,16.048,0,0,1-1.287-1.241,14.808,14.808,0,0,1-2.417,3.519A6.071,6.071,0,0,0,20.31,58.5c1.047.676,2.084,1.213,3.288.778C25.793,58.476,27.108,55.4,25.321,53.891Z" transform="translate(-1.33 -3.74)" fill="#e2e2e2"/>
      <path id="Trazado_1175178" data-name="Trazado 1175178" d="M10.807,44.5c.852,1.871,1.371,4.316,4.084,3.723,1.278-.278,2.352-2.343,3.038-5.057-.139-.38-.269-.75-.37-1.1l-6.122,2.232h-.009l-.482.176c-.046.019-.093.019-.148.037s.009,0,.009-.009Z" transform="translate(-0.626 -2.958)" fill="#e2e2e2"/>
      <path id="Trazado_1175179" data-name="Trazado 1175179" d="M21.879,11.8c0,.815-1.537,1.408-1.732,2.158-.2.778.815,2.056.426,2.741s-2.028.445-2.584,1-.315,2.186-1,2.584-1.963-.63-2.741-.426c-.75.2-1.352,1.732-2.158,1.732s-1.408-1.537-2.158-1.732c-.778-.2-2.056.815-2.741.426s-.445-2.028-1-2.584S4,17.384,3.606,16.7s.63-1.963.426-2.741C3.828,13.207,2.3,12.6,2.3,11.8s1.537-1.408,1.732-2.158C4.226,8.863,3.208,7.576,3.6,6.9s2.028-.445,2.584-1,.315-2.186,1-2.584,1.963.63,2.741.417C10.673,3.537,11.275,2,12.08,2s1.408,1.537,2.158,1.732c.778.2,2.056-.815,2.741-.426s.445,2.028,1,2.584,2.186.315,2.584,1-.63,1.963-.426,2.741c.213.75,1.741,1.352,1.741,2.167Z" transform="translate(0 0)" fill="#7cb5e8"/>
      <path id="Trazado_1175180" data-name="Trazado 1175180" d="M42.519,43.876,29.257,7.45C26.6,17.017,20.764,23.788,15.92,27.122a2.828,2.828,0,0,1,1.028,1.343l2.686,7.382a2.848,2.848,0,0,1,.083,1.686c5.8-.556,14.5.871,22.608,6.344Z" transform="translate(-1.006 -0.402)" fill="#e2e2e2"/>
      <path id="Trazado_1175181" data-name="Trazado 1175181" d="M45.323,43.624a9.614,9.614,0,0,1,2.593-1.815L34.737,5.587a2.35,2.35,0,0,0-4.418,1.6L43.572,43.615h1.75Z" transform="translate(-2.059 -0.151)" fill="#ef4a51"/>
      <g id="Grupo_1225235" data-name="Grupo 1225235" transform="translate(6.468 2)">
        <path id="Trazado_1175182" data-name="Trazado 1175182" d="M44.423,31.918,34.846,5.587a2.365,2.365,0,0,0-3.01-1.408c-.065.028-.12.056-.176.083l9.5,26.368a2.366,2.366,0,0,0,3.01,1.417C44.256,32.01,44.339,31.964,44.423,31.918Z" transform="translate(-8.636 -2.151)" fill="#fff" opacity="0.3"/>
        <path id="Trazado_1175183" data-name="Trazado 1175183" d="M20.479,9.641c-.2-.778.815-2.056.426-2.741s-2.028-.445-2.584-1-.315-2.186-1-2.584-1.963.63-2.741.426C13.83,3.537,13.228,2,12.413,2S11,3.537,10.255,3.732c-.778.213-2.065-.815-2.741-.417-.519.3-.509,1.3-.713,2.01v.083a10.323,10.323,0,0,0,13.874,9.715,2.139,2.139,0,0,1-.194-1.167c.2-.75,1.732-1.352,1.732-2.158s-1.528-1.417-1.732-2.158Z" transform="translate(-6.8 -2)" fill="#fff" opacity="0.3"/>
        <path id="Trazado_1175184" data-name="Trazado 1175184" d="M16.319,29.99a2.853,2.853,0,0,0-3.668-1.7L7.27,30.249,9.456,36.26a2.853,2.853,0,0,0,3.668,1.7L18.5,36Z" transform="translate(-6.835 -3.928)" fill="#fff" opacity="0.3"/>
        <path id="Trazado_1175185" data-name="Trazado 1175185" d="M29.637,7.45A37.6,37.6,0,0,1,21.07,22.935a15.5,15.5,0,0,0,13.985,8.947h3.482Z" transform="translate(-7.854 -2.402)" fill="#fff" opacity="0.5"/>
        <path id="Trazado_1175186" data-name="Trazado 1175186" d="M42.558,20.99a3.883,3.883,0,0,0-.148.991A3.816,3.816,0,0,0,46.226,25.8a.72.72,0,0,0,.148-.019,4.06,4.06,0,0,0-.185-2.065A4.118,4.118,0,0,0,42.558,20.99Z" transform="translate(-9.429 -3.402)" fill="#fff" opacity="0.3"/>
        <path id="Trazado_1175187" data-name="Trazado 1175187" d="M24.111,52.65a14.808,14.808,0,0,1-2.417,3.519,4.693,4.693,0,0,0-.333.417,4.862,4.862,0,0,0,2.714.824,4.949,4.949,0,0,0,1.889-.38,2.624,2.624,0,0,0-.556-3.14,14.714,14.714,0,0,1-1.3-1.241Z" transform="translate(-7.875 -5.74)" fill="#fff" opacity="0.3"/>
      </g>
      <g id="Grupo_1225236" data-name="Grupo 1225236" transform="translate(15.211 37.491)" opacity="0.3">
        <path id="Trazado_1175188" data-name="Trazado 1175188" d="M19.611,40.32a2,2,0,0,1-.157.315.325.325,0,0,1-.046.074,2.828,2.828,0,0,1-.759.834l-.083.445c2.556,2.482,5.2,7.094-.37,13.272a6.041,6.041,0,0,0-1.454,2.89l-.5,2.649h3.112l.5-2.649a6.041,6.041,0,0,1,1.454-2.89c7.252-8.058.583-13.439-1.695-14.939Z" transform="translate(-16.24 -40.32)" fill="#fff"/>
      </g>
      <g id="Grupo_1225238" data-name="Grupo 1225238" transform="translate(2.3 2)">
        <path id="Trazado_1175189" data-name="Trazado 1175189" d="M14.31,8.3,9.8,16.228h1.158l4.5-7.928Z" transform="translate(-2.854 -2.465)"/>
        <path id="Trazado_1175190" data-name="Trazado 1175190" d="M11.111,10.68c0-1.473-.732-2.38-1.908-2.38C8.045,8.3,7.23,9.319,7.23,10.782c.009,1.667.972,2.408,1.917,2.408C10.129,13.19,11.111,12.421,11.111,10.68ZM9.175,12.144a.494.494,0,0,1-.37-.167,1.771,1.771,0,0,1-.333-1.223c0-.7.213-1.408.7-1.408.63,0,.695.963.695,1.38s-.065,1.417-.695,1.417Z" transform="translate(-2.664 -2.465)"/>
        <path id="Trazado_1175191" data-name="Trazado 1175191" d="M16.293,11.52c-1.167,0-1.973,1.028-1.973,2.5.009,1.658.972,2.4,1.917,2.4.972,0,1.954-.778,1.954-2.51,0-1.473-.732-2.39-1.9-2.39Zm-.037,3.844a.479.479,0,0,1-.361-.157,1.833,1.833,0,0,1-.352-1.223v-.009c0-.695.222-1.4.713-1.4.639,0,.7.963.7,1.38S16.895,15.364,16.256,15.364Z" transform="translate(-3.188 -2.703)"/>
        <g id="Grupo_1225237" data-name="Grupo 1225237">
          <path id="Trazado_1175192" data-name="Trazado 1175192" d="M12.4,28.286,5.8,30.694a2.853,2.853,0,0,0-1.7,3.668l2.677,7.363a2.853,2.853,0,0,0,3.668,1.7l6.6-2.408a2.853,2.853,0,0,0,1.7-3.668l-2.686-7.382A2.852,2.852,0,0,0,12.4,28.286Z" transform="translate(-2.42 -3.928)" fill="none" stroke="#000" stroke-linecap="round" stroke-linejoin="round" stroke-miterlimit="10" stroke-width="1.5"/>
          <path id="Trazado_1175193" data-name="Trazado 1175193" d="M4,35.474a1.906,1.906,0,0,0-1.139,2.445l1.01,2.76a1.906,1.906,0,0,0,2.445,1.139l.194-.074L4.2,35.4Z" transform="translate(-2.333 -4.466)" fill="none" stroke="#000" stroke-linecap="round" stroke-linejoin="round" stroke-miterlimit="10" stroke-width="1.5"/>
          <path id="Trazado_1175194" data-name="Trazado 1175194" d="M40.75,21.22l2.843,7.808A4.155,4.155,0,0,0,40.75,21.22Z" transform="translate(-5.139 -3.401)" fill="none" stroke="#000" stroke-linecap="round" stroke-linejoin="round" stroke-miterlimit="10" stroke-width="1.5"/>
          <path id="Trazado_1175195" data-name="Trazado 1175195" d="M46.7,16.161,50.071,3" transform="translate(-5.578 -2.074)" fill="none" stroke="#000" stroke-linecap="round" stroke-linejoin="round" stroke-miterlimit="10" stroke-width="1.5"/>
          <path id="Trazado_1175196" data-name="Trazado 1175196" d="M50.25,28.26l9.966,9.178" transform="translate(-5.84 -3.939)" fill="none" stroke="#000" stroke-linecap="round" stroke-linejoin="round" stroke-miterlimit="10" stroke-width="1.5"/>
          <path id="Trazado_1175197" data-name="Trazado 1175197" d="M50.97,23.529l8.465-.509" transform="translate(-5.894 -3.552)" fill="none" stroke="#000" stroke-linecap="round" stroke-linejoin="round" stroke-miterlimit="10" stroke-width="1.5"/>
          <path id="Trazado_1175198" data-name="Trazado 1175198" d="M49.81,20.045l7.511-4.325" transform="translate(-5.808 -3.013)" fill="none" stroke="#000" stroke-linecap="round" stroke-linejoin="round" stroke-miterlimit="10" stroke-width="1.5"/>
          <path id="Trazado_1175199" data-name="Trazado 1175199" d="M7.18,34.7l6.974-2.538" transform="translate(-2.66 -4.227)" fill="none" stroke="#000" stroke-linecap="round" stroke-linejoin="round" stroke-miterlimit="10" stroke-width="1.5"/>
          <path id="Trazado_1175200" data-name="Trazado 1175200" d="M8.25,37.648l6.974-2.538" transform="translate(-2.739 -4.445)" fill="none" stroke="#000" stroke-linecap="round" stroke-linejoin="round" stroke-miterlimit="10" stroke-width="1.5"/>
          <path id="Trazado_1175201" data-name="Trazado 1175201" d="M9.33,40.588,16.3,38.05" transform="translate(-2.819 -4.662)" fill="none" stroke="#000" stroke-linecap="round" stroke-linejoin="round" stroke-miterlimit="10" stroke-width="1.5"/>
          <path id="Trazado_1175202" data-name="Trazado 1175202" d="M19.141,40.32a2,2,0,0,1-.157.315.325.325,0,0,1-.046.074,2.828,2.828,0,0,1-.759.834c-.639,3.427-1.852,6.233-3.362,6.557-2.714.593-3.242-1.852-4.084-3.723-.028.009-.046.009-.074.019-.083.157-.167.306-.241.454a6.611,6.611,0,0,0,.75,6.492A4.828,4.828,0,0,1,12,55.815L10.009,60.8h8.863l.5-2.649a6.041,6.041,0,0,1,1.454-2.89c7.261-8.058.593-13.439-1.686-14.939Z" transform="translate(-2.859 -4.829)" fill="none" stroke="#000" stroke-linecap="round" stroke-linejoin="round" stroke-miterlimit="10" stroke-width="1.5"/>
          <path id="Trazado_1175203" data-name="Trazado 1175203" d="M25.321,53.891a16.048,16.048,0,0,1-1.287-1.241,14.808,14.808,0,0,1-2.417,3.519A6.071,6.071,0,0,0,20.31,58.5c1.047.676,2.084,1.213,3.288.778C25.793,58.476,27.108,55.4,25.321,53.891Z" transform="translate(-3.63 -5.74)" fill="none" stroke="#000" stroke-linecap="round" stroke-linejoin="round" stroke-miterlimit="10" stroke-width="1.5"/>
          <path id="Trazado_1175204" data-name="Trazado 1175204" d="M10.807,44.5c.852,1.871,1.371,4.316,4.084,3.723,1.278-.278,2.352-2.343,3.038-5.057-.139-.38-.269-.75-.37-1.1l-6.122,2.232h-.009l-.482.176c-.046.019-.093.019-.148.037s.009,0,.009-.009Z" transform="translate(-2.926 -4.958)" fill="none" stroke="#000" stroke-linecap="round" stroke-linejoin="round" stroke-miterlimit="10" stroke-width="1.5"/>
          <path id="Trazado_1175205" data-name="Trazado 1175205" d="M21.879,11.8c0,.815-1.537,1.408-1.732,2.158-.2.778.815,2.056.426,2.741s-2.028.445-2.584,1-.315,2.186-1,2.584-1.963-.63-2.741-.426c-.75.2-1.352,1.732-2.158,1.732s-1.408-1.537-2.158-1.732c-.778-.2-2.056.815-2.741.426s-.445-2.028-1-2.584S4,17.384,3.606,16.7s.63-1.963.426-2.741C3.828,13.207,2.3,12.6,2.3,11.8s1.537-1.408,1.732-2.158C4.226,8.863,3.208,7.576,3.6,6.9s2.028-.445,2.584-1,.315-2.186,1-2.584,1.963.63,2.741.417C10.673,3.537,11.275,2,12.08,2s1.408,1.537,2.158,1.732c.778.2,2.056-.815,2.741-.426s.445,2.028,1,2.584,2.186.315,2.584,1-.63,1.963-.426,2.741c.213.75,1.741,1.352,1.741,2.167Z" transform="translate(-2.3 -2)" fill="none" stroke="#000" stroke-linecap="round" stroke-linejoin="round" stroke-miterlimit="10" stroke-width="1.5"/>
          <path id="Trazado_1175206" data-name="Trazado 1175206" d="M51.94,55.243a1.574,1.574,0,1,0,1.574-1.574,1.574,1.574,0,1,1,1.574-1.574" transform="translate(-5.965 -5.583)" fill="none" stroke="#000" stroke-linecap="round" stroke-linejoin="round" stroke-miterlimit="10" stroke-width="1.5"/>
          <path id="Trazado_1175207" data-name="Trazado 1175207" d="M53.64,50.434V49.35" transform="translate(-6.091 -5.496)" fill="none" stroke="#000" stroke-linecap="round" stroke-linejoin="round" stroke-miterlimit="10" stroke-width="1.5"/>
          <path id="Trazado_1175208" data-name="Trazado 1175208" d="M53.64,58.4V57.32" transform="translate(-6.091 -6.085)" fill="none" stroke="#000" stroke-linecap="round" stroke-linejoin="round" stroke-miterlimit="10" stroke-width="1.5"/>
          <circle id="Elipse_12650" data-name="Elipse 12650" cx="9.336" cy="9.336" r="9.336" transform="translate(38.214 38.751)" fill="none" stroke="#000" stroke-linecap="round" stroke-linejoin="round" stroke-miterlimit="10" stroke-width="1.5"/>
          <path id="Trazado_1175209" data-name="Trazado 1175209" d="M45.393,46.78H32.112a.982.982,0,0,0-.982.982v3.362a.982.982,0,0,0,.982.982H42.744a9.283,9.283,0,0,1,2.649-5.325Z" transform="translate(-4.429 -5.306)" fill="none" stroke="#000" stroke-linecap="round" stroke-linejoin="round" stroke-miterlimit="10" stroke-width="1.5"/>
          <path id="Trazado_1175210" data-name="Trazado 1175210" d="M36.332,52.52a.982.982,0,0,0-.982.982v3.362a.982.982,0,0,0,.982.982" transform="translate(-4.74 -5.73)" fill="none" stroke="#000" stroke-linecap="round" stroke-linejoin="round" stroke-miterlimit="10" stroke-width="1.5"/>
          <path id="Trazado_1175211" data-name="Trazado 1175211" d="M43.559,58.26H32.112a.982.982,0,0,0-.982.982V62.6a.982.982,0,0,0,.982.982H46.7a.982.982,0,0,0,.982-.982V62.52" transform="translate(-4.429 -6.154)" fill="none" stroke="#000" stroke-linecap="round" stroke-linejoin="round" stroke-miterlimit="10" stroke-width="1.5"/>
          <path id="Trazado_1175212" data-name="Trazado 1175212" d="M53.111,60.033a6.618,6.618,0,1,1,3.066-.741" transform="translate(-5.562 -5.306)" fill="none" stroke="#000" stroke-linecap="round" stroke-linejoin="round" stroke-miterlimit="10" stroke-width="1.5"/>
          <path id="Trazado_1175213" data-name="Trazado 1175213" d="M42.584,43.858,29.257,7.45C26.6,17.017,20.764,23.788,15.92,27.122a2.828,2.828,0,0,1,1.028,1.343l2.686,7.382a2.848,2.848,0,0,1,.083,1.686A34.777,34.777,0,0,1,37.49,41.1" transform="translate(-3.306 -2.402)" fill="none" stroke="#000" stroke-linecap="round" stroke-linejoin="round" stroke-miterlimit="10" stroke-width="1.5"/>
          <path id="Trazado_1175214" data-name="Trazado 1175214" d="M47.916,41.809,34.737,5.587a2.35,2.35,0,0,0-4.418,1.6" transform="translate(-4.359 -2.151)" fill="none" stroke="#000" stroke-linecap="round" stroke-linejoin="round" stroke-miterlimit="10" stroke-width="1.5"/>
        </g>
      </g>
    </g>
  </g>
</svg>
