<svg xmlns="http://www.w3.org/2000/svg" xmlns:xlink="http://www.w3.org/1999/xlink" width="108" height="108" viewBox="0 0 108 108">
  <defs>
    <filter id="Trazado_904820" x="0" y="0" width="108" height="108" filterUnits="userSpaceOnUse">
      <feOffset dy="3" input="SourceAlpha"/>
      <feGaussianBlur stdDeviation="3" result="blur"/>
      <feFlood flood-opacity="0.161"/>
      <feComposite operator="in" in2="blur"/>
      <feComposite in="SourceGraphic"/>
    </filter>
  </defs>
  <g id="Grupo_1225231" data-name="Grupo 1225231" transform="translate(-617.97 -322)">
    <g id="Grupo_1224995" data-name="Grupo 1224995" transform="translate(-2.029 -140)">
      <g id="Grupo_1203794" data-name="Grupo 1203794" transform="translate(0 -419)">
        <g id="Grupo_1203639" data-name="Grupo 1203639" transform="translate(0 81)">
          <g id="Grupo_1202437" data-name="Grupo 1202437" transform="translate(0.523 386.813)">
            <g id="Grupo_1177315" data-name="Grupo 1177315" transform="translate(-0.523 -112.813)">
              <g id="Grupo_1173585" data-name="Grupo 1173585" transform="translate(629 532)">
                <g id="Grupo_1173428" data-name="Grupo 1173428" transform="translate(0 0)">
                  <g id="Grupo_1171958" data-name="Grupo 1171958">
                    <g id="Grupo_1167341" data-name="Grupo 1167341">
                      <g id="Grupo_1166792" data-name="Grupo 1166792">
                        <g transform="matrix(1, 0, 0, 1, -9, -6)" filter="url(#Trazado_904820)">
                          <g id="Trazado_904820-2" data-name="Trazado 904820" transform="translate(9 6)" fill="#fff4e6">
                            <path d="M 44.99999618530273 88.49999237060547 C 39.12687301635742 88.49999237060547 33.43022155761719 87.35006713867188 28.06829643249512 85.08216857910156 C 22.88852119445801 82.89130401611328 18.23629570007324 79.75457763671875 14.24084663391113 75.75914001464844 C 10.24540901184082 71.76369476318359 7.108683586120605 67.11146545410156 4.917821407318115 61.93169403076172 C 2.649921178817749 56.56976699829102 1.499996185302734 50.87311553955078 1.499996185302734 44.99999237060547 C 1.499996185302734 39.12686920166016 2.649921178817749 33.43021774291992 4.917821407318115 28.06829261779785 C 7.108683586120605 22.88851737976074 10.24540901184082 18.23630523681641 14.24084663391113 14.24085521697998 C 18.23629570007324 10.24540519714355 22.88852119445801 7.108692169189453 28.06829643249512 4.917829990386963 C 33.43022155761719 2.649929761886597 39.12687301635742 1.500004887580872 44.99999618530273 1.500004887580872 C 50.87311935424805 1.500004887580872 56.56977081298828 2.649929761886597 61.93169784545898 4.917829990386963 C 67.11147308349609 7.108692169189453 71.76369476318359 10.24540519714355 75.75914764404297 14.24085521697998 C 79.75458526611328 18.23630523681641 82.89131164550781 22.88851737976074 85.08216857910156 28.06829261779785 C 87.35007476806641 33.43021774291992 88.5 39.12686920166016 88.5 44.99999237060547 C 88.5 50.87311553955078 87.35007476806641 56.56976699829102 85.08216857910156 61.93169403076172 C 82.89131164550781 67.11146545410156 79.75458526611328 71.76369476318359 75.75914764404297 75.75914001464844 C 71.76369476318359 79.75457763671875 67.11147308349609 82.89130401611328 61.93169784545898 85.08216857910156 C 56.56977081298828 87.35006713867188 50.87311935424805 88.49999237060547 44.99999618530273 88.49999237060547 Z" stroke="none"/>
                            <path d="M 44.99999618530273 2.999992370605469 C 39.32870864868164 2.999992370605469 33.82865142822266 4.11004638671875 28.65262603759766 6.299331665039062 C 23.65165710449219 8.414566040039062 19.15968322753906 11.44333648681641 15.301513671875 15.30150604248047 C 11.44333648681641 19.15967559814453 8.414566040039062 23.65164947509766 6.299339294433594 28.65262222290039 C 4.110054016113281 33.82864761352539 2.999992370605469 39.32870483398438 2.999992370605469 44.99999237060547 C 2.999992370605469 50.67127990722656 4.110054016113281 56.17132186889648 6.299339294433594 61.34736633300781 C 8.414566040039062 66.34833526611328 11.44333648681641 70.84029388427734 15.301513671875 74.69846343994141 C 19.15968322753906 78.55663299560547 23.65165710449219 81.58540344238281 28.65262603759766 83.70063781738281 C 33.82865142822266 85.88992309570312 39.32870864868164 86.99997711181641 44.99999618530273 86.99997711181641 C 50.67128372192383 86.99997711181641 56.17134094238281 85.88992309570312 61.34736633300781 83.70063781738281 C 66.34834289550781 81.58540344238281 70.84030914306641 78.55663299560547 74.69847869873047 74.69846343994141 C 78.55665588378906 70.84029388427734 81.58542633056641 66.34833526611328 83.70065307617188 61.34736633300781 C 85.88993835449219 56.17132186889648 87 50.67127990722656 87 44.99999237060547 C 87 39.32870483398438 85.88993835449219 33.82864761352539 83.70065307617188 28.65262222290039 C 81.58542633056641 23.65164947509766 78.55665588378906 19.15967559814453 74.69847869873047 15.30150604248047 C 70.84030914306641 11.44333648681641 66.34834289550781 8.414566040039062 61.34736633300781 6.299331665039062 C 56.17134094238281 4.11004638671875 50.67128372192383 2.999992370605469 44.99999618530273 2.999992370605469 M 44.99999618530273 -7.62939453125e-06 C 69.85281372070312 -7.62939453125e-06 90 20.14717864990234 90 44.99999237060547 C 90 69.85279083251953 69.85281372070312 89.99997711181641 44.99999618530273 89.99997711181641 C 20.14717864990234 89.99997711181641 -7.62939453125e-06 69.85279083251953 -7.62939453125e-06 44.99999237060547 C -7.62939453125e-06 20.14717864990234 20.14717864990234 -7.62939453125e-06 44.99999618530273 -7.62939453125e-06 Z" stroke="none" fill="#ff9d1c"/>
                          </g>
                        </g>
                      </g>
                    </g>
                  </g>
                </g>
              </g>
            </g>
          </g>
        </g>
      </g>
    </g>
    <g id="statistics_9655388" transform="translate(635.88 394.323)">
      <g id="Grupo_1225230" data-name="Grupo 1225230" transform="translate(9.262 -55.591)">
        <g id="Grupo_1225227" data-name="Grupo 1225227" transform="translate(0 0)">
          <circle id="Elipse_12646" data-name="Elipse 12646" cx="18.969" cy="18.969" r="18.969" transform="translate(0 26.822) rotate(-45)" fill="#a4d4ff"/>
          <g id="Grupo_1225226" data-name="Grupo 1225226" transform="translate(11.685 7.852)">
            <path id="Trazado_1175137" data-name="Trazado 1175137" d="M132.211,36.431c-2.166-1.91-1.257-2.84.449-3.312a38.129,38.129,0,0,1,5.577-.608c1.4-.3,1.8-1.283.733-2.211-1.257-1.09-3.458-2.288-3.971-3.264-.708-1.349-.194-1.751.72-2.034,1.936-.6,5.664-.66,3.358-8.034a19,19,0,0,0-21.135,6.576,11.033,11.033,0,0,1,2.241,4.319c.294,6.013,3.135,5.962,3.97,6.287,2.111.823,3.695,5.723,5.013,7.251.763.885,2.372,2.741,4.912,1.394C137.158,41.162,133.122,37.234,132.211,36.431Z" transform="translate(-117.943 -16.001)" fill="#89c053" fill-rule="evenodd"/>
            <path id="Trazado_1175138" data-name="Trazado 1175138" d="M135.151,302.076c.2-4.782-5.6-1.467-6.421-1.9a18.986,18.986,0,0,0,7.866,5.125c.028-.253-.024-.215-.006-.51C136.742,302.288,135.107,303.113,135.151,302.076Z" transform="translate(-127.547 -268.367)" fill="#89c053" fill-rule="evenodd"/>
            <path id="Trazado_1175139" data-name="Trazado 1175139" d="M353.808,161.237c-1.753,1.714.762,5.411-3.144,7.819-2.251,1.388,1.256,4.159,0,7.4a1.77,1.77,0,0,0,.48,2.036,19,19,0,0,0,7.161-18.173C355.838,160.223,354.472,160.588,353.808,161.237Z" transform="translate(-324.45 -144.476)" fill="#89c053" fill-rule="evenodd"/>
          </g>
        </g>
        <g id="Grupo_1225228" data-name="Grupo 1225228" transform="translate(0.504 28.859)">
          <path id="Trazado_1175140" data-name="Trazado 1175140" d="M16.547,375.819h6.008a.549.549,0,0,1,.548.548v10.988a.549.549,0,0,1-.548.548H16.547a.549.549,0,0,1-.548-.548V376.367A.549.549,0,0,1,16.547,375.819Z" transform="translate(-15.999 -357.36)" fill="#f76c82" fill-rule="evenodd"/>
          <path id="Trazado_1175141" data-name="Trazado 1175141" d="M389.158,282.243h6.008a.549.549,0,0,1,.548.548v21.252a.549.549,0,0,1-.548.548h-6.008a.549.549,0,0,1-.548-.548V282.791A.549.549,0,0,1,389.158,282.243Z" transform="translate(-347.741 -274.048)" fill="#66d4f1" fill-rule="evenodd"/>
          <path id="Trazado_1175142" data-name="Trazado 1175142" d="M140.751,207.526h6.008a.549.549,0,0,1,.548.548v29.447a.549.549,0,0,1-.548.548h-6.008a.549.549,0,0,1-.548-.548V208.074A.549.549,0,0,1,140.751,207.526Z" transform="translate(-126.58 -207.526)" fill="#fdcd56" fill-rule="evenodd"/>
          <path id="Trazado_1175143" data-name="Trazado 1175143" d="M264.955,282.243h6.008a.549.549,0,0,1,.548.548v21.252a.549.549,0,0,1-.548.548h-6.008a.549.549,0,0,1-.548-.548V282.791A.549.549,0,0,1,264.955,282.243Z" transform="translate(-237.161 -274.048)" fill="#c6ea94" fill-rule="evenodd"/>
        </g>
        <g id="Grupo_1225229" data-name="Grupo 1225229" transform="translate(36.148 43.506)">
          <circle id="Elipse_12647" data-name="Elipse 12647" cx="8.226" cy="8.226" r="8.226" transform="translate(0.551 0.542)" fill="#fdcd56"/>
          <circle id="Elipse_12648" data-name="Elipse 12648" cx="6.201" cy="6.201" r="6.201" transform="translate(0 8.768) rotate(-45)" fill="#f5b945"/>
        </g>
      </g>
      <path id="Trazado_1175144" data-name="Trazado 1175144" d="M56.622,55.709a2.282,2.282,0,0,1-1.652,2.137l0,.2a.769.769,0,0,1-.749.786h-.019a.768.768,0,0,1-.767-.75l0-.218a2.9,2.9,0,0,1-1.17-.743A.768.768,0,0,1,53.32,56c.375.354.53.431.868.431a.739.739,0,1,0,0-1.442,2.354,2.354,0,0,1-2.435-2.256,2.282,2.282,0,0,1,1.654-2.137l-.007-.251a.769.769,0,0,1,.749-.787h.019a.768.768,0,0,1,.767.749l.007.3a2.562,2.562,0,0,1,1.366.9.767.767,0,1,1-1.283.842,1.646,1.646,0,0,0-.838-.341.738.738,0,1,0,0,1.441,2.354,2.354,0,0,1,2.435,2.257Zm-2.435,3.917a5.433,5.433,0,1,0-5.433-5.434A5.439,5.439,0,0,0,54.187,59.626Zm0-12.4a6.969,6.969,0,1,0,6.968,6.969A6.976,6.976,0,0,0,54.187,47.223Zm0,14.427a7.458,7.458,0,1,0-7.458-7.458A7.466,7.466,0,0,0,54.187,61.65ZM51.4,39.741h5.57v5.9a8.95,8.95,0,0,0-5.57,0ZM43.349,60.553H37.78V39.741h5.569Zm-13.623,0h-5.57V31.546h5.57ZM58.508,46.307V38.973a.768.768,0,0,0-.768-.768H53.41a19.67,19.67,0,0,0,1.18-2.575.768.768,0,1,0-1.439-.537,18.107,18.107,0,0,1-1.514,3.112h-1a.768.768,0,0,0-.767.768V40.63A18.354,18.354,0,0,1,47.76,42.7c-.066-.2,0-.374.118-.672a6.633,6.633,0,0,0-.317-4.792,4.356,4.356,0,0,1-.391-1.74.768.768,0,0,0-1.512-.27,5.153,5.153,0,0,0,.451,2.513,5.245,5.245,0,0,1,.337,3.735,2.244,2.244,0,0,0,.078,2.175,18.272,18.272,0,0,1-1.639,1.027v-5.7a.768.768,0,0,0-.767-.768H37.012a.768.768,0,0,0-.768.768v7.966l-.154,0a18.24,18.24,0,0,1-4.828-.648V35.242a5.1,5.1,0,0,0,.329.43,5.168,5.168,0,0,0,3.755,2.139,4.454,4.454,0,0,0,2.1-.568,2.626,2.626,0,0,0,1.506-2.876.768.768,0,1,0-1.516.243,1.11,1.11,0,0,1-.71,1.276c-1.849.981-3.02-.114-3.971-1.217a15.1,15.1,0,0,1-1.434-2.455l-.058-.111V30.778a.768.768,0,0,0-.768-.767h-.37a8.584,8.584,0,0,0-1.8-2.277.768.768,0,0,0-.971,1.19A5.249,5.249,0,0,1,28.3,30.01H23.388a.768.768,0,0,0-.767.767v10.2a18.086,18.086,0,0,1-4.176-7.757.768.768,0,1,0-1.489.377,19.655,19.655,0,0,0,5.664,9.567V61.321a.768.768,0,0,0,.767.768h7.105a.768.768,0,0,0,.768-.768V47.881a19.764,19.764,0,0,0,4.828.6l.154,0V61.321a.767.767,0,0,0,.768.768h7.105a.768.768,0,0,0,.767-.768V46.412a19.945,19.945,0,0,0,4.982-3.545v3.44a8.994,8.994,0,1,0,8.641,0ZM16.577,25.759a19.738,19.738,0,0,1,39.25,2.981v.045a.768.768,0,0,1-.768.763h0a.767.767,0,0,1-.763-.772v-.041a18.1,18.1,0,0,0-.155-2.368c-1.685-.017-2.793.221-3.294.712a2.431,2.431,0,0,0-.5,1.728.768.768,0,0,1-.767.74h-.028a.768.768,0,0,1-.739-.8,3.824,3.824,0,0,1,.956-2.771c.794-.777,2.078-1.142,4.1-1.151A18.27,18.27,0,0,0,43.224,12c.531,2.266.461,3.969-.212,5.177a4.947,4.947,0,0,1-3.463,2.169c-.216.056-.422.108-.6.163-.426.132-.5.223-.512.234a1.454,1.454,0,0,0,.245.709,8.839,8.839,0,0,0,2.107,1.772c.589.415,1.2.845,1.687,1.268a1.985,1.985,0,0,1,.822,2.042,2.271,2.271,0,0,1-1.9,1.5,10.183,10.183,0,0,1-1.318.106c-.663.032-1.485.072-2.31.161-.028,0-.056,0-.084,0a.768.768,0,0,1-.08-1.531c.869-.093,1.717-.134,2.4-.168.443-.022.944-.046,1.075-.074.506-.108.711-.3.732-.381s-.062-.256-.342-.5c-.43-.373-1.007-.78-1.566-1.174a8.54,8.54,0,0,1-2.581-2.313,2.431,2.431,0,0,1-.3-2.018A2.136,2.136,0,0,1,38.5,18.038c.214-.066.436-.123.671-.184a3.569,3.569,0,0,0,2.5-1.429c.559-1,.488-2.711-.206-5.077a18.155,18.155,0,0,0-19.5,5.953,11.758,11.758,0,0,1,1.992,4.292c.009.179.02.357.034.531a.768.768,0,0,1-.7.827l-.063,0a.768.768,0,0,1-.764-.706c-.015-.189-.027-.384-.036-.579A11.816,11.816,0,0,0,21,18.594a17.922,17.922,0,0,0-2.907,7.4.768.768,0,1,1-1.518-.23ZM9.116,34.906a.767.767,0,0,0,1.058.244L26.766,24.756l13.406,7.975a.767.767,0,0,0,.393.108H60.438l-1.561,1.428A.768.768,0,0,0,59.915,35.4l3.017-2.762a.768.768,0,0,0,.048-1.085l-2.763-3.017a.768.768,0,0,0-1.133,1.036L60.67,31.3H40.775L27.147,23.2a.767.767,0,0,0-.8.009L9.359,33.848a.767.767,0,0,0-.243,1.058ZM16.1,60.553h-5.57V50H16.1Zm.768-12.085a.768.768,0,0,1,.767.767V61.321a.767.767,0,0,1-.767.768H9.766A.768.768,0,0,1,9,61.321V49.236a.768.768,0,0,1,.768-.767Z" transform="translate(0 -57.509)" fill-rule="evenodd"/>
    </g>
  </g>
</svg>
