<svg xmlns="http://www.w3.org/2000/svg" xmlns:xlink="http://www.w3.org/1999/xlink" width="103" height="103" viewBox="0 0 103 103">
  <defs>
    <filter id="Trazado_978624" x="0" y="0" width="103" height="103" filterUnits="userSpaceOnUse">
      <feOffset dy="3" input="SourceAlpha"/>
      <feGaussianBlur stdDeviation="3" result="blur"/>
      <feFlood flood-opacity="0.161"/>
      <feComposite operator="in" in2="blur"/>
      <feComposite in="SourceGraphic"/>
    </filter>
  </defs>
  <g id="Grupo_1225233" data-name="Grupo 1225233" transform="translate(-171 -2493.156)">
    <g id="Grupo_1224997" data-name="Grupo 1224997" transform="translate(0 1480.156)">
      <g id="Grupo_1220654" data-name="Grupo 1220654" transform="translate(180 1019)">
        <g id="Grupo_1176881" data-name="Grupo 1176881">
          <g id="Grupo_1175148" data-name="Grupo 1175148">
            <g id="Grupo_1173798" data-name="Grupo 1173798">
              <g id="Grupo_1171925" data-name="Grupo 1171925">
                <g id="Grupo_1164524" data-name="Grupo 1164524">
                  <g id="Grupo_1144123" data-name="Grupo 1144123">
                    <g transform="matrix(1, 0, 0, 1, -9, -6)" filter="url(#Trazado_978624)">
                      <g id="Trazado_978624-2" data-name="Trazado 978624" transform="translate(9 6)" fill="#fbfbf9">
                        <path d="M 42.5 83.5 C 36.96437835693359 83.5 31.59512901306152 82.41617584228516 26.54141235351562 80.27863311767578 C 21.65934181213379 78.21369171142578 17.27447128295898 75.25723266601562 13.50862312316895 71.49137878417969 C 9.742764472961426 67.72553253173828 6.786305904388428 63.34066009521484 4.721364498138428 58.45858764648438 C 2.583823442459106 53.40486907958984 1.5 48.03562164306641 1.5 42.5 C 1.5 36.96437835693359 2.583823442459106 31.59512901306152 4.721364498138428 26.54141235351562 C 6.786305904388428 21.65934181213379 9.742764472961426 17.27447128295898 13.50862312316895 13.50862312316895 C 17.27447128295898 9.742764472961426 21.65934181213379 6.786305904388428 26.54141235351562 4.721364498138428 C 31.59512901306152 2.583823442459106 36.96437835693359 1.5 42.5 1.5 C 48.03562164306641 1.5 53.40486907958984 2.583823442459106 58.45858764648438 4.721364498138428 C 63.34066009521484 6.786305904388428 67.72553253173828 9.742764472961426 71.49137878417969 13.50862312316895 C 75.25723266601562 17.27447128295898 78.21369171142578 21.65934181213379 80.27863311767578 26.54141235351562 C 82.41617584228516 31.59512901306152 83.5 36.96437835693359 83.5 42.5 C 83.5 48.03562164306641 82.41617584228516 53.40486907958984 80.27863311767578 58.45858764648438 C 78.21369171142578 63.34066009521484 75.25723266601562 67.72553253173828 71.49137878417969 71.49137878417969 C 67.72553253173828 75.25723266601562 63.34066009521484 78.21369171142578 58.45858764648438 80.27863311767578 C 53.40486907958984 82.41617584228516 48.03562164306641 83.5 42.5 83.5 Z" stroke="none"/>
                        <path d="M 42.5 3 C 37.16621398925781 3 31.99356079101562 4.043960571289062 27.125732421875 6.102882385253906 C 22.42246627807617 8.092185974121094 18.19785308837891 10.94070434570312 14.56928253173828 14.56928253173828 C 10.94070434570312 18.19785308837891 8.092185974121094 22.42246627807617 6.102882385253906 27.125732421875 C 4.043960571289062 31.99356079101562 3 37.16621398925781 3 42.5 C 3 47.83378601074219 4.043960571289062 53.00643920898438 6.102882385253906 57.87425231933594 C 8.092185974121094 62.57753372192383 10.94070434570312 66.80213165283203 14.56928253173828 70.43071746826172 C 18.19786834716797 74.05929565429688 22.42246627807617 76.90781402587891 27.125732421875 78.89711761474609 C 31.99356079101562 80.95603942871094 37.16621398925781 82 42.5 82 C 47.83378601074219 82 53.00642395019531 80.95603942871094 57.87425231933594 78.89711761474609 C 62.57753372192383 76.90781402587891 66.80213165283203 74.05929565429688 70.43071746826172 70.43071746826172 C 74.05929565429688 66.80213165283203 76.90781402587891 62.57753372192383 78.89711761474609 57.87425231933594 C 80.95603942871094 53.00642395019531 82 47.83378601074219 82 42.5 C 82 37.16621398925781 80.95603942871094 31.99356079101562 78.89711761474609 27.125732421875 C 76.90781402587891 22.42246627807617 74.05929565429688 18.19786834716797 70.43071746826172 14.56928253173828 C 66.80213165283203 10.94070434570312 62.57753372192383 8.092185974121094 57.87425231933594 6.102882385253906 C 53.00643920898438 4.043960571289062 47.83378601074219 3 42.5 3 M 42.5 0 C 65.97209167480469 0 85 19.02789306640625 85 42.5 C 85 65.97209167480469 65.97209167480469 85 42.5 85 C 19.02789306640625 85 0 65.97209167480469 0 42.5 C 0 19.02789306640625 19.02789306640625 0 42.5 0 Z" stroke="none" fill="#7b776f"/>
                      </g>
                    </g>
                  </g>
                </g>
              </g>
            </g>
          </g>
        </g>
      </g>
    </g>
    <g id="analytics_2081968" transform="translate(194.248 2513.404)">
      <g id="Grupo_1225232" data-name="Grupo 1225232" transform="translate(1.879 1.879)">
        <path id="Trazado_1175145" data-name="Trazado 1175145" d="M23.655,48.6a17.6,17.6,0,0,0,16.8-3.49l5,5-1.609,1.609-2.681-1.635a21.921,21.921,0,0,1-7.973,3.305l-.747,3.05H25.414l-.747-3.05a21.59,21.59,0,0,1-2.892-.782,8.666,8.666,0,0,0-.624-4.976l.035-.018a17.218,17.218,0,0,0,2.47.985Z" transform="translate(-4.315 -7.212)" fill="#ffc729"/>
        <path id="Trazado_1175146" data-name="Trazado 1175146" d="M11.837,17.112a17.036,17.036,0,0,0-2.18,4.853,17.6,17.6,0,0,0,3.05,15.411,8.76,8.76,0,0,0-5.046.369A21.831,21.831,0,0,1,5.05,30.878L2,30.131V23.1l3.05-.747a21.921,21.921,0,0,1,3.305-7.973L6.721,11.7,11.7,6.721l2.681,1.635A21.921,21.921,0,0,1,22.351,5.05L23.1,2h7.033l.747,3.05a22.408,22.408,0,0,1,4.527,1.415v4.923a17.563,17.563,0,0,0-23.569,5.723Z" transform="translate(-2 -2)" fill="#ffc729"/>
        <path id="Trazado_1175147" data-name="Trazado 1175147" d="M56.552,25.033v7.033l-3.05.747A21.921,21.921,0,0,1,50.2,40.786l-.308.44-3.165-3.165a17.59,17.59,0,0,0-.7-20.043V18h5.2v.018A21.746,21.746,0,0,1,53.5,24.286Z" transform="translate(-7.322 -3.934)" fill="#ffc729"/>
      </g>
      <path id="Trazado_1175148" data-name="Trazado 1175148" d="M32.856,36.393l-2.637-2.637-2.637,2.637L24.945,39.03l-2.637-2.637-5.275-5.275L10.624,24.71a17.6,17.6,0,0,0,3.05,15.411,8.641,8.641,0,0,1,3.358,1.547,8.777,8.777,0,0,1,2.769,3.5l.035-.018a17.218,17.218,0,0,0,2.47.985,17.6,17.6,0,0,0,16.8-3.49Z" transform="translate(-1.088 -2.867)" fill="#ff826e"/>
      <path id="Trazado_1175149" data-name="Trazado 1175149" d="M53.162,41.879,54.92,54.187,42.612,52.429l3.516-3.516-1.934-1.934-5-5-6.25-6.25-2.637-2.637-2.637,2.637L25.03,38.363l-2.637-2.637-5.275-5.275L10.71,24.043a17.036,17.036,0,0,1,2.18-4.853L25.03,31.33l5.275-5.275L42.454,38.2l3.165,3.165L49.645,45.4Z" transform="translate(-1.174 -2.199)" fill="#b4dd7f"/>
      <path id="Trazado_1175150" data-name="Trazado 1175150" d="M40,14.307V3.758A1.763,1.763,0,0,1,41.758,2H57.582A1.763,1.763,0,0,1,59.34,3.758V14.307a1.763,1.763,0,0,1-1.758,1.758H41.758A1.763,1.763,0,0,1,40,14.307Z" transform="translate(-4.715 -0.121)" fill="#e6e9ed"/>
      <path id="Trazado_1175151" data-name="Trazado 1175151" d="M19.582,50.791a8.622,8.622,0,0,1-.123,1.442,8.789,8.789,0,1,1-11.8-9.652,8.774,8.774,0,0,1,8.4,1.178,8.777,8.777,0,0,1,2.769,3.5A8.631,8.631,0,0,1,19.582,50.791Z" transform="translate(-0.121 -4.957)" fill="#fcd770"/>
      <path id="Trazado_1175152" data-name="Trazado 1175152" d="M11.637,48.516a.88.88,0,0,1,.879.879h1.758a2.634,2.634,0,0,0-1.758-2.476V45H10.758v1.758H9V49.4a2.641,2.641,0,0,0,2.637,2.637.88.88,0,0,1,.879.879v.879h-.879a.88.88,0,0,1-.879-.879H9a2.634,2.634,0,0,0,1.758,2.476v1.92h1.758V55.549h1.758V52.912a2.641,2.641,0,0,0-2.637-2.637.88.88,0,0,1-.879-.879v-.879Z" transform="translate(-0.967 -5.32)"/>
      <path id="Trazado_1175153" data-name="Trazado 1175153" d="M55.5,14.186V3.637A2.641,2.641,0,0,0,52.867,1H37.043a2.641,2.641,0,0,0-2.637,2.637V5.052a22.8,22.8,0,0,0-2.929-.866L30.7,1H22.287l-.775,3.186A22.617,22.617,0,0,0,14.244,7.2l-2.8-1.7-5.95,5.95,1.7,2.8a22.578,22.578,0,0,0-3.01,7.268L1,22.286V30.7l3.186.775a22.638,22.638,0,0,0,2.135,5.733A9.663,9.663,0,1,0,19.984,48.4c.505.149,1.014.288,1.527.4l.775,3.186H30.7l.775-3.186a22.578,22.578,0,0,0,7.268-3.01l2.8,1.7,1.474-1.474.693.692-4.138,4.138,15.208,2.173L52.609,37.816l-4.138,4.138L45.578,39.06A22.618,22.618,0,0,0,48.8,31.476l3.186-.775V22.286L48.8,21.511a22.709,22.709,0,0,0-1.6-4.687h5.665A2.641,2.641,0,0,0,55.5,14.186ZM36.164,3.637a.881.881,0,0,1,.879-.879H52.867a.881.881,0,0,1,.879.879V14.186a.881.881,0,0,1-.879.879H37.043a.881.881,0,0,1-.879-.879ZM29.131,22.613l-5.275,5.275-11-11a16.659,16.659,0,0,1,21.552-5.1v2.4a2.641,2.641,0,0,0,2.637,2.637H40.1a16.674,16.674,0,0,1,1,17.763ZM5.8,30.584l-.109-.552-2.928-.713V23.668l2.929-.713L5.8,22.4a20.881,20.881,0,0,1,3.169-7.653l.313-.467L7.712,11.709l4-4L14.282,9.28l.467-.313A20.866,20.866,0,0,1,22.4,5.8l.551-.109.715-2.931H29.32l.713,2.929.551.109A21,21,0,0,1,34.406,6.94V9.818A18.454,18.454,0,0,0,8.033,26.494a18.261,18.261,0,0,0,2.749,9.675c-.038,0-.074-.005-.112-.005a9.634,9.634,0,0,0-2.7.392A20.934,20.934,0,0,1,5.8,30.584ZM36.7,39.7a16.641,16.641,0,0,1-4.05,2.311V35.648Zm-5.808,2.908a16.732,16.732,0,0,1-3.516.55V33.89l1.758-1.758,1.758,1.758Zm-5.275.565a16.581,16.581,0,0,1-3.516-.563v-6.96l1.758,1.758,1.758-1.758ZM20.34,42.02c-.335-.134-.667-.277-1-.433a9.717,9.717,0,0,0-2.521-3.208V30.374L20.34,33.89Zm-5.275-4.789a9.574,9.574,0,0,0-1.942-.74,16.454,16.454,0,0,1-3.065-12.882l5.007,5.007Zm-4.4,16.515a7.912,7.912,0,1,1,7.912-7.912A7.921,7.921,0,0,1,10.67,53.746Zm30.609-8.471L38.7,43.709l-.467.313a20.866,20.866,0,0,1-7.653,3.169l-.552.108-.712,2.93H23.667L22.955,47.3l-.552-.108a20.873,20.873,0,0,1-2.1-.541c.024-.27.042-.542.042-.818a9.705,9.705,0,0,0-.213-2.01,18.415,18.415,0,0,0,17.82-2.876l3.828,3.828Zm10.087-3.73,1.343,9.406L43.3,49.608,46.2,46.713,29.131,29.646l-5.275,5.275L10.528,21.592a16.608,16.608,0,0,1,1.362-3.185L23.856,30.374,29.131,25.1l19.34,19.34ZM47.192,22.4l.109.551,2.928.714v5.651l-2.929.714-.109.552a20.835,20.835,0,0,1-2.894,7.2l-1.912-1.912a18.416,18.416,0,0,0-.169-19.046h3.017A20.929,20.929,0,0,1,47.192,22.4Z"/>
      <path id="Trazado_1175154" data-name="Trazado 1175154" d="M43,5h1.758V6.758H43Z" transform="translate(-5.078 -0.484)"/>
      <path id="Trazado_1175155" data-name="Trazado 1175155" d="M43,9h1.758v1.758H43Z" transform="translate(-5.078 -0.967)"/>
      <path id="Trazado_1175156" data-name="Trazado 1175156" d="M43,13h1.758v1.758H43Z" transform="translate(-5.078 -1.451)"/>
      <path id="Trazado_1175157" data-name="Trazado 1175157" d="M47,13H57.549v1.758H47Z" transform="translate(-5.562 -1.451)"/>
      <path id="Trazado_1175158" data-name="Trazado 1175158" d="M47,9H57.549v1.758H47Z" transform="translate(-5.562 -0.967)"/>
      <path id="Trazado_1175159" data-name="Trazado 1175159" d="M47,5H57.549V6.758H47Z" transform="translate(-5.562 -0.484)"/>
      <path id="Trazado_1175160" data-name="Trazado 1175160" d="M18.755,17.092l1.163,1.318a13.279,13.279,0,0,1,1.3-1.011l-.99-1.452A15.1,15.1,0,0,0,18.755,17.092Z" transform="translate(-2.147 -1.807)"/>
      <path id="Trazado_1175161" data-name="Trazado 1175161" d="M26.242,13.376l.388,1.715a13.207,13.207,0,0,1,1.625-.262l-.171-1.749A14.868,14.868,0,0,0,26.242,13.376Z" transform="translate(-3.052 -1.461)"/>
      <path id="Trazado_1175162" data-name="Trazado 1175162" d="M22.256,14.76l.8,1.564a12.936,12.936,0,0,1,1.509-.657l-.6-1.654A14.837,14.837,0,0,0,22.256,14.76Z" transform="translate(-2.57 -1.573)"/>
      <path id="Trazado_1175163" data-name="Trazado 1175163" d="M44.253,34.461l1.67.549a14.837,14.837,0,0,0,.482-1.869l-1.727-.328A12.983,12.983,0,0,1,44.253,34.461Z" transform="translate(-5.229 -3.846)"/>
      <path id="Trazado_1175164" data-name="Trazado 1175164" d="M43.857,20.437l-1.452.99a13.117,13.117,0,0,1,2.281,7.417q0,.415-.025.825l1.755.109q.029-.463.029-.934A14.869,14.869,0,0,0,43.857,20.437Z" transform="translate(-5.006 -2.35)"/>
    </g>
  </g>
</svg>
