<svg xmlns="http://www.w3.org/2000/svg" width="876.922" height="550.764" viewBox="0 0 876.922 550.764">
  <g id="Grupo_1225199" data-name="Grupo 1225199" transform="translate(-344.231 -2741.985)">
    <g id="Grupo_1225182" data-name="Grupo 1225182" transform="translate(6871.207 -2234.979)">
      <g id="Grupo_1225138" data-name="Grupo 1225138" transform="translate(-6232.155 5082.695)">
        <g id="Grupo_1225134" data-name="Grupo 1225134" transform="translate(0 0)">
          <path id="Trazado_1160432" data-name="Trazado 1160432" d="M1011,944.853V739.5a8.3,8.3,0,0,1,8.3-8.3h362.124a8.3,8.3,0,0,1,8.3,8.3V974.145a8.3,8.3,0,0,1-8.3,8.3H1038.259" transform="translate(-1011 -731.2)" fill="#fff" stroke="#c1c7d7" stroke-linecap="round" stroke-linejoin="round" stroke-width="1.5"/>
          <path id="Trazado_1160433" data-name="Trazado 1160433" d="M1011,754.558V739.5a8.3,8.3,0,0,1,8.3-8.3h362.124a8.3,8.3,0,0,1,8.3,8.3v15.059Z" transform="translate(-1011 -731.2)" fill="#f6f3ef" stroke="#c1c7d7" stroke-linecap="round" stroke-linejoin="round" stroke-width="1.5"/>
          <path id="Trazado_1160434" data-name="Trazado 1160434" d="M1116.7,2051.313l3.215,3.228,6.405-6.342" transform="translate(-1103.267 -1880.831)" fill="none" stroke="#c1c7d7" stroke-linecap="round" stroke-linejoin="round" stroke-width="1.5"/>
          <g id="Grupo_1225126" data-name="Grupo 1225126" transform="translate(28.073 201.478)">
            <line id="Línea_713" data-name="Línea 713" x2="45.992" transform="translate(0 30.538)" fill="none" stroke="#c1c7d7" stroke-linecap="round" stroke-linejoin="round" stroke-width="1.5"/>
            <line id="Línea_714" data-name="Línea 714" x2="67.888" transform="translate(0 22.913)" fill="none" stroke="#c1c7d7" stroke-linecap="round" stroke-linejoin="round" stroke-width="1.5"/>
            <line id="Línea_715" data-name="Línea 715" x2="62.881" transform="translate(0 15.275)" fill="none" stroke="#c1c7d7" stroke-linecap="round" stroke-linejoin="round" stroke-width="1.5"/>
            <line id="Línea_716" data-name="Línea 716" x2="67.888" fill="none" stroke="#c1c7d7" stroke-linecap="round" stroke-linejoin="round" stroke-width="1.5"/>
          </g>
          <g id="Grupo_1225127" data-name="Grupo 1225127" transform="translate(13.433 170.546)">
            <rect id="Rectángulo_421615" data-name="Rectángulo 421615" width="6.443" height="6.443" fill="none" stroke="#c1c7d7" stroke-linecap="round" stroke-linejoin="round" stroke-width="1.5"/>
            <line id="Línea_717" data-name="Línea 717" x2="45.992" transform="translate(14.64 22.9)" fill="none" stroke="#c1c7d7" stroke-linecap="round" stroke-linejoin="round" stroke-width="1.5"/>
            <line id="Línea_718" data-name="Línea 718" x2="67.888" transform="translate(14.64 15.263)" fill="none" stroke="#c1c7d7" stroke-linecap="round" stroke-linejoin="round" stroke-width="1.5"/>
            <line id="Línea_719" data-name="Línea 719" x2="62.881" transform="translate(14.64 7.625)" fill="none" stroke="#c1c7d7" stroke-linecap="round" stroke-linejoin="round" stroke-width="1.5"/>
            <line id="Línea_720" data-name="Línea 720" x2="67.888" transform="translate(14.64)" fill="none" stroke="#c1c7d7" stroke-linecap="round" stroke-linejoin="round" stroke-width="1.5"/>
          </g>
          <g id="Grupo_1225128" data-name="Grupo 1225128" transform="translate(28.073 124.186)">
            <line id="Línea_721" data-name="Línea 721" x2="45.992" transform="translate(0 22.9)" fill="none" stroke="#c1c7d7" stroke-linecap="round" stroke-linejoin="round" stroke-width="1.5"/>
            <line id="Línea_722" data-name="Línea 722" x2="67.888" transform="translate(0 15.263)" fill="none" stroke="#c1c7d7" stroke-linecap="round" stroke-linejoin="round" stroke-width="1.5"/>
            <line id="Línea_723" data-name="Línea 723" x2="62.881" transform="translate(0 7.638)" fill="none" stroke="#c1c7d7" stroke-linecap="round" stroke-linejoin="round" stroke-width="1.5"/>
            <line id="Línea_724" data-name="Línea 724" x2="67.888" transform="translate(0 0)" fill="none" stroke="#c1c7d7" stroke-linecap="round" stroke-linejoin="round" stroke-width="1.5"/>
          </g>
          <g id="Grupo_1225129" data-name="Grupo 1225129" transform="translate(28.073 56.082)">
            <line id="Línea_725" data-name="Línea 725" x2="45.992" transform="translate(0 44.644)" fill="none" stroke="#c1c7d7" stroke-linecap="round" stroke-linejoin="round" stroke-width="1.5"/>
            <line id="Línea_726" data-name="Línea 726" x2="67.888" transform="translate(0 37.019)" fill="none" stroke="#c1c7d7" stroke-linecap="round" stroke-linejoin="round" stroke-width="1.5"/>
            <line id="Línea_727" data-name="Línea 727" x2="62.881" transform="translate(0 29.382)" fill="none" stroke="#c1c7d7" stroke-linecap="round" stroke-linejoin="round" stroke-width="1.5"/>
            <line id="Línea_728" data-name="Línea 728" x2="67.888" transform="translate(0 21.744)" fill="none" stroke="#c1c7d7" stroke-linecap="round" stroke-linejoin="round" stroke-width="1.5"/>
            <line id="Línea_729" data-name="Línea 729" x2="39.167" fill="none" stroke="#c1c7d7" stroke-linecap="round" stroke-linejoin="round" stroke-width="1.5"/>
          </g>
          <g id="Grupo_1225133" data-name="Grupo 1225133" transform="translate(19.698 33.192)">
            <rect id="Rectángulo_421616" data-name="Rectángulo 421616" width="47.148" height="5.465" transform="translate(0 76.367)" fill="#c1c7d7"/>
            <rect id="Rectángulo_421617" data-name="Rectángulo 421617" width="70.01" height="5.465" transform="translate(0 123.21)" fill="#c1c7d7"/>
            <line id="Línea_730" data-name="Línea 730" x2="34.414" transform="translate(260.737 65.641)" fill="none" stroke="#c1c7d7" stroke-linecap="round" stroke-linejoin="round" stroke-width="1.5"/>
            <g id="Grupo_1225130" data-name="Grupo 1225130" transform="translate(255.422)">
              <path id="Trazado_1160435" data-name="Trazado 1160435" d="M3349.78,1085.229a12.17,12.17,0,0,1-13.2,11.044,11.838,11.838,0,0,1-2.948-.635l-5.528,15.771a28.887,28.887,0,0,0,30.639-47.008l-12.2,11.425A12.14,12.14,0,0,1,3349.78,1085.229Z" transform="translate(-3308.754 -1055.248)" fill="#fff" stroke="#c1c7d7" stroke-linecap="round" stroke-linejoin="round" stroke-width="1.5"/>
              <path id="Trazado_1160436" data-name="Trazado 1160436" d="M3193.91,1230.5l-16.61,1.868a28.952,28.952,0,0,0,19.151,24.044l5.528-15.771a12.2,12.2,0,0,1-8.07-10.129Z" transform="translate(-3177.119 -1200.239)" fill="#ff9d1c" stroke="#c1c7d7" stroke-linecap="round" stroke-linejoin="round" stroke-width="1.5"/>
              <path id="Trazado_1160437" data-name="Trazado 1160437" d="M3192.664,1022.641a12.037,12.037,0,0,1-.026-2.44,12.174,12.174,0,0,1,21.007-7.244l12.2-11.425a28.879,28.879,0,0,0-49.855,17.169,28.424,28.424,0,0,0,.064,5.795l16.61-1.868Z" transform="translate(-3175.872 -992.38)" fill="#c1c7d7" stroke="#c1c7d7" stroke-linecap="round" stroke-linejoin="round" stroke-width="1.5"/>
            </g>
            <g id="Grupo_1225131" data-name="Grupo 1225131" transform="translate(116.104 8.39)">
              <line id="Línea_731" data-name="Línea 731" y2="27.094" transform="translate(0 19.253)" fill="none" stroke="#c1c7d7" stroke-linecap="round" stroke-linejoin="round" stroke-width="1.5"/>
              <line id="Línea_732" data-name="Línea 732" y2="46.347" transform="translate(109.673)" fill="none" stroke="#c1c7d7" stroke-linecap="round" stroke-linejoin="round" stroke-width="1.5"/>
              <line id="Línea_733" data-name="Línea 733" y2="37.553" transform="translate(100.536 8.794)" fill="none" stroke="#c1c7d7" stroke-linecap="round" stroke-linejoin="round" stroke-width="1.5"/>
              <line id="Línea_734" data-name="Línea 734" y2="20.206" transform="translate(91.398 26.141)" fill="none" stroke="#c1c7d7" stroke-linecap="round" stroke-linejoin="round" stroke-width="1.5"/>
              <line id="Línea_735" data-name="Línea 735" y2="29.229" transform="translate(82.261 17.118)" fill="none" stroke="#c1c7d7" stroke-linecap="round" stroke-linejoin="round" stroke-width="1.5"/>
              <line id="Línea_736" data-name="Línea 736" y2="33.029" transform="translate(73.124 13.318)" fill="none" stroke="#c1c7d7" stroke-linecap="round" stroke-linejoin="round" stroke-width="1.5"/>
              <line id="Línea_737" data-name="Línea 737" y2="27.806" transform="translate(63.974 18.541)" fill="none" stroke="#c1c7d7" stroke-linecap="round" stroke-linejoin="round" stroke-width="1.5"/>
              <line id="Línea_738" data-name="Línea 738" y2="15.212" transform="translate(54.837 31.135)" fill="none" stroke="#c1c7d7" stroke-linecap="round" stroke-linejoin="round" stroke-width="1.5"/>
              <line id="Línea_739" data-name="Línea 739" y2="30.424" transform="translate(45.699 15.924)" fill="none" stroke="#c1c7d7" stroke-linecap="round" stroke-linejoin="round" stroke-width="1.5"/>
              <line id="Línea_740" data-name="Línea 740" y2="41.353" transform="translate(36.562 4.994)" fill="none" stroke="#c1c7d7" stroke-linecap="round" stroke-linejoin="round" stroke-width="1.5"/>
              <line id="Línea_741" data-name="Línea 741" y2="31.847" transform="translate(27.425 14.5)" fill="none" stroke="#c1c7d7" stroke-linecap="round" stroke-linejoin="round" stroke-width="1.5"/>
              <line id="Línea_742" data-name="Línea 742" y2="13.547" transform="translate(18.287 32.8)" fill="none" stroke="#c1c7d7" stroke-linecap="round" stroke-linejoin="round" stroke-width="1.5"/>
              <line id="Línea_743" data-name="Línea 743" y2="37.553" transform="translate(9.15 8.794)" fill="none" stroke="#c1c7d7" stroke-linecap="round" stroke-linejoin="round" stroke-width="1.5"/>
            </g>
            <g id="Grupo_1225132" data-name="Grupo 1225132" transform="translate(91.996 72.682)">
              <path id="Trazado_1160438" data-name="Trazado 1160438" d="M1889.9,1842.207c55.535-39.51,86.213,9.531,123,32.546s58.725-32.216,86.34-25.3c22.138,5.541,42.674,25.3,42.674,25.3" transform="translate(-1889.9 -1793.89)" fill="none" stroke="#c1c7d7" stroke-linecap="round" stroke-linejoin="round" stroke-width="1.5"/>
              <line id="Línea_744" data-name="Línea 744" y1="106.038" transform="translate(251.257 3.393)" fill="none" stroke="#c1c7d7" stroke-linecap="round" stroke-linejoin="round" stroke-width="1.5"/>
              <line id="Línea_745" data-name="Línea 745" y1="94.461" transform="translate(221.786 11.247)" fill="none" stroke="#c1c7d7" stroke-linecap="round" stroke-linejoin="round" stroke-width="1.5"/>
              <line id="Línea_746" data-name="Línea 746" y1="66.935" transform="translate(192.328 42.497)" fill="none" stroke="#c1c7d7" stroke-linecap="round" stroke-linejoin="round" stroke-width="1.5"/>
              <line id="Línea_747" data-name="Línea 747" y1="92.796" transform="translate(162.857 12.912)" fill="none" stroke="#c1c7d7" stroke-linecap="round" stroke-linejoin="round" stroke-width="1.5"/>
              <line id="Línea_748" data-name="Línea 748" y1="40.235" transform="translate(133.4 61.114)" fill="none" stroke="#c1c7d7" stroke-linecap="round" stroke-linejoin="round" stroke-width="1.5"/>
              <line id="Línea_749" data-name="Línea 749" y1="17.715" transform="translate(103.929 87.993)" fill="none" stroke="#c1c7d7" stroke-linecap="round" stroke-linejoin="round" stroke-width="1.5"/>
              <line id="Línea_750" data-name="Línea 750" y1="13.191" transform="translate(74.471 70.277)" fill="none" stroke="#c1c7d7" stroke-linecap="round" stroke-linejoin="round" stroke-width="1.5"/>
              <line id="Línea_751" data-name="Línea 751" y1="46.385" transform="translate(45 59.323)" fill="none" stroke="#c1c7d7" stroke-linecap="round" stroke-linejoin="round" stroke-width="1.5"/>
              <line id="Línea_752" data-name="Línea 752" y1="20.194" transform="translate(15.542 89.238)" fill="none" stroke="#c1c7d7" stroke-linecap="round" stroke-linejoin="round" stroke-width="1.5"/>
              <path id="Trazado_1160439" data-name="Trazado 1160439" d="M2012.2,1676.845l29.458-29.916,29.47,9.95,29.458,18.453,29.471-26.611,29.458-48.2,29.471,29.585,29.458-31.25,29.47-7.854" transform="translate(-1996.657 -1587.607)" fill="none" stroke="#c1c7d7" stroke-linecap="round" stroke-linejoin="round" stroke-width="1.5"/>
              <circle id="Elipse_11580" data-name="Elipse 11580" cx="3.393" cy="3.393" r="3.393" transform="translate(11.109 91.063) rotate(-67.5)" fill="#fff" stroke="#c1c7d7" stroke-linecap="round" stroke-linejoin="round" stroke-width="1.5"/>
              <circle id="Elipse_11581" data-name="Elipse 11581" cx="3.393" cy="3.393" r="3.393" transform="translate(40.305 58.336) rotate(-31.7)" fill="#fff" stroke="#c1c7d7" stroke-linecap="round" stroke-linejoin="round" stroke-width="1.5"/>
              <circle id="Elipse_11582" data-name="Elipse 11582" cx="3.393" cy="3.393" r="3.393" transform="translate(70.026 71.273) rotate(-67.5)" fill="#fff" stroke="#c1c7d7" stroke-linecap="round" stroke-linejoin="round" stroke-width="1.5"/>
              <circle id="Elipse_11583" data-name="Elipse 11583" cx="3.393" cy="3.393" r="3.393" transform="translate(100.536 84.104)" fill="#fff" stroke="#c1c7d7" stroke-linecap="round" stroke-linejoin="round" stroke-width="1.5"/>
              <circle id="Elipse_11584" data-name="Elipse 11584" cx="3.393" cy="3.393" r="3.393" transform="translate(130.006 57.721)" fill="#fff" stroke="#c1c7d7" stroke-linecap="round" stroke-linejoin="round" stroke-width="1.5"/>
              <circle id="Elipse_11585" data-name="Elipse 11585" cx="3.393" cy="3.393" r="3.393" transform="translate(158.424 11.083) rotate(-22.5)" fill="#fff" stroke="#c1c7d7" stroke-linecap="round" stroke-linejoin="round" stroke-width="1.5"/>
              <circle id="Elipse_11586" data-name="Elipse 11586" cx="3.393" cy="3.393" r="3.393" transform="translate(188.348 45.116) rotate(-76.7)" fill="#fff" stroke="#c1c7d7" stroke-linecap="round" stroke-linejoin="round" stroke-width="1.5"/>
              <circle id="Elipse_11587" data-name="Elipse 11587" cx="3.393" cy="3.393" r="3.393" transform="translate(218.393 7.854)" fill="#fff" stroke="#c1c7d7" stroke-linecap="round" stroke-linejoin="round" stroke-width="1.5"/>
              <circle id="Elipse_11588" data-name="Elipse 11588" cx="3.393" cy="3.393" r="3.393" transform="translate(247.864)" fill="#fff" stroke="#c1c7d7" stroke-linecap="round" stroke-linejoin="round" stroke-width="1.5"/>
            </g>
          </g>
          <line id="Línea_753" data-name="Línea 753" y2="98.769" transform="translate(111.694 125.622)" fill="#c1c7d7" stroke="#c1c7d7" stroke-linecap="round" stroke-linejoin="round" stroke-width="1.5"/>
        </g>
        <path id="Trazado_1160440" data-name="Trazado 1160440" d="M2071.351,1500.98H1935.74a4.74,4.74,0,0,1-4.74-4.74h0a4.741,4.741,0,0,1,4.74-4.74h135.611a4.74,4.74,0,0,1,4.74,4.74h0A4.74,4.74,0,0,1,2071.351,1500.98Z" transform="translate(-1814.083 -1394.878)" fill="#fff" stroke="#c1c7d7" stroke-linecap="round" stroke-linejoin="round" stroke-width="1.5"/>
        <path id="Trazado_1160441" data-name="Trazado 1160441" d="M1982.051,1500.98H1935.64a4.74,4.74,0,0,1-4.74-4.74h0a4.74,4.74,0,0,1,4.74-4.74h46.411v9.493Z" transform="translate(-1813.996 -1394.878)" fill="#c1c7d7"/>
        <g id="Grupo_1225135" data-name="Grupo 1225135" transform="translate(9.582 8.388)">
          <circle id="Elipse_11589" data-name="Elipse 11589" cx="4.702" cy="4.702" r="4.702" fill="#c1c7d7" stroke="#c1c7d7" stroke-linecap="round" stroke-linejoin="round" stroke-width="1.5"/>
          <circle id="Elipse_11590" data-name="Elipse 11590" cx="4.702" cy="4.702" r="4.702" transform="translate(15.873)" fill="none" stroke="#c1c7d7" stroke-linecap="round" stroke-linejoin="round" stroke-width="1.5"/>
          <circle id="Elipse_11591" data-name="Elipse 11591" cx="4.702" cy="4.702" r="4.702" transform="translate(31.758)" fill="none" stroke="#c1c7d7" stroke-linecap="round" stroke-linejoin="round" stroke-width="1.5"/>
        </g>
        <g id="Grupo_1225137" data-name="Grupo 1225137" transform="translate(325.753 9.328)">
          <line id="Línea_754" data-name="Línea 754" x2="7.028" transform="translate(0 7.384)" fill="none" stroke="#c1c7d7" stroke-linecap="round" stroke-linejoin="round" stroke-width="1.5"/>
          <g id="Grupo_1225136" data-name="Grupo 1225136" transform="translate(34.452)">
            <line id="Línea_755" data-name="Línea 755" x2="7.384" y2="7.384" fill="none" stroke="#c1c7d7" stroke-linecap="round" stroke-linejoin="round" stroke-width="1.5"/>
            <line id="Línea_756" data-name="Línea 756" x1="7.384" y2="7.384" fill="none" stroke="#c1c7d7" stroke-linecap="round" stroke-linejoin="round" stroke-width="1.5"/>
          </g>
          <rect id="Rectángulo_421618" data-name="Rectángulo 421618" width="7.384" height="7.384" transform="translate(16.534)" fill="none" stroke="#c1c7d7" stroke-linecap="round" stroke-linejoin="round" stroke-width="1.5"/>
        </g>
      </g>
      <g id="Grupo_1225148" data-name="Grupo 1225148" transform="translate(-6195.034 5304.761)">
        <g id="Grupo_1225140" data-name="Grupo 1225140" transform="translate(199.966 13.56)">
          <rect id="Rectángulo_421619" data-name="Rectángulo 421619" width="77.661" height="110.842" fill="#fff" stroke="#c1c7d7" stroke-linecap="round" stroke-linejoin="round" stroke-width="1.5"/>
          <g id="Grupo_1225139" data-name="Grupo 1225139" transform="translate(10.141 14.233)">
            <path id="Trazado_1160442" data-name="Trazado 1160442" d="M3233.039,2805.893l-29.839-.318.229-23.676" transform="translate(-3171.836 -2771.148)" fill="none" stroke="#c1c7d7" stroke-linecap="round" stroke-linejoin="round" stroke-width="1.5"/>
            <path id="Trazado_1160443" data-name="Trazado 1160443" d="M3196.7,2779.117l11.539-8.781,4.664,3.088,12.671-10.624" transform="translate(-3166.162 -2754.476)" fill="none" stroke="#c1c7d7" stroke-linecap="round" stroke-linejoin="round" stroke-width="1.5"/>
            <line id="Línea_757" data-name="Línea 757" x1="0.089" y2="9.252" transform="translate(37.007 25.239)" fill="none" stroke="#c1c7d7" stroke-linecap="round" stroke-linejoin="round" stroke-width="1.5"/>
            <line id="Línea_758" data-name="Línea 758" x1="0.241" y2="25.442" transform="translate(44.073 9.125)" fill="none" stroke="#c1c7d7" stroke-linecap="round" stroke-linejoin="round" stroke-width="1.5"/>
            <line id="Línea_759" data-name="Línea 759" x1="0.14" y2="14.233" transform="translate(51.126 20.41)" fill="none" stroke="#c1c7d7" stroke-linecap="round" stroke-linejoin="round" stroke-width="1.5"/>
            <line id="Línea_760" data-name="Línea 760" x1="0.203" y2="20.549" transform="translate(58.179 14.17)" fill="none" stroke="#c1c7d7" stroke-linecap="round" stroke-linejoin="round" stroke-width="1.5"/>
            <line id="Línea_761" data-name="Línea 761" x2="22.837" y2="0.241" transform="translate(4.715 10.459)" fill="none" stroke="#c1c7d7" stroke-linecap="round" stroke-linejoin="round" stroke-width="1.5"/>
            <line id="Línea_762" data-name="Línea 762" x2="26.726" y2="0.28" transform="translate(0.788 15.326)" fill="none" stroke="#c1c7d7" stroke-linecap="round" stroke-linejoin="round" stroke-width="1.5"/>
            <line id="Línea_763" data-name="Línea 763" x2="26.713" y2="0.292" transform="translate(0.75 20.219)" fill="none" stroke="#c1c7d7" stroke-linecap="round" stroke-linejoin="round" stroke-width="1.5"/>
            <line id="Línea_764" data-name="Línea 764" x2="26.713" y2="0.28" transform="translate(0.699 25.124)" fill="none" stroke="#c1c7d7" stroke-linecap="round" stroke-linejoin="round" stroke-width="1.5"/>
            <line id="Línea_765" data-name="Línea 765" x2="26.713" y2="0.292" transform="translate(0.648 30.017)" fill="none" stroke="#c1c7d7" stroke-linecap="round" stroke-linejoin="round" stroke-width="1.5"/>
            <line id="Línea_766" data-name="Línea 766" x2="26.713" y2="0.28" transform="translate(0.597 34.923)" fill="none" stroke="#c1c7d7" stroke-linecap="round" stroke-linejoin="round" stroke-width="1.5"/>
            <line id="Línea_767" data-name="Línea 767" x2="15.288" y2="0.153" transform="translate(0.559 39.828)" fill="none" stroke="#c1c7d7" stroke-linecap="round" stroke-linejoin="round" stroke-width="1.5"/>
            <line id="Línea_768" data-name="Línea 768" x2="22.85" y2="0.241" transform="translate(4.372 44.759)" fill="none" stroke="#c1c7d7" stroke-linecap="round" stroke-linejoin="round" stroke-width="1.5"/>
            <line id="Línea_769" data-name="Línea 769" x2="26.713" y2="0.28" transform="translate(0.458 49.626)" fill="none" stroke="#c1c7d7" stroke-linecap="round" stroke-linejoin="round" stroke-width="1.5"/>
            <line id="Línea_770" data-name="Línea 770" x2="26.713" y2="0.28" transform="translate(0.165 79.021)" fill="none" stroke="#c1c7d7" stroke-linecap="round" stroke-linejoin="round" stroke-width="1.5"/>
            <line id="Línea_771" data-name="Línea 771" x2="22.85" y2="0.241" transform="translate(35.253 40.197)" fill="none" stroke="#c1c7d7" stroke-linecap="round" stroke-linejoin="round" stroke-width="1.5"/>
            <line id="Línea_772" data-name="Línea 772" x2="26.713" y2="0.28" transform="translate(31.339 45.051)" fill="none" stroke="#c1c7d7" stroke-linecap="round" stroke-linejoin="round" stroke-width="1.5"/>
            <line id="Línea_773" data-name="Línea 773" x2="26.713" y2="0.292" transform="translate(31.288 49.944)" fill="none" stroke="#c1c7d7" stroke-linecap="round" stroke-linejoin="round" stroke-width="1.5"/>
            <line id="Línea_774" data-name="Línea 774" x2="26.713" y2="0.28" transform="translate(31.237 54.849)" fill="none" stroke="#c1c7d7" stroke-linecap="round" stroke-linejoin="round" stroke-width="1.5"/>
            <line id="Línea_775" data-name="Línea 775" x2="26.713" y2="0.28" transform="translate(31.199 59.755)" fill="none" stroke="#c1c7d7" stroke-linecap="round" stroke-linejoin="round" stroke-width="1.5"/>
            <line id="Línea_776" data-name="Línea 776" x2="26.713" y2="0.28" transform="translate(31.148 64.647)" fill="none" stroke="#c1c7d7" stroke-linecap="round" stroke-linejoin="round" stroke-width="1.5"/>
            <line id="Línea_777" data-name="Línea 777" x2="15.288" y2="0.165" transform="translate(31.097 69.553)" fill="none" stroke="#c1c7d7" stroke-linecap="round" stroke-linejoin="round" stroke-width="1.5"/>
            <line id="Línea_778" data-name="Línea 778" x2="22.837" y2="0.241" transform="translate(34.923 74.496)" fill="none" stroke="#c1c7d7" stroke-linecap="round" stroke-linejoin="round" stroke-width="1.5"/>
            <line id="Línea_779" data-name="Línea 779" x2="26.726" y2="0.28" transform="translate(30.996 79.351)" fill="none" stroke="#c1c7d7" stroke-linecap="round" stroke-linejoin="round" stroke-width="1.5"/>
            <line id="Línea_780" data-name="Línea 780" x2="26.713" y2="0.292" transform="translate(30.958 84.244)" fill="none" stroke="#c1c7d7" stroke-linecap="round" stroke-linejoin="round" stroke-width="1.5"/>
            <line id="Línea_781" data-name="Línea 781" x2="42.764" y2="0.241" fill="none" stroke="#c1c7d7" stroke-linecap="round" stroke-linejoin="round" stroke-width="1.5"/>
          </g>
        </g>
        <rect id="Rectángulo_421620" data-name="Rectángulo 421620" width="29.788" height="19.596" transform="translate(207.54 82.642)" fill="#c1c7d7" stroke="#c1c7d7" stroke-linecap="round" stroke-linejoin="round" stroke-width="1.5"/>
        <g id="Grupo_1225142" data-name="Grupo 1225142" transform="translate(72.476 13.56)">
          <rect id="Rectángulo_421621" data-name="Rectángulo 421621" width="77.661" height="110.842" fill="#fff" stroke="#c1c7d7" stroke-linecap="round" stroke-linejoin="round" stroke-width="1.5"/>
          <g id="Grupo_1225141" data-name="Grupo 1225141" transform="translate(10.942 20.066)">
            <path id="Trazado_1160444" data-name="Trazado 1160444" d="M2016.637,2780.042H1959.5V2743.2h57.48Z" transform="translate(-1959.5 -2743.2)" fill="#fff" stroke="#c1c7d7" stroke-linecap="round" stroke-linejoin="round" stroke-width="1.5"/>
            <path id="Trazado_1160445" data-name="Trazado 1160445" d="M2016.459,2871.913c-17.487-12.962-21.528-13.42-31.669-7.015s-25.29-7.5-25.29-7.5" transform="translate(-1959.5 -2842.887)" fill="none" stroke="#c1c7d7" stroke-linecap="round" stroke-linejoin="round" stroke-width="1.5"/>
            <path id="Trazado_1160446" data-name="Trazado 1160446" d="M1962,2816.814c14.055-5.77,19.05-14.056,29.039-17.487s15.924,3.126,27.781-7.027" transform="translate(-1961.682 -2786.06)" fill="none" stroke="#c1c7d7" stroke-linecap="round" stroke-linejoin="round" stroke-width="1.5"/>
            <line id="Línea_782" data-name="Línea 782" y2="24.578" transform="translate(44.988 12.264)" fill="none" stroke="#c1c7d7" stroke-linecap="round" stroke-linejoin="round" stroke-width="1.5"/>
            <line id="Línea_783" data-name="Línea 783" y2="13.293" transform="translate(19.673 23.549)" fill="none" stroke="#c1c7d7" stroke-linecap="round" stroke-linejoin="round" stroke-width="1.5"/>
          </g>
          <line id="Línea_784" data-name="Línea 784" x2="29.433" transform="translate(24.794 10.256)" fill="none" stroke="#c1c7d7" stroke-linecap="round" stroke-linejoin="round" stroke-width="1.5"/>
          <line id="Línea_785" data-name="Línea 785" x2="43.45" transform="translate(19.139 64.393)" fill="#fff" stroke="#c1c7d7" stroke-linecap="round" stroke-linejoin="round" stroke-width="1.5"/>
          <line id="Línea_786" data-name="Línea 786" x2="43.45" transform="translate(19.139 68.676)" fill="#fff" stroke="#c1c7d7" stroke-linecap="round" stroke-linejoin="round" stroke-width="1.5"/>
          <line id="Línea_787" data-name="Línea 787" x2="43.45" transform="translate(19.139 72.946)" fill="#fff" stroke="#c1c7d7" stroke-linecap="round" stroke-linejoin="round" stroke-width="1.5"/>
        </g>
        <g id="Grupo_1225144" data-name="Grupo 1225144" transform="translate(146.438 0)">
          <rect id="Rectángulo_421622" data-name="Rectángulo 421622" width="77.661" height="110.842" fill="#fff" stroke="#c1c7d7" stroke-linecap="round" stroke-linejoin="round" stroke-width="1.5"/>
          <g id="Grupo_1225143" data-name="Grupo 1225143" transform="translate(6.888 13.229)">
            <path id="Trazado_1160447" data-name="Trazado 1160447" d="M2557.624,2674.255l10.471,25.264-21.349-17.093a27.364,27.364,0,1,0,10.878-8.158Z" transform="translate(-2536.782 -2660.809)" fill="#fff" stroke="#c1c7d7" stroke-linecap="round" stroke-linejoin="round" stroke-width="1.5"/>
            <path id="Trazado_1160448" data-name="Trazado 1160448" d="M2783.09,2709.74l-27.272-2.174c-.369-.635,7.968-26.167,7.968-26.167" transform="translate(-2724.518 -2668.857)" fill="#fff" stroke="#c1c7d7" stroke-linecap="round" stroke-linejoin="round" stroke-width="1.5"/>
            <path id="Trazado_1160449" data-name="Trazado 1160449" d="M2562.3,2899.36l24.616-12.061,18.783,19.876" transform="translate(-2555.603 -2848.59)" fill="#fff" stroke="#c1c7d7" stroke-linecap="round" stroke-linejoin="round" stroke-width="1.5"/>
            <path id="Trazado_1160450" data-name="Trazado 1160450" d="M2520.491,2582.7a27.215,27.215,0,0,0-10.891,8.171l21.35,17.093-10.471-25.264Z" transform="translate(-2509.6 -2582.7)" fill="#c1c7d7" stroke="#c1c7d7" stroke-linecap="round" stroke-linejoin="round" stroke-width="1.5"/>
          </g>
          <line id="Línea_788" data-name="Línea 788" x2="26.751" transform="translate(28.149 9.735)" fill="#3c99de" stroke="#c1c7d7" stroke-linecap="round" stroke-linejoin="round" stroke-width="1.5"/>
          <line id="Línea_789" data-name="Línea 789" x2="26.751" transform="translate(28.149 14.182)" fill="#3c99de" stroke="#c1c7d7" stroke-linecap="round" stroke-linejoin="round" stroke-width="1.5"/>
          <line id="Línea_790" data-name="Línea 790" x2="51.164" transform="translate(14.386 87.853)" fill="#3c99de" stroke="#c1c7d7" stroke-linecap="round" stroke-linejoin="round" stroke-width="1.5"/>
          <line id="Línea_791" data-name="Línea 791" x2="51.164" transform="translate(14.386 94.359)" fill="#3c99de" stroke="#c1c7d7" stroke-linecap="round" stroke-linejoin="round" stroke-width="1.5"/>
          <line id="Línea_792" data-name="Línea 792" x2="51.164" transform="translate(14.386 100.853)" fill="#3c99de" stroke="#c1c7d7" stroke-linecap="round" stroke-linejoin="round" stroke-width="1.5"/>
        </g>
        <g id="Grupo_1225147" data-name="Grupo 1225147" transform="translate(0 0)">
          <rect id="Rectángulo_421623" data-name="Rectángulo 421623" width="77.661" height="110.842" fill="#fff" stroke="#c1c7d7" stroke-linecap="round" stroke-linejoin="round" stroke-width="1.5"/>
          <g id="Grupo_1225146" data-name="Grupo 1225146" transform="translate(15.873 11.425)">
            <g id="Grupo_1225145" data-name="Grupo 1225145">
              <line id="Línea_793" data-name="Línea 793" x2="33.919" y2="0.14" transform="translate(7.625)" fill="#fff" stroke="#c1c7d7" stroke-linecap="round" stroke-linejoin="round" stroke-width="1.5"/>
              <line id="Línea_794" data-name="Línea 794" x2="48.368" y2="0.203" transform="translate(0.28 7.358)" fill="#fff" stroke="#c1c7d7" stroke-linecap="round" stroke-linejoin="round" stroke-width="1.5"/>
              <path id="Trazado_1160451" data-name="Trazado 1160451" d="M1428.752,2724.7l-.152,37.68,48.368.2" transform="translate(-1428.524 -2704.85)" fill="#fff" stroke="#c1c7d7" stroke-linecap="round" stroke-linejoin="round" stroke-width="1.5"/>
              <line id="Línea_795" data-name="Línea 795" x2="48.368" y2="0.203" transform="translate(0.038 65.486)" fill="#fff" stroke="#c1c7d7" stroke-linecap="round" stroke-linejoin="round" stroke-width="1.5"/>
              <line id="Línea_796" data-name="Línea 796" x2="33.118" y2="0.14" transform="translate(0 70.315)" fill="#fff" stroke="#c1c7d7" stroke-linecap="round" stroke-linejoin="round" stroke-width="1.5"/>
              <line id="Línea_797" data-name="Línea 797" x2="41.188" y2="0.216" transform="translate(7.218 78.309)" fill="#fff" stroke="#c1c7d7" stroke-linecap="round" stroke-linejoin="round" stroke-width="1.5"/>
              <line id="Línea_798" data-name="Línea 798" x2="33.118" y2="0.14" transform="translate(0 83.138)" fill="#fff" stroke="#c1c7d7" stroke-linecap="round" stroke-linejoin="round" stroke-width="1.5"/>
            </g>
            <line id="Línea_799" data-name="Línea 799" y1="30.729" x2="0.038" transform="translate(5.261 26.827)" fill="#fff" stroke="#c1c7d7" stroke-linecap="round" stroke-linejoin="round" stroke-width="1.5"/>
            <line id="Línea_800" data-name="Línea 800" y1="24.73" x2="0.076" transform="translate(10.84 32.851)" fill="#fff" stroke="#c1c7d7" stroke-linecap="round" stroke-linejoin="round" stroke-width="1.5"/>
            <line id="Línea_801" data-name="Línea 801" y1="27.069" x2="0.038" transform="translate(16.432 30.538)" fill="#fff" stroke="#c1c7d7" stroke-linecap="round" stroke-linejoin="round" stroke-width="1.5"/>
            <line id="Línea_802" data-name="Línea 802" y1="30.792" x2="0.051" transform="translate(22.024 26.827)" fill="#fff" stroke="#c1c7d7" stroke-linecap="round" stroke-linejoin="round" stroke-width="1.5"/>
            <line id="Línea_803" data-name="Línea 803" y1="28.505" x2="0.089" transform="translate(27.603 29.14)" fill="#fff" stroke="#c1c7d7" stroke-linecap="round" stroke-linejoin="round" stroke-width="1.5"/>
            <line id="Línea_804" data-name="Línea 804" y1="28.149" x2="0.114" transform="translate(33.194 29.522)" fill="#fff" stroke="#c1c7d7" stroke-linecap="round" stroke-linejoin="round" stroke-width="1.5"/>
            <line id="Línea_805" data-name="Línea 805" y1="32.203" x2="0.076" transform="translate(38.773 25.493)" fill="#fff" stroke="#c1c7d7" stroke-linecap="round" stroke-linejoin="round" stroke-width="1.5"/>
            <line id="Línea_806" data-name="Línea 806" y1="34.554" x2="0.14" transform="translate(44.365 23.167)" fill="#fff" stroke="#c1c7d7" stroke-linecap="round" stroke-linejoin="round" stroke-width="1.5"/>
          </g>
        </g>
      </g>
      <g id="Grupo_1225159" data-name="Grupo 1225159" transform="translate(-6312.167 5128.333)">
        <path id="Trazado_1160452" data-name="Trazado 1160452" d="M408.613,1187.5c23.307-12.187,8.731-26,11.984-35.329,5.083-14.589,15.174-8.146,17.957-25.823s22.786-38.811,45.343-35.723c19.863,2.719,34.338,13,34.77,37.667s16.114,18.554,17.576,34.961-4.842,20.613,5.973,30.665c-23.256,15.758-119.6,15.974-133.616-6.417Z" transform="translate(-405.143 -1090.317)" fill="#2e2e2e"/>
        <path id="Trazado_1160453" data-name="Trazado 1160453" d="M381.4,1199.885c23.32-10.84,9.646-25.036,13.2-34.008,5.579-14.043,15.186-7.269,18.656-24.426s23.93-36.917,45.864-32.851" transform="translate(-381.4 -1105.807)" fill="none" stroke="#2e2e2e" stroke-linecap="round" stroke-linejoin="round" stroke-width="1.5"/>
        <path id="Trazado_1160454" data-name="Trazado 1160454" d="M1212.178,3962.971c-2.948-13.027-5.884-25.989-8.578-37.872h66.109c1.944,12.239,4.016,25.176,6.036,37.872h-63.567Z" transform="translate(-1099.112 -3564.845)" fill="#e17847"/>
        <path id="Trazado_1160455" data-name="Trazado 1160455" d="M717.314,3962.971c.648-13.445,1.22-26.179,1.69-37.872l-60.5.331c.292,11.616.673,24.235,1.093,37.541Z" transform="translate(-623.285 -3564.845)" fill="#e17847"/>
        <g id="Grupo_1225150" data-name="Grupo 1225150" transform="translate(30.134 100.002)">
          <path id="Trazado_1160456" data-name="Trazado 1160456" d="M723.88,2293.4s-107.169-12.391-105.34-10.548,9.137-103.1,9.137-103.1,91.335-5.427,91.233-5.2,4.956,118.862,4.956,118.862Z" transform="translate(-618.517 -2136.758)" fill="#c1c7d7"/>
          <g id="Grupo_1225149" data-name="Grupo 1225149" transform="translate(2.363)">
            <path id="Trazado_1160457" data-name="Trazado 1160457" d="M701.8,2037.743c-23.244-.635-45.051-27.107-45.051-27.107s-39.358-112.049,0-127.655S718.9,1886.73,727,1902.056s16.254,78.982,8.68,108.567-33.88,27.107-33.88,27.107Z" transform="translate(-638.983 -1877.213)" fill="#fff"/>
            <path id="Trazado_1160458" data-name="Trazado 1160458" d="M784.072,3091.8c-8.235-43.233-19.761-90.254-30.729-116.065-8.883-20.918-21.032-30.691-21.032-30.691l1.5-17.944H654.879v18.338s-14.348,21.972-17.143,45.064c-1.042,8.679-.648,51.367.267,101.3H703.31c.75-13.56,1.207-22.062,1.207-22.062s2.338,9.086,5.668,22.062h73.886Z" transform="translate(-637.115 -2793.677)" fill="#ff9d1c"/>
          </g>
        </g>
        <line id="Línea_807" data-name="Línea 807" x1="77.432" transform="translate(50.274 251.382)" fill="none" stroke="#2e2e2e" stroke-linecap="round" stroke-linejoin="round" stroke-width="1.5"/>
        <path id="Trazado_1160459" data-name="Trazado 1160459" d="M1236.892,3070.2c5.185,48.114-1.792,61.356-1.792,61.356" transform="translate(-1126.609 -2818.589)" fill="none" stroke="#2e2e2e" stroke-linecap="round" stroke-linejoin="round" stroke-width="1.5"/>
        <path id="Trazado_1160460" data-name="Trazado 1160460" d="M717.334,3068.4c-1.195,27.094-47.034,45.458-47.034,45.458" transform="translate(-633.586 -2817.018)" fill="none" stroke="#2e2e2e" stroke-linecap="round" stroke-linejoin="round" stroke-width="1.5"/>
        <path id="Trazado_1160461" data-name="Trazado 1160461" d="M744.6,3494.3c.381-56.844.712-106.1.712-106.1" transform="translate(-698.443 -3096.177)" fill="none" stroke="#2e2e2e" stroke-linecap="round" stroke-linejoin="round" stroke-width="1.5"/>
        <g id="Grupo_1225156" data-name="Grupo 1225156" transform="translate(41.434 5.345)">
          <path id="Trazado_1160462" data-name="Trazado 1160462" d="M789.784,1909.058c-23.358-29.992-60.441-33.5-64.8-13.763s-23.218-7.765-15.86-11.9c14.729-8.286,50.846-7.294,67.977.356S789.784,1909.058,789.784,1909.058Z" transform="translate(-707.439 -1782.887)" fill="#c1c7d7"/>
          <g id="Grupo_1225155" data-name="Grupo 1225155" transform="translate(16.996)">
            <path id="Trazado_1160463" data-name="Trazado 1160463" d="M856.53,1866.1c-33.448,3.317-6.812,42.332,29.738,63.046C900.856,1898.425,885.111,1863.261,856.53,1866.1Z" transform="translate(-841.226 -1772.711)" fill="#fff"/>
            <g id="Grupo_1225154" data-name="Grupo 1225154">
              <g id="Grupo_1225151" data-name="Grupo 1225151" transform="translate(3.561 8.518)">
                <path id="Trazado_1160464" data-name="Trazado 1160464" d="M902.979,1458.1l.674,40.285c-.33,12.264-34.452,11.374-34.452-1.334v-60.1S899.967,1424.382,902.979,1458.1Z" transform="translate(-869.2 -1404.76)" fill="#fff"/>
                <path id="Trazado_1160465" data-name="Trazado 1160465" d="M914.127,1200.3c-48.012-9.76-42.9,62.589-11.069,76.25,8.578,3.685,21.414-16.826,25.506-35.1,4.156-18.58,6.71-36.842-14.437-41.137Z" transform="translate(-877.412 -1199.401)" fill="#fff"/>
                <path id="Trazado_1160466" data-name="Trazado 1160466" d="M917.9,1261.515c4.181,9.519,10.84,17.525,19.469,21.223,8.578,3.686,21.414-16.826,25.506-35.1,4.156-18.58,6.71-36.841-14.437-41.137" transform="translate(-911.711 -1205.598)" fill="none" stroke="#2e2e2e" stroke-linecap="round" stroke-linejoin="round" stroke-width="1.5"/>
                <path id="Trazado_1160467" data-name="Trazado 1160467" d="M1093.18,1476.192c-1.856-2.618-4.88,1.868-2.364,3.558S1093.943,1477.285,1093.18,1476.192Z" transform="translate(-1061.816 -1440.316)" fill="#2e2e2e"/>
                <path id="Trazado_1160468" data-name="Trazado 1160468" d="M1222.88,1520.392c-1.856-2.618-4.88,1.868-2.364,3.558S1223.643,1521.485,1222.88,1520.392Z" transform="translate(-1175.033 -1478.899)" fill="#2e2e2e"/>
                <path id="Trazado_1160469" data-name="Trazado 1160469" d="M1219.741,1455.327c-3-3.545-7.841-3.342-7.841-3.342" transform="translate(-1168.349 -1419.884)" fill="none" stroke="#2e2e2e" stroke-linecap="round" stroke-linejoin="round" stroke-width="1.5"/>
                <path id="Trazado_1160470" data-name="Trazado 1160470" d="M1064.568,1420.4c-4.473-2.033-9.468.445-9.468.445" transform="translate(-1031.475 -1391.612)" fill="none" stroke="#2e2e2e" stroke-linecap="round" stroke-linejoin="round" stroke-width="1.5"/>
                <path id="Trazado_1160471" data-name="Trazado 1160471" d="M1134.938,1475.3a115.574,115.574,0,0,0-.063,15.161s-.648,2.033-3.774,1.855" transform="translate(-1097.817 -1440.238)" fill="none" stroke="#2e2e2e" stroke-linecap="round" stroke-linejoin="round" stroke-width="1.5"/>
              </g>
              <g id="Grupo_1225153" data-name="Grupo 1225153">
                <path id="Trazado_1160472" data-name="Trazado 1160472" d="M898.283,1168.852c.763-16.292-18.707-11.679-21.706-19.7-1.36,8.985-14.309,11.806-16.991,13.306s-7.879,6.164-7.5,18.122c-3.317.6-5.185,3.088-7.485,7.384-5.516-5.706-3.52-18.008.089-33.486s13-24.679,33.423-21.464,29.013,24.184,20.168,35.825Z" transform="translate(-841.182 -1132.376)" fill="#2e2e2e"/>
                <g id="Grupo_1225152" data-name="Grupo 1225152" transform="translate(3.052 32.573)">
                  <path id="Trazado_1160473" data-name="Trazado 1160473" d="M875.984,1405.234c7.7-6.85-3.647-21.312-8.921-14.983S868.778,1411.651,875.984,1405.234Z" transform="translate(-865.219 -1388.686)" fill="#fff"/>
                  <line id="Línea_808" data-name="Línea 808" x1="3.685" y1="7.104" transform="translate(5.223 5.111)" fill="none" stroke="#2e2e2e" stroke-linecap="round" stroke-linejoin="round" stroke-width="1.5"/>
                  <path id="Trazado_1160474" data-name="Trazado 1160474" d="M877.627,1395.095c-2.135-4.994-7.447-8.616-10.586-4.842-4.512,5.414-.038,17.245,5.859,16.508" transform="translate(-865.198 -1388.688)" fill="none" stroke="#2e2e2e" stroke-linecap="round" stroke-linejoin="round" stroke-width="1.5"/>
                </g>
              </g>
            </g>
          </g>
          <line id="Línea_809" data-name="Línea 809" x2="3.152" y2="1.55" transform="translate(50.155 67.637)" fill="none" stroke="#2e2e2e" stroke-linecap="round" stroke-linejoin="round" stroke-width="1.5"/>
        </g>
        <g id="Grupo_1225157" data-name="Grupo 1225157" transform="translate(97.282 104.88)">
          <path id="Trazado_1160475" data-name="Trazado 1160475" d="M1162.8,1924.2c17.487-3.889,28.645,6.125,35.762,20.168,11.857,23.4,34.63,64.774,36.447,86.773,2.16,26.166-14.7,24.845-32.648,24.451-8.006-107.449-39.548-131.392-39.548-131.392Z" transform="translate(-1160.779 -1922.366)" fill="#c1c7d7"/>
          <path id="Trazado_1160476" data-name="Trazado 1160476" d="M1146.9,1915.6c42.306,2.847,45.458,74.916,39.8,106.356-3.037,16.889,1.538,52.562,1.538,52.562l-5.642-7.155C1190.312,1974.338,1146.9,1915.6,1146.9,1915.6Z" transform="translate(-1146.9 -1915.6)" fill="#c1c7d7"/>
          <path id="Trazado_1160477" data-name="Trazado 1160477" d="M1474,2351.7c5.744,23.8,7.384,47.707,7.79,55.586" transform="translate(-1432.431 -2296.279)" fill="none" stroke="#2e2e2e" stroke-linecap="round" stroke-linejoin="round" stroke-width="1.5"/>
          <path id="Trazado_1160478" data-name="Trazado 1160478" d="M1189.3,1923.3a41.736,41.736,0,0,1,17.7,18.808l-4,6.087,7.358,2.516s4.728,29.89,4.995,42.992" transform="translate(-1183.911 -1922.321)" fill="none" stroke="#2e2e2e" stroke-linecap="round" stroke-linejoin="round" stroke-width="1.5"/>
        </g>
        <path id="Trazado_1160479" data-name="Trazado 1160479" d="M523.177,1894.107c9.086-7.307,21.159-10.6,31.25-11.107,0,0-.648,8.731,2.11,13.255,5.871,9.608,11.3,19.8,12.086,38.519,1.589,37.871-11.082,90.28-15.949,108.034s-44.073,21.744-44.073,21.744,19.749-50.465,18.605-78.855C525.629,1946.745,511.192,1903.765,523.177,1894.107Z" transform="translate(-492.435 -1782.263)" fill="#c1c7d7"/>
        <path id="Trazado_1160480" data-name="Trazado 1160480" d="M775.357,1910.7c-4.626,11.133,8.426,20.728,7.244,33.754,1.169-.356,10.573,1.448,10.573,1.448l-8.947,9.595" transform="translate(-724.422 -1806.443)" fill="none" stroke="#2e2e2e" stroke-linecap="round" stroke-linejoin="round" stroke-width="1.5"/>
        <path id="Trazado_1160481" data-name="Trazado 1160481" d="M1420.7,2752.5a167.239,167.239,0,0,1,.9,45.407" transform="translate(-1288.622 -2541.264)" fill="none" stroke="#2e2e2e" stroke-linecap="round" stroke-linejoin="round" stroke-width="1.5"/>
        <path id="Trazado_1160482" data-name="Trazado 1160482" d="M418.893,1963.234c-18.44-2.326-24.464,45.013-35.062,90.852s36.753,55.752,44.39,15.5c9.125-48.1,12.1-103.662-9.315-106.369Z" transform="translate(-382.178 -1852.229)" fill="#c1c7d7"/>
        <path id="Trazado_1160483" data-name="Trazado 1160483" d="M646.023,1969.3c18.389,8.718,11.806,42.649,8.172,64.571s-14.894,84.32-14.894,84.32" transform="translate(-606.525 -1857.596)" fill="none" stroke="#2e2e2e" stroke-linecap="round" stroke-linejoin="round" stroke-width="1.5"/>
        <path id="Trazado_1160484" data-name="Trazado 1160484" d="M1028.2,1260.8c3.533,11.476-9.874,12.467-12.2,17.4" transform="translate(-935.353 -1239.134)" fill="none" stroke="#2e2e2e" stroke-linecap="round" stroke-linejoin="round" stroke-width="1.5"/>
        <line id="Línea_810" data-name="Línea 810" y1="29.293" x2="1.779" transform="translate(99.913 346.771)" fill="none" stroke="#2e2e2e" stroke-linecap="round" stroke-linejoin="round" stroke-width="1.5"/>
        <line id="Línea_811" data-name="Línea 811" x1="22.011" y1="2.148" transform="translate(90.064 345.512)" fill="none" stroke="#2e2e2e" stroke-linecap="round" stroke-linejoin="round" stroke-width="1.5"/>
        <path id="Trazado_1160485" data-name="Trazado 1160485" d="M1218.2,3821.8s8.883,26.128,17.347,51" transform="translate(-1111.856 -3474.674)" fill="none" stroke="#2e2e2e" stroke-linecap="round" stroke-linejoin="round" stroke-width="1.5"/>
        <line id="Línea_812" data-name="Línea 812" x1="47.173" y1="0.241" transform="translate(82.02 233.183)" fill="none" stroke="#2e2e2e" stroke-linecap="round" stroke-linejoin="round" stroke-width="1.5"/>
        <path id="Trazado_1160486" data-name="Trazado 1160486" d="M1151.059,2541.188c40.044,1.3,63.949,21.1,54.443,43.348-5.388,12.594-21.312,12.111-36.409,6.977-11.577-3.94-22.278-3.088-27.755-8.692C1128.717,2569.92,1142.824,2540.92,1151.059,2541.188Z" transform="translate(-1040.369 -2356.804)" fill="#c1c7d7"/>
        <path id="Trazado_1160487" data-name="Trazado 1160487" d="M1449.215,2882.3c-5.058,11.844-19.456,12.124-33.715,7.841" transform="translate(-1284.083 -2654.569)" fill="none" stroke="#2e2e2e" stroke-linecap="round" stroke-linejoin="round" stroke-width="1.5"/>
        <path id="Trazado_1160488" data-name="Trazado 1160488" d="M1364.5,2551.6c11.514,1.83,21.134,5.375,28.276,10.09" transform="translate(-1239.564 -2365.895)" fill="none" stroke="#2e2e2e" stroke-linecap="round" stroke-linejoin="round" stroke-width="1.5"/>
        <path id="Trazado_1160489" data-name="Trazado 1160489" d="M830.272,2463.1c19.685,7.092,47.288,13.255,52.307,13.916s-.127,28.759-9.925,28.759-40.158-19.151-45.61-24.921S830.272,2463.1,830.272,2463.1Z" transform="translate(-768.84 -2288.641)" fill="#fff" stroke="#2e2e2e" stroke-linecap="round" stroke-linejoin="round" stroke-width="1.5"/>
        <path id="Trazado_1160490" data-name="Trazado 1160490" d="M1215.547,2555.1c6.443,8.667-2.834,30.97-8.248,34.579" transform="translate(-1102.341 -2368.95)" fill="none" stroke="#2e2e2e" stroke-linecap="round" stroke-linejoin="round" stroke-width="1.5"/>
        <path id="Trazado_1160491" data-name="Trazado 1160491" d="M711.6,1843.1c-3.724,26.7-32.9,79.287-32.9,79.287s12.988,17.855,23.078,16.991,26.509-85.4,26.509-85.4Z" transform="translate(-640.918 -1747.433)" fill="#fff" stroke="#2e2e2e" stroke-linecap="round" stroke-linejoin="round" stroke-width="1.5"/>
        <g id="Grupo_1225158" data-name="Grupo 1225158" transform="translate(63.373 78.701)">
          <path id="Trazado_1160492" data-name="Trazado 1160492" d="M890.659,1742.1c6.24,9.023,9.734,5.109,17.093,1.385s16.051-10.446,15.415-13.547-2.885-2-2.885-2,2.8-1.614,1.906-3.99a3.013,3.013,0,0,0-3.076-1.856s2.567-.991,2.11-3.177a2.991,2.991,0,0,0-2.872-2.377s3.368-.025,3.3-3.2-10.167-1.893-15.326-1.69-13.56,11.31-13.56,11.31-2.783-10-7.879-12.225-5.9-1.144-3.584,3.037,5.515,14.627,3.94,19.482,5.414,8.87,5.414,8.87Z" transform="translate(-880.069 -1709.604)" fill="#fff"/>
          <path id="Trazado_1160493" data-name="Trazado 1160493" d="M899.745,1747.385c2.3-.6,4.778-2.262,8.006-3.9,7.358-3.724,16.051-10.446,15.415-13.547s-2.885-2-2.885-2,2.8-1.614,1.906-3.99a3.013,3.013,0,0,0-3.076-1.856s2.567-.991,2.11-3.177a2.991,2.991,0,0,0-2.872-2.377s3.368-.025,3.3-3.2-10.167-1.893-15.326-1.69-13.56,11.31-13.56,11.31-2.783-10-7.879-12.225-5.9-1.144-3.584,3.037,5.515,14.627,3.94,19.482a4.676,4.676,0,0,0-.1,2.567,6.083,6.083,0,0,0,.47,1.3" transform="translate(-880.069 -1709.604)" fill="none" stroke="#2e2e2e" stroke-linecap="round" stroke-linejoin="round" stroke-width="1.5"/>
          <path id="Trazado_1160494" data-name="Trazado 1160494" d="M1102.9,1765.555c4.219-.915,10.218-1.855,10.218-1.855" transform="translate(-1074.582 -1756.825)" fill="none" stroke="#2e2e2e" stroke-linecap="round" stroke-linejoin="round" stroke-width="1.5"/>
          <path id="Trazado_1160495" data-name="Trazado 1160495" d="M1123.8,1810.1a26.381,26.381,0,0,0,8.057-2.3" transform="translate(-1092.826 -1795.321)" fill="none" stroke="#2e2e2e" stroke-linecap="round" stroke-linejoin="round" stroke-width="1.5"/>
          <path id="Trazado_1160496" data-name="Trazado 1160496" d="M1132.9,1856.863c5.706-1.22,8.07-3.063,8.07-3.063" transform="translate(-1100.769 -1835.475)" fill="none" stroke="#2e2e2e" stroke-linecap="round" stroke-linejoin="round" stroke-width="1.5"/>
        </g>
        <path id="Trazado_1160497" data-name="Trazado 1160497" d="M479.572,2302.8l30.83,18.211s-26.649,76.263-52.918,69.908C414,2380.41,479.572,2302.8,479.572,2302.8Z" transform="translate(-434.813 -2148.714)" fill="#c1c7d7"/>
        <path id="Trazado_1160498" data-name="Trazado 1160498" d="M473.8,2340.658c10.955-20.842,33.016-37.858,33.016-37.858l30.83,18.211s-26.649,76.263-52.918,69.908" transform="translate(-462.057 -2148.714)" fill="none" stroke="#2e2e2e" stroke-linecap="round" stroke-linejoin="round" stroke-width="1.5"/>
      </g>
      <g id="Grupo_1225173" data-name="Grupo 1225173" transform="translate(-5963.288 5115.94)">
        <g id="Grupo_1225165" data-name="Grupo 1225165" transform="translate(0 91.448)">
          <path id="Trazado_1160499" data-name="Trazado 1160499" d="M3368.4,3350.882c3.571-70.594,6.278-126.588,6.278-126.588l123.31-.394c2.668,28.505,5.731,75.323,8.717,126.969h-67.379c-2.5-23.727-4.1-38.888-4.1-38.888s-1.5,15.212-3.851,38.888H3368.4Z" transform="translate(-3337.68 -3031.811)" fill="#ff9d1c"/>
          <g id="Grupo_1225160" data-name="Grupo 1225160" transform="translate(57.992 17.725)">
            <path id="Trazado_1160500" data-name="Trazado 1160500" d="M3662.1,1859.4c-13.534-6.761-38.963-9.506-54.595-6.037s-24.5,12.568-24.5,12.568,46.665,136.03,46.195,135.331S3662.1,1859.4,3662.1,1859.4Z" transform="translate(-3583 -1851.862)" fill="#fff"/>
            <path id="Trazado_1160501" data-name="Trazado 1160501" d="M3806.363,1866.867l-17.728-2.567,3.965,21.121-16.8,73.264,16.661,37.794,26.738-49.461-16.572-60.085Z" transform="translate(-3751.298 -1862.719)" fill="#2e2e2e"/>
          </g>
          <g id="Grupo_1225161" data-name="Grupo 1225161" transform="translate(0 8.656)">
            <path id="Trazado_1160502" data-name="Trazado 1160502" d="M3183,1840.6c-25.328,5.49-49.372,21.706-52.1,61.877-3.762,55.205-15.962,104.323,31.313,100S3183,1840.6,3183,1840.6Z" transform="translate(-3126.669 -1832.962)" fill="#ff9d1c"/>
            <path id="Trazado_1160503" data-name="Trazado 1160503" d="M4232.278,1915c14.373,4.639,33.55,10.79,41.15,52.257,10.09,55.014,18.249,104.488-29.027,100.167S4232.278,1915,4232.278,1915Z" transform="translate(-4080.804 -1897.907)" fill="#ff9d1c"/>
            <path id="Trazado_1160504" data-name="Trazado 1160504" d="M3509.148,2023.623s-7.5,1.487-36.587,1.195c-7.777-.076-21.82-7.764-22.8-15.1,0,0-4.562,16.89-17.893,16.89-30.029,0-56.12.6-55.878-.343l2.987-102.938s-3.888-112.748-3.215-119.484c16.839-17,48.254-23.345,48.254-23.345-6.342,22.481,24.031,120.119,24.031,120.119s28.428-100.879,24.171-113.092c0,0,41.544,13.7,42.763,21.655,1.207,7.828-3.342,115.569-3.342,115.569Z" transform="translate(-3344.038 -1780.5)" fill="#ff9d1c"/>
            <path id="Trazado_1160505" data-name="Trazado 1160505" d="M3378.089,3586.256c-.241.94,25.849.343,55.879.343s17.893-16.889,17.893-16.889c.979,7.346,15.021,15.021,22.8,15.1,29.089.292,36.587-1.195,36.587-1.195l.406-16.013" transform="translate(-3346.136 -3340.489)" fill="none" stroke="#000" stroke-linecap="round" stroke-linejoin="round" stroke-width="1.5"/>
          </g>
          <g id="Grupo_1225162" data-name="Grupo 1225162" transform="translate(65.939 9.749)">
            <path id="Trazado_1160506" data-name="Trazado 1160506" d="M3713.634,1797.068c7,7.13,7.46,43.094,7.46,43.094l-10.37,3.317,5.96,10.523-41.391,90.178,4.385-19.469L3653,1859.339l5.858-15.276-13.115-3.6s-2.453-40.921,9.34-51.367" transform="translate(-3645.535 -1789.1)" fill="none" stroke="#000" stroke-linecap="round" stroke-linejoin="round" stroke-width="1.5"/>
            <path id="Trazado_1160507" data-name="Trazado 1160507" d="M3873.8,1988.02c3-13.573,6.481-28.314,7.371-32.165,1.538-6.646,30.119-106.712,25.861-120.056" transform="translate(-3844.791 -1829.865)" fill="none" stroke="#000" stroke-linecap="round" stroke-linejoin="round" stroke-width="1.5"/>
          </g>
          <path id="Trazado_1160508" data-name="Trazado 1160508" d="M3769.8,2042.6c6.38,36.206,21.782,85.248,21.782,85.248" transform="translate(-3688.069 -2000.635)" fill="none" stroke="#000" stroke-linecap="round" stroke-linejoin="round" stroke-width="1.5"/>
          <path id="Trazado_1160509" data-name="Trazado 1160509" d="M3202.183,2692.258a907.7,907.7,0,0,1,96.227-16.457l10.128,36.714s-54.443,23.841-89.479,21.21S3202.183,2692.258,3202.183,2692.258Z" transform="translate(-3188.48 -2553.366)" fill="#ff9d1c"/>
          <path id="Trazado_1160510" data-name="Trazado 1160510" d="M3234.5,2692.258a907.72,907.72,0,0,1,96.227-16.457l10.129,36.714s-54.442,23.841-89.48,21.21" transform="translate(-3220.796 -2553.366)" fill="none" stroke="#000" stroke-linecap="round" stroke-linejoin="round" stroke-width="1.5"/>
          <path id="Trazado_1160511" data-name="Trazado 1160511" d="M3416.5,2020.5c13.178,24.438,1.347,82.973,1.347,82.973" transform="translate(-3379.667 -1981.344)" fill="none" stroke="#000" stroke-linecap="round" stroke-linejoin="round" stroke-width="1.5"/>
          <path id="Trazado_1160512" data-name="Trazado 1160512" d="M3857.633,3787.1c-2.8,0-19.533,1.36-19.533,1.36" transform="translate(-3747.689 -3523.438)" fill="none" stroke="#000" stroke-linecap="round" stroke-linejoin="round" stroke-width="1.5"/>
          <path id="Trazado_1160513" data-name="Trazado 1160513" d="M3464.48,3724.3s-1.4,26.078-3.381,63.4" transform="translate(-3418.599 -3468.619)" fill="none" stroke="#000" stroke-linecap="round" stroke-linejoin="round" stroke-width="1.5"/>
          <path id="Trazado_1160514" data-name="Trazado 1160514" d="M4324.5,3699.1c.636,13.967,1.729,37.833,3.037,66.592" transform="translate(-4172.275 -3446.621)" fill="none" stroke="#000" stroke-linecap="round" stroke-linejoin="round" stroke-width="1.5"/>
          <g id="Grupo_1225164" data-name="Grupo 1225164" transform="translate(47.876 118.977)">
            <path id="Trazado_1160515" data-name="Trazado 1160515" d="M3549.862,2659.823c-.495,0-23.625-.521-31.059.432-11.412,1.462-15.4,9.239-15.4,9.239s12.2-2,42.611,19.292c12.9,9.035,3.85-28.975,3.85-28.975Z" transform="translate(-3503.4 -2658.273)" fill="#fff"/>
            <path id="Trazado_1160516" data-name="Trazado 1160516" d="M3674.531,2654.687l-31.173-6.087-8.858,30.945,34.249,7.969Z" transform="translate(-3617.84 -2648.6)" fill="#fff"/>
            <g id="Grupo_1225163" data-name="Grupo 1225163" transform="translate(26.421)">
              <path id="Trazado_1160517" data-name="Trazado 1160517" d="M3824.925,2666.4c-48.965-11.4-103.5-17.8-103.5-17.8l-10.128,36.714s61.711,25.188,96.736,22.558,16.876-41.467,16.876-41.467Z" transform="translate(-3711.3 -2648.6)" fill="#ff9d1c"/>
              <path id="Trazado_1160518" data-name="Trazado 1160518" d="M3816.334,2663.685a730.751,730.751,0,0,0-94.906-15.085l-10.128,36.715s61.711,25.188,96.736,22.557" transform="translate(-3711.3 -2648.6)" fill="none" stroke="#000" stroke-linecap="round" stroke-linejoin="round" stroke-width="1.5"/>
            </g>
          </g>
          <line id="Línea_813" data-name="Línea 813" x1="8.858" y2="30.945" transform="translate(64.537 118.977)" fill="none" stroke="#000" stroke-linecap="round" stroke-linejoin="round" stroke-width="1.5"/>
          <path id="Trazado_1160519" data-name="Trazado 1160519" d="M3869.682,3683.5s-3.748,39.1-6.582,68.574" transform="translate(-3769.511 -3433.003)" fill="none" stroke="#000" stroke-linecap="round" stroke-linejoin="round" stroke-width="1.5"/>
          <path id="Trazado_1160520" data-name="Trazado 1160520" d="M3766.443,1746.256c12.531-17.576,36.549-10.37,45.966-1.589,4.461-20.778-4.308-31.987-30.97-32.279-26.37-.279-15,33.855-15,33.855Z" transform="translate(-3683.008 -1712.386)" fill="#fff"/>
          <path id="Trazado_1160521" data-name="Trazado 1160521" d="M3783.2,1904.8c12.531-17.576,36.549-10.37,45.967-1.588" transform="translate(-3699.766 -1870.935)" fill="none" stroke="#000" stroke-linecap="round" stroke-linejoin="round" stroke-width="1.5"/>
          <path id="Trazado_1160522" data-name="Trazado 1160522" d="M4358.576,2354.8q-3.089,23.713-6.176,47.44c2.9-2.1,6.608-2.707,10.065-3.177" transform="translate(-4196.629 -2273.16)" fill="none" stroke="#000" stroke-linecap="round" stroke-linejoin="round" stroke-width="1.5"/>
          <path id="Trazado_1160523" data-name="Trazado 1160523" d="M4399.9,1944.5c6.252,9.646,4.041,28.111,4.041,28.111" transform="translate(-4238.093 -1915.002)" fill="none" stroke="#000" stroke-linecap="round" stroke-linejoin="round" stroke-width="1.5"/>
          <line id="Línea_814" data-name="Línea 814" x2="2.262" y2="57.327" transform="translate(103.475 180.549)" fill="none" stroke="#000" stroke-linecap="round" stroke-linejoin="round" stroke-width="1.5"/>
          <line id="Línea_815" data-name="Línea 815" x2="21.477" y2="7.485" transform="translate(85.709 152.909)" fill="none" stroke="#000" stroke-linecap="round" stroke-linejoin="round" stroke-width="1.5"/>
          <path id="Trazado_1160524" data-name="Trazado 1160524" d="M3434.8,3224.457c19.292,2.453,31.594-.458,31.594-.458" transform="translate(-3395.642 -3031.899)" fill="none" stroke="#000" stroke-linecap="round" stroke-linejoin="round" stroke-width="1.5"/>
        </g>
        <g id="Grupo_1225172" data-name="Grupo 1225172" transform="translate(74.3 0)">
          <g id="Grupo_1225171" data-name="Grupo 1225171">
            <g id="Grupo_1225170" data-name="Grupo 1225170">
              <g id="Grupo_1225166" data-name="Grupo 1225166" transform="translate(0 12.141)">
                <path id="Trazado_1160525" data-name="Trazado 1160525" d="M3783.1,1350.519l2.758,35.266c1.932,6.329,33.436,10.65,34.389-4.918.851-14.03,2.427-52.613,2.427-52.613s-34.516-14.805-39.574,22.278Z" transform="translate(-3773.979 -1295.217)" fill="#fff"/>
                <path id="Trazado_1160526" data-name="Trazado 1160526" d="M3764.811,1093.378c44.644,30.7-28.187,81.117-46.919,68.231-7.549-5.185-7.028-14.487-5.948-22.748,1.144-8.718,3.2-16.483,9.061-25.366,11.59-17.576,24.159-33.639,43.819-20.117Z" transform="translate(-3711.324 -1088.337)" fill="#fff"/>
                <path id="Trazado_1160527" data-name="Trazado 1160527" d="M3746.192,1157.705c-11.221,5.859-22.43,8.045-28.3,4-7.549-5.185-7.028-14.488-5.948-22.748,1.144-8.718,3.2-16.483,9.061-25.366,11.59-17.576,24.159-33.639,43.819-20.118" transform="translate(-3711.324 -1088.424)" fill="none" stroke="#2e2e2e" stroke-linecap="round" stroke-linejoin="round" stroke-width="1.5"/>
                <path id="Trazado_1160528" data-name="Trazado 1160528" d="M3926.385,1361.353c3.507-.547,2.262,5.325-1.017,4.6S3924.924,1361.569,3926.385,1361.353Z" transform="translate(-3896.841 -1326.626)" fill="#2e2e2e"/>
                <path id="Trazado_1160529" data-name="Trazado 1160529" d="M3804.285,1286.653c3.507-.546,2.262,5.325-1.017,4.6S3802.824,1286.869,3804.285,1286.653Z" transform="translate(-3790.258 -1261.419)" fill="#2e2e2e"/>
                <path id="Trazado_1160530" data-name="Trazado 1160530" d="M3827.6,1228.7a19.972,19.972,0,0,1,7.956,2.821" transform="translate(-3812.823 -1210.862)" fill="none" stroke="#2e2e2e" stroke-linecap="round" stroke-linejoin="round" stroke-width="1.5"/>
                <path id="Trazado_1160531" data-name="Trazado 1160531" d="M3947.2,1273c4.4,2.885,6.646,5.846,7.791,8.184" transform="translate(-3917.224 -1249.532)" fill="none" stroke="#2e2e2e" stroke-linecap="round" stroke-linejoin="round" stroke-width="1.5"/>
                <path id="Trazado_1160532" data-name="Trazado 1160532" d="M3826.978,1374.6c-4.168,4.13-6.57,6.062-6.57,6.062s-1.118,2.072,1.411,4.422" transform="translate(-3806.33 -1338.221)" fill="none" stroke="#2e2e2e" stroke-linecap="round" stroke-linejoin="round" stroke-width="1.5"/>
              </g>
              <g id="Grupo_1225169" data-name="Grupo 1225169" transform="translate(16.098)">
                <g id="Grupo_1225167" data-name="Grupo 1225167">
                  <path id="Trazado_1160533" data-name="Trazado 1160533" d="M3909.3,1199.455c7.637-3.584,18.528,6.113,22.811,2.973" transform="translate(-3900.239 -1172.488)" fill="none" stroke="#2e2e2e" stroke-linecap="round" stroke-linejoin="round" stroke-width="1.5"/>
                  <path id="Trazado_1160534" data-name="Trazado 1160534" d="M3838.012,1020.86c12.365-13.115,23.18,5.642,31.859,1.868-6.1,7.981,3.9,18.719,3.9,18.719l-4.461,25.061-.546,10.8c2.071-4.27,15.313-8.235,23.205-17.3,11.082-12.721,15.377-31.237-4.232-42.992-1.728-12.1-25.544-14.653-22.138-24.222-20.066.661-25.963,17.385-27.6,28.047Z" transform="translate(-3838 -992.8)" fill="#2e2e2e"/>
                </g>
                <g id="Grupo_1225168" data-name="Grupo 1225168" transform="translate(24.328 58.036)">
                  <path id="Trazado_1160535" data-name="Trazado 1160535" d="M4029.445,1459.546c-.471-11.387,19.761-13.471,18.771-4.422S4029.876,1470.2,4029.445,1459.546Z" transform="translate(-4029.437 -1449.479)" fill="#fff"/>
                  <line id="Línea_816" data-name="Línea 816" y1="2.529" x2="8.489" transform="translate(4.888 5.696)" fill="none" stroke="#2e2e2e" stroke-linecap="round" stroke-linejoin="round" stroke-width="1.5"/>
                  <path id="Trazado_1160536" data-name="Trazado 1160536" d="M4044.055,1450.492c5.617-2.135,12.569-.7,11.984,4.689-.839,7.752-13.687,13.281-17.639,8.019" transform="translate(-4037.26 -1449.536)" fill="none" stroke="#2e2e2e" stroke-linecap="round" stroke-linejoin="round" stroke-width="1.5"/>
                </g>
              </g>
            </g>
            <line id="Línea_817" data-name="Línea 817" x2="3.291" y2="3.088" transform="translate(7.482 64.711)" fill="none" stroke="#2e2e2e" stroke-linecap="round" stroke-linejoin="round" stroke-width="1.5"/>
            <ellipse id="Elipse_11592" data-name="Elipse 11592" cx="4.969" cy="9.48" rx="4.969" ry="9.48" transform="translate(7.609 31.212)" fill="none" stroke="#2e2e2e" stroke-linecap="round" stroke-linejoin="round" stroke-width="1.5"/>
            <ellipse id="Elipse_11593" data-name="Elipse 11593" cx="4.969" cy="9.48" rx="4.969" ry="9.48" transform="translate(22.719 39.701)" fill="none" stroke="#2e2e2e" stroke-linecap="round" stroke-linejoin="round" stroke-width="1.5"/>
            <line id="Línea_818" data-name="Línea 818" x2="6.964" y2="3.037" transform="translate(17.458 39.015)" fill="none" stroke="#2e2e2e" stroke-linecap="round" stroke-linejoin="round" stroke-width="1.5"/>
            <line id="Línea_819" data-name="Línea 819" x2="18.796" y2="10.777" transform="translate(32.657 47.288)" fill="none" stroke="#2e2e2e" stroke-linecap="round" stroke-linejoin="round" stroke-width="1.5"/>
            <line id="Línea_820" data-name="Línea 820" x1="1.156" y2="24.07" transform="translate(46.268 73.721)" fill="none" stroke="#2e2e2e" stroke-linecap="round" stroke-linejoin="round" stroke-width="1.5"/>
          </g>
          <path id="Trazado_1160537" data-name="Trazado 1160537" d="M3795.2,1678.3l1.22,15.593c6.443,8.248,23.231,8.731,30.17,4.423" transform="translate(-3784.54 -1591.184)" fill="none" stroke="#2e2e2e" stroke-linecap="round" stroke-linejoin="round" stroke-width="1.5"/>
        </g>
      </g>
      <g id="Grupo_1225175" data-name="Grupo 1225175" transform="translate(-6149.383 5379.676)">
        <g id="Grupo_1225174" data-name="Grupo 1225174" transform="translate(0 0)">
          <path id="Trazado_1160538" data-name="Trazado 1160538" d="M1669.929,3240.969c1.5,6.723.61,13.865,3.076,20.55,3.927,11.4,14.742,20.461,27.272,25.01-.318-8.54-1.906-17.233-1.36-25.734.356-3.7,1.436-6.812,2.046-10.561a37.072,37.072,0,0,0-3.647-23.51,46.538,46.538,0,0,0-4.943-7.167c-3.927-4.651-8.07-9.011-11.4-14.018-3.457-5.007-6.456-10.256-9.773-15.339a35.464,35.464,0,0,0-7.155,34.261C1665.671,3230.028,1669.052,3235.3,1669.929,3240.969Z" transform="translate(-1662.319 -3174.683)" fill="#fff" stroke="#c1c7d7" stroke-linecap="round" stroke-linejoin="round" stroke-width="1.5"/>
          <path id="Trazado_1160539" data-name="Trazado 1160539" d="M1680.972,3205.538c-3.457-5.007-6.456-10.256-9.773-15.339a35.464,35.464,0,0,0-7.155,34.261c1.627,5.567,5.007,10.84,5.884,16.508" transform="translate(-1662.319 -3174.683)" fill="none" stroke="#2e2e2e" stroke-linecap="round" stroke-linejoin="round" stroke-width="1.5"/>
          <path id="Trazado_1160540" data-name="Trazado 1160540" d="M1903.219,3123.61c-.915,10.294-1.779,20.74.1,31.034a48.021,48.021,0,0,0,15.327,26.586c2.491-8.362,4.969-16.826,7.79-25.15,3.724-9.95,6.964-19.38,7.968-30.208,2.11-20.333-3.838-42.281-19.444-57.772-6.634,17.868-9.709,36.714-11.742,55.523Z" transform="translate(-1871.718 -3068.1)" fill="#ff9d1c" stroke="#2e2e2e" stroke-linecap="round" stroke-linejoin="round" stroke-width="1.5"/>
          <path id="Trazado_1160541" data-name="Trazado 1160541" d="M2035.291,3195.078c.064,3.05.178,6.1.445,9.137.241,5.236-.852,10.611-1.716,15.923a243.591,243.591,0,0,0-3.52,25.379c17.626-7.485,32.419-22.125,35.495-39.307a98.489,98.489,0,0,0,.292-18.948c-.533-8.273-1.042-16.254-1.093-24.476-.115-6.825-.063-13.675-.585-20.487-21.058,11.514-30.157,32.064-29.305,52.791Z" transform="translate(-1983.71 -3132.87)" fill="#fff" stroke="#c1c7d7" stroke-linecap="round" stroke-linejoin="round" stroke-width="1.5"/>
          <path id="Trazado_1160542" data-name="Trazado 1160542" d="M2066.286,3187.162c-.3-4.829-.61-9.556-.826-14.284-.152-3.381-.254-6.761-.28-10.192-.114-6.824-.063-13.674-.584-20.486-21.058,11.514-30.157,32.063-29.305,52.791.064,3.05.178,6.1.445,9.137.241,5.235-.852,10.611-1.716,15.923a243.568,243.568,0,0,0-3.52,25.379" transform="translate(-1983.71 -3132.783)" fill="#fff" stroke="#2e2e2e" stroke-linecap="round" stroke-linejoin="round" stroke-width="1.5"/>
          <path id="Trazado_1160543" data-name="Trazado 1160543" d="M1819.124,3896.189h-34.9L1773.4,3848h56.552Z" transform="translate(-1759.283 -3748.887)" fill="#fff" stroke="#c1c7d7" stroke-linecap="round" stroke-linejoin="round" stroke-width="1.5"/>
          <path id="Trazado_1160544" data-name="Trazado 1160544" d="M2140.073,3255.7c-8.006,35.418-1.334,56.971-16.673,75.285" transform="translate(-2064.804 -3231.859)" fill="none" stroke="#c1c7d7" stroke-linecap="round" stroke-linejoin="round" stroke-width="1.5"/>
          <path id="Trazado_1160545" data-name="Trazado 1160545" d="M2172.5,3326c1.982,15.5,6.519,16.1,6.519,16.1" transform="translate(-2107.664 -3293.225)" fill="none" stroke="#c1c7d7" stroke-linecap="round" stroke-linejoin="round" stroke-width="1.5"/>
          <path id="Trazado_1160546" data-name="Trazado 1160546" d="M2226.06,3465.5a17.95,17.95,0,0,1-9.76,9.328" transform="translate(-2145.899 -3414.997)" fill="none" stroke="#c1c7d7" stroke-linecap="round" stroke-linejoin="round" stroke-width="1.5"/>
          <path id="Trazado_1160547" data-name="Trazado 1160547" d="M2105.9,3573.9c0,10.51,11.133,17,11.133,17" transform="translate(-2049.528 -3509.621)" fill="none" stroke="#c1c7d7" stroke-linecap="round" stroke-linejoin="round" stroke-width="1.5"/>
          <path id="Trazado_1160548" data-name="Trazado 1160548" d="M2158.164,3783.6c-4.245,4.512-8.464,3.622-8.464,3.622" transform="translate(-2087.762 -3692.672)" fill="none" stroke="#c1c7d7" stroke-linecap="round" stroke-linejoin="round" stroke-width="1.5"/>
          <path id="Trazado_1160549" data-name="Trazado 1160549" d="M2016.7,3175.2c5.782,19.165,5.045,37.565,2.16,48.953s0,36.549,0,36.549" transform="translate(-1971.664 -3161.589)" fill="none" stroke="#2e2e2e" stroke-linecap="round" stroke-linejoin="round" stroke-width="1.5"/>
          <path id="Trazado_1160550" data-name="Trazado 1160550" d="M2052,3215.6c1.55,10.2-5.3,14.03-5.3,14.03" transform="translate(-1997.851 -3196.855)" fill="none" stroke="#2e2e2e" stroke-linecap="round" stroke-linejoin="round" stroke-width="1.5"/>
          <path id="Trazado_1160551" data-name="Trazado 1160551" d="M1959,3344.8c2.669,8.565,11.158,12.924,11.158,12.924" transform="translate(-1921.297 -3309.636)" fill="none" stroke="#2e2e2e" stroke-linecap="round" stroke-linejoin="round" stroke-width="1.5"/>
          <path id="Trazado_1160552" data-name="Trazado 1160552" d="M2031.8,3557.6c-1.436,5.007-5.3,6-5.3,6" transform="translate(-1980.219 -3495.393)" fill="none" stroke="#2e2e2e" stroke-linecap="round" stroke-linejoin="round" stroke-width="1.5"/>
          <path id="Trazado_1160553" data-name="Trazado 1160553" d="M1926.3,3611c3.266,14.322,12.594,16.762,12.594,16.762" transform="translate(-1892.753 -3542.006)" fill="none" stroke="#2e2e2e" stroke-linecap="round" stroke-linejoin="round" stroke-width="1.5"/>
          <path id="Trazado_1160554" data-name="Trazado 1160554" d="M1728,3274.2c6.456,26.637,16.013,35.863,17.792,46.6s1.436,24.7,5.172,26.332" transform="translate(-1719.653 -3248.008)" fill="none" stroke="#c1c7d7" stroke-linecap="round" stroke-linejoin="round" stroke-width="1.5"/>
          <path id="Trazado_1160555" data-name="Trazado 1160555" d="M1795.737,3358.9a13.365,13.365,0,0,1-3.037,13.344" transform="translate(-1776.131 -3321.944)" fill="none" stroke="#c1c7d7" stroke-linecap="round" stroke-linejoin="round" stroke-width="1.5"/>
          <path id="Trazado_1160556" data-name="Trazado 1160556" d="M1705.3,3446.5c6,17.614,18.974,18.8,18.974,18.8" transform="translate(-1699.838 -3398.411)" fill="none" stroke="#c1c7d7" stroke-linecap="round" stroke-linejoin="round" stroke-width="1.5"/>
          <path id="Trazado_1160557" data-name="Trazado 1160557" d="M1764.8,3698.3c1.779,9.862,15.911,14.538,15.911,14.538" transform="translate(-1751.776 -3618.212)" fill="none" stroke="#c1c7d7" stroke-linecap="round" stroke-linejoin="round" stroke-width="1.5"/>
          <line id="Línea_821" data-name="Línea 821" x1="51.431" transform="translate(16.671 109.648)" fill="none" stroke="#c1c7d7" stroke-linecap="round" stroke-linejoin="round" stroke-width="1.5"/>
          <line id="Línea_822" data-name="Línea 822" x1="49.982" transform="translate(17.522 113.206)" fill="none" stroke="#c1c7d7" stroke-linecap="round" stroke-linejoin="round" stroke-width="1.5"/>
        </g>
        <path id="Trazado_1160558" data-name="Trazado 1160558" d="M1829.952,3848H1773.4l7.574,33.728" transform="translate(-1759.283 -3748.887)" fill="none" stroke="#2e2e2e" stroke-linecap="round" stroke-linejoin="round" stroke-width="1.5"/>
        <line id="Línea_823" data-name="Línea 823" x1="25.849" transform="translate(16.671 109.648)" fill="none" stroke="#2e2e2e" stroke-linecap="round" stroke-linejoin="round" stroke-width="1.5"/>
        <line id="Línea_824" data-name="Línea 824" x2="20.448" transform="translate(34.323 113.206)" fill="none" stroke="#2e2e2e" stroke-linecap="round" stroke-linejoin="round" stroke-width="1.5"/>
      </g>
      <g id="Grupo_1225176" data-name="Grupo 1225176" transform="translate(-6302.623 5028.448)">
        <path id="Trazado_1160559" data-name="Trazado 1160559" d="M456.5,321.471l9.925,11.5s13.484-16.635,26.573-13c15.275,4.257-5.172,19.889-7.345,32.47a35.343,35.343,0,0,0,1.5,17.715l12.53-2.923s-1.741-10.09.025-14.958c4.651-12.785,22.481-24.387,12.4-38.989S474.635,302.307,456.5,321.471Z" transform="translate(-456.5 -304.331)" fill="#ff9d1c" stroke="#2e2e2e" stroke-linecap="round" stroke-linejoin="round" stroke-width="1.5"/>
        <path id="Trazado_1160560" data-name="Trazado 1160560" d="M725.637,858.572c11.793-7.269,21.769,8.222,10.116,15.047S714.81,865.244,725.637,858.572Z" transform="translate(-687.245 -786.481)" fill="#ff9d1c" stroke="#2e2e2e" stroke-linecap="round" stroke-linejoin="round" stroke-width="1.5"/>
      </g>
      <g id="Grupo_1225177" data-name="Grupo 1225177" transform="translate(-6338.6 5061.919)">
        <path id="Trazado_1160561" data-name="Trazado 1160561" d="M173.4,596.6l11.666,4.778s3.724-17.385,14.78-19.609c12.912-2.592,3.647,16.661,6.774,26.789a29.38,29.38,0,0,0,7.765,12.543l8.171-6.875s-5.083-6.812-5.6-11.082c-1.36-11.209,7.473-26.5-5.477-33.512S179.614,575.6,173.4,596.6Z" transform="translate(-173.4 -567.719)" fill="#c1c7d7" stroke="#2e2e2e" stroke-linecap="round" stroke-linejoin="round" stroke-width="1.5"/>
        <path id="Trazado_1160562" data-name="Trazado 1160562" d="M550.161,970.108c6-9.811,19.2-2.1,13.14,7.333S544.658,979.119,550.161,970.108Z" transform="translate(-501.094 -914.995)" fill="#c1c7d7" stroke="#2e2e2e" stroke-linecap="round" stroke-linejoin="round" stroke-width="1.5"/>
      </g>
      <g id="Grupo_1225178" data-name="Grupo 1225178" transform="translate(-6239.643 5037.082)">
        <path id="Trazado_1160563" data-name="Trazado 1160563" d="M988.7,374.042l2.135,12.988s17.487-6.2,25.518,2.415c9.379,10.052-12.81,12.353-20.1,20.677a30.7,30.7,0,0,0-6.9,13.776l10.586,3.495s3.279-8.248,6.786-11.044c9.214-7.345,27.641-7.854,26.789-23.205s-22.735-25.061-44.81-19.088Z" transform="translate(-984.047 -372.272)" fill="#c1c7d7" stroke="#2e2e2e" stroke-linecap="round" stroke-linejoin="round" stroke-width="1.5"/>
        <path id="Trazado_1160564" data-name="Trazado 1160564" d="M960.272,842.4c12.009-.038,12.365,15.924.674,15.695S949.254,842.438,960.272,842.4Z" transform="translate(-952.086 -782.654)" fill="#c1c7d7" stroke="#2e2e2e" stroke-linecap="round" stroke-linejoin="round" stroke-width="1.5"/>
      </g>
      <g id="Grupo_1225179" data-name="Grupo 1225179" transform="translate(-5841.176 5027.767)">
        <path id="Trazado_1160565" data-name="Trazado 1160565" d="M4146.567,300.229l1.6,15.11s20.563-5.986,29.243,4.473c10.128,12.2-15.582,13.382-24.54,22.494A35.381,35.381,0,0,0,4144,357.721l11.959,4.727s4.32-9.277,8.552-12.276c11.107-7.854,32.381-7.218,32.407-24.959s-24.526-30.373-50.363-24.972Z" transform="translate(-4136.826 -298.981)" fill="#ff9d1c" stroke="#2e2e2e" stroke-linecap="round" stroke-linejoin="round" stroke-width="1.5"/>
        <path id="Trazado_1160566" data-name="Trazado 1160566" d="M4097.509,836.062c13.839.75,13.191,19.164-.267,18.122S4084.8,835.363,4097.509,836.062Z" transform="translate(-4087.552 -767.79)" fill="#ff9d1c" stroke="#2e2e2e" stroke-linecap="round" stroke-linejoin="round" stroke-width="1.5"/>
      </g>
      <g id="Grupo_1225180" data-name="Grupo 1225180" transform="translate(-5888.661 5028.08)">
        <path id="Trazado_1160567" data-name="Trazado 1160567" d="M3713.913,312.753l7.548,11.628s14.259-13.369,25.634-8.451c13.28,5.744-7.142,17.322-10.676,28.429a32.248,32.248,0,0,0-.851,16.2l11.679-1.093s-.318-9.341,1.881-13.509c5.8-10.98,23.345-19.24,16.05-33.7s-32.508-14.576-51.278.5Z" transform="translate(-3713.9 -301.434)" fill="#c1c7d7" stroke="#2e2e2e" stroke-linecap="round" stroke-linejoin="round" stroke-width="1.5"/>
        <path id="Trazado_1160568" data-name="Trazado 1160568" d="M3896.3,811.7c11.565-5.109,18.656,10.129,7.27,14.856S3885.679,816.387,3896.3,811.7Z" transform="translate(-3868.421 -745.949)" fill="#c1c7d7" stroke="#2e2e2e" stroke-linecap="round" stroke-linejoin="round" stroke-width="1.5"/>
      </g>
      <g id="Grupo_1225181" data-name="Grupo 1225181" transform="translate(-5817.965 5075.413)">
        <path id="Trazado_1160569" data-name="Trazado 1160569" d="M4391.047,673.9l-4.74,10s15.059,4.1,16.47,13.89c1.651,11.438-14.78,2.389-23.8,4.651a25.837,25.837,0,0,0-11.373,6.2l5.629,7.485s6.214-4.13,9.977-4.372c9.887-.661,22.862,7.828,29.636-3.19s-3.7-28.2-21.808-34.668Z" transform="translate(-4355.221 -673.9)" fill="#c1c7d7" stroke="#2e2e2e" stroke-linecap="round" stroke-linejoin="round" stroke-width="1.5"/>
        <path id="Trazado_1160570" data-name="Trazado 1160570" d="M4280.676,992.557c8.311,5.731.915,16.927-7.053,11.158S4273.05,987.3,4280.676,992.557Z" transform="translate(-4270.19 -950.823)" fill="#c1c7d7" stroke="#2e2e2e" stroke-linecap="round" stroke-linejoin="round" stroke-width="1.5"/>
      </g>
      <line id="Línea_825" data-name="Línea 825" x2="18.008" y2="9.506" transform="translate(-6314.022 5128.089)" fill="none" stroke="#c1c7d7" stroke-linecap="round" stroke-linejoin="round" stroke-width="1.5"/>
      <line id="Línea_826" data-name="Línea 826" x2="12.645" y2="12.556" transform="translate(-6324.812 5032.066)" fill="none" stroke="#c1c7d7" stroke-linecap="round" stroke-linejoin="round" stroke-width="1.5"/>
      <line id="Línea_827" data-name="Línea 827" x2="0.737" y2="11.73" transform="translate(-6246.198 5070.965)" fill="none" stroke="#c1c7d7" stroke-linecap="round" stroke-linejoin="round" stroke-width="1.5"/>
      <line id="Línea_828" data-name="Línea 828" x1="10.955" y2="9.62" transform="translate(-6181.093 5067.204)" fill="none" stroke="#c1c7d7" stroke-linecap="round" stroke-linejoin="round" stroke-width="1.5"/>
      <line id="Línea_829" data-name="Línea 829" x1="0.025" y2="10.942" transform="translate(-6228.444 5021.123)" fill="none" stroke="#c1c7d7" stroke-linecap="round" stroke-linejoin="round" stroke-width="1.5"/>
      <line id="Línea_830" data-name="Línea 830" x2="9.468" y2="5.02" transform="translate(-6327.951 5049.641)" fill="none" stroke="#c1c7d7" stroke-linecap="round" stroke-linejoin="round" stroke-width="1.5"/>
      <line id="Línea_831" data-name="Línea 831" x2="15.377" y2="3.495" transform="translate(-6338.6 5137.9)" fill="none" stroke="#c1c7d7" stroke-linecap="round" stroke-linejoin="round" stroke-width="1.5"/>
      <line id="Línea_832" data-name="Línea 832" x1="3.596" y1="12.264" transform="translate(-6285.632 5008.86)" fill="none" stroke="#c1c7d7" stroke-linecap="round" stroke-linejoin="round" stroke-width="1.5"/>
      <line id="Línea_833" data-name="Línea 833" x2="4.562" y2="6.443" transform="translate(-6269.86 5122.829)" fill="none" stroke="#c1c7d7" stroke-linecap="round" stroke-linejoin="round" stroke-width="1.5"/>
      <line id="Línea_834" data-name="Línea 834" x2="9.468" y2="6.227" transform="translate(-6327.951 5107.985)" fill="none" stroke="#c1c7d7" stroke-linecap="round" stroke-linejoin="round" stroke-width="1.5"/>
      <line id="Línea_835" data-name="Línea 835" x1="12.683" y2="2.402" transform="translate(-6308.697 5165.757)" fill="none" stroke="#c1c7d7" stroke-linecap="round" stroke-linejoin="round" stroke-width="1.5"/>
      <line id="Línea_836" data-name="Línea 836" y1="6.964" x2="5.604" transform="translate(-6198.783 5117.313)" fill="none" stroke="#c1c7d7" stroke-linecap="round" stroke-linejoin="round" stroke-width="1.5"/>
      <line id="Línea_837" data-name="Línea 837" y1="9.62" x2="11.755" transform="translate(-6149.373 5067.204)" fill="none" stroke="#c1c7d7" stroke-linecap="round" stroke-linejoin="round" stroke-width="1.5"/>
      <line id="Línea_838" data-name="Línea 838" y1="9.887" x2="6.774" transform="translate(-6187.867 5028.456)" fill="none" stroke="#c1c7d7" stroke-linecap="round" stroke-linejoin="round" stroke-width="1.5"/>
      <line id="Línea_839" data-name="Línea 839" x2="5.757" y2="7.384" transform="translate(-5908.334 5064.637)" fill="none" stroke="#c1c7d7" stroke-linecap="round" stroke-linejoin="round" stroke-width="1.5"/>
      <line id="Línea_840" data-name="Línea 840" x2="4.931" y2="10.472" transform="translate(-5911.981 5026.6)" fill="none" stroke="#c1c7d7" stroke-linecap="round" stroke-linejoin="round" stroke-width="1.5"/>
      <line id="Línea_841" data-name="Línea 841" y2="11.615" transform="translate(-5839.149 5014.985)" fill="none" stroke="#c1c7d7" stroke-linecap="round" stroke-linejoin="round" stroke-width="1.5"/>
      <line id="Línea_842" data-name="Línea 842" x1="9.747" y2="11.577" transform="translate(-5807.519 5082.695)" fill="none" stroke="#c1c7d7" stroke-linecap="round" stroke-linejoin="round" stroke-width="1.5"/>
      <line id="Línea_843" data-name="Línea 843" y2="11.654" transform="translate(-5846.927 5076.825)" fill="none" stroke="#c1c7d7" stroke-linecap="round" stroke-linejoin="round" stroke-width="1.5"/>
      <line id="Línea_844" data-name="Línea 844" x2="14.017" y2="9.048" transform="translate(-5951.72 5061.917)" fill="none" stroke="#c1c7d7" stroke-linecap="round" stroke-linejoin="round" stroke-width="1.5"/>
      <line id="Línea_845" data-name="Línea 845" x1="4.168" y2="11.272" transform="translate(-5785.253 5020.793)" fill="none" stroke="#c1c7d7" stroke-linecap="round" stroke-linejoin="round" stroke-width="1.5"/>
      <line id="Línea_846" data-name="Línea 846" x1="8.171" y2="6.329" transform="translate(-5766.432 5064.637)" fill="none" stroke="#c1c7d7" stroke-linecap="round" stroke-linejoin="round" stroke-width="1.5"/>
      <line id="Línea_847" data-name="Línea 847" x1="11.692" y2="1.182" transform="translate(-5803.833 5137.596)" fill="none" stroke="#c1c7d7" stroke-linecap="round" stroke-linejoin="round" stroke-width="1.5"/>
      <line id="Línea_848" data-name="Línea 848" x1="11.056" y2="3.482" transform="translate(-5792.141 5120.794)" fill="none" stroke="#c1c7d7" stroke-linecap="round" stroke-linejoin="round" stroke-width="1.5"/>
      <line id="Línea_849" data-name="Línea 849" x1="11.26" y1="2.351" transform="translate(-5781.924 5155.641)" fill="none" stroke="#c1c7d7" stroke-linecap="round" stroke-linejoin="round" stroke-width="1.5"/>
      <line id="Línea_850" data-name="Línea 850" x2="3.393" y2="6.697" transform="translate(-5871.441 5054.661)" fill="none" stroke="#c1c7d7" stroke-linecap="round" stroke-linejoin="round" stroke-width="1.5"/>
      <line id="Línea_851" data-name="Línea 851" x2="10.192" y2="11.298" transform="translate(-5944.705 5038.343)" fill="none" stroke="#c1c7d7" stroke-linecap="round" stroke-linejoin="round" stroke-width="1.5"/>
      <line id="Línea_852" data-name="Línea 852" x2="11.819" y2="6.316" transform="translate(-5797.072 5170.18)" fill="none" stroke="#c1c7d7" stroke-linecap="round" stroke-linejoin="round" stroke-width="1.5"/>
      <line id="Línea_853" data-name="Línea 853" x2="522.046" transform="translate(-6307.299 5526.458)" fill="none" stroke="#2e2e2e" stroke-linecap="round" stroke-linejoin="round" stroke-width="1.5"/>
    </g>
    <g id="Grupo_1225192" data-name="Grupo 1225192" transform="translate(296.401 -96)">
      <g id="Rectángulo_421624" data-name="Rectángulo 421624" transform="translate(343 2849)" fill="#fff" stroke="#36ceef" stroke-width="1">
        <rect width="91" height="35" rx="15" stroke="none"/>
        <rect x="0.5" y="0.5" width="90" height="34" rx="14.5" fill="none"/>
      </g>
      <path id="Trazado_1183356" data-name="Trazado 1183356" d="M-17.191-4.773a2.38,2.38,0,0,1,.121.457,2.885,2.885,0,0,1,.043.48,2.849,2.849,0,0,1-.07.656,2.289,2.289,0,0,1-.211.559,2.639,2.639,0,0,1-.352.5,4.52,4.52,0,0,1-.492.473q-.289.25-.516.465a3.155,3.155,0,0,0-.383.43,1.666,1.666,0,0,0-.234.445A1.587,1.587,0,0,0-19.363.2a1.16,1.16,0,0,0,.086.449,1,1,0,0,0,.246.355,1.166,1.166,0,0,0,.391.234,1.455,1.455,0,0,0,.512.086,3.5,3.5,0,0,0,1.266-.254A4.143,4.143,0,0,0-15.62.3V2.656a4.87,4.87,0,0,1-1.312.539,5.971,5.971,0,0,1-1.469.18,5.433,5.433,0,0,1-1.352-.16,3.109,3.109,0,0,1-1.09-.5,2.369,2.369,0,0,1-.727-.879A2.9,2.9,0,0,1-21.831.547a3.169,3.169,0,0,1,.109-.863,2.9,2.9,0,0,1,.32-.73,3.685,3.685,0,0,1,.523-.66,9.693,9.693,0,0,1,.719-.652q.273-.227.48-.422a2.68,2.68,0,0,0,.344-.387,1.5,1.5,0,0,0,.207-.406,1.567,1.567,0,0,0,.07-.488,1.518,1.518,0,0,0-.051-.383,1.121,1.121,0,0,0-.137-.328ZM-18.331-8.2a1.472,1.472,0,0,1,1.039.375,1.227,1.227,0,0,1,.414.922,1.172,1.172,0,0,1-.414.914,1.508,1.508,0,0,1-1.039.367,1.469,1.469,0,0,1-1.023-.367,1.167,1.167,0,0,1-.406-.914,1.194,1.194,0,0,1,.4-.93A1.479,1.479,0,0,1-18.331-8.2ZM-9.22.2a5.222,5.222,0,0,1-3.922-1.562,5.654,5.654,0,0,1-1.516-4.086,6.043,6.043,0,0,1,1.539-4.3,5.313,5.313,0,0,1,4.078-1.641A5.072,5.072,0,0,1-5.166-9.82,5.763,5.763,0,0,1-3.681-5.68,5.938,5.938,0,0,1-5.22-1.422q-.055.055-.1.105a1.207,1.207,0,0,1-.1.1l2.836,2.727H-6.119L-7.6,0A6.284,6.284,0,0,1-9.22.2Zm.109-9.414a2.55,2.55,0,0,0-2.109,1A4.136,4.136,0,0,0-12-5.586a4.077,4.077,0,0,0,.781,2.633,2.5,2.5,0,0,0,2.047.969A2.533,2.533,0,0,0-7.1-2.922a4.068,4.068,0,0,0,.766-2.617A4.39,4.39,0,0,0-7.08-8.25,2.407,2.407,0,0,0-9.111-9.219ZM5.539,0H3.078V-1.219H3.039A2.792,2.792,0,0,1,.594.2Q-2.188.2-2.187-3.172V-8H.273v4.609q0,1.7,1.344,1.7A1.329,1.329,0,0,0,2.68-2.16a1.874,1.874,0,0,0,.4-1.262V-8H5.539Zm9.267-3.3H9.588q.125,1.742,2.2,1.742A4.286,4.286,0,0,0,14.1-2.18V-.4A6.1,6.1,0,0,1,11.22.2,4.058,4.058,0,0,1,8.213-.879a4.058,4.058,0,0,1-1.07-3A4.281,4.281,0,0,1,8.3-7.031,3.852,3.852,0,0,1,11.142-8.2a3.5,3.5,0,0,1,2.707,1.039,4,4,0,0,1,.957,2.82ZM12.517-4.812q0-1.719-1.391-1.719a1.328,1.328,0,0,0-1.027.492,2.234,2.234,0,0,0-.527,1.227Zm1.258-6.977L11.33-9.266H9.548l2.031-2.523Zm3.517,8.547a2.38,2.38,0,0,1-.121-.457,2.885,2.885,0,0,1-.043-.48,2.849,2.849,0,0,1,.07-.656,2.289,2.289,0,0,1,.211-.559,2.639,2.639,0,0,1,.352-.5,4.52,4.52,0,0,1,.492-.473q.3-.25.52-.465a3.3,3.3,0,0,0,.379-.43,1.666,1.666,0,0,0,.234-.445,1.587,1.587,0,0,0,.078-.512,1.16,1.16,0,0,0-.086-.449,1,1,0,0,0-.246-.355,1.166,1.166,0,0,0-.391-.234,1.455,1.455,0,0,0-.512-.086,3.5,3.5,0,0,0-1.266.254,4.143,4.143,0,0,0-1.242.77v-2.352a4.87,4.87,0,0,1,1.313-.539,5.971,5.971,0,0,1,1.469-.18,5.433,5.433,0,0,1,1.352.16,3.109,3.109,0,0,1,1.09.5,2.369,2.369,0,0,1,.727.879,2.9,2.9,0,0,1,.262,1.285,3.169,3.169,0,0,1-.109.863,2.9,2.9,0,0,1-.32.73,3.685,3.685,0,0,1-.523.66,9.693,9.693,0,0,1-.719.652q-.273.227-.48.422a2.68,2.68,0,0,0-.344.387,1.5,1.5,0,0,0-.207.406,1.567,1.567,0,0,0-.07.488,1.518,1.518,0,0,0,.051.383,1.121,1.121,0,0,0,.137.328ZM18.433.18A1.49,1.49,0,0,1,17.394-.2a1.227,1.227,0,0,1-.414-.922,1.172,1.172,0,0,1,.414-.914A1.508,1.508,0,0,1,18.433-2.4a1.469,1.469,0,0,1,1.023.367,1.167,1.167,0,0,1,.406.914,1.21,1.21,0,0,1-.4.93A1.479,1.479,0,0,1,18.433.18Z" transform="translate(381.376 2870.985)" fill="#0b0a0a"/>
      <g id="Elipse_12633" data-name="Elipse 12633" transform="translate(412.376 2837.985)" fill="#fff" stroke="#36ceef" stroke-width="1">
        <ellipse cx="27.5" cy="27" rx="27.5" ry="27" stroke="none"/>
        <ellipse cx="27.5" cy="27" rx="27" ry="26.5" fill="none"/>
      </g>
    </g>
    <g id="Grupo_1225193" data-name="Grupo 1225193" transform="translate(1088.777 3058.918)">
      <g id="Rectángulo_421624-2" data-name="Rectángulo 421624" transform="translate(33.376 11.015)" fill="#fff" stroke="#36ceef" stroke-width="1">
        <rect width="99" height="35" rx="15" stroke="none"/>
        <rect x="0.5" y="0.5" width="98" height="34" rx="14.5" fill="none"/>
      </g>
      <path id="Trazado_1183358" data-name="Trazado 1183358" d="M-24.055-4.773a2.38,2.38,0,0,1,.121.457,2.885,2.885,0,0,1,.043.48,2.849,2.849,0,0,1-.07.656,2.289,2.289,0,0,1-.211.559,2.639,2.639,0,0,1-.352.5,4.52,4.52,0,0,1-.492.473q-.289.25-.516.465a3.155,3.155,0,0,0-.383.43,1.666,1.666,0,0,0-.234.445A1.587,1.587,0,0,0-26.227.2a1.16,1.16,0,0,0,.086.449,1,1,0,0,0,.246.355,1.166,1.166,0,0,0,.391.234,1.455,1.455,0,0,0,.512.086,3.5,3.5,0,0,0,1.266-.254A4.143,4.143,0,0,0-22.484.3V2.656A4.87,4.87,0,0,1-23.8,3.2a5.971,5.971,0,0,1-1.469.18,5.433,5.433,0,0,1-1.352-.16,3.109,3.109,0,0,1-1.09-.5,2.369,2.369,0,0,1-.727-.879A2.9,2.9,0,0,1-28.7.547a3.169,3.169,0,0,1,.109-.863,2.9,2.9,0,0,1,.32-.73,3.685,3.685,0,0,1,.523-.66,9.693,9.693,0,0,1,.719-.652q.273-.227.48-.422a2.68,2.68,0,0,0,.344-.387,1.5,1.5,0,0,0,.207-.406,1.567,1.567,0,0,0,.07-.488,1.518,1.518,0,0,0-.051-.383,1.121,1.121,0,0,0-.137-.328ZM-25.2-8.2a1.472,1.472,0,0,1,1.039.375,1.227,1.227,0,0,1,.414.922,1.172,1.172,0,0,1-.414.914,1.508,1.508,0,0,1-1.039.367,1.469,1.469,0,0,1-1.023-.367,1.167,1.167,0,0,1-.406-.914,1.194,1.194,0,0,1,.4-.93A1.479,1.479,0,0,1-25.2-8.2ZM-12.788-.4a7.388,7.388,0,0,1-3.2.594A5.4,5.4,0,0,1-20.045-1.32a5.54,5.54,0,0,1-1.477-4.039,5.919,5.919,0,0,1,1.66-4.359,5.807,5.807,0,0,1,4.309-1.672,8.058,8.058,0,0,1,2.766.414v2.43a4.9,4.9,0,0,0-2.562-.672,3.4,3.4,0,0,0-2.547.992,3.682,3.682,0,0,0-.969,2.688,3.611,3.611,0,0,0,.914,2.59,3.229,3.229,0,0,0,2.461.965,5.249,5.249,0,0,0,2.7-.719ZM-7.263.2A4.3,4.3,0,0,1-10.407-.926a4.064,4.064,0,0,1-1.145-3.043,4.065,4.065,0,0,1,1.188-3.105A4.487,4.487,0,0,1-7.153-8.2,4.249,4.249,0,0,1-4.028-7.074,3.985,3.985,0,0,1-2.9-4.109,4.23,4.23,0,0,1-4.063-.961,4.348,4.348,0,0,1-7.263.2ZM-7.2-6.3a1.647,1.647,0,0,0-1.359.6A2.653,2.653,0,0,0-9.044-4q0,2.3,1.859,2.3,1.773,0,1.773-2.367Q-5.411-6.3-7.2-6.3Zm2.648-5.484L-7-9.266H-8.778l2.031-2.523ZM11.4,0H8.942V-4.562Q8.942-6.3,7.661-6.3a1.177,1.177,0,0,0-.992.523,2.151,2.151,0,0,0-.383,1.3V0H3.817V-4.609q0-1.7-1.258-1.7a1.206,1.206,0,0,0-1.012.5,2.2,2.2,0,0,0-.379,1.359V0H-1.3V-8H1.169v1.25H1.2A2.952,2.952,0,0,1,2.274-7.793a2.952,2.952,0,0,1,1.512-.4A2.3,2.3,0,0,1,6.106-6.7,2.959,2.959,0,0,1,8.794-8.2Q11.4-8.2,11.4-4.977ZM17.17.2A4.3,4.3,0,0,1,14.026-.926a4.064,4.064,0,0,1-1.145-3.043,4.065,4.065,0,0,1,1.188-3.105A4.487,4.487,0,0,1,17.28-8.2,4.249,4.249,0,0,1,20.4-7.074a3.985,3.985,0,0,1,1.133,2.965A4.23,4.23,0,0,1,20.37-.961,4.348,4.348,0,0,1,17.17.2Zm.063-6.5a1.647,1.647,0,0,0-1.359.6A2.653,2.653,0,0,0,15.389-4q0,2.3,1.859,2.3,1.773,0,1.773-2.367Q19.022-6.3,17.233-6.3Zm6.923,3.063a2.38,2.38,0,0,1-.121-.457,2.885,2.885,0,0,1-.043-.48,2.849,2.849,0,0,1,.07-.656,2.289,2.289,0,0,1,.211-.559,2.639,2.639,0,0,1,.352-.5,4.52,4.52,0,0,1,.492-.473q.3-.25.52-.465a3.3,3.3,0,0,0,.379-.43,1.666,1.666,0,0,0,.234-.445,1.587,1.587,0,0,0,.078-.512,1.16,1.16,0,0,0-.086-.449A1,1,0,0,0,26-9.023a1.166,1.166,0,0,0-.391-.234,1.455,1.455,0,0,0-.512-.086,3.5,3.5,0,0,0-1.266.254,4.143,4.143,0,0,0-1.242.77v-2.352a4.87,4.87,0,0,1,1.313-.539,5.971,5.971,0,0,1,1.469-.18,5.433,5.433,0,0,1,1.352.16,3.109,3.109,0,0,1,1.09.5,2.369,2.369,0,0,1,.727.879A2.9,2.9,0,0,1,28.8-8.562a3.169,3.169,0,0,1-.109.863,2.9,2.9,0,0,1-.32.73,3.685,3.685,0,0,1-.523.66,9.693,9.693,0,0,1-.719.652q-.273.227-.48.422a2.68,2.68,0,0,0-.344.387,1.5,1.5,0,0,0-.207.406,1.567,1.567,0,0,0-.07.488,1.518,1.518,0,0,0,.051.383,1.121,1.121,0,0,0,.137.328ZM25.3.18A1.49,1.49,0,0,1,24.258-.2a1.227,1.227,0,0,1-.414-.922,1.172,1.172,0,0,1,.414-.914A1.508,1.508,0,0,1,25.3-2.4a1.469,1.469,0,0,1,1.023.367,1.167,1.167,0,0,1,.406.914,1.21,1.21,0,0,1-.4.93A1.479,1.479,0,0,1,25.3.18Z" transform="translate(91 33)" fill="#0b0a0a"/>
      <g id="Elipse_12633-2" data-name="Elipse 12633" transform="translate(0)" fill="#fff" stroke="#36ceef" stroke-width="1">
        <ellipse cx="27.5" cy="27" rx="27.5" ry="27" stroke="none"/>
        <ellipse cx="27.5" cy="27" rx="27" ry="26.5" fill="none"/>
      </g>
    </g>
    <g id="Grupo_1225195" data-name="Grupo 1225195" transform="translate(344.231 3136.061)">
      <g id="Rectángulo_421624-3" data-name="Rectángulo 421624" transform="translate(33.376 11.015)" fill="#fff" stroke="#36ceef" stroke-width="1">
        <rect width="142" height="35" rx="15" stroke="none"/>
        <rect x="0.5" y="0.5" width="141" height="34" rx="14.5" fill="none"/>
      </g>
      <path id="Trazado_1183357" data-name="Trazado 1183357" d="M-41.911-4.773a2.38,2.38,0,0,1,.121.457,2.885,2.885,0,0,1,.043.48,2.849,2.849,0,0,1-.07.656,2.289,2.289,0,0,1-.211.559,2.639,2.639,0,0,1-.352.5,4.52,4.52,0,0,1-.492.473q-.289.25-.516.465a3.155,3.155,0,0,0-.383.43A1.666,1.666,0,0,0-44-.309,1.587,1.587,0,0,0-44.083.2,1.16,1.16,0,0,0-44,.652a1,1,0,0,0,.246.355,1.166,1.166,0,0,0,.391.234,1.455,1.455,0,0,0,.512.086,3.5,3.5,0,0,0,1.266-.254A4.143,4.143,0,0,0-40.341.3V2.656a4.87,4.87,0,0,1-1.312.539,5.971,5.971,0,0,1-1.469.18,5.433,5.433,0,0,1-1.352-.16,3.109,3.109,0,0,1-1.09-.5,2.369,2.369,0,0,1-.727-.879A2.9,2.9,0,0,1-46.552.547a3.169,3.169,0,0,1,.109-.863,2.9,2.9,0,0,1,.32-.73,3.685,3.685,0,0,1,.523-.66,9.693,9.693,0,0,1,.719-.652q.273-.227.48-.422a2.68,2.68,0,0,0,.344-.387,1.5,1.5,0,0,0,.207-.406,1.567,1.567,0,0,0,.07-.488,1.518,1.518,0,0,0-.051-.383,1.121,1.121,0,0,0-.137-.328ZM-43.052-8.2a1.472,1.472,0,0,1,1.039.375A1.227,1.227,0,0,1-41.6-6.9a1.172,1.172,0,0,1-.414.914,1.508,1.508,0,0,1-1.039.367,1.469,1.469,0,0,1-1.023-.367,1.167,1.167,0,0,1-.406-.914,1.194,1.194,0,0,1,.4-.93A1.479,1.479,0,0,1-43.052-8.2Zm6.9,4.336V0h-2.523V-11.2h3.953q4.234,0,4.234,3.57A3.426,3.426,0,0,1-31.7-4.9a4.813,4.813,0,0,1-3.246,1.043Zm0-5.406v3.492h.992q2.016,0,2.016-1.766,0-1.727-2.016-1.727ZM-22.83,0h-2.336V-1.148H-25.2A2.607,2.607,0,0,1-27.58.2a2.492,2.492,0,0,1-1.832-.66,2.366,2.366,0,0,1-.668-1.762q0-2.328,2.758-2.687L-25.15-5.2q0-1.312-1.422-1.312a4.853,4.853,0,0,0-2.719.852V-7.523a6.116,6.116,0,0,1,1.41-.469,7.413,7.413,0,0,1,1.629-.2q3.422,0,3.422,3.414Zm-2.32-3.25v-.539L-26.6-3.6q-1.2.156-1.2,1.086a.9.9,0,0,0,.293.691,1.126,1.126,0,0,0,.793.27,1.462,1.462,0,0,0,1.133-.48A1.735,1.735,0,0,0-25.15-3.25Zm9.494-2.523A2.142,2.142,0,0,0-16.7-6.016a1.5,1.5,0,0,0-1.258.59,2.573,2.573,0,0,0-.453,1.605V0h-2.469V-8h2.469v1.484h.031a2.136,2.136,0,0,1,2.109-1.625,1.59,1.59,0,0,1,.609.094ZM-7.85,0h-2.336V-1.148h-.031A2.607,2.607,0,0,1-12.6.2a2.492,2.492,0,0,1-1.832-.66A2.366,2.366,0,0,1-15.1-2.227q0-2.328,2.758-2.687L-10.17-5.2q0-1.312-1.422-1.312a4.853,4.853,0,0,0-2.719.852V-7.523a6.116,6.116,0,0,1,1.41-.469,7.413,7.413,0,0,1,1.629-.2q3.422,0,3.422,3.414Zm-2.32-3.25v-.539l-1.453.188q-1.2.156-1.2,1.086a.9.9,0,0,0,.293.691,1.126,1.126,0,0,0,.793.27,1.462,1.462,0,0,0,1.133-.48A1.735,1.735,0,0,0-10.17-3.25ZM6.348,3.68H3.88V-1.1H3.848A2.742,2.742,0,0,1,1.388.2,3.064,3.064,0,0,1-1.038-.855,4.339,4.339,0,0,1-1.956-3.8,4.794,4.794,0,0,1-.948-7,3.271,3.271,0,0,1,1.677-8.2,2.381,2.381,0,0,1,3.848-7.07H3.88V-8H6.348ZM3.927-3.82v-.641a1.952,1.952,0,0,0-.453-1.312A1.46,1.46,0,0,0,2.309-6.3,1.507,1.507,0,0,0,1.02-5.66,2.986,2.986,0,0,0,.552-3.875a2.52,2.52,0,0,0,.457,1.6A1.448,1.448,0,0,0,2.2-1.7a1.53,1.53,0,0,0,1.254-.586A2.376,2.376,0,0,0,3.927-3.82ZM16.03,0H13.569V-1.219H13.53A2.792,2.792,0,0,1,11.084.2Q8.3.2,8.3-3.172V-8h2.461v4.609q0,1.7,1.344,1.7A1.329,1.329,0,0,0,13.17-2.16a1.874,1.874,0,0,0,.4-1.262V-8H16.03Zm3.33-9.266a1.442,1.442,0,0,1-1.023-.371,1.2,1.2,0,0,1-.4-.91,1.153,1.153,0,0,1,.4-.906,1.49,1.49,0,0,1,1.023-.352,1.486,1.486,0,0,1,1.027.352,1.158,1.158,0,0,1,.395.906,1.191,1.191,0,0,1-.395.922A1.466,1.466,0,0,1,19.359-9.266ZM20.578,0H18.109V-8h2.469Zm9.267-3.3H24.627q.125,1.742,2.2,1.742a4.286,4.286,0,0,0,2.32-.625V-.4A6.1,6.1,0,0,1,26.26.2,4.058,4.058,0,0,1,23.252-.879a4.058,4.058,0,0,1-1.07-3,4.281,4.281,0,0,1,1.156-3.156A3.852,3.852,0,0,1,26.181-8.2a3.5,3.5,0,0,1,2.707,1.039,4,4,0,0,1,.957,2.82ZM27.556-4.812q0-1.719-1.391-1.719a1.328,1.328,0,0,0-1.027.492,2.234,2.234,0,0,0-.527,1.227Zm1.258-6.977L26.369-9.266H24.588l2.031-2.523ZM39.042,0H36.581V-4.445q0-1.859-1.328-1.859a1.318,1.318,0,0,0-1.055.492,1.875,1.875,0,0,0-.414,1.25V0H31.316V-8h2.469v1.266h.031A2.829,2.829,0,0,1,36.386-8.2q2.656,0,2.656,3.3Zm2.97-3.242a2.38,2.38,0,0,1-.121-.457,2.885,2.885,0,0,1-.043-.48,2.849,2.849,0,0,1,.07-.656,2.289,2.289,0,0,1,.211-.559,2.639,2.639,0,0,1,.352-.5,4.52,4.52,0,0,1,.492-.473q.3-.25.52-.465a3.3,3.3,0,0,0,.379-.43,1.666,1.666,0,0,0,.234-.445,1.587,1.587,0,0,0,.078-.512,1.16,1.16,0,0,0-.086-.449,1,1,0,0,0-.246-.355,1.166,1.166,0,0,0-.391-.234,1.455,1.455,0,0,0-.512-.086,3.5,3.5,0,0,0-1.266.254,4.143,4.143,0,0,0-1.242.77v-2.352a4.87,4.87,0,0,1,1.313-.539,5.971,5.971,0,0,1,1.469-.18,5.433,5.433,0,0,1,1.352.16,3.109,3.109,0,0,1,1.09.5,2.369,2.369,0,0,1,.727.879,2.9,2.9,0,0,1,.262,1.285,3.169,3.169,0,0,1-.109.863,2.9,2.9,0,0,1-.32.73,3.685,3.685,0,0,1-.523.66,9.693,9.693,0,0,1-.719.652q-.273.227-.48.422a2.68,2.68,0,0,0-.344.387,1.5,1.5,0,0,0-.207.406,1.567,1.567,0,0,0-.07.488,1.518,1.518,0,0,0,.051.383,1.121,1.121,0,0,0,.137.328ZM43.153.18A1.49,1.49,0,0,1,42.114-.2a1.227,1.227,0,0,1-.414-.922,1.172,1.172,0,0,1,.414-.914A1.508,1.508,0,0,1,43.153-2.4a1.469,1.469,0,0,1,1.023.367,1.167,1.167,0,0,1,.406.914,1.21,1.21,0,0,1-.4.93A1.479,1.479,0,0,1,43.153.18Z" transform="translate(112 34.515)" fill="#0b0a0a"/>
      <g id="Elipse_12633-3" data-name="Elipse 12633" transform="translate(0)" fill="#fff" stroke="#36ceef" stroke-width="1">
        <ellipse cx="27.5" cy="27" rx="27.5" ry="27" stroke="none"/>
        <ellipse cx="27.5" cy="27" rx="27" ry="26.5" fill="none"/>
      </g>
    </g>
    <g id="Grupo_1225198" data-name="Grupo 1225198">
      <path id="Trazado_1175043" data-name="Trazado 1175043" d="M34.777,2768.985H70.185l112.555,124.787" transform="translate(729)" fill="none" stroke="#36ceef" stroke-linecap="round" stroke-width="2"/>
      <g id="Elipse_12634" data-name="Elipse 12634" transform="translate(908 2892)" fill="#fff" stroke="#36ceef" stroke-linecap="round" stroke-width="2">
        <circle cx="7.5" cy="7.5" r="7.5" stroke="none"/>
        <circle cx="7.5" cy="7.5" r="6.5" fill="none"/>
      </g>
    </g>
    <g id="Grupo_1225197" data-name="Grupo 1225197">
      <path id="Trazado_1175044" data-name="Trazado 1175044" d="M-209.563,3163.061h40.286L34.446,3046.918" transform="translate(729)" fill="none" stroke="#36ceef" stroke-linecap="round" stroke-width="2"/>
      <g id="Elipse_12635" data-name="Elipse 12635" transform="translate(758 3037)" fill="#fff" stroke="#36ceef" stroke-linecap="round" stroke-width="2">
        <circle cx="7.5" cy="7.5" r="7.5" stroke="none"/>
        <circle cx="7.5" cy="7.5" r="6.5" fill="none"/>
      </g>
    </g>
  </g>
</svg>
