<svg xmlns="http://www.w3.org/2000/svg" xmlns:xlink="http://www.w3.org/1999/xlink" width="108" height="108" viewBox="0 0 108 108">
  <defs>
    <filter id="Trazado_904820" x="0" y="0" width="108" height="108" filterUnits="userSpaceOnUse">
      <feOffset dy="3" input="SourceAlpha"/>
      <feGaussianBlur stdDeviation="3" result="blur"/>
      <feFlood flood-opacity="0.161"/>
      <feComposite operator="in" in2="blur"/>
      <feComposite in="SourceGraphic"/>
    </filter>
  </defs>
  <g id="Grupo_1225324" data-name="Grupo 1225324" transform="translate(-619 -4562)">
    <g id="Grupo_1225099" data-name="Grupo 1225099" transform="translate(628 4568)">
      <g id="Grupo_1219746" data-name="Grupo 1219746" transform="translate(0 0)">
        <g id="Grupo_1202418" data-name="Grupo 1202418" transform="translate(0 0)">
          <g id="Grupo_1177315" data-name="Grupo 1177315">
            <g id="Grupo_1173585" data-name="Grupo 1173585">
              <g id="Grupo_1173428" data-name="Grupo 1173428">
                <g id="Grupo_1171958" data-name="Grupo 1171958">
                  <g id="Grupo_1167341" data-name="Grupo 1167341">
                    <g id="Grupo_1166792" data-name="Grupo 1166792">
                      <g transform="matrix(1, 0, 0, 1, -9, -6)" filter="url(#Trazado_904820)">
                        <g id="Trazado_904820-2" data-name="Trazado 904820" transform="translate(9 6)" fill="#e9f9fd">
                          <path d="M 44.99999618530273 88.49996948242188 C 39.12687301635742 88.49996948242188 33.43022155761719 87.35004425048828 28.06829643249512 85.08214569091797 C 22.88852119445801 82.89128112792969 18.23629570007324 79.75457000732422 14.24084663391113 75.75912475585938 C 10.24540901184082 71.763671875 7.108683586120605 67.1114501953125 4.917821407318115 61.93168640136719 C 2.649921178817749 56.56974792480469 1.499996185302734 50.87310791015625 1.499996185302734 44.99998474121094 C 1.499996185302734 39.12686157226562 2.649921178817749 33.43021011352539 4.917821407318115 28.06828498840332 C 7.108683586120605 22.88850975036621 10.24540901184082 18.23629760742188 14.24084663391113 14.24084758758545 C 18.23629570007324 10.24539756774902 22.88852119445801 7.108684539794922 28.06829643249512 4.917822360992432 C 33.43022155761719 2.649922132492065 39.12687301635742 1.49999725818634 44.99999618530273 1.49999725818634 C 50.87311935424805 1.49999725818634 56.56977081298828 2.649922132492065 61.93169784545898 4.917822360992432 C 67.11147308349609 7.108684539794922 71.76369476318359 10.24539756774902 75.75914764404297 14.24084758758545 C 79.75458526611328 18.23629760742188 82.89131164550781 22.88850975036621 85.08216857910156 28.06828498840332 C 87.35007476806641 33.43021011352539 88.5 39.12686157226562 88.5 44.99998474121094 C 88.5 50.87310791015625 87.35007476806641 56.56974792480469 85.08216857910156 61.93168640136719 C 82.89131164550781 67.1114501953125 79.75458526611328 71.763671875 75.75914764404297 75.75912475585938 C 71.76369476318359 79.75457000732422 67.11147308349609 82.89128112792969 61.93169784545898 85.08214569091797 C 56.56977081298828 87.35004425048828 50.87311935424805 88.49996948242188 44.99999618530273 88.49996948242188 Z" stroke="none"/>
                          <path d="M 44.99999618530273 3 C 39.32870864868164 3 33.82865142822266 4.110054016113281 28.65262603759766 6.299324035644531 C 23.65165710449219 8.414573669433594 19.15968322753906 11.44332885742188 15.301513671875 15.301513671875 C 11.44333648681641 19.15968322753906 8.414566040039062 23.65164184570312 6.299339294433594 28.65261459350586 C 4.110054016113281 33.82863998413086 2.999992370605469 39.32869720458984 2.999992370605469 44.99998474121094 C 2.999992370605469 50.67127227783203 4.110054016113281 56.17131423950195 6.299339294433594 61.34735870361328 C 8.414566040039062 66.34832763671875 11.44333648681641 70.84028625488281 15.301513671875 74.69845581054688 C 19.15968322753906 78.55662536621094 23.65165710449219 81.58539581298828 28.65262603759766 83.70063018798828 C 33.82865142822266 85.88991546630859 39.32870864868164 86.99996948242188 44.99999618530273 86.99996948242188 C 50.67128372192383 86.99996948242188 56.17134094238281 85.88991546630859 61.34736633300781 83.70063018798828 C 66.34834289550781 81.58539581298828 70.84030914306641 78.55662536621094 74.69847869873047 74.69845581054688 C 78.55665588378906 70.84028625488281 81.58542633056641 66.34832763671875 83.70065307617188 61.34735870361328 C 85.88993835449219 56.17131423950195 87 50.67127227783203 87 44.99998474121094 C 87 39.32869720458984 85.88993835449219 33.82863998413086 83.70065307617188 28.65261459350586 C 81.58542633056641 23.65164184570312 78.55665588378906 19.15968322753906 74.69847869873047 15.301513671875 C 70.84030914306641 11.44332885742188 66.34834289550781 8.414573669433594 61.34736633300781 6.299324035644531 C 56.17134094238281 4.110054016113281 50.67128372192383 3 44.99999618530273 3 M 44.99999618530273 0 C 69.85281372070312 0 90 20.14717102050781 90 44.99998474121094 C 90 69.852783203125 69.85281372070312 89.99996948242188 44.99999618530273 89.99996948242188 C 20.14717864990234 89.99996948242188 -7.62939453125e-06 69.852783203125 -7.62939453125e-06 44.99998474121094 C -7.62939453125e-06 20.14717102050781 20.14717864990234 0 44.99999618530273 0 Z" stroke="none" fill="#1d7083"/>
                        </g>
                      </g>
                    </g>
                  </g>
                </g>
              </g>
            </g>
          </g>
        </g>
      </g>
    </g>
    <g id="ingeniero-de-software" transform="translate(647 4568.13)">
      <g id="Grupo_1225323" data-name="Grupo 1225323" transform="translate(0 13.87)">
        <g id="Grupo_1225289" data-name="Grupo 1225289" transform="translate(9.811 0.881)">
          <path id="Trazado_1175423" data-name="Trazado 1175423" d="M102.869,27.39c-3.943,1.033-5.743,4.123-5.016,8.6l.714,4.391h26.189l.637-4.391c1.921-13.28-18.833-17.61-22.524-8.6Z" transform="translate(-97.695 -22.639)" fill="#554e56" fill-rule="evenodd"/>
        </g>
        <g id="Grupo_1225290" data-name="Grupo 1225290" transform="translate(6.56 18.62)">
          <path id="Trazado_1175424" data-name="Trazado 1175424" d="M68.818,199.286c-5.251,0-4.355,7.411,1.173,7a7.044,7.044,0,0,0-.543-7Z" transform="translate(-65.325 -199.286)" fill="#f6a96c" fill-rule="evenodd"/>
        </g>
        <g id="Grupo_1225291" data-name="Grupo 1225291" transform="translate(35.098 18.62)">
          <path id="Trazado_1175425" data-name="Trazado 1175425" d="M351.273,199.286c-2.025,2.267-2.464,4.648-.543,7,5.529.415,6.424-7,1.173-7Z" transform="translate(-349.499 -199.286)" fill="#f6a96c" fill-rule="evenodd"/>
        </g>
        <g id="Grupo_1225292" data-name="Grupo 1225292" transform="translate(18.26 0.88)">
          <path id="Trazado_1175426" data-name="Trazado 1175426" d="M181.836,23.864c6.96-.5,15.685,4.123,14.917,12.648-.02.217-.047.441-.077.666l-.463,3.2h4.235l.637-4.391c1.586-10.966-12.285-15.828-19.249-12.119Z" transform="translate(-181.836 -22.634)" fill="#433f43" fill-rule="evenodd"/>
        </g>
        <g id="Grupo_1225293" data-name="Grupo 1225293" transform="translate(10.683 14.587)">
          <path id="Trazado_1175427" data-name="Trazado 1175427" d="M119.437,159.125l-7.259.013c-3.185,0-3.862.4-5.8,4.02v3.963a9.478,9.478,0,0,0,.543,3.033,14.715,14.715,0,0,0,2.089,3.919l10.263,2.752,10.662-2.752a14.716,14.716,0,0,0,2.089-3.919,9.478,9.478,0,0,0,.543-3.033v-3.963c-1.935-3.618-2.692-4.016-5.874-4.02Z" transform="translate(-106.381 -159.125)" fill="#fed2a4" fill-rule="evenodd"/>
        </g>
        <g id="Grupo_1225294" data-name="Grupo 1225294" transform="translate(28.416 14.597)">
          <path id="Trazado_1175428" data-name="Trazado 1175428" d="M282.965,159.225c6.323.017,6.924,6.207,5.287,11.016-.332.973-.8,2.619-1.395,3.923-.09.2-.184.391-.278.572l2.018-.522.191-.05a14.716,14.716,0,0,0,2.089-3.919,9.478,9.478,0,0,0,.543-3.033v-3.963c-1.935-3.618-2.692-4.016-5.874-4.02Z" transform="translate(-282.965 -159.225)" fill="#ffbd86" fill-rule="evenodd"/>
        </g>
        <g id="Grupo_1225295" data-name="Grupo 1225295" transform="translate(8.931 0)">
          <path id="Trazado_1175429" data-name="Trazado 1175429" d="M116.87,33.37a.88.88,0,0,1-.775-.465c-1.846-3.453-2.354-3.552-5.1-3.555l-7.26-.013-7.256.013c-2.77,0-3.195.135-5.023,3.555a.879.879,0,0,1-1.644-.273L89.1,28.241h0c-.778-4.784,1.131-8.212,5.247-9.472a8.429,8.429,0,0,1,5.569-4.391,15.658,15.658,0,0,1,8.279.1,15.285,15.285,0,0,1,7.67,4.687,11.192,11.192,0,0,1,2.512,9.056l-.637,4.391a.879.879,0,0,1-.719.74A.869.869,0,0,1,116.87,33.37ZM90.836,27.958l.323,1.989c1.352-1.973,2.531-2.353,5.319-2.356l7.258-.013,7.262.013c2.782,0,4.012.4,5.358,2.317l.281-1.935c.962-6.651-4.2-10.51-8.9-11.794-4.666-1.272-10.264-.425-11.935,3.656a.88.88,0,0,1-.591.517c-4.445,1.165-4.83,4.779-4.371,7.606Z" transform="translate(-88.929 -13.87)"/>
        </g>
        <g id="Grupo_1225296" data-name="Grupo 1225296" transform="translate(20.76 20.075)">
          <path id="Trazado_1175430" data-name="Trazado 1175430" d="M207.611,216.057a.88.88,0,0,1-.382-1.672,5.49,5.49,0,0,1,5.038,0,.879.879,0,0,1-.763,1.585,3.735,3.735,0,0,0-3.512,0A.876.876,0,0,1,207.611,216.057Z" transform="translate(-206.731 -213.773)"/>
        </g>
        <g id="Grupo_1225297" data-name="Grupo 1225297" transform="translate(35.449 17.74)">
          <path id="Trazado_1175431" data-name="Trazado 1175431" d="M354.319,199.3q-.249,0-.5-.019a.879.879,0,0,1,.131-1.754,3.312,3.312,0,0,0,3.249-1.412,2.674,2.674,0,0,0,.2-2.681,2.464,2.464,0,0,0-2.343-1.146h-.63a.879.879,0,1,1,0-1.759h.63a4.168,4.168,0,0,1,3.888,2.064,4.451,4.451,0,0,1-.269,4.476A5.006,5.006,0,0,1,354.319,199.3Z" transform="translate(-353.002 -190.528)"/>
        </g>
        <g id="Grupo_1225298" data-name="Grupo 1225298" transform="translate(5.685 17.74)">
          <path id="Trazado_1175432" data-name="Trazado 1175432" d="M61.711,199.3a5,5,0,0,1-4.354-2.23,4.452,4.452,0,0,1-.269-4.477,4.167,4.167,0,0,1,3.886-2.064h.63a.879.879,0,0,1,0,1.759h-.63a2.463,2.463,0,0,0-2.342,1.146,2.675,2.675,0,0,0,.2,2.682,3.31,3.31,0,0,0,3.248,1.412.879.879,0,0,1,.132,1.754Q61.959,199.3,61.711,199.3Z" transform="translate(-56.607 -190.528)"/>
        </g>
        <g id="Grupo_1225299" data-name="Grupo 1225299" transform="translate(9.804 17.741)">
          <path id="Trazado_1175433" data-name="Trazado 1175433" d="M122.059,203.2a.88.88,0,0,1-.708-1.4,11.5,11.5,0,0,0,2.461-6.432v-3.963a.879.879,0,1,1,1.759,0v3.963a13.075,13.075,0,0,1-2.8,7.473A.878.878,0,0,1,122.059,203.2Zm-20.923,0a.878.878,0,0,1-.709-.359,13.077,13.077,0,0,1-2.8-7.473v-3.963a.879.879,0,1,1,1.759,0v3.963a11.5,11.5,0,0,0,2.461,6.432.88.88,0,0,1-.708,1.4Z" transform="translate(-97.624 -190.529)"/>
        </g>
        <g id="Grupo_1225300" data-name="Grupo 1225300" transform="translate(25.915 18.62)">
          <path id="Trazado_1175434" data-name="Trazado 1175434" d="M259.952,199.286a1.9,1.9,0,0,0-1.894,1.89v2.057a1.9,1.9,0,0,0,1.894,1.889H261.7a1.9,1.9,0,0,0,1.894-1.889v-2.057a1.9,1.9,0,0,0-1.894-1.89Z" transform="translate(-258.058 -199.286)" fill="#99e6fc" fill-rule="evenodd"/>
        </g>
        <g id="Grupo_1225301" data-name="Grupo 1225301" transform="translate(16.108 18.62)">
          <path id="Trazado_1175435" data-name="Trazado 1175435" d="M162.3,199.286a1.9,1.9,0,0,0-1.894,1.89v2.057a1.9,1.9,0,0,0,1.894,1.889h1.743a1.9,1.9,0,0,0,1.894-1.889v-2.057a1.9,1.9,0,0,0-1.894-1.89Z" transform="translate(-160.401 -199.286)" fill="#99e6fc" fill-rule="evenodd"/>
        </g>
        <g id="Grupo_1225302" data-name="Grupo 1225302" transform="translate(0.879 40.635)">
          <path id="Trazado_1175436" data-name="Trazado 1175436" d="M14.138,419.381c-4.5,1.582-5.381,5.106-5.381,8.775v5.387a.7.7,0,0,0,.7.7h7.309l3.49-6.875-3.621-8.859Z" transform="translate(-8.757 -418.505)" fill="#99e6fc" fill-rule="evenodd"/>
        </g>
        <g id="Grupo_1225303" data-name="Grupo 1225303" transform="translate(34.656 40.635)">
          <path id="Trazado_1175437" data-name="Trazado 1175437" d="M349.24,418.505,345.1,427.6l4.013,6.642h7.306a.7.7,0,0,0,.7-.7v-5.387c0-3.669-.879-7.193-5.381-8.775Z" transform="translate(-345.099 -418.505)" fill="#99e6fc" fill-rule="evenodd"/>
        </g>
        <g id="Grupo_1225304" data-name="Grupo 1225304" transform="translate(8.759 29.535)">
          <path id="Trazado_1175438" data-name="Trazado 1175438" d="M112.7,307.979h-23.7a1.783,1.783,0,0,0-1.777,1.776v20.239h30.038V309.755a1.783,1.783,0,0,0-1.777-1.776Z" transform="translate(-87.217 -307.979)" fill="#7a6d79" fill-rule="evenodd"/>
        </g>
        <g id="Grupo_1225305" data-name="Grupo 1225305" transform="translate(6.247 51.55)">
          <path id="Trazado_1175439" data-name="Trazado 1175439" d="M94.759,527.2H63.068a.861.861,0,0,0-.858.856v1.328a2.646,2.646,0,0,0,2.642,2.635h29.78a2.646,2.646,0,0,0,2.642-2.635v-1.328a.862.862,0,0,0-.862-.856Z" transform="translate(-62.21 -527.198)" fill="#554e56" fill-rule="evenodd"/>
        </g>
        <g id="Grupo_1225306" data-name="Grupo 1225306" transform="translate(33.633 29.535)">
          <path id="Trazado_1175440" data-name="Trazado 1175440" d="M336.692,319.08V330h3.386V309.757a1.783,1.783,0,0,0-1.777-1.776h-3.386a1.783,1.783,0,0,1,1.777,1.776v9.323Z" transform="translate(-334.915 -307.981)" fill="#685e68" fill-rule="evenodd"/>
        </g>
        <g id="Grupo_1225307" data-name="Grupo 1225307" transform="translate(35.283 51.55)">
          <path id="Trazado_1175441" data-name="Trazado 1175441" d="M354.856,527.2h-1.73a.861.861,0,0,1,.858.856v1.328a2.646,2.646,0,0,1-2.642,2.635h3.386a2.646,2.646,0,0,0,2.642-2.635v-1.328a.862.862,0,0,0-.862-.856Z" transform="translate(-351.342 -527.198)" fill="#433f43" fill-rule="evenodd"/>
        </g>
        <g id="Grupo_1225308" data-name="Grupo 1225308" transform="translate(38.797 40.635)">
          <path id="Trazado_1175442" data-name="Trazado 1175442" d="M386.332,418.505v2.729c3.792,1.706,5.029,3.107,5.029,6.14v6.866h2.149a.7.7,0,0,0,.7-.7v-5.387c0-3.669-.878-7.193-5.381-8.775Z" transform="translate(-386.332 -418.505)" fill="#62dbfb" fill-rule="evenodd"/>
        </g>
        <g id="Grupo_1225309" data-name="Grupo 1225309" transform="translate(16.488 32.933)">
          <path id="Trazado_1175443" data-name="Trazado 1175443" d="M169.693,343.413a6.255,6.255,0,0,0-2.548,1.471l-.9-.518a.576.576,0,0,0-.785.211l-1.207,2.087a.57.57,0,0,0,.211.779l.892.515a6.391,6.391,0,0,0,0,2.936l-.892.515a.57.57,0,0,0-.211.779l1.207,2.087a.578.578,0,0,0,.785.207l.9-.515a6.247,6.247,0,0,0,2.548,1.468v1.03a.572.572,0,0,0,.57.572h2.417a.572.572,0,0,0,.57-.572v-1.03a6.248,6.248,0,0,0,2.548-1.468l.9.515a.575.575,0,0,0,.781-.207l1.207-2.087a.57.57,0,0,0-.211-.779l-.892-.515a6.39,6.39,0,0,0,0-2.936l.892-.515a.57.57,0,0,0,.211-.779l-1.207-2.087a.573.573,0,0,0-.781-.211l-.9.518a6.254,6.254,0,0,0-2.548-1.471v-1.03a.569.569,0,0,0-.57-.569h-2.417a.569.569,0,0,0-.57.569v1.03Zm1.78,3.307a2.705,2.705,0,1,1-2.716,2.705,2.71,2.71,0,0,1,2.716-2.705Z" transform="translate(-164.181 -341.815)" fill="#e5e1e5" fill-rule="evenodd"/>
        </g>
        <g id="Grupo_1225310" data-name="Grupo 1225310" transform="translate(20.184 36.959)">
          <path id="Trazado_1175444" data-name="Trazado 1175444" d="M204.585,389.078a3.585,3.585,0,1,1,3.592-3.585A3.594,3.594,0,0,1,204.585,389.078Zm0-5.411a1.826,1.826,0,1,0,1.833,1.826A1.833,1.833,0,0,0,204.585,383.667Z" transform="translate(-200.99 -381.908)"/>
        </g>
        <g id="Grupo_1225311" data-name="Grupo 1225311" transform="translate(15.607 32.054)">
          <path id="Trazado_1175445" data-name="Trazado 1175445" d="M164.794,350.038h-2.417a1.452,1.452,0,0,1-1.449-1.451v-.4a7.187,7.187,0,0,1-1.771-1.02l-.355.2a1.46,1.46,0,0,1-1.983-.527l-1.208-2.089a1.449,1.449,0,0,1,.536-1.983l.35-.2a7.23,7.23,0,0,1,0-2.035l-.353-.2a1.449,1.449,0,0,1-.532-1.983l1.206-2.085a1.456,1.456,0,0,1,1.982-.534l.358.207a7.2,7.2,0,0,1,1.769-1.022v-.4a1.45,1.45,0,0,1,1.449-1.448h2.417a1.45,1.45,0,0,1,1.449,1.448v.4a7.194,7.194,0,0,1,1.77,1.023l.358-.206a1.452,1.452,0,0,1,1.983.534l1.206,2.085a1.449,1.449,0,0,1-.536,1.983l-.35.2a7.235,7.235,0,0,1,0,2.035l.353.2a1.449,1.449,0,0,1,.532,1.983l-1.206,2.085a1.455,1.455,0,0,1-1.983.528l-.355-.2a7.184,7.184,0,0,1-1.771,1.021v.4A1.452,1.452,0,0,1,164.794,350.038Zm-2.108-1.759h1.8v-.722a.88.88,0,0,1,.632-.844,5.4,5.4,0,0,0,2.19-1.262.879.879,0,0,1,1.043-.126l.635.364.9-1.551-.626-.361a.88.88,0,0,1-.417-.962,5.511,5.511,0,0,0,0-2.534.88.88,0,0,1,.416-.963l.626-.361-.9-1.553-.632.365a.879.879,0,0,1-1.045-.124,5.4,5.4,0,0,0-2.19-1.265.879.879,0,0,1-.632-.844v-.719h-1.8v.719a.879.879,0,0,1-.632.844,5.4,5.4,0,0,0-2.19,1.265.879.879,0,0,1-1.047.124l-.63-.365-.9,1.554.626.361a.88.88,0,0,1,.416.962,5.508,5.508,0,0,0,0,2.534.879.879,0,0,1-.416.963l-.626.361.9,1.552.633-.364a.879.879,0,0,1,1.044.125,5.4,5.4,0,0,0,2.19,1.262.879.879,0,0,1,.632.844v.722Zm6.56-2.44h0Zm.9-1.547h0Zm-13.125,0h0Zm13.013-.422h0Zm-12.906,0h0Zm12.906-4.641h0Zm-12.9,0h0Zm13.014-.421h0Zm-13.128,0h0Zm12.232-1.552h0Zm-.42-.11h0Zm-10.49,0v0Z" transform="translate(-155.415 -333.057)"/>
        </g>
        <g id="Grupo_1225312" data-name="Grupo 1225312" transform="translate(7.879 28.656)">
          <path id="Trazado_1175446" data-name="Trazado 1175446" d="M109.377,323H79.338a.879.879,0,0,1-.879-.879V301.877a2.659,2.659,0,0,1,2.656-2.655H91.871a.879.879,0,1,1,0,1.759H81.115a.909.909,0,0,0-.9.9v19.359H108.5V301.877a.9.9,0,0,0-.9-.9H95.969a.879.879,0,0,1,0-1.759H107.6a2.659,2.659,0,0,1,2.656,2.655v20.239A.879.879,0,0,1,109.377,323Z" transform="translate(-78.459 -299.222)"/>
        </g>
        <g id="Grupo_1225313" data-name="Grupo 1225313" transform="translate(5.368 50.671)">
          <path id="Trazado_1175447" data-name="Trazado 1175447" d="M86.754,525.022a.879.879,0,0,1,0-1.759,1.761,1.761,0,0,0,1.763-1.755v-1.3h-33.3v1.3a1.761,1.761,0,0,0,1.763,1.755.879.879,0,0,1,0,1.759,3.522,3.522,0,0,1-3.521-3.514v-1.328a1.739,1.739,0,0,1,1.738-1.735H88.534a1.74,1.74,0,0,1,1.741,1.735v1.328A3.522,3.522,0,0,1,86.754,525.022Z" transform="translate(-53.453 -518.444)"/>
        </g>
        <g id="Grupo_1225314" data-name="Grupo 1225314" transform="translate(15.229 17.74)">
          <path id="Trazado_1175448" data-name="Trazado 1175448" d="M156.161,198.122h-1.743a2.775,2.775,0,0,1-2.774-2.769V193.3a2.775,2.775,0,0,1,2.774-2.769h1.743a2.775,2.775,0,0,1,2.774,2.769v2.057A2.774,2.774,0,0,1,156.161,198.122Zm-1.743-5.836a1.014,1.014,0,0,0-1.015,1.01v2.057a1.014,1.014,0,0,0,1.015,1.01h1.743a1.014,1.014,0,0,0,1.015-1.01V193.3a1.014,1.014,0,0,0-1.015-1.01Z" transform="translate(-151.644 -190.528)"/>
        </g>
        <g id="Grupo_1225315" data-name="Grupo 1225315" transform="translate(25.036 17.74)">
          <path id="Trazado_1175449" data-name="Trazado 1175449" d="M253.818,198.122h-1.743a2.775,2.775,0,0,1-2.774-2.769V193.3a2.774,2.774,0,0,1,2.774-2.769h1.743a2.775,2.775,0,0,1,2.774,2.769v2.057A2.774,2.774,0,0,1,253.818,198.122Zm-1.743-5.836a1.014,1.014,0,0,0-1.015,1.01v2.057a1.014,1.014,0,0,0,1.015,1.01h1.743a1.014,1.014,0,0,0,1.015-1.01V193.3a1.014,1.014,0,0,0-1.015-1.01Z" transform="translate(-249.301 -190.528)"/>
        </g>
        <g id="Grupo_1225316" data-name="Grupo 1225316" transform="translate(0 39.755)">
          <path id="Trazado_1175450" data-name="Trazado 1175450" d="M45.975,427.24H1.58A1.579,1.579,0,0,1,0,425.665v-5.387c0-3.223.619-7.725,5.969-9.6l2.5-.876a.879.879,0,0,1,.582,1.66l-2.5.876c-3.359,1.18-4.793,3.556-4.793,7.945v5.2H45.8v-5.2c0-4.389-1.434-6.765-4.793-7.945l-2.5-.876a.879.879,0,0,1,.582-1.66l2.5.876c5.351,1.88,5.97,6.382,5.97,9.6v5.387A1.579,1.579,0,0,1,45.975,427.24Z" transform="translate(0 -409.746)"/>
        </g>
        <g id="Grupo_1225317" data-name="Grupo 1225317" transform="translate(34.381 26.014)">
          <path id="Trazado_1175451" data-name="Trazado 1175451" d="M365.407,278.06a11.095,11.095,0,0,1-15.889,14.908l-3.088-.144-4.07-.191,1.562-3.755,1.187-2.849a11.107,11.107,0,0,1,20.3-7.969Z" transform="translate(-342.36 -272.913)" fill="#e5e1e5" fill-rule="evenodd"/>
        </g>
        <g id="Grupo_1225318" data-name="Grupo 1225318" transform="translate(46.498 26.014)">
          <path id="Trazado_1175452" data-name="Trazado 1175452" d="M471.152,278.1a11.084,11.084,0,0,1-7.829,16.9,11.081,11.081,0,1,0-.3-21.978,11.088,11.088,0,0,1,8.131,5.076Z" transform="translate(-463.021 -272.913)" fill="#d7d0d6" fill-rule="evenodd"/>
        </g>
        <g id="Grupo_1225319" data-name="Grupo 1225319" transform="translate(33.501 25.14)">
          <path id="Trazado_1175453" data-name="Trazado 1175453" d="M348.145,288.129a11.978,11.978,0,0,1-6.8-2.124l-6.9-.323a.879.879,0,0,1-.771-1.216l2.651-6.368a11.988,11.988,0,1,1,21.39,5.274.879.879,0,0,1-1.4-1.062,10.214,10.214,0,1,0-18.213-4.273.879.879,0,0,1-.052.5l-2.267,5.447,5.906.276a.88.88,0,0,1,.473.165,10.208,10.208,0,0,0,11.472.348.879.879,0,0,1,.94,1.487A12,12,0,0,1,348.145,288.129Z" transform="translate(-333.603 -264.21)"/>
        </g>
        <g id="Grupo_1225320" data-name="Grupo 1225320" transform="translate(40.717 33.669)">
          <path id="Trazado_1175454" data-name="Trazado 1175454" d="M408.05,356.694a.879.879,0,0,1-.761-.438l-1.717-2.956a.879.879,0,0,1,.008-.9l1.717-2.839a.879.879,0,1,1,1.505.91l-1.447,2.393,1.455,2.506a.88.88,0,0,1-.76,1.321Z" transform="translate(-405.453 -349.14)"/>
        </g>
        <g id="Grupo_1225321" data-name="Grupo 1225321" transform="translate(45.83 33.361)">
          <path id="Trazado_1175455" data-name="Trazado 1175455" d="M457.245,354.243a.88.88,0,0,1-.817-1.206l2.558-6.407a.88.88,0,0,1,1.634.652l-2.558,6.407A.88.88,0,0,1,457.245,354.243Z" transform="translate(-456.365 -346.077)"/>
        </g>
        <g id="Grupo_1225322" data-name="Grupo 1225322" transform="translate(52.052 33.669)">
          <path id="Trazado_1175456" data-name="Trazado 1175456" d="M519.212,356.694a.88.88,0,0,1-.76-1.321l1.455-2.506-1.447-2.393a.879.879,0,0,1,1.505-.91l1.717,2.839a.879.879,0,0,1,.008.9l-1.717,2.956A.879.879,0,0,1,519.212,356.694Z" transform="translate(-518.333 -349.139)"/>
        </g>
      </g>
    </g>
  </g>
</svg>
