<svg xmlns="http://www.w3.org/2000/svg" xmlns:xlink="http://www.w3.org/1999/xlink" width="295" height="214" viewBox="0 0 295 214">
  <defs>
    <clipPath id="clip-path">
      <rect id="Rect치ngulo_421689" data-name="Rect치ngulo 421689" width="295" height="214" transform="translate(1020 3654)" fill="#fff" stroke="#707070" stroke-width="1"/>
    </clipPath>
  </defs>
  <g id="Enmascarar_grupo_1211500" data-name="Enmascarar grupo 1211500" transform="translate(-1020 -3654)" clip-path="url(#clip-path)">
    <g id="Grupo_1225402" data-name="Grupo 1225402" transform="translate(8)">
      <rect id="Rect치ngulo_421688" data-name="Rect치ngulo 421688" width="162" height="214" transform="translate(1081 3654)" fill="#86b60c"/>
      <g id="Grupo_1225382" data-name="Grupo 1225382" transform="translate(625.603 3601.042)">
        <path id="Trazado_1175894" data-name="Trazado 1175894" d="M592.4,140.6c-2.9-2.2-2.9-6.6-.3-6.1C594.7,134.9,594.3,142,592.4,140.6Z" fill="#ad471f"/>
        <path id="Trazado_1175895" data-name="Trazado 1175895" d="M593.4,143.9s-2.2,2.8-3.4,4c-1.5,1.3.6,3.3,3.6,3.9v-7.9Z" fill="#f88868"/>
        <path id="Trazado_1175896" data-name="Trazado 1175896" d="M513.5,111.7H399.7a5.343,5.343,0,0,0-5.3,5.6l3.5,66.4a5.348,5.348,0,0,0,5.3,5H517a5.343,5.343,0,0,0,5.3-5.6l-3.5-66.4a5.348,5.348,0,0,0-5.3-5Z" fill="#f43482"/>
        <path id="Trazado_1175897" data-name="Trazado 1175897" d="M597.8,68.2H531.3a3.1,3.1,0,0,0-3.1,3.3l3.4,60.6a3.014,3.014,0,0,0,3.1,2.9h66.5a3.1,3.1,0,0,0,3.1-3.3l-3.4-60.6A3.014,3.014,0,0,0,597.8,68.2Z" fill="#c9c532"/>
        <g id="Grupo_1225373" data-name="Grupo 1225373">
          <path id="Trazado_1175898" data-name="Trazado 1175898" d="M568.7,98.9a2.245,2.245,0,0,1,.1-1H570c.5,0,.4.6.4.9v3.3h3c.5,0,.5.3.5.5v.9c0,.3-.2.4-.5.4h-2.7c-.2,0-.2.2-.2.4v3.1c0,.6-.1.7-.4.8H569c-.3,0-.4-.4-.4-.6v-3.1c0-.3-.1-.3-.4-.3h-2.4c-.4,0-.3,0-.3-.4a4.143,4.143,0,0,0-.1-1c0-.5.2-.7.4-.7h2.7c.3,0,.3-.4.3-1v-2Z" fill="#eae35e"/>
          <path id="Trazado_1175899" data-name="Trazado 1175899" d="M578.6,101.1a4.562,4.562,0,0,1,2.1-.5,2.936,2.936,0,0,1,3.2,2.5v1.3a1.7,1.7,0,0,1-.1.7c-.2,1.1-.6,4.4-4,4.4s-3.7-4.1-3.7-4.7v-.5c0-.3,0-.5.2-.5h1.2c.5,0,.4.1.4.4v.3c0,.5.6,1,1.7,1s1-.2,1.5-.7a1.8,1.8,0,0,0,.6-1.6,1.1,1.1,0,0,0-1.2-1.2,3.918,3.918,0,0,0-1.3.2c-.3,0-.5.2-.8.4a.864.864,0,0,1-.6.3h-1.7c-.2,0-.2-.3-.2-.6a4.486,4.486,0,0,1,.1-1.1V96.4c0-.7.4-.8.8-.8h6.3c.6,0,.6.2.6.4v2.1c0,.3-.2.4-.6.4h-4.4c-.6,0-.8.3-.8.7v2.5a3.277,3.277,0,0,1,.8-.6Z" fill="#eae35e"/>
          <path id="Trazado_1175900" data-name="Trazado 1175900" d="M586.8,108.3a4.43,4.43,0,0,1-1-1.2c-.3-.6-.5-1.2-.7-1.7a27.548,27.548,0,0,1-.1-3.5,10.731,10.731,0,0,1,.8-4.7,4.895,4.895,0,0,1,1.3-1.2,5.464,5.464,0,0,1,2.4-.4,3.455,3.455,0,0,1,2.6,1.4,5.133,5.133,0,0,1,.7,2.4v3a14.822,14.822,0,0,1-.3,3.1,3.559,3.559,0,0,1-3.8,3.1,6.582,6.582,0,0,1-2.1-.3ZM588.3,97a1.818,1.818,0,0,0-1,1.1,3.194,3.194,0,0,0-.3,1.4v4.2a2.928,2.928,0,0,0,.6,2.1,10.619,10.619,0,0,0,.9,1.1,1.656,1.656,0,0,0,1.2.5,2.981,2.981,0,0,0,2.1-1.5,3.287,3.287,0,0,0,.4-1.7V98.9a3.867,3.867,0,0,0-.4-1.7.961.961,0,0,0-.9-.6h-1.2a2.13,2.13,0,0,0-1.2.4Zm2.3,5.3a.962.962,0,0,1-.9.8c-.4,0-.9-.3-.9-1.1s.5-.9.9-.9C590.6,101.1,590.6,101.8,590.6,102.3Z" fill="#eae35e"/>
        </g>
        <g id="Grupo_1225374" data-name="Grupo 1225374">
          <path id="Trazado_1175901" data-name="Trazado 1175901" d="M561.6,76.8a10.145,10.145,0,0,0-2.5.2c.4,5.9.8,12,.8,15.7a7.719,7.719,0,0,1,1.5-.2,5.979,5.979,0,0,1,5,2.6l14-7.1a21.541,21.541,0,0,0-18.8-11.1Z" fill="#eae35e"/>
          <path id="Trazado_1175902" data-name="Trazado 1175902" d="M553,98.9a6.392,6.392,0,0,1,4.2-5.9l-1.5-15.7a22.271,22.271,0,0,0-18.4,21.5,21.589,21.589,0,0,0,4.9,13.9l11.4-11.1a6.885,6.885,0,0,1-.7-2.9Z" fill="#eae35e"/>
          <path id="Trazado_1175903" data-name="Trazado 1175903" d="M563.4,105.8a6.812,6.812,0,0,1-2.8.7,6.106,6.106,0,0,1-4.9-2.5c-2,2.2-6.7,7.1-11,11.3a21.266,21.266,0,0,0,15.7,6.7c6.2,0,5.6-.6,8.1-1.6-1.9-5.6-4-11.6-5.1-14.7Z" fill="#eae35e"/>
        </g>
        <path id="Trazado_1175904" data-name="Trazado 1175904" d="M457.7,198.8H422.1a1.6,1.6,0,0,0-1.6,1.7l2.2,44.6a1.645,1.645,0,0,0,1.6,1.6h35.6a1.6,1.6,0,0,0,1.6-1.7l-2.2-44.6a1.645,1.645,0,0,0-1.6-1.6Z" fill="#ffcc3b"/>
        <path id="Trazado_1175905" data-name="Trazado 1175905" d="M603.7,166c-10.1-5.9-10.7-14-11.2-22.2-.3-5.5-2.1-11.5-.5-15.3a63.034,63.034,0,0,1,9.8-16.4l23.4,28.1c2.3,12.1-10,22.3-21.6,25.8Z" fill="#ffb290"/>
        <path id="Trazado_1175906" data-name="Trazado 1175906" d="M607,179.1c4-8.5,4.6-11.6,3.6-13.2-1.2-2-6.2.7-6.7,0,.1-8,10.2-18.2,20.8-28.6,0,0,.5,40.8.9,44,.5,3.3-18.7-2.3-18.7-2.3Z" fill="#f88868"/>
        <path id="Trazado_1175907" data-name="Trazado 1175907" d="M505.6,168.4l-2.3-5,4.7-7,8.4,10.2Z" fill="#ffb290"/>
        <path id="Trazado_1175908" data-name="Trazado 1175908" d="M433.5,148.7l10.2,17.5,12.9-13.7,4,4.6,12-14.8,5.7,12.3,11.8-18.4-1.2-.8-10.3,16.2-5.6-12-12.4,15.2-3.9-4.5-12.6,13.5-10.2-17.6-.7.8c-3.6,4.5-17.2,21.4-25.6,32.1a4.8,4.8,0,0,0,.5,1.7c6.6-8.4,17.3-21.8,25.6-32Z" fill="#ffcc3b"/>
        <path id="Trazado_1175909" data-name="Trazado 1175909" d="M484.7,136.9l6.3,4.8,1.2-9.5Z" fill="#ffcc3b"/>
        <path id="Trazado_1175910" data-name="Trazado 1175910" d="M504.9,165.4s-8.7-6.6-9.2-7.9c-.5-1.2,0-4.5,0-5s2.4-3.7,2.4-3.7-2.6-6.6-2.6-7.3-1.9-6.4-1.2-7.2,3,3.9,3.9,6.2a27.978,27.978,0,0,0,3.2,5.3s5,1.3,6.7,2.8c1.8,1.5,2,10.6,2,10.6l-5.3,6.1Z" fill="#ffb290"/>
        <g id="Grupo_1225377" data-name="Grupo 1225377">
          <path id="Trazado_1175911" data-name="Trazado 1175911" d="M468.9,205.9,482.2,267H592l-2.3-6.6-19.4-3.8-12.8-53.1-83.8-1.9Z" fill="#52c5f7"/>
          <path id="Trazado_1175912" data-name="Trazado 1175912" d="M487.9,258.6l46.4,2.5,1.1,5.9H592l-2.3-6.6-19.4-3.8-12.8-53.1-83.7-1.9Z" fill="#3a78dd"/>
          <path id="Trazado_1175913" data-name="Trazado 1175913" d="M554.6,205.1,477.2,204l12.7,52.3h77.3Z" fill="#562448"/>
          <g id="Grupo_1225375" data-name="Grupo 1225375">
            <path id="Trazado_1175914" data-name="Trazado 1175914" d="M539,204.9l-4-.1-1,51.5h3.8Z" fill="#471e3d"/>
            <path id="Trazado_1175915" data-name="Trazado 1175915" d="M554.6,205.1h-1.2l1.6,51.2h12.2Z" fill="#471e3d"/>
            <path id="Trazado_1175916" data-name="Trazado 1175916" d="M492.7,256.3h30.5l3.2-51.6-30.7-.4Z" fill="#471e3d"/>
          </g>
          <g id="Grupo_1225376" data-name="Grupo 1225376">
            <path id="Trazado_1175917" data-name="Trazado 1175917" d="M517.5,230.1h-1.1l4.1,14.6h1.1Z" fill="#f73c52"/>
            <path id="Trazado_1175918" data-name="Trazado 1175918" d="M523.1,244.3h-1.2l1.8,6.1h1.1Z" fill="#f73c52"/>
            <path id="Trazado_1175919" data-name="Trazado 1175919" d="M529.1,237.2h-1.2l1,3.6h1.2Z" fill="#f73c52"/>
            <path id="Trazado_1175920" data-name="Trazado 1175920" d="M531.7,240.7h-1.2l.3,1.1H532Z" fill="#f73c52"/>
            <path id="Trazado_1175921" data-name="Trazado 1175921" d="M524.9,239.2h-1.2l.3,1.2h1.2Z" fill="#f73c52"/>
            <path id="Trazado_1175922" data-name="Trazado 1175922" d="M510.3,226.8h-1.2l1.1,4.1h1.2Z" fill="#f73c52"/>
            <path id="Trazado_1175923" data-name="Trazado 1175923" d="M509.6,230.2h-1.2l.7,2.3h1.2Z" fill="#f73c52"/>
            <path id="Trazado_1175924" data-name="Trazado 1175924" d="M501,222.2h-1.2l.5,1.7h1.2Z" fill="#f73c52"/>
            <path id="Trazado_1175925" data-name="Trazado 1175925" d="M496.7,223.9h-1.2l.5,1.8h1.2Z" fill="#f73c52"/>
            <path id="Trazado_1175926" data-name="Trazado 1175926" d="M493.9,219.6h-1.2l1.8,6.2h1.1Z" fill="#f73c52"/>
            <path id="Trazado_1175927" data-name="Trazado 1175927" d="M488.9,224.6h-1.1l1,3.6h1.1Z" fill="#f73c52"/>
            <path id="Trazado_1175928" data-name="Trazado 1175928" d="M489.2,214.3h-1.1l1.7,6.2H491Z" fill="#f73c52"/>
            <path id="Trazado_1175929" data-name="Trazado 1175929" d="M485.6,224.1h-1.2l.5,1.5H486Z" fill="#f73c52"/>
            <path id="Trazado_1175930" data-name="Trazado 1175930" d="M504.9,224.8h-1.2l.7,2.3h1.2Z" fill="#f73c52"/>
            <path id="Trazado_1175931" data-name="Trazado 1175931" d="M523.2,239.1h-1.1l1.5,5.2h1.1Z" fill="#d2e04c"/>
            <path id="Trazado_1175932" data-name="Trazado 1175932" d="M547.2,233.4H546l3.4,12.3h1.2Z" fill="#d2e04c"/>
            <path id="Trazado_1175933" data-name="Trazado 1175933" d="M550.4,222h-1.2l2.3,8.1h1.1Z" fill="#d2e04c"/>
            <path id="Trazado_1175934" data-name="Trazado 1175934" d="M553.9,211.6h-1.2l1.8,6.5h1.2Z" fill="#d2e04c"/>
            <path id="Trazado_1175935" data-name="Trazado 1175935" d="M548.9,228.2h-1.2l1.6,5.4h1.1Z" fill="#d2e04c"/>
            <path id="Trazado_1175936" data-name="Trazado 1175936" d="M553.5,216.2h-1.1l1.5,5.4H555Z" fill="#d2e04c"/>
            <path id="Trazado_1175937" data-name="Trazado 1175937" d="M548.5,232.3h-1.2l.5,1.7h1.1Z" fill="#d2e04c"/>
            <path id="Trazado_1175938" data-name="Trazado 1175938" d="M553.2,220.8h-1.1l.4,1.7h1.2Z" fill="#d2e04c"/>
            <path id="Trazado_1175939" data-name="Trazado 1175939" d="M548.8,245.1h-1.1l1.4,5.3h1.2Z" fill="#d2e04c"/>
            <path id="Trazado_1175940" data-name="Trazado 1175940" d="M526.1,237.8h-1.2l.7,2.6h1.2Z" fill="#d2e04c"/>
            <path id="Trazado_1175941" data-name="Trazado 1175941" d="M527.5,237.2h-1.2l.5,1.5h1.1Z" fill="#d2e04c"/>
            <path id="Trazado_1175942" data-name="Trazado 1175942" d="M533,239.7h-1.2l.6,2h1.2Z" fill="#d2e04c"/>
            <path id="Trazado_1175943" data-name="Trazado 1175943" d="M515.9,230h-1.1l.4,1.6h1.2Z" fill="#d2e04c"/>
            <path id="Trazado_1175944" data-name="Trazado 1175944" d="M513.5,227h-1.2l1.1,3.6h1.1Z" fill="#d2e04c"/>
            <path id="Trazado_1175945" data-name="Trazado 1175945" d="M511.1,224.1h-1.2l1,3.3H512Z" fill="#d2e04c"/>
            <path id="Trazado_1175946" data-name="Trazado 1175946" d="M506.7,225.3h-1.2l1.4,5.2h1.2Z" fill="#d2e04c"/>
            <path id="Trazado_1175947" data-name="Trazado 1175947" d="M502.6,222.3h-1.1l.7,2.7h1.2Z" fill="#d2e04c"/>
            <path id="Trazado_1175948" data-name="Trazado 1175948" d="M498.7,219.6h-1.2l.8,2.8h1.2Z" fill="#d2e04c"/>
            <path id="Trazado_1175949" data-name="Trazado 1175949" d="M497.7,221.6h-1.2l.8,2.8h1.1Z" fill="#d2e04c"/>
            <path id="Trazado_1175950" data-name="Trazado 1175950" d="M548,247.8h-1.2l.7,2.3h1.1Z" fill="#f73c52"/>
            <path id="Trazado_1175951" data-name="Trazado 1175951" d="M550.4,228h-1.1l.6,2.4h1.2Z" fill="#f73c52"/>
            <path id="Trazado_1175952" data-name="Trazado 1175952" d="M551.9,221.8h-1.2l.2.6h1.2Z" fill="#f73c52"/>
            <path id="Trazado_1175953" data-name="Trazado 1175953" d="M539.4,239.8h-1.2l.5,1.7h1.2Z" fill="#f73c52"/>
            <path id="Trazado_1175954" data-name="Trazado 1175954" d="M535.1,241.5h-1.2l.5,1.8h1.2Z" fill="#f73c52"/>
            <path id="Trazado_1175955" data-name="Trazado 1175955" d="M543.3,242.4h-1.2l.7,2.3h1.1Z" fill="#f73c52"/>
            <path id="Trazado_1175956" data-name="Trazado 1175956" d="M545,242.9h-1.1l1.4,5.2h1.2Z" fill="#d2e04c"/>
            <path id="Trazado_1175957" data-name="Trazado 1175957" d="M541,239.8h-1.2l.8,2.8h1.2Z" fill="#d2e04c"/>
            <path id="Trazado_1175958" data-name="Trazado 1175958" d="M537.1,237.2h-1.2l.8,2.8h1.1Z" fill="#d2e04c"/>
            <path id="Trazado_1175959" data-name="Trazado 1175959" d="M536,239.2h-1.1l.8,2.8h1.1Z" fill="#d2e04c"/>
            <path id="Trazado_1175960" data-name="Trazado 1175960" d="M491.7,217.6h-1.1l.8,2.8h1.1Z" fill="#d2e04c"/>
            <path id="Trazado_1175961" data-name="Trazado 1175961" d="M486.7,222.4h-1.2l.8,2.8h1.2Z" fill="#d2e04c"/>
            <path id="Trazado_1175962" data-name="Trazado 1175962" d="M487.7,214.5h-1.2l3,10.5h1.1Z" fill="#d2e04c"/>
          </g>
          <path id="Trazado_1175963" data-name="Trazado 1175963" d="M553.2,207.2l12.1,49.1h1.9l-12.6-51.2L477.2,204l.5,2.1Z" fill="#471e3d" opacity="0.5"/>
          <path id="Trazado_1175964" data-name="Trazado 1175964" d="M534.3,261.1l1.1,5.9H592l-2.3-6.6Z" fill="#5292ef"/>
        </g>
        <path id="Trazado_1175965" data-name="Trazado 1175965" d="M583,267h56.5s2.9-25.1,2.9-27.2,7-47.4,7-47.4-22.7-16.1-25.1-16.5c-2.5-.4-36.7,4.6-36.7,4.6l-41.3,13-32-32s-6.6-.8-9.9,7.4c0,0,26.4,44.1,28,45.4,1.6,1.2,6.9,3.3,6.9,3.3s39.6-5.4,41.3-5c1.6.4-4.1,13.1-2.9,15.7,4.8,10.2,5.4,38.7,5.4,38.7Z" fill="#ffecb8"/>
        <path id="Trazado_1175966" data-name="Trazado 1175966" d="M642,187.3c-6.9-4.7-16.3-11.1-17.8-11.4-1.1-.2-8.8.7-16.9,1.8,7.4,1.7,2.8,4.6-.6,5.1-4.7.7-19.2-2.3-19.2-2.3l-1.2.4s0,11.3-2,14.4c-6.6,11-25.4,18.5-46.3,21.8.7.3,1.2.5,1.2.5s39.6-5.4,41.3-5,.2,2-.5,4.4a22.96,22.96,0,0,1,11.1,13.9c1.9,8.8,0,36.1,0,36.1h48.3s2.9-25.1,2.9-27.2,2.7-19.2,4.7-32.6c-1.9-7.5-3.6-14.4-5.1-19.9Z" fill="#f4d892"/>
        <path id="Trazado_1175967" data-name="Trazado 1175967" d="M634.6,232.1s-1.7,19-1.4,34.9h6.2s2.9-25.1,2.9-27.2.4-3.5,1-7.8c-2.9-.5-8.8,0-8.8,0Z" fill="#e5b173"/>
        <path id="Trazado_1175968" data-name="Trazado 1175968" d="M622.6,260.2c-3.8-16.1-6.2-31.2-5-38.5s10.6-30.2,10.6-30.2-7.3,31.5-7.3,35,1.7,33.6,1.7,33.6Z" fill="#e5b173"/>
        <path id="Trazado_1175969" data-name="Trazado 1175969" d="M665.6,244.7c-1.4,1.9-22,8.9-29.5,6.6s-22.5-21.6-22.5-39.4,1.9-49.2.9-56.2c-.9-7-8.9-4.2-8.9-4.2s5.6-13.6,2.3-9.8c-3.3,3.7-9.2,7.9-9.2,1.3s-14.7-19.1-10-35,13.4-17.2,19.2-18.1S624.7,91,624.7,91s22.6.1,28.6,11.7c26.2,50.4,1.7,63-1.7,92.7-1.3,10.7,1.2,40.4,5.5,40.4s6.6-10.8,8.9-12.7-.5,21.6-.5,21.6Z" fill="#933418"/>
        <path id="Trazado_1175970" data-name="Trazado 1175970" d="M633.6,123.3c-1.3-12.2-4.7-25-11.1-32.8-3.5-.5-10.4-1.4-14.5-.7-5.8.9-14.6,2.1-19.2,18.1-4.7,15.9,10,28.4,10,35s5.9,2.4,9.2-1.3-2.3,9.8-2.3,9.8,8-2.8,8.9,4.2c.6,4.5,0,19.2-.4,33.9,2.4-24.1,9.1-33.8,10.5-35.6,2.3-2.9,1.5,11.1,2.9,6.4,1.5-4.7,8.5-15.7,6.1-37Z" fill="#ad471f"/>
        <path id="Trazado_1175971" data-name="Trazado 1175971" d="M602.3,151.4c-1.2-4-1.8-18.7,3.4-15.6s2.8,10.7,1.5,13.8C606,152.7,602.3,151.4,602.3,151.4Z" fill="#ffb290"/>
        <path id="Trazado_1175972" data-name="Trazado 1175972" d="M582.8,212.6c8.7-2.7,16.5-17.2,16.5-17.2C597.8,204.1,594.4,210.5,582.8,212.6Z" fill="#e5b173"/>
        <path id="Trazado_1175973" data-name="Trazado 1175973" d="M584.6,215.8c5.4,1.7,11.7-5.5,11.5-6.2Z" fill="#e5b173"/>
        <path id="Trazado_1175974" data-name="Trazado 1175974" d="M540.8,188l2.1,4.3a29.09,29.09,0,0,0-2.9,2.1c-1.3,1,3.5-.3,3.5-.3a35.2,35.2,0,0,0-3.6,4.9c-1.3,2.3,4.7-3.9,4.7-3.9a55.107,55.107,0,0,0-3,9.1c-.9,4.3,2.2-4.4,3.4-6.2.6-.9,4.5-3.8,9.1-7.1l-7.9,2.5-5.4-5.4Z" fill="#f4d892"/>
        <path id="Trazado_1175975" data-name="Trazado 1175975" d="M519.3,166.5c-4,2.8-7.8,7.1-10.3,10.1.4.7.9,1.4,1.3,2.2,2.1-3.8,5.6-9.1,9.7-11.7l-.7-.7Z" fill="#f4d892"/>
        <path id="Trazado_1175976" data-name="Trazado 1175976" d="M510.2,170.8c-.2-1.1-1-2-1.7-1.8-.7.1-1.1,1.2-.9,2.3s1,2,1.7,1.8C510,173,510.4,171.9,510.2,170.8Z" fill="#f4d892"/>
        <path id="Trazado_1175977" data-name="Trazado 1175977" d="M604.1,144.8s1.2,3.3,1.9.8-1.3-5-1.3-5a5.235,5.235,0,0,1,1.6-1.8c-.2-.2-.5-.4-.7-.6-3.3-1.9-2.9,7.3-2.1,9.9a3.2,3.2,0,0,1,.7.1c-.4-2.6,0-3.4,0-3.4Z" fill="#f88868"/>
        <path id="Trazado_1175978" data-name="Trazado 1175978" d="M665.6,244.7s2.8-23.4.5-21.6c-1.2.9-1.5,15.4-7,19.1s-18,1.1-19.4.4c-3.2-1.6-9.4-15-10.4-15.5-1.1-.5.9,10.4-1.2,10.2s-3.8-10.8-3.8-10.8-2.4,13.5,11.2,24.6c.2,0,.4.2.6.2,7.5,2.3,28.1-4.7,29.5-6.6Z" fill="#ad471f"/>
        <g id="Grupo_1225378" data-name="Grupo 1225378">
          <path id="Trazado_1175979" data-name="Trazado 1175979" d="M441.7,225.6H428.3l.2,2h13.3Z" fill="#ffeac0"/>
          <path id="Trazado_1175980" data-name="Trazado 1175980" d="M440.6,235.8h-9.2l.2,2h9.2Z" fill="#ffeac0"/>
          <path id="Trazado_1175981" data-name="Trazado 1175981" d="M455.4,235.8H442.7l.2,2h12.7Z" fill="#ffeac0"/>
          <path id="Trazado_1175982" data-name="Trazado 1175982" d="M435.5,232.5h-6.6l.2,2h6.5Z" fill="#ffeac0"/>
          <path id="Trazado_1175983" data-name="Trazado 1175983" d="M448.6,232.5H436.8l.2,2h11.8Z" fill="#ffeac0"/>
          <path id="Trazado_1175984" data-name="Trazado 1175984" d="M453.9,232.5h-3.3l.2,2h3.3Z" fill="#ffeac0"/>
          <path id="Trazado_1175985" data-name="Trazado 1175985" d="M438.6,229.2h-8.8l.2,2h8.7Z" fill="#ffeac0"/>
          <path id="Trazado_1175986" data-name="Trazado 1175986" d="M444.4,229.2h-4.3l.1,2h4.4Z" fill="#ffeac0"/>
          <path id="Trazado_1175987" data-name="Trazado 1175987" d="M453,229.2h-7.9l.2,2h7.8Z" fill="#ffeac0"/>
          <path id="Trazado_1175988" data-name="Trazado 1175988" d="M434.1,239.5h-4.2l.2,2h4.2Z" fill="#ffeac0"/>
          <path id="Trazado_1175989" data-name="Trazado 1175989" d="M444.4,239.5h-8.8l.2,2h8.8Z" fill="#ffeac0"/>
          <path id="Trazado_1175990" data-name="Trazado 1175990" d="M455,239.5h-5.2l.2,2h5.2Z" fill="#ffeac0"/>
          <path id="Trazado_1175991" data-name="Trazado 1175991" d="M448.8,239.5H446l.2,2h2.7Z" fill="#ffeac0"/>
          <path id="Trazado_1175992" data-name="Trazado 1175992" d="M455,225.6H442.9l.2,2h12.1Z" fill="#ffeac0"/>
        </g>
        <g id="Grupo_1225379" data-name="Grupo 1225379">
          <path id="Trazado_1175993" data-name="Trazado 1175993" d="M417.2,117.9h-14l.2,2.1h14Z" fill="#ffeac0"/>
          <path id="Trazado_1175994" data-name="Trazado 1175994" d="M416.1,128.7h-9.7l.2,2.1h9.7Z" fill="#ffeac0"/>
          <path id="Trazado_1175995" data-name="Trazado 1175995" d="M431.8,128.7H418.4l.1,2.1h13.4Z" fill="#ffeac0"/>
          <path id="Trazado_1175996" data-name="Trazado 1175996" d="M410.7,125.2h-6.9l.2,2h6.9Z" fill="#ffeac0"/>
          <path id="Trazado_1175997" data-name="Trazado 1175997" d="M424.5,125.2H412.1l.2,2h12.4Z" fill="#ffeac0"/>
          <path id="Trazado_1175998" data-name="Trazado 1175998" d="M430.1,125.2h-3.4l.1,2h3.5Z" fill="#ffeac0"/>
          <path id="Trazado_1175999" data-name="Trazado 1175999" d="M414,121.7h-9.3l.2,2.1h9.3Z" fill="#ffeac0"/>
          <path id="Trazado_1176000" data-name="Trazado 1176000" d="M420.1,121.7h-4.6l.2,2.1h4.6Z" fill="#ffeac0"/>
          <path id="Trazado_1176001" data-name="Trazado 1176001" d="M429.2,121.7h-8.3l.2,2.1h8.2Z" fill="#ffeac0"/>
          <path id="Trazado_1176002" data-name="Trazado 1176002" d="M409.3,132.6h-4.4l.1,2.1h4.5Z" fill="#ffeac0"/>
          <path id="Trazado_1176003" data-name="Trazado 1176003" d="M420.1,132.6h-9.2l.1,2.1h9.3Z" fill="#ffeac0"/>
          <path id="Trazado_1176004" data-name="Trazado 1176004" d="M431.3,132.6h-5.5l.2,2.1h5.5Z" fill="#ffeac0"/>
          <path id="Trazado_1176005" data-name="Trazado 1176005" d="M424.7,132.6h-2.9l.2,2.1h2.9Z" fill="#ffeac0"/>
          <path id="Trazado_1176006" data-name="Trazado 1176006" d="M431.3,117.9H418.6l.2,2.1h12.7Z" fill="#ffeac0"/>
        </g>
        <path id="Trazado_1176007" data-name="Trazado 1176007" d="M438.8,202.1h4.3c.7,0,.9.2.9.5a1.083,1.083,0,0,1-.1.6c0,.3-.1.9-.2,1.8,0,.9-.2,2.4-.4,4.8v2.7c0,.7.1,1.1,0,1.2v3.1c0,.5-.6.6-1.3.5h-2.2c-1,0-1-.4-1-.9v-4.7c-.1-1.3-.3-3-.6-4.9-.3-2-.4-3-.4-3.1v-.6c0-.9.4-1.1.9-1.1Zm5.3,18.7v.3c0,.6-1.3,1.7-3,1.7s-2.7-1-2.7-2.1v-.4c.3-1.2,1.8-1.4,2.9-1.4,2.1,0,2.8,1.2,2.8,1.9Z" fill="#ffeac0"/>
        <g id="Grupo_1225380" data-name="Grupo 1225380">
          <path id="Trazado_1176008" data-name="Trazado 1176008" d="M444.1,128.6c.2,2.6,1.4,4.5,2.9,4.5a1.56,1.56,0,0,0,1.7-1.8c0-.6-.1-3.4-.3-5,0-1.2-.1-3.1-.2-4.5a4.871,4.871,0,0,0-.2-1.5v-.4c0-.6.4-.4.6-.4h1.6c.5,0,.5.2.5.5a6.245,6.245,0,0,0,.1,1.2v.7c0,.8.5,3.5.7,7.7.3,4.2-2,5.4-4.1,5.4s-3.3-1.9-3.7-3a15.878,15.878,0,0,1-.6-3.8v-1.7a20.743,20.743,0,0,0-.1-2.1c-.1-1.5-.3-3.4-.4-4V120c0-.6.2-.6.4-.5h.6c.2,0,.1,0,.1.2-.1-1.6.4,5.7.6,9Z" fill="#ffeac0"/>
          <path id="Trazado_1176009" data-name="Trazado 1176009" d="M463.8,124.1a3.4,3.4,0,0,1-3.3,4,12.122,12.122,0,0,0-2,.1,5.7,5.7,0,0,0-1.3.1,23,23,0,0,0,.2,2.8,25.692,25.692,0,0,0,.3,3.1.529.529,0,0,1-.7.6h-1.8c-.5,0-.6-.3-.6-.7a16.339,16.339,0,0,0-.2-2.8c0-.8-.4-7.4-.6-10v-1.6c0-.5,0-.6.2-.6h6.1c1.8.1,3.7,1.4,3.9,4.7Zm-4.1,2.4a1.906,1.906,0,0,0,2.1-2.2,2.807,2.807,0,0,0-2.4-3,11.934,11.934,0,0,0-2.6-.3v5.4h2.9Z" fill="#ffeac0"/>
        </g>
        <path id="Trazado_1176010" data-name="Trazado 1176010" d="M470.4,126.1a3.039,3.039,0,0,1-.7-.5,4.011,4.011,0,0,1-.9-1.7v-.6a4.53,4.53,0,0,1,.3-1.6,2.726,2.726,0,0,1,1.3-1.5h.6a2.654,2.654,0,0,1,1.4.5,1.531,1.531,0,0,1,.5.7c.1.2.1.5.2.7a9.15,9.15,0,0,1,.1,1.6,7.083,7.083,0,0,1-.1,1.5,1.958,1.958,0,0,1-1.7,1.1,2.509,2.509,0,0,1-1-.1Zm.9-1.4a.864.864,0,0,0,.3-.6v-.5a2.537,2.537,0,0,0-.2-1.2c-.1-.1-.1-.4-.4-.5h-.1a.664.664,0,0,0-.5.4,2.92,2.92,0,0,0-.2.9v.8c0,.2.1.6.4.7h.7Zm6.1-5.1s.2,0,.1.2a.713.713,0,0,1-.3.6c-.1.2-.4.5-.5.7-.4.6-.6,1.2-1,1.7l-1.8,3c-.7,1.1-1.3,2.3-2.1,3.6-.1.2-.1.5-.4.7-.1.1-.5.1-.7.1s-.2,0-.1-.1c0-.1.1-.3.1-.4a1.531,1.531,0,0,1,.5-.7c.7-1.2,1.5-2.6,2.2-3.8s1.5-2.4,2.2-3.6a12.9,12.9,0,0,1,.9-1.6c.1-.1.1-.4.4-.5h.5Zm1.5,7.8v1a2.618,2.618,0,0,1-.6,1.3,1.855,1.855,0,0,1-1.2.7h-.7a2.475,2.475,0,0,1-1.5-1.2,4.477,4.477,0,0,1-.4-2,3.2,3.2,0,0,1,.5-1.9,1.9,1.9,0,0,1,1.6-1h.2a2.037,2.037,0,0,1,1.6.9,2.3,2.3,0,0,1,.4,1.1c0,.4.1.8.1,1.2Zm-1.3.2v-1.1c0-.4-.1-1.1-.6-1.1a1.175,1.175,0,0,0-1,1.1v1.8c0,.4.4.9.7.9.6,0,.7-.6.9-1.1v-.5Z" fill="#ffeac0"/>
        <g id="Grupo_1225381" data-name="Grupo 1225381">
          <path id="Trazado_1176011" data-name="Trazado 1176011" d="M463.9,174.1v.8s0,.1-.2.1h-5.3c-.4,0-.3,0-.3-.3s-.1-.8,0-.9h5.7c.2,0,.1.2.1.3Z" fill="#ffcc3b"/>
          <path id="Trazado_1176012" data-name="Trazado 1176012" d="M461.6,177.5h-.8s-.1,0-.1-.2V172c0-.4,0-.3.3-.3s.8-.1.9,0v5.7C461.9,177.6,461.7,177.5,461.6,177.5Z" fill="#ffcc3b"/>
          <path id="Trazado_1176013" data-name="Trazado 1176013" d="M465.8,170.2h-.2v-1c0-.1.2-.2.4-.3a7.727,7.727,0,0,0,3.3-1h.4c.2,0,.4,0,.4.2v6.8c0,.5,0,2.2.1,2.9,1.2,0,1.9.1,1.9.2v.7c0,.2,0,.3-.3.3H466c-.1,0-.2-.2-.2-.5v-.1c0-.2,0-.4.2-.4a6.528,6.528,0,0,0,1.7-.3c.5,0,.8-.1.8-.3v-7.6l-1.8.4a3.536,3.536,0,0,0-.6.1Z" fill="#ffcc3b"/>
          <path id="Trazado_1176014" data-name="Trazado 1176014" d="M474.7,178.5c-.3-.1-.5-.5-.8-1a4.715,4.715,0,0,1-.6-1.5c0-.5-.1-1.5-.1-3a7.983,7.983,0,0,1,.7-4,2.591,2.591,0,0,1,1.1-1,8.683,8.683,0,0,1,2.1-.4,3.166,3.166,0,0,1,2.3,1.2,3.7,3.7,0,0,1,.6,2.1v2.6a11.415,11.415,0,0,1-.2,2.7,3.047,3.047,0,0,1-3.3,2.7,3.124,3.124,0,0,1-1.8-.3Zm1.1-9.7a1.962,1.962,0,0,0-.9.9,2.662,2.662,0,0,0-.3,1.2v3.6a2.575,2.575,0,0,0,.5,1.8c.3.4.6.7.8,1a1.246,1.246,0,0,0,1.1.4,2.326,2.326,0,0,0,1.8-1.3,3.339,3.339,0,0,0,.3-1.5v-4.6a2.588,2.588,0,0,0-.4-1.4,1.02,1.02,0,0,0-.8-.5h-1a1.929,1.929,0,0,0-1,.3Zm2.1,4.5a.773.773,0,0,1-.8.7.818.818,0,0,1-.8-.9.733.733,0,0,1,.8-.8C477.8,172.3,477.9,172.9,477.9,173.3Z" fill="#ffcc3b"/>
          <path id="Trazado_1176015" data-name="Trazado 1176015" d="M482.2,178a3.477,3.477,0,0,1-1-2,21.3,21.3,0,0,1-.2-2.7v-2.6a6.039,6.039,0,0,1,.6-2.2,2.373,2.373,0,0,1,2.3-1.1c1.8,0,2.6.5,3.2,1.4a7.983,7.983,0,0,1,.7,4,17.831,17.831,0,0,1-.1,2.6,3.244,3.244,0,0,1-3.3,3.2,3.606,3.606,0,0,1-2.2-.7Zm.8-8.7a4.566,4.566,0,0,0-.5,1.4,16.118,16.118,0,0,0-.2,2.6v1.4a7.581,7.581,0,0,0,.3,1.6,2.087,2.087,0,0,0,1.7,1.4c1,0,1.5-.6,1.8-1.7a4.844,4.844,0,0,0,.3-1.8v-2.5a11.018,11.018,0,0,0-.2-1.8,1.742,1.742,0,0,0-.8-1.2,2.6,2.6,0,0,0-1-.4,1.621,1.621,0,0,0-1.6.8Zm2.4,3.8a.773.773,0,0,1-.8.7.818.818,0,0,1-.8-.9.733.733,0,0,1,.8-.8C485.3,172.1,485.4,172.7,485.4,173.1Z" fill="#ffcc3b"/>
        </g>
      </g>
    </g>
  </g>
</svg>
