<svg xmlns="http://www.w3.org/2000/svg" xmlns:xlink="http://www.w3.org/1999/xlink" width="400" height="319" viewBox="0 0 400 319">
  <defs>
    <clipPath id="clip-path">
      <rect id="Rectángulo_421636" data-name="Rectángulo 421636" width="400" height="319" transform="translate(1020 3804)" fill="#fff" stroke="#707070" stroke-width="1"/>
    </clipPath>
    <clipPath id="clip-path-2">
      <path id="Trazado_1175319" data-name="Trazado 1175319" d="M327.1,335.98c53.894-47.519,68.722-127.992,40.2-193.94S265.3,32.6,193.762,39.331,58.142,102.486,42.416,172.6c-12.134,54.1,5.212,112.991,42.054,153.929,38.186,42.432,96,60.659,152,52.037C268.336,373.655,302.843,357.37,327.1,335.98Z" transform="translate(-38.579 -38.646)"/>
    </clipPath>
    <clipPath id="clip-path-8">
      <path id="Trazado_1175422" data-name="Trazado 1175422" d="M380.674,228.635A175.4,175.4,0,0,0,367.3,142.04a161.164,161.164,0,0,0-21.1-35.34c-.583-6.582-2.6-23.051-8.52-29.632-7.482-8.314-31.591-19.952-36.578-18.7a24.221,24.221,0,0,0-7,3.581c-30.31-17.282-65.55-25.885-100.332-22.614C122.225,46.058,58.141,102.486,42.415,172.6c-12.135,54.1,5.212,112.991,42.054,153.929,38.186,42.432,96,60.659,152,52.037,31.863-4.905,66.369-21.191,90.627-42.58a158.355,158.355,0,0,0,42.4-60.87c7.3-.621,15.453-2.414,16.237-7.3C386.661,262.061,383.256,242.224,380.674,228.635Z" transform="translate(-38.577 -38.646)"/>
    </clipPath>
  </defs>
  <g id="Enmascarar_grupo_1211498" data-name="Enmascarar grupo 1211498" transform="translate(-1020 -3804)" clip-path="url(#clip-path)">
    <g id="OBJECTS" transform="translate(1008.784 3796.383)">
      <g id="Grupo_1225251" data-name="Grupo 1225251" transform="translate(33.252 35.408)">
        <path id="Trazado_1175311" data-name="Trazado 1175311" d="M327.1,335.98c53.894-47.519,68.722-127.992,40.2-193.94S265.3,32.6,193.762,39.331,58.142,102.486,42.416,172.6c-12.134,54.1,5.212,112.991,42.054,153.929,38.186,42.432,96,60.659,152,52.037C268.336,373.655,302.843,357.37,327.1,335.98Z" transform="translate(-38.579 -38.646)" fill="#a7ebf9"/>
        <path id="Trazado_1175312" data-name="Trazado 1175312" d="M380.941,196.883A173.944,173.944,0,0,0,367.3,142.041C338.778,76.092,265.3,32.6,193.762,39.331S58.143,102.486,42.417,172.6a162.163,162.163,0,0,0-3.476,46.083C50.264,213.35,63.354,212.017,76,211.9c14.987-.14,30.134,1.168,44.856-1.645,25.829-4.934,47.426-21.843,69.2-36.586s46.907-28.238,72.988-24.881c28.369,3.651,50.282,26.107,76.452,37.653C352.626,192.234,366.647,195.2,380.941,196.883Z" transform="translate(-38.579 -38.646)" fill="#80d6e8"/>
      </g>
      <g id="Grupo_1225252" data-name="Grupo 1225252" transform="translate(11.216 42.864)">
        <path id="Trazado_1175313" data-name="Trazado 1175313" d="M213.282,99.566H90.5c4.287-3.593,10.039-7.12,15.633-7.1,2.4.006,4.741.731,7.135.9,3.4.235,6.769-.662,10.061-1.551,3.314-.9,6.73-1.841,9.416-3.979,3.559-2.833,5.413-7.435,9.089-10.114a12.064,12.064,0,0,1,14.824.868c3.159,2.924,4.974,7.743,9.148,8.794,4.731,1.192,8.845-3.257,13.458-4.844a12.241,12.241,0,0,1,13.51,4.273c2.091,2.888,3.065,6.877,6.241,8.5,2.339,1.193,5.13.681,7.754.592S212.245,97.154,213.282,99.566Z" transform="translate(-26.649 -53.29)" fill="#fff"/>
        <path id="Trazado_1175314" data-name="Trazado 1175314" d="M130.678,184.839H11.216c8.4,0,15.235-5.725,23.373-7.812,2.286-.586,4.669-1.222,6.426-2.8,2.352-2.107,3.1-5.425,4.635-8.182A15.293,15.293,0,0,1,69.434,162.3c3.973,3.7,6.408,9.756,11.729,10.838,5.59,1.137,10.93-4.134,16.564-3.238,4.161.662,7.086,4.466,10.991,6.053,3.931,1.6,8.372.787,12.6,1.1S130.241,180.618,130.678,184.839Z" transform="translate(-11.216 -69.374)" fill="#fff"/>
        <path id="Trazado_1175315" data-name="Trazado 1175315" d="M444.048,201.617H262.533a12.863,12.863,0,0,0,9.261-3.632c2.4-2.46,4.8-5.486,8.221-5.8,3.933-.36,7.648,3.13,11.483,2.188,4.628-1.135,5.754-7.635,9.977-9.84,3.991-2.084,9.2.429,13.25-1.538,4.491-2.182,4.95-8.247,7.153-12.729a15.3,15.3,0,0,1,26.43-1.781c2.971,4.423,4.4,11,9.618,12.086s9.916-4.64,15.21-3.974c6.982.877,9.37,11.816,16.39,12.286,4.992.334,8.288-4.828,12.155-8,7.125-5.85,18.97-4.6,24.71,2.619,3.855,4.845,5.887,12.275,11.951,13.527,1.571.325,3.305.171,4.664,1.024S445.653,201.617,444.048,201.617Z" transform="translate(-60.136 -70.058)" fill="#fff"/>
        <path id="Trazado_1175316" data-name="Trazado 1175316" d="M389.883,64.314H291.991c2.45-3.7,7.792-8.053,12.076-6.907,1.6.428,2.989,1.6,4.643,1.728,1.923.153,3.68-1.156,4.852-2.687s1.964-3.333,3.179-4.831c3.994-4.93,12.611-4.957,16.636-.052,2.168,2.642,3.806,6.737,7.222,6.632,2.762-.085,4.981-3.182,7.69-2.641,1.834.366,3.049,2.315,4.892,2.633,1.59.274,3.133-.783,4.111-2.065s1.587-2.814,2.544-4.113c3.581-4.862,12.165-4.549,15.383.56,1.458,2.315,2.058,5.434,4.472,6.721,1.809.963,4.009.522,6.046.745S390.436,62.341,389.883,64.314Z" transform="translate(-65.87 -47.903)" fill="#fff"/>
        <path id="Trazado_1175317" data-name="Trazado 1175317" d="M267.651,258.793H110.692c4.245-3.291,9.6-6.493,14.913-7.254,3.247-.465,6.713.075,9.7-1.279,4.517-2.046,6.655-7.851,11.4-9.3,4.131-1.266,8.651,1.309,12.848.283,3.655-.893,6.127-4.277,7.8-7.645s2.96-7.06,5.625-9.715c4.135-4.119,11.028-4.711,16.266-2.139s8.837,7.831,10.326,13.474c.654,2.476,1.048,5.237,2.926,6.979,2.291,2.125,5.977,1.866,8.814.558s5.2-3.465,7.938-4.966,6.242-2.277,8.924-.672c3.755,2.247,5.1,8.537,9.471,8.426,3.062-.077,4.892-3.469,7.666-4.768,4.415-2.068,9.375,1.737,12.047,5.815S263.183,256.844,267.651,258.793Z" transform="translate(-30.579 -81.441)" fill="#fff"/>
      </g>
      <g id="Grupo_1225269" data-name="Grupo 1225269" transform="translate(33.252 35.408)">
        <g id="Grupo_1225253" data-name="Grupo 1225253" clip-path="url(#clip-path-2)">
          <path id="Trazado_1175318" data-name="Trazado 1175318" d="M114.392,358.162c-.49-3.976-4.541-8.583-8.459-9.717-2.265-.656-11.087.461-11.173,3.962a6.366,6.366,0,0,0-11.878-3.337c-1.558-6.606-12.727-5.577-11.718,1.385a5.337,5.337,0,0,0-8.92-3.175A7.146,7.146,0,0,0,52.2,338.046a9.817,9.817,0,0,0,2.036-12.086,9.2,9.2,0,0,0-.959-1.329,11.24,11.24,0,0,0-12.1-3,12.907,12.907,0,0,0-7.909,10.578c-5.625.123-11.993,1.235-15.731,5.827a15.151,15.151,0,0,0-2.085,15,7.063,7.063,0,0,0-6.692-1.733c-3.233.88-5.652,3.538-7.615,6.253a13.37,13.37,0,0,0-2.588,5.362,7.016,7.016,0,0,0-1.234-.174c-3.133-.149-6.35,2.271-6.546,5.4-.176,2.818,1.99,5.36,4.561,6.526s5.484,1.251,8.306,1.316l74.659,1.731c11.218.26,23.833-.02,31.644-8.078C112.9,366.6,114.911,362.375,114.392,358.162Z" transform="translate(-29.273 -93.602)" fill="#2da185"/>
        </g>
        <g id="Grupo_1225254" data-name="Grupo 1225254" clip-path="url(#clip-path-2)">
          <path id="Trazado_1175320" data-name="Trazado 1175320" d="M51.5,359.454a7.1,7.1,0,0,1,6.556,4.031,6.21,6.21,0,0,1,8.838.567,5.906,5.906,0,1,1,11.651,1.885,8.009,8.009,0,0,1,10.751.027c3.165-2.415,7.314-3.969,11.149-2.9s6.782,5.477,5.279,9.164a7.825,7.825,0,0,1-5.109,4.211,23.174,23.174,0,0,1-6.787.664l-31.592-.033c-4.2,0-8.622-.069-12.227-2.216C44.347,371.484,42.742,359.787,51.5,359.454Z" transform="translate(-39.896 -100.976)" fill="#51d4b3"/>
        </g>
        <g id="Grupo_1225264" data-name="Grupo 1225264" clip-path="url(#clip-path-2)">
          <g id="Grupo_1225255" data-name="Grupo 1225255" transform="translate(114.158 86.052)">
            <path id="Trazado_1175322" data-name="Trazado 1175322" d="M183.4,254.12s.286-106.783,1.142-107.64,1.142-.571,2.57-.857,27.981,0,27.981,0,1.428.857,1.428,1.713v106.5Z" transform="translate(-180.927 -145.497)" fill="#e8d1a7"/>
            <path id="Trazado_1175323" data-name="Trazado 1175323" d="M216.781,170.136H181.757a1.428,1.428,0,0,1-1.428-1.428h0a1.428,1.428,0,0,1,1.428-1.428h35.024a1.428,1.428,0,0,1,1.428,1.428h0A1.429,1.429,0,0,1,216.781,170.136Z" transform="translate(-180.329 -149.737)" fill="#fff0d4"/>
            <path id="Trazado_1175324" data-name="Trazado 1175324" d="M216.781,198.852H181.757a1.428,1.428,0,0,1-1.428-1.428h0A1.428,1.428,0,0,1,181.757,196h35.024a1.428,1.428,0,0,1,1.428,1.428h0A1.428,1.428,0,0,1,216.781,198.852Z" transform="translate(-180.329 -155.327)" fill="#fff0d4"/>
            <path id="Trazado_1175325" data-name="Trazado 1175325" d="M216.781,227.569H181.757a1.428,1.428,0,0,1-1.428-1.428h0a1.428,1.428,0,0,1,1.428-1.428h35.024a1.428,1.428,0,0,1,1.428,1.428h0A1.429,1.429,0,0,1,216.781,227.569Z" transform="translate(-180.329 -160.916)" fill="#fff0d4"/>
            <path id="Trazado_1175326" data-name="Trazado 1175326" d="M216.781,256.286H181.757a1.428,1.428,0,0,1-1.428-1.428h0a1.428,1.428,0,0,1,1.428-1.428h35.024a1.428,1.428,0,0,1,1.428,1.428h0A1.429,1.429,0,0,1,216.781,256.286Z" transform="translate(-180.329 -166.506)" fill="#fff0d4"/>
          </g>
          <g id="Grupo_1225256" data-name="Grupo 1225256" transform="translate(177.543 86.052)">
            <path id="Trazado_1175327" data-name="Trazado 1175327" d="M262.107,254.12s.286-106.783,1.142-107.64,1.142-.571,2.57-.857,27.981,0,27.981,0,1.428.857,1.428,1.713v106.5Z" transform="translate(-259.632 -145.497)" fill="#e8d1a7"/>
            <path id="Trazado_1175328" data-name="Trazado 1175328" d="M295.486,170.136H260.462a1.428,1.428,0,0,1-1.428-1.428h0a1.428,1.428,0,0,1,1.428-1.428h35.024a1.428,1.428,0,0,1,1.428,1.428h0A1.429,1.429,0,0,1,295.486,170.136Z" transform="translate(-259.034 -149.737)" fill="#fff0d4"/>
            <path id="Trazado_1175329" data-name="Trazado 1175329" d="M295.486,198.852H260.462a1.428,1.428,0,0,1-1.428-1.428h0A1.428,1.428,0,0,1,260.462,196h35.024a1.428,1.428,0,0,1,1.428,1.428h0A1.428,1.428,0,0,1,295.486,198.852Z" transform="translate(-259.034 -155.327)" fill="#fff0d4"/>
            <path id="Trazado_1175330" data-name="Trazado 1175330" d="M295.486,227.569H260.462a1.428,1.428,0,0,1-1.428-1.428h0a1.428,1.428,0,0,1,1.428-1.428h35.024a1.428,1.428,0,0,1,1.428,1.428h0A1.429,1.429,0,0,1,295.486,227.569Z" transform="translate(-259.034 -160.916)" fill="#fff0d4"/>
            <path id="Trazado_1175331" data-name="Trazado 1175331" d="M295.486,256.286H260.462a1.428,1.428,0,0,1-1.428-1.428h0a1.428,1.428,0,0,1,1.428-1.428h35.024a1.428,1.428,0,0,1,1.428,1.427h0A1.429,1.429,0,0,1,295.486,256.286Z" transform="translate(-259.034 -166.506)" fill="#fff0d4"/>
          </g>
          <g id="Grupo_1225259" data-name="Grupo 1225259" transform="translate(29.335 157.249)">
            <g id="Grupo_1225257" data-name="Grupo 1225257" transform="translate(32.193)">
              <path id="Trazado_1175332" data-name="Trazado 1175332" d="M114.978,315.012l3.108-79.957a.959.959,0,0,1,.879-.921c2.183-.181,7.885-.56,8.575.362.857,1.142,3.141,79.945,2.284,80.516S116.977,316.155,114.978,315.012Z" transform="translate(-114.978 -233.902)" fill="#c2a77e"/>
              <path id="Trazado_1175333" data-name="Trazado 1175333" d="M118.157,251.775c2.4.07,7.7,0,10.909-.051-.064-1.546-.126-3.009-.188-4.364-3.213-.017-8.82.219-10.561.3Z" transform="translate(-115.597 -236.522)" fill="#e8d1a7"/>
            </g>
            <g id="Grupo_1225258" data-name="Grupo 1225258" transform="translate(58.841)">
              <path id="Trazado_1175334" data-name="Trazado 1175334" d="M148.067,315.012l3.108-79.957a.959.959,0,0,1,.879-.921c2.183-.181,7.885-.56,8.575.362.857,1.142,3.141,79.945,2.284,80.516S150.066,316.155,148.067,315.012Z" transform="translate(-148.067 -233.902)" fill="#c2a77e"/>
              <path id="Trazado_1175335" data-name="Trazado 1175335" d="M151.246,251.775c2.4.07,7.7,0,10.909-.051-.064-1.546-.126-3.009-.188-4.364-3.212-.017-8.82.219-10.561.3Z" transform="translate(-148.686 -236.522)" fill="#e8d1a7"/>
            </g>
            <path id="Trazado_1175336" data-name="Trazado 1175336" d="M75.5,370.017s-1.9-27.981,1.713-41.876,11.7-19.583,20.262-21.106a50.11,50.11,0,0,1,15.333-.4l-.381,11.043s-16.369-3.048-20.938,4.756-6.091,18.844-6.282,26.648,0,21.509,0,21.509Z" transform="translate(-75.004 -247.982)" fill="#c2a77e"/>
            <path id="Trazado_1175337" data-name="Trazado 1175337" d="M98.667,378.428V335.6s-.286-2.855,1.713-3.141,64.813,0,64.813,0v45.682Z" transform="translate(-79.607 -253.062)" fill="#c2a77e"/>
          </g>
          <g id="Grupo_1225260" data-name="Grupo 1225260" transform="translate(105.483 189.536)">
            <path id="Trazado_1175338" data-name="Trazado 1175338" d="M296.327,274.21c-1.77-.288-123.273-.288-125.043,0-2,.325-1.713,3.581-1.713,3.581v48.834H298.04V277.791S298.326,274.535,296.327,274.21Z" transform="translate(-169.557 -273.994)" fill="#c2a77e"/>
            <path id="Trazado_1175339" data-name="Trazado 1175339" d="M201.126,311.881v-27.79a1.106,1.106,0,0,1,1.142-.761h8.661s.666.19.666.761v27.7s.19.761-.476.761h-9.232S201.031,312.262,201.126,311.881Z" transform="translate(-175.701 -275.811)" fill="#e8d1a7"/>
            <path id="Trazado_1175340" data-name="Trazado 1175340" d="M223.816,311.881v-27.79a1.106,1.106,0,0,1,1.142-.761h8.661s.666.19.666.761v27.7s.19.761-.476.761h-9.232S223.721,312.262,223.816,311.881Z" transform="translate(-180.118 -275.811)" fill="#e8d1a7"/>
            <path id="Trazado_1175341" data-name="Trazado 1175341" d="M246.506,311.881v-27.79a1.106,1.106,0,0,1,1.142-.761h8.661s.666.19.666.761v27.7s.19.761-.476.761h-9.232S246.411,312.262,246.506,311.881Z" transform="translate(-184.534 -275.811)" fill="#e8d1a7"/>
            <path id="Trazado_1175342" data-name="Trazado 1175342" d="M269.2,311.881v-27.79a1.106,1.106,0,0,1,1.142-.761H279s.666.19.666.761v27.7s.19.761-.476.761h-9.232S269.1,312.262,269.2,311.881Z" transform="translate(-188.951 -275.811)" fill="#e8d1a7"/>
          </g>
          <g id="Grupo_1225262" data-name="Grupo 1225262" transform="translate(105.401 233.413)">
            <path id="Trazado_1175343" data-name="Trazado 1175343" d="M169.457,377.711c.043-.978,0-47.687,0-46.758s1.239-2.477,3.1-2.477H277.218s2.477.309,2.786,1.549,0,48.194,0,48.194-.309,2.28-2.168,2.589-105.593,0-105.593,0S169.376,379.561,169.457,377.711Z" transform="translate(-169.455 -328.475)" fill="#fff0d4"/>
            <path id="Trazado_1175344" data-name="Trazado 1175344" d="M222.244,341.43q-.015-5.335-.029-10.669a.64.64,0,0,0-1.28,0q.051,18.87.1,37.741.015,5.335.029,10.669a.64.64,0,0,0,1.28,0Q222.295,360.3,222.244,341.43Z" transform="translate(-179.476 -328.8)" fill="#e8d1a7"/>
            <g id="Grupo_1225261" data-name="Grupo 1225261" transform="translate(45.47 4.645)">
              <path id="Trazado_1175345" data-name="Trazado 1175345" d="M285.969,338.927H228.257a2.342,2.342,0,0,1-2.342-2.342h0a2.342,2.342,0,0,1,2.342-2.342h57.712a2.342,2.342,0,0,1,2.342,2.342h0A2.342,2.342,0,0,1,285.969,338.927Z" transform="translate(-225.915 -334.243)" fill="#c2a77e"/>
              <path id="Trazado_1175346" data-name="Trazado 1175346" d="M285.969,349.809H228.257a2.342,2.342,0,0,1-2.342-2.342h0a2.342,2.342,0,0,1,2.342-2.342h57.712a2.342,2.342,0,0,1,2.342,2.342h0A2.342,2.342,0,0,1,285.969,349.809Z" transform="translate(-225.915 -336.361)" fill="#c2a77e"/>
              <path id="Trazado_1175347" data-name="Trazado 1175347" d="M285.969,360.691H228.257a2.342,2.342,0,0,1-2.342-2.342h0a2.342,2.342,0,0,1,2.342-2.342h57.712a2.342,2.342,0,0,1,2.342,2.342h0A2.342,2.342,0,0,1,285.969,360.691Z" transform="translate(-225.915 -338.479)" fill="#c2a77e"/>
              <path id="Trazado_1175348" data-name="Trazado 1175348" d="M285.969,371.573H228.257a2.342,2.342,0,0,1-2.342-2.342h0a2.342,2.342,0,0,1,2.342-2.342h57.712a2.342,2.342,0,0,1,2.342,2.342h0A2.342,2.342,0,0,1,285.969,371.573Z" transform="translate(-225.915 -340.598)" fill="#c2a77e"/>
              <path id="Trazado_1175349" data-name="Trazado 1175349" d="M285.969,382.455H228.257a2.342,2.342,0,0,1-2.342-2.342h0a2.342,2.342,0,0,1,2.342-2.342h57.712a2.342,2.342,0,0,1,2.342,2.342h0A2.342,2.342,0,0,1,285.969,382.455Z" transform="translate(-225.915 -342.716)" fill="#c2a77e"/>
            </g>
          </g>
          <g id="Grupo_1225263" data-name="Grupo 1225263" transform="translate(52.803 186.665)">
            <path id="Trazado_1175350" data-name="Trazado 1175350" d="M111.444,355.171l.755-58.21s1.823-26.882,29.092-26.529,32.645,21.532,33.552,27.342,1,57.834,1,57.834S128.847,358.412,111.444,355.171Z" transform="translate(-105.565 -270.429)" fill="#82a827"/>
            <path id="Trazado_1175351" data-name="Trazado 1175351" d="M175.257,303.246a51.445,51.445,0,0,0-.25-5.472c-.908-5.811-6.283-26.988-33.552-27.342s-29.092,26.529-29.092,26.529l-.077,5.979C122.392,303.269,156.453,304.633,175.257,303.246Z" transform="translate(-105.729 -270.429)" fill="#b2db60"/>
            <path id="Trazado_1175352" data-name="Trazado 1175352" d="M104.144,381.615s1.025-6.25,6.465-7.106c0,0,20.763.5,32.092.416s31.39-.056,31.39-.056,4.677,3.308,4.868,6.79c0,0-23.552,2.245-42.9,2.226A200.688,200.688,0,0,1,104.144,381.615Z" transform="translate(-104.144 -290.688)" fill="#628212"/>
            <path id="Trazado_1175353" data-name="Trazado 1175353" d="M144.007,349.68a10.628,10.628,0,0,1-3.5-5.755,17.2,17.2,0,0,1-.375-3.722,7.007,7.007,0,0,1,.246-1.88c.1-.36.316-1.34.636-1.549a8.118,8.118,0,0,0-3.169,8.907,7.716,7.716,0,0,0,7.289,5.516A3.927,3.927,0,0,0,144.007,349.68Zm8.583-6.212a14.869,14.869,0,0,0,1.909-10.854,25.858,25.858,0,0,0-1.982-6.3,18.726,18.726,0,0,0-3.006-4.665,11.867,11.867,0,0,1-2.522,7.633,41.216,41.216,0,0,0-3.744,5.642,11.705,11.705,0,0,0-.784,8.874c2.352,6.24,5.339,7.621,6.187,7.852a3.84,3.84,0,0,1-.059-1.069,6.413,6.413,0,0,1,.143-1.163,6.335,6.335,0,0,1,.865-2.1C150.489,345.948,151.668,344.82,152.59,343.467Zm2.831-12.046a9.132,9.132,0,0,1,.788,3.964,14.809,14.809,0,0,1-2.31,8.528,37.212,37.212,0,0,0-2.567,3.377,18.7,18.7,0,0,0-1.65,4.135c.006-.023,1.779-.19,1.957-.229a10.426,10.426,0,0,0,1.976-.643,9.855,9.855,0,0,0,3.291-2.3,10.584,10.584,0,0,0,2.68-7.554,14.607,14.607,0,0,0-1.013-5.546A10.03,10.03,0,0,0,155.421,331.421Z" transform="translate(-110.643 -280.398)" fill="#ffb81e"/>
            <path id="Trazado_1175354" data-name="Trazado 1175354" d="M140.877,274.429a28.084,28.084,0,0,0-23.756,24.293c-.079.61.88.619.958.013a27.131,27.131,0,0,1,23.04-23.378C141.728,275.266,141.483,274.339,140.877,274.429Z" transform="translate(-106.669 -271.206)" fill="#fff"/>
            <path id="Trazado_1175355" data-name="Trazado 1175355" d="M163.878,377.354H111.152a.59.59,0,0,0,0,1.18h52.726A.59.59,0,0,0,163.878,377.354Z" transform="translate(-105.397 -291.242)" fill="#82a827"/>
          </g>
        </g>
        <g id="Grupo_1225266" data-name="Grupo 1225266" clip-path="url(#clip-path-2)">
          <rect id="Rectángulo_421632" data-name="Rectángulo 421632" width="384.878" height="95.934" transform="translate(-20.987 276.619)" fill="#82a827"/>
          <path id="Trazado_1175357" data-name="Trazado 1175357" d="M397.4,466.142V425.161c-4.718-1.713-10.1-2.042-14.944-1.946l-96.736,1.926-170.709,3.4-85.355,1.7c-4.268.085-11.163-1.115-17.134-.32v37.7H394.976Q396.207,466.935,397.4,466.142Z" transform="translate(-33.506 -113.501)" fill="#628212"/>
          <g id="Grupo_1225265" data-name="Grupo 1225265" transform="translate(-20.987 275.401)">
            <rect id="Rectángulo_421633" data-name="Rectángulo 421633" width="384.878" height="13.134" transform="translate(0 3.712)" fill="#e8d1a7"/>
            <rect id="Rectángulo_421634" data-name="Rectángulo 421634" width="384.878" height="3.712" transform="translate(0)" fill="#c2a77e"/>
          </g>
        </g>
        <g id="Grupo_1225267" data-name="Grupo 1225267" clip-path="url(#clip-path-2)">
          <path id="Trazado_1175359" data-name="Trazado 1175359" d="M104.078,418.341a21.045,21.045,0,0,1-5.815-4.782c-1.511-2.022-2.236-4.83-1.156-7.111s4.342-3.459,6.309-1.876c-1.52-5.237-6.575-8.579-11.5-10.929s-10.295-4.332-13.817-8.5-4.094-11.454.455-14.461c2.156-1.425,5.016-1.622,6.96-3.324,2.075-1.818,2.544-4.938,1.984-7.639s-1.967-5.135-3.148-7.628a48.719,48.719,0,0,1-4.634-18.84c-.171-4.267.945-9.515,5.033-10.747a7.34,7.34,0,0,1,6.723,1.865,21.662,21.662,0,0,1,4.25,5.873q4.1,7.266,8.2,14.532c1.387,2.456,3.385,5.259,6.2,5.038,3.123-.245,4.95-4.165,8.064-4.507,3.262-.358,5.4,3.246,6.547,6.322a135.048,135.048,0,0,1,6.3,22.992,16.434,16.434,0,0,0,1.55,5.294,5.17,5.17,0,0,0,4.437,2.841c1.567-.068,2.959-1.1,4.522-1.227,3.262-.265,5.421,3.244,6.629,6.286a109.476,109.476,0,0,1,6.44,23.708c.733,4.766,1.121,9.8-.688,14.27C146.2,444.887,114.283,424.853,104.078,418.341Z" transform="translate(-45.728 -93.855)" fill="#628212"/>
          <path id="Trazado_1175360" data-name="Trazado 1175360" d="M146.955,428.047q-4.395-4.715-8.558-9.638c0-.007.006-.014.006-.021a87.893,87.893,0,0,1,2.886-16.6c.219-.8-1-1.214-1.221-.414a89.741,89.741,0,0,0-2.833,15.654q-7.02-8.4-13.353-17.335-3.143-4.443-6.1-9.017a.7.7,0,0,0,.221-.445,112.894,112.894,0,0,1,4.291-23.729c.234-.795-.987-1.21-1.221-.414A114.576,114.576,0,0,0,116.8,389.16q-6.427-10.057-11.958-20.649-4.746-9.1-8.794-18.541c-.327-.762-1.475-.176-1.148.585a271.938,271.938,0,0,0,16.709,32.671q1.824,3.041,3.734,6.027l-22.662-3.284c-.821-.119-.89,1.169-.074,1.286l23.643,3.427a273.543,273.543,0,0,0,16.233,22.587q1.671,2.091,3.384,4.147a252.908,252.908,0,0,0-25.287-2.7A.645.645,0,0,0,110.51,416a252.964,252.964,0,0,1,26.62,2.9q4.313,5.105,8.863,10C146.558,429.51,147.522,428.655,146.955,428.047Z" transform="translate(-48.984 -99.177)" fill="#82a827"/>
        </g>
        <g id="Grupo_1225268" data-name="Grupo 1225268" clip-path="url(#clip-path-2)">
          <path id="Trazado_1175362" data-name="Trazado 1175362" d="M160.926,427.336c-.995-2.231-1.89-4.687-1.348-7.069s3.118-4.435,5.393-3.542c1.81.711,3.49,3.03,5.138,2,1.223-.765.882-2.6.465-3.978a39.932,39.932,0,0,1-1.56-14.841,10.618,10.618,0,0,1,1.5-5.224,4.4,4.4,0,0,1,4.745-1.941c1.062.353,1.9,1.227,2.969,1.545,1.988.588,4.079-1.006,4.849-2.931s.591-4.078.528-6.15a50.994,50.994,0,0,1,3.438-20.007c.929-2.385,2.626-5.081,5.182-4.947a4.452,4.452,0,0,1,3.575,2.793,13.107,13.107,0,0,1,.838,4.671l.954,17.127a4.156,4.156,0,0,0,.842,2.767c1.385,1.407,3.85.161,4.933-1.489s1.684-3.749,3.353-4.8c2.3-1.454,5.559.012,6.915,2.375s1.3,5.259,1.056,7.973a78.846,78.846,0,0,1-4.619,20.27,8.7,8.7,0,0,0-.8,3.58,2.785,2.785,0,0,0,2.139,2.66c1.34.171,2.522-1,3.871-1.044a3.25,3.25,0,0,1,2.98,2.781,8.661,8.661,0,0,1-.623,4.342,65.62,65.62,0,0,1-19.34,28.657c-7.788,6.68-13.138,4.612-19.832-1.605A73.728,73.728,0,0,1,160.926,427.336Z" transform="translate(-62.1 -101.246)" fill="#b2db60"/>
          <path id="Trazado_1175363" data-name="Trazado 1175363" d="M211.313,431.619l-16.244,10.035q-.863-10.142-1.091-20.324a89.664,89.664,0,0,1,15.246-15.87c.644-.523-.15-1.538-.794-1.015a91.007,91.007,0,0,0-14.495,14.842q-.143-9.148.23-18.3.294-7.063.9-14.11a.645.645,0,0,0-1.281-.14,325.5,325.5,0,0,0-1.119,32.863L179.138,409c-.654-.513-1.429.517-.777,1.028L192.7,421.272c.115,5.379.348,10.755.73,16.123.112,1.571.254,3.14.389,4.709l-18.659-13.559c-.671-.488-1.448.54-.777,1.028l19.257,13.993a.605.605,0,0,0,.31.113c.246,2.7.517,5.4.83,8.091.1.824,1.37.631,1.274-.194-.328-2.827-.6-5.658-.858-8.492l16.915-10.45C212.814,432.2,212.011,431.188,211.313,431.619Z" transform="translate(-64.963 -106.296)" fill="#628212"/>
        </g>
      </g>
      <rect id="Rectángulo_421635" data-name="Rectángulo 421635" width="368.794" height="368.794" transform="translate(20.332 22.013)" fill="none"/>
      <g id="Grupo_1225288" data-name="Grupo 1225288" transform="translate(33.251 35.408)">
        <g id="Grupo_1225287" data-name="Grupo 1225287" clip-path="url(#clip-path-8)">
          <path id="Trazado_1175365" data-name="Trazado 1175365" d="M300.464,429.459l-3.581,36.105s112.792,1.79,112.792-.9-3.283-31.331-3.283-31.331Z" transform="translate(-88.858 -114.719)" fill="#423c39"/>
          <g id="Grupo_1225270" data-name="Grupo 1225270" transform="translate(197.732 123.372)">
            <path id="Trazado_1175366" data-name="Trazado 1175366" d="M316.626,218.266s-14.472,21.932-18.2,30.138S285.761,284.13,284.1,290.477c2.017,1.619,14.77,7.758,18.649,6.266s11.936-59.082,11.936-59.082Z" transform="translate(-284.101 -196.982)" fill="#d77b51"/>
            <path id="Trazado_1175367" data-name="Trazado 1175367" d="M338.52,200.873s-17.284,11.42-19.473,14.006-11.537,44.958-13.129,49.732-4.973,67.635-5.371,75.592-1.193,31.43-1.193,32.625,5.172,4.575,9.747,5.371a345.216,345.216,0,0,0,39.388,3.183c17.307.4,32.426-3.382,40.78-4.376a85.151,85.151,0,0,0,14.522-2.984s-.8-65.447-1.392-74.2-2.188-69.028-2.188-69.028l.8-28.247s-19.9-7.433-24.372-7.795-25.558,5.407-25.558,5.407Z" transform="translate(-287.07 -192.401)" fill="#d77b51"/>
            <path id="Trazado_1175368" data-name="Trazado 1175368" d="M376.7,191.837c-3.183,0-22.081,2.984-22.081,2.984a64.532,64.532,0,0,0-7.582,5.488c-1.545,4.15-4.665,13.436-3.758,18.582,1.193,6.763,16.511,11.338,26.457-.2,8.161-9.466,14.175-19.865,15.413-24.5C381.645,192.846,378.164,191.837,376.7,191.837Z" transform="translate(-295.589 -191.837)" fill="#e8ac8f"/>
            <path id="Trazado_1175369" data-name="Trazado 1175369" d="M314.654,222.856s2.387-7.311,3.581-9.1,14.92-10.743,15.517-10.743-.149,3.133-.149,3.133-5.073,16.71-5.968,20.291-1.79,6.863-1.045,8.057,13.726,1.045,22.23.746,17.755-.448,19.1-2.238,1.79-8.206,3.879-16.411S378.66,195.4,380,195.1s15.367,4.177,15.964,5.371-5.52,15.964-6.564,22.081-2.536,36.4-2.387,43.416,10.742,30.734,12.234,33.27,4.625,19.1,5.52,21.633,5.222,62.066,5.073,63.856a4.456,4.456,0,0,1-2.387,3.73c-1.342.746-37,5.819-47,6.714s-39.537-2.238-48.787-4.923-14.77-4.924-15.368-6.415,1.641-17.158,1.79-20.887,3.581-57.44,3.432-62.662,2.387-30.138,3.432-37.449S311.67,232.255,314.654,222.856Z" transform="translate(-286.457 -192.47)" fill="#ffb81e"/>
            <path id="Trazado_1175370" data-name="Trazado 1175370" d="M393.176,303.3c-10.142.83-22.892,1.909-32.407,2.83-14.676,1.421-44.934.024-56.818-.614-.316,3.411-.594,6.681-.787,9.42,10.243,1.236,40.542.871,52.831-.153,9.111-.759,27.759-2.846,40.126-4.265C395.157,308.26,394.143,305.789,393.176,303.3Z" transform="translate(-287.812 -213.535)" fill="#ffecb5"/>
            <path id="Trazado_1175371" data-name="Trazado 1175371" d="M363.089,407.335c17.752-1.849,35.153-3.469,45.827-4.433-.208-2.87-.431-5.881-.66-8.923-12.545,1.031-36.09,4.281-59.489,4.7-25.066.452-42.774-2.172-49.91-3.475-.2,3.42-.342,5.778-.369,6.459s-.126,1.779-.264,3.112C310.243,406.9,339.968,409.743,363.089,407.335Z" transform="translate(-286.85 -231.185)" fill="#ffecb5"/>
            <path id="Trazado_1175372" data-name="Trazado 1175372" d="M357.145,253.269q.311-1.887.66-3.766c.143-.776-1.045-1.108-1.189-.328a216.78,216.78,0,0,0-3.277,29.717c-.453,10.031-.351,20.077-.009,30.109.344,10.089.933,20.167,1.459,30.247s.995,20.162,1.1,30.254a292.7,292.7,0,0,1-1.087,29.985q-.176,1.905-.387,3.807c-.086.788,1.148.782,1.233,0a273.71,273.71,0,0,0,1.494-29.961c0-10.039-.408-20.073-.911-30.1s-1.107-20.068-1.51-30.108c-.4-9.99-.606-19.994-.3-29.989A226.045,226.045,0,0,1,357.145,253.269Z" transform="translate(-297.519 -202.911)" fill="#423c39"/>
            <path id="Trazado_1175373" data-name="Trazado 1175373" d="M398.343,199.224a77.549,77.549,0,0,0-8.57,32.287c-.033.794,1.2.792,1.233,0a76.074,76.074,0,0,1,8.4-31.665C399.772,199.142,398.708,198.518,398.343,199.224Z" transform="translate(-304.67 -193.214)" fill="#ffd863"/>
            <path id="Trazado_1175374" data-name="Trazado 1175374" d="M322.164,219.011A277.957,277.957,0,0,0,312,258.831q-1.008,5.682-1.778,11.4c-.1.776,1.083,1.112,1.189.328a277.94,277.94,0,0,1,8.492-40.209q1.608-5.542,3.446-11.014C323.605,218.585,322.415,218.261,322.164,219.011Z" transform="translate(-289.185 -197.044)" fill="#ffd863"/>
          </g>
          <g id="Grupo_1225277" data-name="Grupo 1225277" transform="translate(215.404 27.131)">
            <path id="Trazado_1175375" data-name="Trazado 1175375" d="M393.1,121.1a59.892,59.892,0,0,1-9.407,54.084c-.837,1.084-2.657.311-3.784-.467s-2.112-1.831-3.423-2.232c-3.39-1.036-6.783,2.761-10.233,1.951-1.8-1.828-4.619-1.415-7-.475s-4.7,2.37-7.262,2.336a16.436,16.436,0,0,1-4.7-1.123,8.378,8.378,0,0,0-4.761-.434,3.432,3.432,0,0,0-2.642,3.552,2.944,2.944,0,0,1-3.738-.362,8.788,8.788,0,0,1-1.86-3.71,214.727,214.727,0,0,1-5.451-21.307c-.882-4.367-1.616-8.976-.23-13.209a17.685,17.685,0,0,1,6.292-8.342,38.659,38.659,0,0,1,9.357-4.93c11.859-4.666,24.52-6.931,37.156-8.586A15.621,15.621,0,0,1,393.1,121.1Z" transform="translate(-310.287 -81.171)" fill="#423c39"/>
            <path id="Trazado_1175376" data-name="Trazado 1175376" d="M329.846,160.9a12.848,12.848,0,0,1,.983-2.322,16.426,16.426,0,0,1,7.456-6.532,58.4,58.4,0,0,1,9.535-3.2c6.248-1.763,12.457-3.839,18.91-4.549,5.368-.591,14.743-.766,18.442,4.175,3.506,4.686-.108,13.95-1.832,18.666a33.42,33.42,0,0,1-6.133,10.614c-.112-.045-.214-.11-.331-.145-3.39-1.036-6.783,2.761-10.233,1.951-1.8-1.828-4.619-1.415-7-.475s-4.7,2.37-7.263,2.336a16.436,16.436,0,0,1-4.7-1.123,8.378,8.378,0,0,0-4.761-.434,3.431,3.431,0,0,0-2.642,3.552,2.943,2.943,0,0,1-3.738-.362,8.788,8.788,0,0,1-1.86-3.71Q331.848,170.236,329.846,160.9Z" transform="translate(-310.678 -86.285)" fill="#262221"/>
            <path id="Trazado_1175377" data-name="Trazado 1175377" d="M379.725,189.443c-4.454,9.547-12.605,17.437-21.9,22.4-.07-.008-.14-.008-.21-.019-.053-.008-.1-.025-.156-.035-8.326-8.352-6.779-22.815-6.9-22.794.117-1.05.214-2.095.26-3.126a2.52,2.52,0,0,1,.253-1.194,2.6,2.6,0,0,1,1.952-.925c8.6-1.36,17.914-3.514,25.618-7.579A55.373,55.373,0,0,0,379.725,189.443Z" transform="translate(-314.701 -92.547)" fill="#e8ac8f"/>
            <path id="Trazado_1175378" data-name="Trazado 1175378" d="M322.228,122.64a65.309,65.309,0,0,0,1.568,18.4,56.585,56.585,0,0,1,.122,26.907c-.121.482.5,1.036.895.738a14.019,14.019,0,0,0,4.516-6.358,34.272,34.272,0,0,0,1.594-7.635c1.239-10.089,1.5-20.729-2.723-29.976a7.148,7.148,0,0,0-1.976-2.831C325.3,121.183,323.181,121.973,322.228,122.64Z" transform="translate(-309.175 -81.927)" fill="#423c39"/>
            <path id="Trazado_1175379" data-name="Trazado 1175379" d="M329.076,113.8a35.856,35.856,0,0,0-.325,17,37.723,37.723,0,0,1,1.1,11.951c-.339,3.7-.017,10.19,2.03,13.287,5.2,7.873,8.212,10.934,16.793,16.055,1.707,1.02,7.246,1.828,9.1,1.116,8.687-3.335,18.415-8.432,21.493-17.214a147.7,147.7,0,0,0,4.433-15.224c1.336-5.716,2.941-11.3,2.778-17.167A28.862,28.862,0,0,0,381.2,107.1a27.2,27.2,0,0,0-13.143-9.157A42.5,42.5,0,0,0,352,96.077c-5.255.306-10.6,1.368-15.053,4.177S330.491,108.73,329.076,113.8Z" transform="translate(-310.297 -76.938)" fill="#e8ac8f"/>
            <g id="Grupo_1225271" data-name="Grupo 1225271" transform="translate(50.922 55.219)">
              <path id="Trazado_1175380" data-name="Trazado 1175380" d="M371.563,142.4a5.83,5.83,0,0,1-.109,2.2,2.569,2.569,0,0,1-.28.906.877.877,0,0,1-.781.457.848.848,0,0,1-.6-.391,2.1,2.1,0,0,1-.269-.686,8.55,8.55,0,0,1-.2-2.938C369.526,140.016,371.3,141.113,371.563,142.4Z" transform="translate(-369.275 -140.9)" fill="#262221"/>
            </g>
            <g id="Grupo_1225272" data-name="Grupo 1225272" transform="translate(32.607 55.542)">
              <path id="Trazado_1175381" data-name="Trazado 1175381" d="M348.821,142.8a5.831,5.831,0,0,1-.109,2.2,2.585,2.585,0,0,1-.28.906.877.877,0,0,1-.781.457.848.848,0,0,1-.6-.391,2.1,2.1,0,0,1-.269-.686,8.548,8.548,0,0,1-.2-2.938C346.784,140.417,348.555,141.514,348.821,142.8Z" transform="translate(-346.533 -141.301)" fill="#262221"/>
            </g>
            <g id="Grupo_1225273" data-name="Grupo 1225273" transform="translate(48.219 54.304)">
              <path id="Trazado_1175382" data-name="Trazado 1175382" d="M366.276,141.729a.362.362,0,0,0,.173-.044,5.788,5.788,0,0,1,5.3-.087.358.358,0,0,0,.5-.19,3.956,3.956,0,0,1,.627-1.06.358.358,0,0,0-.553-.454,4.725,4.725,0,0,0-.586.906,6.447,6.447,0,0,0-5.633.26.357.357,0,0,0,.172.669Z" transform="translate(-365.919 -139.764)" fill="#262221"/>
            </g>
            <g id="Grupo_1225274" data-name="Grupo 1225274" transform="translate(28.742 54.974)">
              <path id="Trazado_1175383" data-name="Trazado 1175383" d="M342.618,142.346a.358.358,0,0,0,.21-.068,5.33,5.33,0,0,1,5.526-.345.357.357,0,0,0,.345-.626,6,6,0,0,0-5.992.189l-.058-.084c-.091-.131-.182-.263-.268-.381a.358.358,0,1,0-.577.424c.083.113.17.239.257.365s.182.263.268.381A.356.356,0,0,0,342.618,142.346Z" transform="translate(-341.735 -140.596)" fill="#262221"/>
            </g>
            <g id="Grupo_1225275" data-name="Grupo 1225275" transform="translate(26.39 47.213)">
              <path id="Trazado_1175384" data-name="Trazado 1175384" d="M339.171,132.539a.388.388,0,0,0,.126-.023,13.494,13.494,0,0,1,9.226-.057.357.357,0,0,0,.245-.672,14.2,14.2,0,0,0-9.724.06.357.357,0,0,0,.126.691Z" transform="translate(-338.813 -130.959)" fill="#423c39"/>
            </g>
            <g id="Grupo_1225276" data-name="Grupo 1225276" transform="translate(46.557 46.182)">
              <path id="Trazado_1175385" data-name="Trazado 1175385" d="M375.488,131.671a.358.358,0,0,0,.15-.682,14.8,14.8,0,0,0-11.56-.259.357.357,0,0,0,.269.662,14.076,14.076,0,0,1,10.991.246A.352.352,0,0,0,375.488,131.671Z" transform="translate(-363.855 -129.679)" fill="#423c39"/>
            </g>
            <path id="Trazado_1175386" data-name="Trazado 1175386" d="M384.483,135.316a15.244,15.244,0,0,0,6.855,1,6.742,6.742,0,0,0,5.447-3.844,6.621,6.621,0,0,0-.991-6.078,13.774,13.774,0,0,0-4.934-4.007,27.8,27.8,0,0,0-19.012-2.712c-1.8.409-7.879,1.639-6.068,4.435,1.587,2.452,5.712,4.58,8.146,6.113A49.673,49.673,0,0,0,384.483,135.316Z" transform="translate(-317.608 -81.426)" fill="#423c39"/>
            <path id="Trazado_1175387" data-name="Trazado 1175387" d="M395.611,141.183c.312-2.143,2.972-3.4,5.011-2.675a5.6,5.6,0,0,1,3.365,5.11,10.7,10.7,0,0,1-2,6.073,20.259,20.259,0,0,1-8.234,7.217C393.689,151.807,394.876,146.232,395.611,141.183Z" transform="translate(-323.117 -85.175)" fill="#e8ac8f"/>
            <path id="Trazado_1175388" data-name="Trazado 1175388" d="M393.677,136.6a79.136,79.136,0,0,1-3.718,30.563c-1.157,3.521-2.659,7.1-5.467,9.52-.316.272-.991-.618-.846-1.008a73.619,73.619,0,0,0,4.666-32.443c-.172-1.738-.8-6.8-.144-8.425S392.068,135.918,393.677,136.6Z" transform="translate(-321.147 -84.396)" fill="#423c39"/>
            <path id="Trazado_1175389" data-name="Trazado 1175389" d="M393.726,178.247a40.2,40.2,0,0,0,7.69-17.467c.193-1.086,1.847-.626,1.655.456a41.307,41.307,0,0,1-7.863,17.878C394.545,179.978,393.053,179.124,393.726,178.247Z" transform="translate(-323.079 -89.43)" fill="#262221"/>
            <path id="Trazado_1175390" data-name="Trazado 1175390" d="M306.764,117.891a303.223,303.223,0,0,1,83.975.976,3.28,3.28,0,0,0,2.555-2.9,3.236,3.236,0,0,0-2.362-3.03c.812-12.686-6.165-25.4-16.584-32.683A36.7,36.7,0,0,0,338.1,77.243a35.546,35.546,0,0,0-19.717,30.424,82.145,82.145,0,0,0-11.518,8.463,1.868,1.868,0,0,0-.816,1.377C306.084,118.059,306.55,118.4,306.764,117.891Z" transform="translate(-306.045 -72.621)" fill="#ffd863"/>
            <path id="Trazado_1175391" data-name="Trazado 1175391" d="M359.52,124.886l-26.266.257a.66.66,0,0,0,0,1.318l26.266-.257A.66.66,0,0,0,359.52,124.886Z" transform="translate(-311.217 -82.564)" fill="#d77b51"/>
            <path id="Trazado_1175392" data-name="Trazado 1175392" d="M402.818,103.475a3.6,3.6,0,0,0-1.536-6.2c-7.894-1.927-16.534-.822-24.65-.412a3.417,3.417,0,0,0,.273,6.828A176.4,176.4,0,0,0,402.818,103.475Z" transform="translate(-319.156 -76.976)" fill="#ffd863"/>
            <path id="Trazado_1175393" data-name="Trazado 1175393" d="M372.7,77.2A30.046,30.046,0,0,0,337.651,94.84c-1.228,2.96-5.346,3.847-8.533,3.523a5.738,5.738,0,0,1-2.782-.939,3.172,3.172,0,0,1-1.394-2.5c.023-7.35,6.532-13.32,12.8-17.161a39.385,39.385,0,0,1,21.07-5.427A21.57,21.57,0,0,1,372.7,77.2Z" transform="translate(-309.723 -72.335)" fill="#ffd863"/>
            <path id="Trazado_1175394" data-name="Trazado 1175394" d="M354.84,163.445l-.045,0a2.272,2.272,0,0,1-1.9-1.6,3.407,3.407,0,0,1,.167-2.328,9,9,0,0,1,1.1-1.818.536.536,0,0,1,.871.627l0,0a8.051,8.051,0,0,0-.98,1.6,2.348,2.348,0,0,0-.139,1.589,1.228,1.228,0,0,0,.971.866.536.536,0,0,1-.043,1.069Z" transform="translate(-315.138 -88.907)" fill="#d77b51"/>
            <path id="Trazado_1175395" data-name="Trazado 1175395" d="M358.393,177.148c.128,0,.255,0,.383-.008a10.455,10.455,0,0,0,6.5-2.645.537.537,0,0,0-.719-.8,9.223,9.223,0,0,1-11.808.46.536.536,0,0,0-.654.85A10.465,10.465,0,0,0,358.393,177.148Z" transform="translate(-314.968 -92.039)" fill="#cf3645"/>
            <path id="Trazado_1175396" data-name="Trazado 1175396" d="M376,181.633c-6.038,4.68-14.2,10.571-22.139,6.708-.711-.346-1.337.718-.623,1.065a15.7,15.7,0,0,0,12.252.192c4.241-1.563,7.845-4.351,11.381-7.093C377.5,182.02,376.617,181.153,376,181.633Z" transform="translate(-315.17 -93.583)" fill="#d77b51"/>
            <path id="Trazado_1175397" data-name="Trazado 1175397" d="M401.117,103.865l-14.116.6-7.058.3c-1.772.076-4.566.263-5.181-1.919a.617.617,0,0,0-1.189.328c.541,1.922,2.45,2.739,4.3,2.851a74.37,74.37,0,0,0,7.6-.263l15.65-.67C401.907,105.065,401.912,103.831,401.117,103.865Z" transform="translate(-319.185 -78.191)" fill="#ffb81e"/>
            <path id="Trazado_1175398" data-name="Trazado 1175398" d="M392.022,117.2a262.024,262.024,0,0,0-47.27-3.217q-6.72.155-13.426.657c-.787.059-.793,1.293,0,1.233a261.015,261.015,0,0,1,47.057.743q6.677.713,13.31,1.773C392.471,118.516,392.805,117.329,392.022,117.2Z" transform="translate(-310.851 -80.429)" fill="#ffb81e"/>
            <path id="Trazado_1175399" data-name="Trazado 1175399" d="M380.445,96.035a7.175,7.175,0,0,0-7.409,2.419.637.637,0,0,0,0,.872.621.621,0,0,0,.872,0,5.973,5.973,0,0,1,6.209-2.1A.617.617,0,0,0,380.445,96.035Z" transform="translate(-319.051 -76.901)" fill="#ffecb5"/>
            <path id="Trazado_1175400" data-name="Trazado 1175400" d="M398.784,95.817l-12.133.1a.617.617,0,0,0,0,1.233l12.133-.1A.617.617,0,0,0,398.784,95.817Z" transform="translate(-321.619 -76.906)" fill="#ffecb5"/>
            <path id="Trazado_1175401" data-name="Trazado 1175401" d="M368.58,76.829a31.917,31.917,0,0,0-25.653,9.841A30.024,30.024,0,0,0,340,90.312c-.958,1.4-1.786,2.892-2.773,4.276a9.551,9.551,0,0,1-4.207,3.628,4.87,4.87,0,0,1-4.933-.511c-.6-.514-1.476.354-.872.872,2.365,2.025,5.852,1.467,8.212-.29,2.776-2.067,4.177-5.386,6.173-8.111a30.5,30.5,0,0,1,15.914-11.011,29.7,29.7,0,0,1,11.065-1.1C369.37,78.134,369.366,76.9,368.58,76.829Z" transform="translate(-310.126 -73.187)" fill="#ffb81e"/>
          </g>
          <g id="Grupo_1225284" data-name="Grupo 1225284" transform="translate(135.153 136.215)">
            <g id="Grupo_1225280" data-name="Grupo 1225280" transform="translate(33.263)">
              <path id="Trazado_1175402" data-name="Trazado 1175402" d="M299.667,339c-6.969-9.086-7.289-21.147-6.141-32.062,1.247-11.851,4.026-23.834,1.439-35.71a31.35,31.35,0,0,0-7.785-15.311c-.553-.571-1.425.3-.872.872,7.645,7.885,9.045,19.548,8.343,30.031-.809,12.1-4.04,24.12-2.422,36.3a34.3,34.3,0,0,0,6.371,16.5C299.078,340.244,300.15,339.63,299.667,339Z" transform="translate(-255.18 -217.118)" fill="#628212"/>
              <g id="Grupo_1225278" data-name="Grupo 1225278" transform="translate(39.834 32.408)">
                <path id="Trazado_1175403" data-name="Trazado 1175403" d="M297.161,286.523a43.208,43.208,0,0,1,22.079-36.691c2.333-1.271,5.068-2.34,7.593-1.516,3.021,3.682,2.936,8.825,1.583,13.391C324.411,275.227,311.164,284.868,297.161,286.523Z" transform="translate(-297.161 -248.027)" fill="#b2db60"/>
                <path id="Trazado_1175404" data-name="Trazado 1175404" d="M317.945,261.584A122.627,122.627,0,0,1,300.3,284.735c-.553.57.318,1.443.872.872a124.007,124.007,0,0,0,17.836-23.4A.617.617,0,0,0,317.945,261.584Z" transform="translate(-297.738 -250.608)" fill="#82a827"/>
              </g>
              <g id="Grupo_1225279" data-name="Grupo 1225279">
                <path id="Trazado_1175405" data-name="Trazado 1175405" d="M284.523,254.565c-11.012-.178-20.813-7.342-27.775-15.877a40.887,40.887,0,0,1-8.1-14.57c-1.5-5.391-1.333-11.394,1.3-16.334,11.107.474,22.449,6,29.063,14.933S287.315,243.806,284.523,254.565Z" transform="translate(-247.699 -207.785)" fill="#b2db60"/>
                <path id="Trazado_1175406" data-name="Trazado 1175406" d="M284.321,253.342A92.5,92.5,0,0,0,267.8,229.114q-2.91-3.073-6.1-5.865c-.594-.522-1.47.347-.872.872a91.5,91.5,0,0,1,18.554,22.469q2.106,3.6,3.874,7.374C283.593,254.682,284.656,254.056,284.321,253.342Z" transform="translate(-250.216 -210.764)" fill="#82a827"/>
              </g>
            </g>
            <g id="Grupo_1225281" data-name="Grupo 1225281" transform="translate(0 42.17)">
              <path id="Trazado_1175407" data-name="Trazado 1175407" d="M226.873,337.812a13.753,13.753,0,0,1-4.24-4.58,5.677,5.677,0,0,1,.3-5.956c1.491-1.856,4.146-2.136,6.5-2.5s5.046-1.291,5.737-3.569c.631-2.081-.838-4.3-2.708-5.408s-4.082-1.441-6.161-2.079a13.27,13.27,0,0,1-7.214-4.854,7.671,7.671,0,0,1-.412-8.343c1.492-2.244,4.4-3.453,5.326-5.983a6.192,6.192,0,0,0-1.267-5.764,19.3,19.3,0,0,0-4.742-3.894c-3.73-2.472-7.5-5.172-9.773-9.025s-2.664-9.167.238-12.573c2.649-3.109,7.386-3.81,11.265-2.533s7.01,4.187,9.587,7.355,4.734,6.671,7.446,9.723c1.612,1.814,3.763,3.582,6.171,3.277,3.49-.442,5.231-4.873,8.635-5.761,2.471-.644,5.1.875,6.538,2.983s1.955,4.7,2.439,7.2q1.229,6.372,2.456,12.745c.489,2.538,1.532,5.628,4.1,5.954,2.729.347,4.723-2.838,7.453-3.172,3.362-.412,5.518,3.413,6.559,6.636a117.941,117.941,0,0,1,5.438,28.322c.192,2.852.25,5.851-1.027,8.409-2.387,4.779-8.544,6.319-13.875,5.968C256.279,349.38,239.482,347.4,226.873,337.812Z" transform="translate(-206.397 -260.147)" fill="#628212"/>
              <path id="Trazado_1175408" data-name="Trazado 1175408" d="M274.031,318.889a62.7,62.7,0,0,0-4.4,19.484q-6.279-9.925-12.984-19.573-1.908-2.742-3.854-5.455a.526.526,0,0,0,.365-.558,46.845,46.845,0,0,1,2.98-18.929c.281-.743-.911-1.065-1.189-.328a47.751,47.751,0,0,0-3.04,18.57q-6.837-9.517-14.081-18.732-5.553-7.064-11.34-13.94c-.511-.608-1.38.268-.872.872q10.222,12.152,19.719,24.888,2.479,3.328,4.9,6.695l-18.354-3.862c-.774-.163-1.1,1.026-.328,1.189l19.734,4.152q6.264,8.745,12.183,17.729,2.734,4.159,5.383,8.372a75.382,75.382,0,0,0-29.735-5.136c-.792.024-.795,1.258,0,1.233a74.489,74.489,0,0,1,30.831,5.662c1.025,1.639,2.057,3.275,3.065,4.924.413.677,1.48.057,1.065-.623-1.09-1.785-2.2-3.558-3.312-5.33a61.781,61.781,0,0,1,4.453-20.979C275.517,318.481,274.325,318.161,274.031,318.889Z" transform="translate(-210.107 -263.86)" fill="#b2db60"/>
            </g>
            <g id="Grupo_1225282" data-name="Grupo 1225282" transform="translate(72.388 40.374)">
              <path id="Trazado_1175409" data-name="Trazado 1175409" d="M298.71,300.219c.662-2.472,1.518-5.015,3.347-6.805s4.9-2.557,6.988-1.078c1.755,1.243,2.458,3.731,4.419,4.613,1.852.832,4.1-.2,5.352-1.8a16.482,16.482,0,0,0,2.344-5.579,56.663,56.663,0,0,1,7.5-15.676c1.4-2.042,3.024-4.065,5.281-5.083s5.288-.7,6.724,1.311c1.118,1.57,1.139,3.887,2.676,5.048a4.024,4.024,0,0,0,4.472-.161,13.836,13.836,0,0,0,3.25-3.45,52.892,52.892,0,0,1,11.582-11.069c2.777-1.942,6.55-3.62,9.387-1.767,2.544,1.661,2.849,5.265,2.412,8.272a29.267,29.267,0,0,1-5.48,13.233c-1.295,1.735-2.8,3.362-3.616,5.37s-.734,4.581.869,6.036c2.495,2.264,7.057.663,9.414,3.071,1.492,1.525,1.352,4.107.263,5.94a14.72,14.72,0,0,1-4.673,4.291l-10.275,6.99c-2.1,1.426-4.276,2.944-5.439,5.2s-.9,5.46,1.253,6.8c1.662,1.037,4.074.794,5.317,2.309a3.662,3.662,0,0,1-.1,4.247,10.13,10.13,0,0,1-3.507,2.844,119.662,119.662,0,0,1-36.8,13.807c-4.835.948-10.111,1.551-14.917.129-5.927-1.753-6.953-5.309-8.343-10.923A72.766,72.766,0,0,1,298.71,300.219Z" transform="translate(-296.281 -257.918)" fill="#b2db60"/>
              <path id="Trazado_1175410" data-name="Trazado 1175410" d="M366.224,278.8a144.91,144.91,0,0,0-21.715,23.746q-1.256,1.724-2.459,3.486-.763-7.557-1.525-15.114c-.08-.79-1.3-.61-1.22.18l1.649,16.339a.554.554,0,0,0,.052.163,146.38,146.38,0,0,0-12.471,22.882c-.232.535-.445,1.078-.67,1.616l-4.342-14.086c-.233-.756-1.361-.255-1.129.5l4.735,15.363a143.393,143.393,0,0,0-4.74,13.683c-.22.757.923,1.223,1.144.461,1.282-4.417,2.789-8.766,4.488-13.039a.717.717,0,0,0,.223-.112c.022,0,.039.007.062,0a85.687,85.687,0,0,1,20.6-.171.617.617,0,0,0,.151-1.224,87.1,87.1,0,0,0-20.485.124,144.7,144.7,0,0,1,7.193-15.041q3.138-5.686,6.791-11.07a70.123,70.123,0,0,1,18.9-2.215c.787.016.945-1.208.151-1.224a71.365,71.365,0,0,0-18.01,1.926,145.439,145.439,0,0,1,10.55-13.447A142.042,142.042,0,0,1,367,279.767C367.59,279.243,366.824,278.276,366.224,278.8Z" transform="translate(-301.358 -261.953)" fill="#82a827"/>
            </g>
            <g id="Grupo_1225283" data-name="Grupo 1225283" transform="translate(22.841 117.13)">
              <path id="Trazado_1175411" data-name="Trazado 1175411" d="M263.777,358.838a83.01,83.01,0,0,1,33.623-5.505A65.8,65.8,0,0,1,329.735,363.6c7.442,4.864,13.97,11.779,16.315,20.354a11.48,11.48,0,0,1,.366,5.629c-.551,2.324-2.2,4.221-3.909,5.889-11.394,11.112-27.414,16.178-43.159,18.5-9.2,1.357-26.142,4.122-34.847.85-6.624-2.489-9.605-7.1-15.119-11.538-4.131-3.324-3.628-8.809-7.759-12.133-2.538-2.043-7.633-4.656-6.766-8.561,1.614-7.267,10.581-13.973,16.459-17.651A97.549,97.549,0,0,1,263.777,358.838Z" transform="translate(-234.759 -353.225)" fill="#423c39"/>
              <path id="Trazado_1175412" data-name="Trazado 1175412" d="M308.933,356.645a81.692,81.692,0,0,0-48.142,9.892c-.693.387-.073,1.452.623,1.065a80.472,80.472,0,0,1,47.52-9.723C309.722,357.961,309.716,356.727,308.933,356.645Z" transform="translate(-239.767 -353.807)" fill="#e8d1a7"/>
            </g>
          </g>
          <g id="Grupo_1225285" data-name="Grupo 1225285" transform="translate(152.517 274.076)">
            <path id="Trazado_1175413" data-name="Trazado 1175413" d="M246.317,384.567a6.6,6.6,0,0,1-3.808,2.389c-1.565.447-6.783.971-6.783.971l-2.29.37a4.334,4.334,0,0,0,.639,2.4l-2.528-.239s-3.06-2.76-3.361-4.178-.37-2.983.154-3.731,4.694-3.507,5.812-3.585a22.792,22.792,0,0,1,3.87.678c2.189.494,4.686,1.148,5.836,1.565C245.948,381.962,246.988,383.45,246.317,384.567Z" transform="translate(-227.957 -378.967)" fill="#e8ac8f"/>
            <path id="Trazado_1175414" data-name="Trazado 1175414" d="M232.193,392.9s-2.437,5.123-1.84,6.763,4.625,4.177,4.625,4.177a5.484,5.484,0,0,0,.3,4.028,14.279,14.279,0,0,0,3.879,4.028c.6.3.3,4.326,1.492,5.371a11.765,11.765,0,0,0,7.012,2.835c2.984,0,6.266-2.686,6.266-2.686L249.3,405.633l-6.863-8.951Z" transform="translate(-228.405 -381.68)" fill="#e8ac8f"/>
            <path id="Trazado_1175415" data-name="Trazado 1175415" d="M247.643,416.553a.628.628,0,0,0-.759-.431c-.1.029-.2.055-.308.076a1.1,1.1,0,0,1-.268.048c.089-.011.1-.013.029,0l-.09.01-.135.011q-.147.01-.295.01c-.1,0-.2,0-.295-.009-.045,0-.09-.006-.135-.01l-.094-.01-.1-.015c-.045-.008-.089-.016-.134-.026-.1-.022-.206-.047-.308-.076a.617.617,0,1,0-.328,1.189,5.2,5.2,0,0,0,2.793,0A.625.625,0,0,0,247.643,416.553Z" transform="translate(-231.075 -386.195)" fill="#d77b51"/>
            <path id="Trazado_1175416" data-name="Trazado 1175416" d="M241.661,405.965a14.764,14.764,0,0,1-1.613.03q-.388-.014-.773-.048c-.129-.011-.257-.025-.386-.039l-.128-.015-.061-.008-.031,0-.128-.019a.634.634,0,0,0-.759.431.623.623,0,0,0,.431.759,15.684,15.684,0,0,0,3.448.148.617.617,0,1,0,0-1.234Z" transform="translate(-229.867 -384.2)" fill="#d77b51"/>
          </g>
          <g id="Grupo_1225286" data-name="Grupo 1225286" transform="translate(155.872 133.517)">
            <path id="Trazado_1175417" data-name="Trazado 1175417" d="M369.537,325.349s-.647,20.142-1.243,21.136-5.968,3.183-9.349,3.779-19.694,8.753-26.059,11.537-36.4,10.941-38.99,10.345-22.479-6.962-26.457-7.161-17.7-.4-20.291-.4-4.774-.4-4.774.6,1.194,3.183,5.57,4.973,12.135.995,12.135.995-9.748,2.984-13.527,4.177-13.527,1.989-13.925,2.785,0,2.586,1.194,3.978a6.671,6.671,0,0,0,6.365,2.586s-.6,3.183.2,4.575,3.183,2.387,3.183,2.387a3.245,3.245,0,0,0-.2,3.382c.995,1.79,3.779,3.382,3.779,3.382a6.886,6.886,0,0,0,1.392,3.581c1.392,1.989,4.376,2.984,6.962,2.984a83.9,83.9,0,0,0,20.689-4.177c7.759-2.785,14.721-6.564,16.71-6.962s49.931-6.763,58.286-8.554S383.611,376.324,386,375.13a14.861,14.861,0,0,0,5.968-6.167c1.194-2.387,12.931-41.974,12.732-45.554s-9.548-7.161-16.511-6.365S369.537,325.349,369.537,325.349Z" transform="translate(-232.192 -226.332)" fill="#e8ac8f"/>
            <path id="Trazado_1175418" data-name="Trazado 1175418" d="M386.85,351.59c-25.658,9.675-50.9,21.076-78.09,25.783-1.02.176-.587,1.729.428,1.553,27.192-4.707,52.432-16.109,78.09-25.783C388.239,352.781,387.823,351.223,386.85,351.59Z" transform="translate(-246.928 -233.068)" fill="#d77b51"/>
            <path id="Trazado_1175419" data-name="Trazado 1175419" d="M402.18,328.775a194.656,194.656,0,0,0-1.235,20.248.806.806,0,0,0,1.611,0,194.421,194.421,0,0,1,1.235-20.248C403.907,327.747,402.295,327.755,402.18,328.775Z" transform="translate(-264.986 -228.488)" fill="#d77b51"/>
            <path id="Trazado_1175420" data-name="Trazado 1175420" d="M421.056,204.434s11.537,5.023,17.058,15.467c2.53,4.788,3.742,10.415,5.024,15.631,2.464,10.035,4.394,20.206,6.185,30.38.8,4.532,5.17,29.863,5.926,34.8-23.234,8.239-51.9,3.929-52.642,2.736s.3-47.146,1.79-58.933S411.159,209.407,421.056,204.434Z" transform="translate(-265.261 -204.434)" fill="#d77b51"/>
            <path id="Trazado_1175421" data-name="Trazado 1175421" d="M252.267,413.542a7.7,7.7,0,0,1-6.282-1.388,5.539,5.539,0,0,1-1.993-5.021,6.178,6.178,0,0,0,1.645.211.617.617,0,0,0,0-1.233,4.957,4.957,0,0,1-3.747-1.624,4.894,4.894,0,0,1-1.186-3.8,28.124,28.124,0,0,0,7.711-1.173.617.617,0,0,0-.328-1.19c-3,.75-6.232,1.6-9.323.88a7.162,7.162,0,0,1-5.419-4.451c-.241-.753-1.432-.431-1.189.328a8.278,8.278,0,0,0,5.845,5.2,10.818,10.818,0,0,0,1.494.3,6.21,6.21,0,0,0,1.458,4.706,5.878,5.878,0,0,0,1.868,1.414,6.717,6.717,0,0,0,2.293,6.328,7.627,7.627,0,0,0,1.625,1.04.564.564,0,0,0-.048.434,9.222,9.222,0,0,0,2.89,4.551.633.633,0,0,0,.872,0,.623.623,0,0,0,0-.872,8,8,0,0,1-1.593-1.808,8.675,8.675,0,0,1-.589-1.086,7.562,7.562,0,0,1-.282-.751,10,10,0,0,0,4.606.2C253.375,414.586,253.044,413.4,252.267,413.542Z" transform="translate(-232.124 -241.397)" fill="#d77b51"/>
          </g>
        </g>
      </g>
    </g>
  </g>
</svg>
