<svg xmlns="http://www.w3.org/2000/svg" xmlns:xlink="http://www.w3.org/1999/xlink" width="108" height="108" viewBox="0 0 108 108">
  <defs>
    <filter id="Trazado_904820" x="0" y="0" width="108" height="108" filterUnits="userSpaceOnUse">
      <feOffset dy="3" input="SourceAlpha"/>
      <feGaussianBlur stdDeviation="3" result="blur"/>
      <feFlood flood-opacity="0.161"/>
      <feComposite operator="in" in2="blur"/>
      <feComposite in="SourceGraphic"/>
    </filter>
  </defs>
  <g id="Grupo_1225240" data-name="Grupo 1225240" transform="translate(-619.97 -505)">
    <g id="Grupo_1225022" data-name="Grupo 1225022" transform="translate(-0.03 43)">
      <g id="Grupo_1203794" data-name="Grupo 1203794" transform="translate(0 -419)">
        <g id="Grupo_1203639" data-name="Grupo 1203639" transform="translate(0 81)">
          <g id="Grupo_1202437" data-name="Grupo 1202437" transform="translate(0.523 386.813)">
            <g id="Grupo_1177315" data-name="Grupo 1177315" transform="translate(-0.523 -112.813)">
              <g id="Grupo_1173585" data-name="Grupo 1173585" transform="translate(629 532)">
                <g id="Grupo_1173428" data-name="Grupo 1173428" transform="translate(0 0)">
                  <g id="Grupo_1171958" data-name="Grupo 1171958">
                    <g id="Grupo_1167341" data-name="Grupo 1167341">
                      <g id="Grupo_1166792" data-name="Grupo 1166792">
                        <g transform="matrix(1, 0, 0, 1, -9, -6)" filter="url(#Trazado_904820)">
                          <g id="Trazado_904820-2" data-name="Trazado 904820" transform="translate(9 6)" fill="#e9f9fd">
                            <path d="M 44.99999618530273 88.49999237060547 C 39.12687301635742 88.49999237060547 33.43022155761719 87.35006713867188 28.06829643249512 85.08216857910156 C 22.88852119445801 82.89130401611328 18.23629570007324 79.75457763671875 14.24084663391113 75.75914001464844 C 10.24540901184082 71.76369476318359 7.108683586120605 67.11146545410156 4.917821407318115 61.93169403076172 C 2.649921178817749 56.56976699829102 1.499996185302734 50.87311553955078 1.499996185302734 44.99999237060547 C 1.499996185302734 39.12686920166016 2.649921178817749 33.43021774291992 4.917821407318115 28.06829261779785 C 7.108683586120605 22.88851737976074 10.24540901184082 18.23630523681641 14.24084663391113 14.24085521697998 C 18.23629570007324 10.24540519714355 22.88852119445801 7.108692169189453 28.06829643249512 4.917829990386963 C 33.43022155761719 2.649929761886597 39.12687301635742 1.500004887580872 44.99999618530273 1.500004887580872 C 50.87311935424805 1.500004887580872 56.56977081298828 2.649929761886597 61.93169784545898 4.917829990386963 C 67.11147308349609 7.108692169189453 71.76369476318359 10.24540519714355 75.75914764404297 14.24085521697998 C 79.75458526611328 18.23630523681641 82.89131164550781 22.88851737976074 85.08216857910156 28.06829261779785 C 87.35007476806641 33.43021774291992 88.5 39.12686920166016 88.5 44.99999237060547 C 88.5 50.87311553955078 87.35007476806641 56.56976699829102 85.08216857910156 61.93169403076172 C 82.89131164550781 67.11146545410156 79.75458526611328 71.76369476318359 75.75914764404297 75.75914001464844 C 71.76369476318359 79.75457763671875 67.11147308349609 82.89130401611328 61.93169784545898 85.08216857910156 C 56.56977081298828 87.35006713867188 50.87311935424805 88.49999237060547 44.99999618530273 88.49999237060547 Z" stroke="none"/>
                            <path d="M 44.99999618530273 2.999992370605469 C 39.32870864868164 2.999992370605469 33.82865142822266 4.11004638671875 28.65262603759766 6.299331665039062 C 23.65165710449219 8.414566040039062 19.15968322753906 11.44333648681641 15.301513671875 15.30150604248047 C 11.44333648681641 19.15967559814453 8.414566040039062 23.65164947509766 6.299339294433594 28.65262222290039 C 4.110054016113281 33.82864761352539 2.999992370605469 39.32870483398438 2.999992370605469 44.99999237060547 C 2.999992370605469 50.67127990722656 4.110054016113281 56.17132186889648 6.299339294433594 61.34736633300781 C 8.414566040039062 66.34833526611328 11.44333648681641 70.84029388427734 15.301513671875 74.69846343994141 C 19.15968322753906 78.55663299560547 23.65165710449219 81.58540344238281 28.65262603759766 83.70063781738281 C 33.82865142822266 85.88992309570312 39.32870864868164 86.99997711181641 44.99999618530273 86.99997711181641 C 50.67128372192383 86.99997711181641 56.17134094238281 85.88992309570312 61.34736633300781 83.70063781738281 C 66.34834289550781 81.58540344238281 70.84030914306641 78.55663299560547 74.69847869873047 74.69846343994141 C 78.55665588378906 70.84029388427734 81.58542633056641 66.34833526611328 83.70065307617188 61.34736633300781 C 85.88993835449219 56.17132186889648 87 50.67127990722656 87 44.99999237060547 C 87 39.32870483398438 85.88993835449219 33.82864761352539 83.70065307617188 28.65262222290039 C 81.58542633056641 23.65164947509766 78.55665588378906 19.15967559814453 74.69847869873047 15.30150604248047 C 70.84030914306641 11.44333648681641 66.34834289550781 8.414566040039062 61.34736633300781 6.299331665039062 C 56.17134094238281 4.11004638671875 50.67128372192383 2.999992370605469 44.99999618530273 2.999992370605469 M 44.99999618530273 -7.62939453125e-06 C 69.85281372070312 -7.62939453125e-06 90 20.14717864990234 90 44.99999237060547 C 90 69.85279083251953 69.85281372070312 89.99997711181641 44.99999618530273 89.99997711181641 C 20.14717864990234 89.99997711181641 -7.62939453125e-06 69.85279083251953 -7.62939453125e-06 44.99999237060547 C -7.62939453125e-06 20.14717864990234 20.14717864990234 -7.62939453125e-06 44.99999618530273 -7.62939453125e-06 Z" stroke="none" fill="#1d7083"/>
                          </g>
                        </g>
                      </g>
                    </g>
                  </g>
                </g>
              </g>
            </g>
          </g>
        </g>
      </g>
    </g>
    <g id="Layer_20" data-name="Layer 20" transform="translate(644.969 520.201)">
      <path id="Trazado_1175216" data-name="Trazado 1175216" d="M59.327,44.382a22.681,22.681,0,0,0-45.241-.674h1.887l4.884-1.4a14.984,14.984,0,0,1,7.756-.128l7.943,1.985a2.761,2.761,0,0,1,1.42.873l14.107-4.212A3.566,3.566,0,0,1,56.4,44.3v.108l.433-.155a3.259,3.259,0,0,1,2.489.124Z" transform="translate(-0.181 -0.305)" fill="#6bc13b"/>
      <path id="Trazado_1175217" data-name="Trazado 1175217" d="M15.973,43.847l4.884-1.4a14.983,14.983,0,0,1,7.756-.128L17.946,33l.016.011a22.554,22.554,0,0,0-3.876,10.837Z" transform="translate(-0.181 -0.444)" fill="#3b5892"/>
      <path id="Trazado_1175218" data-name="Trazado 1175218" d="M53.2,30a22.681,22.681,0,0,0-30.336-2.213l6.056,6.059H36.8l3.945,3.945h8.875V32.861L53.194,30Z" transform="translate(-0.303 -0.305)" fill="#3b5892"/>
      <path id="Trazado_1175219" data-name="Trazado 1175219" d="M16,43.972l4.884-1.4a14.983,14.983,0,0,1,7.756-.128l7.943,1.985a2.769,2.769,0,0,1,1.465,4.447l-.018.022H44.6l12.267-4.381a3.254,3.254,0,0,1,2.9.357l.149.1a3.254,3.254,0,0,1-.6,5.73l-26,10.4a8.621,8.621,0,0,1-5.74.236L16,57.778Z" transform="translate(-0.208 -0.568)" fill="#fbe1ca"/>
      <path id="Trazado_1175220" data-name="Trazado 1175220" d="M56.741,44.663V44.55a3.55,3.55,0,0,0-4.321-3.465L38.318,45.3a2.771,2.771,0,0,1,.023,3.592h6.567Z" transform="translate(-0.517 -0.555)" fill="#ffcca6"/>
      <path id="Trazado_1175221" data-name="Trazado 1175221" d="M2,44H9.889V61.75H2Z" transform="translate(-0.014 -0.596)" fill="#3b5892"/>
      <path id="Trazado_1175222" data-name="Trazado 1175222" d="M6.931,56.82V44H2V58.792H4.958A1.972,1.972,0,0,0,6.931,56.82Z" transform="translate(-0.014 -0.596)" fill="#4c6cb5"/>
      <path id="Trazado_1175223" data-name="Trazado 1175223" d="M10,44h5.917V59.778H10Z" transform="translate(-0.125 -0.596)" fill="#78a0d4"/>
      <path id="Trazado_1175224" data-name="Trazado 1175224" d="M12.958,54.847V44H10V56.82h.986A1.972,1.972,0,0,0,12.958,54.847Z" transform="translate(-0.125 -0.596)" fill="#85afdd"/>
      <path id="Trazado_1175225" data-name="Trazado 1175225" d="M28,49h9.861v1.972H28Z" transform="translate(-0.374 -0.666)" fill="#ffcca6"/>
      <circle id="Elipse_12651" data-name="Elipse 12651" cx="8.875" cy="8.875" r="8.875" transform="translate(24.667 1.986)" fill="#f0ae42"/>
      <path id="Trazado_1175226" data-name="Trazado 1175226" d="M40.778,10.389a8.875,8.875,0,0,0-5.784-8.311,8.866,8.866,0,0,0-4.211,17.107,8.816,8.816,0,0,0,9.994-8.8Z" transform="translate(-0.333 -0.014)" fill="#f9d266"/>
      <path id="Trazado_1175227" data-name="Trazado 1175227" d="M37.889,8.931V7.945a2.958,2.958,0,0,0-2.958-2.958V4H32.958v.986A2.958,2.958,0,0,0,30,7.945v.986a2.958,2.958,0,0,0,2.958,2.958v2.958a.986.986,0,0,1-.986-.986v-.986H30v.986a2.958,2.958,0,0,0,2.958,2.958v.986h1.972V16.82a2.958,2.958,0,0,0,2.958-2.958v-.986a2.958,2.958,0,0,0-2.958-2.958V6.958a.986.986,0,0,1,.986.986v.986Zm-1.972,3.945v.986a.986.986,0,0,1-.986.986V11.889A.986.986,0,0,1,35.917,12.875ZM32.958,9.917a.986.986,0,0,1-.986-.986V7.945a.986.986,0,0,1,.986-.986Z" transform="translate(-0.402 -0.042)" fill="#d5883e"/>
      <circle id="Elipse_12652" data-name="Elipse 12652" cx="8.875" cy="8.875" r="8.875" transform="translate(1.986 9.875)" fill="#f0ae42"/>
      <path id="Trazado_1175228" data-name="Trazado 1175228" d="M17.778,18.389a8.875,8.875,0,0,0-5.784-8.311A8.866,8.866,0,0,0,7.784,27.185a8.816,8.816,0,0,0,9.994-8.8Z" transform="translate(-0.014 -0.125)" fill="#f9d266"/>
      <path id="Trazado_1175229" data-name="Trazado 1175229" d="M14.889,16.931v-.986a2.958,2.958,0,0,0-2.958-2.958V12H9.958v.986A2.958,2.958,0,0,0,7,15.945v.986a2.958,2.958,0,0,0,2.958,2.958v2.958a.986.986,0,0,1-.986-.986v-.986H7v.986A2.958,2.958,0,0,0,9.958,24.82v.986h1.972V24.82a2.958,2.958,0,0,0,2.958-2.958v-.986a2.958,2.958,0,0,0-2.958-2.958V14.958a.986.986,0,0,1,.986.986v.986Zm-1.972,3.945v.986a.986.986,0,0,1-.986.986V19.889A.986.986,0,0,1,12.917,20.875ZM9.958,17.917a.986.986,0,0,1-.986-.986v-.986a.986.986,0,0,1,.986-.986Z" transform="translate(-0.083 -0.153)" fill="#d5883e"/>
      <path id="Trazado_1175230" data-name="Trazado 1175230" d="M33.861,20.723A9.861,9.861,0,1,0,24,10.861a9.861,9.861,0,0,0,9.861,9.861Zm0-17.75a7.889,7.889,0,1,1-7.889,7.889,7.889,7.889,0,0,1,7.889-7.889Z" transform="translate(-0.319)"/>
      <path id="Trazado_1175231" data-name="Trazado 1175231" d="M32.958,16.82v.986h1.972V16.82a2.958,2.958,0,0,0,2.958-2.958v-.986a2.958,2.958,0,0,0-2.958-2.958V6.958a.986.986,0,0,1,.986.986v.986h1.972V7.945a2.958,2.958,0,0,0-2.958-2.958V4H32.958v.986A2.958,2.958,0,0,0,30,7.945v.986a2.958,2.958,0,0,0,2.958,2.958v2.958a.986.986,0,0,1-.986-.986v-.986H30v.986A2.958,2.958,0,0,0,32.958,16.82Zm-.986-7.889V7.945a.986.986,0,0,1,.986-.986V9.917A.986.986,0,0,1,31.972,8.931Zm2.958,2.958a.986.986,0,0,1,.986.986v.986a.986.986,0,0,1-.986.986Z" transform="translate(-0.402 -0.042)"/>
      <path id="Trazado_1175232" data-name="Trazado 1175232" d="M10.861,28.723A9.861,9.861,0,1,0,1,18.861a9.861,9.861,0,0,0,9.861,9.861Zm0-17.75a7.889,7.889,0,1,1-7.889,7.889,7.889,7.889,0,0,1,7.889-7.889Z" transform="translate(0 -0.111)"/>
      <path id="Trazado_1175233" data-name="Trazado 1175233" d="M9.958,24.82v.986h1.972V24.82a2.958,2.958,0,0,0,2.958-2.958v-.986a2.958,2.958,0,0,0-2.958-2.958V14.958a.986.986,0,0,1,.986.986v.986h1.972v-.986a2.958,2.958,0,0,0-2.958-2.958V12H9.958v.986A2.958,2.958,0,0,0,7,15.945v.986a2.958,2.958,0,0,0,2.958,2.958v2.958a.986.986,0,0,1-.986-.986v-.986H7v.986A2.958,2.958,0,0,0,9.958,24.82Zm-.986-7.889v-.986a.986.986,0,0,1,.986-.986v2.958A.986.986,0,0,1,8.972,16.931Zm2.958,2.958a.986.986,0,0,1,.986.986v.986a.986.986,0,0,1-.986.986Z" transform="translate(-0.083 -0.153)"/>
      <path id="Trazado_1175234" data-name="Trazado 1175234" d="M60.251,43.879l-.148-.1-.018-.01a23.649,23.649,0,0,0-47.041-1.062H1.986A.986.986,0,0,0,1,43.695v17.75a.986.986,0,0,0,.986.986H9.875a.986.986,0,0,0,.986-.986v-.986h4.931a.986.986,0,0,0,.986-.986v-.637l10.3,3.17a9.615,9.615,0,0,0,6.4-.262l26-10.4a4.24,4.24,0,0,0,.776-7.466ZM51.412,29.911,48.7,32.08a.986.986,0,0,0-.37.767v3.945H40.854L37.2,33.136a.986.986,0,0,0-.7-.289H29.02l-4.911-4.911a21.538,21.538,0,0,1,27.3,1.972Zm-28.877-.759,5.379,5.379a.986.986,0,0,0,.7.289h7.481l3.656,3.656a.986.986,0,0,0,.7.289h8.875a.986.986,0,0,0,.986-.986V33.321l2.482-1.985A21.582,21.582,0,0,1,58.02,43.087a4.27,4.27,0,0,0-.977.05,4.511,4.511,0,0,0-5.424-3.26L38.051,43.926a3.735,3.735,0,0,0-1.437-.725L28.9,41.272l-9.769-8.539a22.04,22.04,0,0,1,3.4-3.582ZM39.255,45.62l12.858-3.84a2.587,2.587,0,0,1,3.062,1.949L44.219,47.64H39.371a3.786,3.786,0,0,0,.089-.8,3.747,3.747,0,0,0-.2-1.219ZM18.013,34.375l7.3,6.379a16.017,16.017,0,0,0-4.905.592l-4.752,1.363h-.621a21.4,21.4,0,0,1,2.981-8.334ZM8.889,60.459H2.972V44.681H8.889Zm5.917-1.972H10.861V44.681h3.945Zm43.937-8.974-26,10.4a7.643,7.643,0,0,1-5.084.209L16.778,56.772V44.44l4.169-1.191a14.041,14.041,0,0,1,7.243-.121l7.946,1.986a1.783,1.783,0,0,1-.433,3.513H25.653V50.6H35.7a3.724,3.724,0,0,0,2.515-.986H44.39a.972.972,0,0,0,.331-.058l12.266-4.379a2.279,2.279,0,0,1,2.022.249l.149.1a2.268,2.268,0,0,1-.415,3.992Z" transform="translate(0 -0.291)"/>
    </g>
  </g>
</svg>
