<svg xmlns="http://www.w3.org/2000/svg" xmlns:xlink="http://www.w3.org/1999/xlink" width="103" height="103" viewBox="0 0 103 103">
  <defs>
    <filter id="Trazado_978624" x="0" y="0" width="103" height="103" filterUnits="userSpaceOnUse">
      <feOffset dy="3" input="SourceAlpha"/>
      <feGaussianBlur stdDeviation="3" result="blur"/>
      <feFlood flood-opacity="0.161"/>
      <feComposite operator="in" in2="blur"/>
      <feComposite in="SourceGraphic"/>
    </filter>
  </defs>
  <g id="Grupo_1225242" data-name="Grupo 1225242" transform="translate(-171 -1087)">
    <g id="Grupo_1225044" data-name="Grupo 1225044" transform="translate(0 74)">
      <g id="Grupo_1220654" data-name="Grupo 1220654" transform="translate(180 1019)">
        <g id="Grupo_1176881" data-name="Grupo 1176881">
          <g id="Grupo_1175148" data-name="Grupo 1175148">
            <g id="Grupo_1173798" data-name="Grupo 1173798">
              <g id="Grupo_1171925" data-name="Grupo 1171925">
                <g id="Grupo_1164524" data-name="Grupo 1164524">
                  <g id="Grupo_1144123" data-name="Grupo 1144123">
                    <g transform="matrix(1, 0, 0, 1, -9, -6)" filter="url(#Trazado_978624)">
                      <g id="Trazado_978624-2" data-name="Trazado 978624" transform="translate(9 6)" fill="#e9f9fd">
                        <path d="M 42.5 83.5 C 36.96437835693359 83.5 31.59512901306152 82.41617584228516 26.54141235351562 80.27863311767578 C 21.65934181213379 78.21369171142578 17.27447128295898 75.25723266601562 13.50862312316895 71.49137878417969 C 9.742764472961426 67.72553253173828 6.786305904388428 63.34066009521484 4.721364498138428 58.45858764648438 C 2.583823442459106 53.40486907958984 1.5 48.03562164306641 1.5 42.5 C 1.5 36.96437835693359 2.583823442459106 31.59512901306152 4.721364498138428 26.54141235351562 C 6.786305904388428 21.65934181213379 9.742764472961426 17.27447128295898 13.50862312316895 13.50862312316895 C 17.27447128295898 9.742764472961426 21.65934181213379 6.786305904388428 26.54141235351562 4.721364498138428 C 31.59512901306152 2.583823442459106 36.96437835693359 1.5 42.5 1.5 C 48.03562164306641 1.5 53.40486907958984 2.583823442459106 58.45858764648438 4.721364498138428 C 63.34066009521484 6.786305904388428 67.72553253173828 9.742764472961426 71.49137878417969 13.50862312316895 C 75.25723266601562 17.27447128295898 78.21369171142578 21.65934181213379 80.27863311767578 26.54141235351562 C 82.41617584228516 31.59512901306152 83.5 36.96437835693359 83.5 42.5 C 83.5 48.03562164306641 82.41617584228516 53.40486907958984 80.27863311767578 58.45858764648438 C 78.21369171142578 63.34066009521484 75.25723266601562 67.72553253173828 71.49137878417969 71.49137878417969 C 67.72553253173828 75.25723266601562 63.34066009521484 78.21369171142578 58.45858764648438 80.27863311767578 C 53.40486907958984 82.41617584228516 48.03562164306641 83.5 42.5 83.5 Z" stroke="none"/>
                        <path d="M 42.5 3 C 37.16621398925781 3 31.99356079101562 4.043960571289062 27.125732421875 6.102882385253906 C 22.42246627807617 8.092185974121094 18.19785308837891 10.94070434570312 14.56928253173828 14.56928253173828 C 10.94070434570312 18.19785308837891 8.092185974121094 22.42246627807617 6.102882385253906 27.125732421875 C 4.043960571289062 31.99356079101562 3 37.16621398925781 3 42.5 C 3 47.83378601074219 4.043960571289062 53.00643920898438 6.102882385253906 57.87425231933594 C 8.092185974121094 62.57753372192383 10.94070434570312 66.80213165283203 14.56928253173828 70.43071746826172 C 18.19786834716797 74.05929565429688 22.42246627807617 76.90781402587891 27.125732421875 78.89711761474609 C 31.99356079101562 80.95603942871094 37.16621398925781 82 42.5 82 C 47.83378601074219 82 53.00642395019531 80.95603942871094 57.87425231933594 78.89711761474609 C 62.57753372192383 76.90781402587891 66.80213165283203 74.05929565429688 70.43071746826172 70.43071746826172 C 74.05929565429688 66.80213165283203 76.90781402587891 62.57753372192383 78.89711761474609 57.87425231933594 C 80.95603942871094 53.00642395019531 82 47.83378601074219 82 42.5 C 82 37.16621398925781 80.95603942871094 31.99356079101562 78.89711761474609 27.125732421875 C 76.90781402587891 22.42246627807617 74.05929565429688 18.19786834716797 70.43071746826172 14.56928253173828 C 66.80213165283203 10.94070434570312 62.57753372192383 8.092185974121094 57.87425231933594 6.102882385253906 C 53.00643920898438 4.043960571289062 47.83378601074219 3 42.5 3 M 42.5 0 C 65.97209167480469 0 85 19.02789306640625 85 42.5 C 85 65.97209167480469 65.97209167480469 85 42.5 85 C 19.02789306640625 85 0 65.97209167480469 0 42.5 C 0 19.02789306640625 19.02789306640625 0 42.5 0 Z" stroke="none" fill="#36ceef"/>
                      </g>
                    </g>
                  </g>
                </g>
              </g>
            </g>
          </g>
        </g>
      </g>
    </g>
    <g id="sostenibilidad-empresarial" transform="translate(197.714 1098.627)">
      <path id="Trazado_1175235" data-name="Trazado 1175235" d="M251.6,167.644v14.018a.708.708,0,0,1-1.416,0V167.644H251.6Z" transform="translate(-226.554 -141.342)" fill="#b06328"/>
      <g id="Grupo_1225241" data-name="Grupo 1225241" transform="translate(-3.026 12.89)">
        <path id="Trazado_1175236" data-name="Trazado 1175236" d="M71.223,289.294l-2.548,2.548a1.946,1.946,0,0,1-2.742,0l-1.915-1.918a23.209,23.209,0,0,1-6.605,2.735v2.712a1.942,1.942,0,0,1-1.938,1.938h-7.2a1.942,1.942,0,0,1-1.938-1.938v-2.712a23.249,23.249,0,0,1-6.605-2.735l-1.915,1.918a1.946,1.946,0,0,1-2.742,0L29.98,286.75a1.946,1.946,0,0,1,0-2.742L31.9,282.09a23.127,23.127,0,0,1-2.732-6.6H26.451a1.942,1.942,0,0,1-1.938-1.938v-3.6h13.7a13.666,13.666,0,1,0,27.332,0H79.234v3.6a1.942,1.942,0,0,1-1.938,1.938H74.584a23.229,23.229,0,0,1-2.735,6.6l1.918,1.918a1.94,1.94,0,0,1,0,2.742l-2.544,2.544Z" transform="translate(-24.513 -244.453)" fill="#676873" fill-rule="evenodd"/>
        <path id="Trazado_1175237" data-name="Trazado 1175237" d="M57.413,292.658v2.712a1.942,1.942,0,0,1-1.938,1.938h-7.2a1.942,1.942,0,0,1-1.938-1.938v-2.712a23.249,23.249,0,0,1-6.605-2.735l-1.915,1.918a1.946,1.946,0,0,1-2.742,0l-5.092-5.092a1.946,1.946,0,0,1,0-2.742l1.918-1.918a23.126,23.126,0,0,1-2.732-6.6H26.451a1.942,1.942,0,0,1-1.938-1.938v-3.6h8.621a22.761,22.761,0,0,0,24.279,22.712Z" transform="translate(-24.513 -244.452)" fill="#595a66" fill-rule="evenodd"/>
        <path id="Trazado_1175238" data-name="Trazado 1175238" d="M31.221,144.1a6.707,6.707,0,1,0-6.706-6.706A6.72,6.72,0,0,0,31.221,144.1Z" transform="translate(-24.515 -121.635)" fill="#f7b84e" fill-rule="evenodd"/>
        <path id="Trazado_1175239" data-name="Trazado 1175239" d="M46.879,131.3a6.708,6.708,0,0,1,0,13.271,6.708,6.708,0,0,1,0-13.271Z" transform="translate(-39.189 -122.184)" fill="#ffcb5b" fill-rule="evenodd"/>
        <path id="Trazado_1175240" data-name="Trazado 1175240" d="M380.988,144.1a6.707,6.707,0,1,0-6.706-6.706A6.72,6.72,0,0,0,380.988,144.1Z" transform="translate(-332.972 -121.635)" fill="#f7b84e" fill-rule="evenodd"/>
        <path id="Trazado_1175241" data-name="Trazado 1175241" d="M396.647,131.3a6.708,6.708,0,1,1-5.725,6.636A6.706,6.706,0,0,1,396.647,131.3Z" transform="translate(-347.647 -122.184)" fill="#ffcb5b" fill-rule="evenodd"/>
        <path id="Trazado_1175242" data-name="Trazado 1175242" d="M193.355,281.4h11.711l1.734,6.184c.264.951-.81,1.8-1.8,1.8h-11.58c-.988,0-2.066-.847-1.8-1.8l1.734-6.184Z" transform="translate(-171.848 -254.551)" fill="#595a66" fill-rule="evenodd"/>
        <path id="Trazado_1175243" data-name="Trazado 1175243" d="M206.094,67.5a6.706,6.706,0,1,0-6.709-6.706,6.72,6.72,0,0,0,6.709,6.706Z" transform="translate(-178.732 -54.088)" fill="#f7b84e" fill-rule="evenodd"/>
        <path id="Trazado_1175244" data-name="Trazado 1175244" d="M221.775,54.683a6.709,6.709,0,1,1-5.722,6.636A6.709,6.709,0,0,1,221.775,54.683Z" transform="translate(-193.431 -54.613)" fill="#ffcb5b" fill-rule="evenodd"/>
        <path id="Trazado_1175245" data-name="Trazado 1175245" d="M188.615,272.852h13.757a1.253,1.253,0,0,0,1.249-1.249V271.2a1.256,1.256,0,0,0-1.249-1.252H188.615a1.256,1.256,0,0,0-1.249,1.252v.405A1.253,1.253,0,0,0,188.615,272.852Z" transform="translate(-168.132 -244.452)" fill="#676873" fill-rule="evenodd"/>
        <path id="Trazado_1175246" data-name="Trazado 1175246" d="M128.915,169.361a8.727,8.727,0,0,1,13.4,3.589,8.727,8.727,0,0,1-13.4-3.589Z" transform="translate(-116.584 -154.141)" fill="#0f9347" fill-rule="evenodd"/>
        <path id="Trazado_1175247" data-name="Trazado 1175247" d="M142.011,168.408a8.727,8.727,0,0,1,11.855,4.543,8.727,8.727,0,0,1-4.382,1.768,8.308,8.308,0,0,1-1.319-.248,10.252,10.252,0,0,1-6.153-6.063Z" transform="translate(-128.134 -154.142)" fill="#3cb54b" fill-rule="evenodd"/>
        <path id="Trazado_1175248" data-name="Trazado 1175248" d="M283.373,169.361a8.731,8.731,0,0,0-13.4,3.589,8.731,8.731,0,0,0,13.4-3.589Z" transform="translate(-240.978 -154.141)" fill="#0f9347" fill-rule="evenodd"/>
        <path id="Trazado_1175249" data-name="Trazado 1175249" d="M281.826,168.408a8.732,8.732,0,0,0-11.858,4.543,8.739,8.739,0,0,0,4.382,1.768,8.345,8.345,0,0,0,1.322-.248A10.269,10.269,0,0,0,281.826,168.408Z" transform="translate(-240.978 -154.142)" fill="#3cb54b" fill-rule="evenodd"/>
      </g>
      <path id="Trazado_1175250" data-name="Trazado 1175250" d="M12.15,24.059a.671.671,0,0,0,.351-.1l1.175-.673a.709.709,0,1,0-.706-1.229l-1.175.676a.708.708,0,0,0,.355,1.322ZM8.193,20.393a.71.71,0,0,0,.968-.261l.676-1.175a.709.709,0,1,0-1.229-.706l-.676,1.175a.711.711,0,0,0,.261.968ZM-4.475,22.81l-1.175-.68a.709.709,0,0,0-.968.258.706.706,0,0,0,.258.968l1.175.68a.675.675,0,0,0,.355.1.713.713,0,0,0,.613-.355.71.71,0,0,0-.258-.968Zm2.6-2.638a.707.707,0,0,0,.616.355.7.7,0,0,0,.351-.094.711.711,0,0,0,.261-.968l-.676-1.175a.708.708,0,0,0-.968-.261A.71.71,0,0,0-2.55,19l.676,1.175Zm5.514-.978a.709.709,0,0,0,.706-.71V17.125a.708.708,0,0,0-1.416,0v1.359A.71.71,0,0,0,3.64,19.194Zm51.608,3.127a.707.707,0,0,0-.968-.261l-1.175.676a.708.708,0,0,0,.355,1.322.68.68,0,0,0,.351-.1l1.175-.673a.708.708,0,0,0,.261-.968ZM49.5,20.393a.719.719,0,0,0,.351.094.711.711,0,0,0,.616-.355l.676-1.175a.709.709,0,1,0-1.229-.706l-.676,1.175a.711.711,0,0,0,.261.968ZM34.946,23.356l1.175.68a.68.68,0,0,0,.351.1.715.715,0,0,0,.616-.355.706.706,0,0,0-.258-.964l-1.172-.683a.709.709,0,0,0-.713,1.225Zm4.493-3.184a.705.705,0,0,0,.613.355.692.692,0,0,0,.355-.1.709.709,0,0,0,.258-.968l-.68-1.175a.709.709,0,0,0-1.229.71l.683,1.175Zm5.511-.978a.709.709,0,0,0,.706-.71V17.125a.708.708,0,0,0-1.416,0v1.359A.71.71,0,0,0,44.95,19.194ZM50.986,38.74H38.693a14.375,14.375,0,0,1-28.715,0h-12.3v2.889a1.234,1.234,0,0,0,1.232,1.235l2.712,0h0a.709.709,0,0,1,.686.539,22.373,22.373,0,0,0,2.648,6.4.709.709,0,0,1-.1.87L2.94,52.593a1.235,1.235,0,0,0,0,1.741l5.092,5.089a1.235,1.235,0,0,0,1.741,0l1.915-1.915a.709.709,0,0,1,.87-.1,22.446,22.446,0,0,0,6.4,2.648.708.708,0,0,1,.542.686v2.715a1.233,1.233,0,0,0,1.232,1.232h7.2a1.232,1.232,0,0,0,1.229-1.232V60.739a.708.708,0,0,1,.542-.686,22.7,22.7,0,0,0,6.4-2.648.7.7,0,0,1,.867.1l1.915,1.915a1.226,1.226,0,0,0,.87.358h0a1.218,1.218,0,0,0,.867-.358l5.092-5.089a1.228,1.228,0,0,0,0-1.741l-1.918-1.918a.709.709,0,0,1-.1-.87,22.529,22.529,0,0,0,2.651-6.4.71.71,0,0,1,.69-.539h2.712a1.232,1.232,0,0,0,1.229-1.232V38.74Zm1.416-.71v3.6a2.649,2.649,0,0,1-2.645,2.648H47.595A23.98,23.98,0,0,1,45.2,50.062l1.527,1.53a2.643,2.643,0,0,1,0,3.743l-2.544,2.544-2.548,2.544a2.612,2.612,0,0,1-1.868.773h0a2.631,2.631,0,0,1-1.871-.773L36.366,58.9a24.04,24.04,0,0,1-5.785,2.394v2.163A2.649,2.649,0,0,1,27.936,66.1h-7.2a2.652,2.652,0,0,1-2.648-2.648V61.291A23.9,23.9,0,0,1,12.3,58.9l-1.527,1.527a2.651,2.651,0,0,1-3.743,0L1.939,55.335a2.654,2.654,0,0,1,0-3.743l1.53-1.53a23.767,23.767,0,0,1-2.394-5.785l-2.163,0a2.653,2.653,0,0,1-2.648-2.651v-3.6a.707.707,0,0,1,.71-.706h13.7a.7.7,0,0,1,.706.706,12.958,12.958,0,0,0,25.916,0,.707.707,0,0,1,.71-.706H51.7a.7.7,0,0,1,.706.706Zm-19.6-23.02a.671.671,0,0,0,.351-.1l1.175-.673a.709.709,0,1,0-.706-1.229l-1.175.676a.708.708,0,0,0,.355,1.322ZM28.846,11.34a.675.675,0,0,0,.355.1.713.713,0,0,0,.613-.355l.68-1.175a.709.709,0,0,0-1.229-.71l-.676,1.175a.707.707,0,0,0,.258.968ZM14.293,14.306l1.175.68a.68.68,0,0,0,.351.1.709.709,0,0,0,.358-1.322L15,13.081a.708.708,0,1,0-.71,1.225Zm4.489-3.184a.705.705,0,0,0,.613.355.671.671,0,0,0,.351-.1.707.707,0,0,0,.261-.968l-.676-1.172a.709.709,0,0,0-1.229.71Zm5.511-.978A.709.709,0,0,0,25,9.435V8.079a.708.708,0,0,0-1.416,0V9.435a.71.71,0,0,0,.71.71Zm.75,13.241v-.408a2.437,2.437,0,0,0,1.925-2.29c0-1.808-1.513-2.143-2.42-2.34-1.071-.238-1.182-.358-1.182-.773s.445-.74.971-.74a.887.887,0,0,1,.964.74.708.708,0,1,0,1.416,0,2.2,2.2,0,0,0-1.674-2.059v-.422a.708.708,0,0,0-1.416,0v.422a2.2,2.2,0,0,0-1.677,2.059c0,1.647,1.436,1.965,2.3,2.156,1.111.244,1.306.388,1.306.957a1.127,1.127,0,0,1-1.215.961,1.114,1.114,0,0,1-1.219-.961.708.708,0,0,0-1.416,0,2.437,2.437,0,0,0,1.925,2.29v.408a.708.708,0,1,0,1.416,0ZM45.2,27.4c-1.071-.238-1.182-.358-1.182-.773a1,1,0,0,1,1.932,0,.708.708,0,1,0,1.416,0A2.2,2.2,0,0,0,45.7,24.564v-.422a.708.708,0,0,0-1.416,0v.422a2.2,2.2,0,0,0-1.674,2.059c0,1.647,1.436,1.965,2.293,2.156,1.111.244,1.306.388,1.306.957a1.252,1.252,0,0,1-2.434,0,.708.708,0,0,0-1.416,0A2.427,2.427,0,0,0,44.28,32.02v.415a.708.708,0,1,0,1.416,0V32.02a2.427,2.427,0,0,0,1.925-2.283c0-1.808-1.513-2.143-2.417-2.34Zm5.782.891a6,6,0,0,0-11.8-1.53c.208.137.412.281.613.435a.707.707,0,0,1,.221.83,9.52,9.52,0,0,1-.874,1.644,6,6,0,0,0,11.838-1.379ZM37.8,29.134a.616.616,0,0,1,.054-.077,8.1,8.1,0,0,0,.636-1.068c-.134-.09-.271-.174-.408-.254a.74.74,0,0,1-.074-.04,8.019,8.019,0,0,0-11.155,3.411A8.032,8.032,0,0,0,37.8,29.134Zm-6.582,9.605H17.457a.542.542,0,0,0-.542.542v.4a.543.543,0,0,0,.542.546H31.213a.542.542,0,0,0,.539-.546v-.4A.542.542,0,0,0,31.213,38.739Zm.03,7.017-1.155-4.111H18.578l-1.152,4.111a.443.443,0,0,0,.107.412,1.345,1.345,0,0,0,1.011.489h11.58a1.364,1.364,0,0,0,1.011-.485.44.44,0,0,0,.107-.415ZM24.337,25.241a6,6,0,1,0-6-6A6.006,6.006,0,0,0,24.337,25.241Zm-2.514,5.866a8.022,8.022,0,0,0-11.634-3.117,8.114,8.114,0,0,0,.649,1.095.119.119,0,0,1,.023.033,8.032,8.032,0,0,0,10.961,1.989Zm-12.3-1.443a9.707,9.707,0,0,1-.87-1.64.707.707,0,0,1,.224-.83c.2-.154.4-.3.606-.432a6,6,0,1,0,.04,2.9ZM52.4,28.287A7.415,7.415,0,0,1,38.083,31a9.419,9.419,0,0,1-4.349,2.551,9.588,9.588,0,0,1-2.467.325,9.341,9.341,0,0,1-5.042-1.48,15.454,15.454,0,0,0-1.182,4.643v.288h6.17a1.96,1.96,0,0,1,1.955,1.959v.4a1.958,1.958,0,0,1-1.617,1.928l1.055,3.763a1.867,1.867,0,0,1-.341,1.654,2.775,2.775,0,0,1-2.139,1.045H18.545a2.762,2.762,0,0,1-2.139-1.048,1.85,1.85,0,0,1-.341-1.651l1.051-3.763A1.957,1.957,0,0,1,15.5,39.684v-.4a1.961,1.961,0,0,1,1.959-1.959h6.17v-.288a15.56,15.56,0,0,0-1.185-4.643,9.333,9.333,0,0,1-5.042,1.48,9.605,9.605,0,0,1-2.467-.325,9.4,9.4,0,0,1-4.346-2.554,7.418,7.418,0,1,1,.164-4.935,9.452,9.452,0,0,1,12.591,4.975c.1.167.191.352.285.549V26.623a7.414,7.414,0,1,1,1.416,0v4.952c.094-.2.187-.378.285-.542a9.448,9.448,0,0,1,12.588-4.975A7.415,7.415,0,0,1,52.4,28.287Zm-46.09,1.45A2.423,2.423,0,0,1,4.387,32.02v.415a.708.708,0,1,1-1.416,0V32.02a2.427,2.427,0,0,1-1.925-2.283.708.708,0,0,1,1.416,0,1.112,1.112,0,0,0,1.219.957A1.109,1.109,0,0,0,4.9,29.737c0-.569-.194-.713-1.306-.957-.857-.191-2.293-.509-2.293-2.156A2.2,2.2,0,0,1,2.97,24.565v-.422a.708.708,0,0,1,1.416,0v.422a2.2,2.2,0,0,1,1.677,2.059.708.708,0,1,1-1.416,0,.888.888,0,0,0-.968-.74.888.888,0,0,0-.968.74c0,.415.111.536,1.182.773.9.2,2.417.532,2.417,2.34Z" transform="translate(0 0)" fill="#070202"/>
    </g>
  </g>
</svg>
