<svg xmlns="http://www.w3.org/2000/svg" xmlns:xlink="http://www.w3.org/1999/xlink" width="106.16" height="106.16" viewBox="0 0 106.16 106.16">
  <defs>
    <filter id="Trazado_982547" x="0" y="0" width="106.16" height="106.16" filterUnits="userSpaceOnUse">
      <feOffset dy="3" input="SourceAlpha"/>
      <feGaussianBlur stdDeviation="3" result="blur"/>
      <feFlood flood-opacity="0.161"/>
      <feComposite operator="in" in2="blur"/>
      <feComposite in="SourceGraphic"/>
    </filter>
  </defs>
  <g id="Grupo_1225211" data-name="Grupo 1225211" transform="translate(-609.92 -920)">
    <g id="Grupo_1224991" data-name="Grupo 1224991" transform="translate(-1 -803.069)">
      <g id="Grupo_1206131" data-name="Grupo 1206131" transform="translate(0 -58.931)">
        <g id="Grupo_1203663" data-name="Grupo 1203663" transform="translate(0 -4797.878)">
          <g id="Grupo_1203345" data-name="Grupo 1203345" transform="translate(338.92 5174.875)">
            <g id="Grupo_1177900" data-name="Grupo 1177900" transform="translate(281 1411.003)">
              <g id="Grupo_1172010" data-name="Grupo 1172010" transform="translate(0)">
                <g id="Grupo_1171046" data-name="Grupo 1171046">
                  <g id="Grupo_1148525" data-name="Grupo 1148525">
                    <g transform="matrix(1, 0, 0, 1, -9, -6)" filter="url(#Trazado_982547)">
                      <g id="Trazado_982547-2" data-name="Trazado 982547" transform="translate(9 6)" fill="#e9f9fd">
                        <path d="M 44.0802001953125 86.660400390625 C 38.33124923706055 86.660400390625 32.75506210327148 85.53479766845703 27.50652503967285 83.31484985351562 C 22.43628692626953 81.17032623291016 17.88242530822754 78.09992218017578 13.97144985198975 74.18894958496094 C 10.06047534942627 70.27797698974609 6.99007511138916 65.72411346435547 4.845550060272217 60.65387344360352 C 2.625600099563599 55.40533828735352 1.500000238418579 49.82915115356445 1.500000238418579 44.0802001953125 C 1.500000238418579 38.33124923706055 2.625600099563599 32.75506210327148 4.845550060272217 27.50652503967285 C 6.99007511138916 22.43628692626953 10.06047534942627 17.88242530822754 13.97144985198975 13.97144985198975 C 17.88242530822754 10.06047534942627 22.43628692626953 6.99007511138916 27.50652503967285 4.845550060272217 C 32.75506210327148 2.625600099563599 38.33124923706055 1.500000238418579 44.0802001953125 1.500000238418579 C 49.82915115356445 1.500000238418579 55.40533828735352 2.625600099563599 60.65387344360352 4.845550060272217 C 65.72411346435547 6.99007511138916 70.27797698974609 10.06047534942627 74.18894958496094 13.97144985198975 C 78.09992218017578 17.88242530822754 81.17032623291016 22.43628692626953 83.31484985351562 27.50652503967285 C 85.53479766845703 32.75506210327148 86.660400390625 38.33124923706055 86.660400390625 44.0802001953125 C 86.660400390625 49.82915115356445 85.53479766845703 55.40533828735352 83.31484985351562 60.65387344360352 C 81.17032623291016 65.72411346435547 78.09992218017578 70.27797698974609 74.18894958496094 74.18894958496094 C 70.27797698974609 78.09992218017578 65.72411346435547 81.17032623291016 60.65387344360352 83.31484985351562 C 55.40533828735352 85.53479766845703 49.82915115356445 86.660400390625 44.0802001953125 86.660400390625 Z" stroke="none"/>
                        <path d="M 44.0802001953125 3 C 38.53308486938477 3 33.15349960327148 4.085746765136719 28.09085845947266 6.227058410644531 C 23.19941711425781 8.29595947265625 18.80581665039062 11.25841522216797 15.03211212158203 15.03211212158203 C 11.25841522216797 18.80581665039062 8.29595947265625 23.19941711425781 6.227058410644531 28.09085845947266 C 4.085746765136719 33.15349960327148 3 38.53308486938477 3 44.0802001953125 C 3 49.62731552124023 4.085746765136719 55.00691604614258 6.227058410644531 60.06954193115234 C 8.29595947265625 64.96098327636719 11.25841522216797 69.35458374023438 15.03211212158203 73.12828826904297 C 18.80581665039062 76.90198516845703 23.19941711425781 79.86444091796875 28.09085845947266 81.93334197998047 C 33.15349960327148 84.07466125488281 38.53308486938477 85.160400390625 44.0802001953125 85.160400390625 C 49.62731552124023 85.160400390625 55.00691604614258 84.07466125488281 60.06954193115234 81.93334197998047 C 64.96099853515625 79.86444091796875 69.35458374023438 76.90198516845703 73.12828826904297 73.12828826904297 C 76.90198516845703 69.35458374023438 79.86444091796875 64.96099853515625 81.93334197998047 60.06954193115234 C 84.07466125488281 55.00691604614258 85.160400390625 49.62731552124023 85.160400390625 44.0802001953125 C 85.160400390625 38.53308486938477 84.07466125488281 33.15349960327148 81.93334197998047 28.09085845947266 C 79.86444091796875 23.19941711425781 76.90198516845703 18.80581665039062 73.12828826904297 15.03211212158203 C 69.35458374023438 11.25841522216797 64.96098327636719 8.29595947265625 60.06954193115234 6.227058410644531 C 55.00691604614258 4.085746765136719 49.62731552124023 3 44.0802001953125 3 M 44.0802001953125 0 C 68.42502593994141 0 88.160400390625 19.73538970947266 88.160400390625 44.0802001953125 C 88.160400390625 68.42502593994141 68.42502593994141 88.160400390625 44.0802001953125 88.160400390625 C 19.73538970947266 88.160400390625 0 68.42502593994141 0 44.0802001953125 C 0 19.73538970947266 19.73538970947266 0 44.0802001953125 0 Z" stroke="none" fill="#1d7083"/>
                      </g>
                    </g>
                  </g>
                </g>
              </g>
            </g>
          </g>
        </g>
      </g>
    </g>
    <g id="dolar" transform="translate(633.352 940.544)">
      <g id="Grupo_1225209" data-name="Grupo 1225209" transform="translate(0.869 0.86)">
        <g id="Grupo_1225206" data-name="Grupo 1225206" transform="translate(0 16.212)">
          <g id="Grupo_1225205" data-name="Grupo 1225205">
            <g id="Grupo_1225203" data-name="Grupo 1225203">
              <path id="Trazado_1175055" data-name="Trazado 1175055" d="M33.733,188.768H23.16a32.161,32.161,0,0,1,0-5.766A102.581,102.581,0,0,1,7.5,169.147c.675-11.2.682-11.3.02-21.436-.007-.1-.013-.2-.02-.3,6.266,0,6.269,3.939,6.269,16.994l3.21,2.929h0c3.73-2.786,6.775.607,16.688,9.235A77.2,77.2,0,0,1,33.733,188.768Z" transform="translate(-7.5 -147.412)" fill="#ffe6c7"/>
              <path id="Trazado_1175056" data-name="Trazado 1175056" d="M94.468,333.593h-3.2a90.731,90.731,0,0,0-.3-10.838c-6.278-7.084-10.114-9.617-14.778-9.172l1.524-1.422h0c3.73-2.786,6.775.607,16.688,9.235A77.2,77.2,0,0,1,94.468,333.593Z" transform="translate(-68.235 -292.238)" fill="#ffd5b0"/>
              <path id="Trazado_1175057" data-name="Trazado 1175057" d="M43.126,195.392c.366-6.762,1.5-15.594-4.9-15.594H36v15.567Z" transform="translate(-32.701 -176.047)" fill="#ffe6c7"/>
              <path id="Trazado_1175058" data-name="Trazado 1175058" d="M16.979,167.335c-7.253.542-6.194-4.846-6.194-8.4,0-6.791-.749-10.134-3.266-11.223-.007-.1-.013-.2-.02-.3,6.266,0,6.269,3.939,6.269,16.994Z" transform="translate(-7.5 -147.412)" fill="#ffd5b0"/>
            </g>
            <g id="Grupo_1225204" data-name="Grupo 1225204" transform="translate(31.118)">
              <path id="Trazado_1175059" data-name="Trazado 1175059" d="M276.4,188.768h10.573a32.158,32.158,0,0,0,0-5.766,102.587,102.587,0,0,0,15.66-13.855c-.675-11.2-.682-11.3-.02-21.436.007-.1.013-.2.02-.3-6.266,0-6.269,3.939-6.269,16.994l-3.21,2.929h0c-3.73-2.786-6.775.607-16.688,9.235A77.2,77.2,0,0,0,276.4,188.768Z" transform="translate(-276.193 -147.412)" fill="#ffe6c7"/>
              <path id="Trazado_1175060" data-name="Trazado 1175060" d="M276.4,333.593h3.2a90.73,90.73,0,0,1,.3-10.838c6.278-7.084,10.114-9.617,14.778-9.172l-1.524-1.422h0c-3.73-2.786-6.775.607-16.688,9.235A77.2,77.2,0,0,0,276.4,333.593Z" transform="translate(-276.193 -292.238)" fill="#ffd5b0"/>
              <path id="Trazado_1175061" data-name="Trazado 1175061" d="M412.07,195.392c-.366-6.762-1.5-15.594,4.9-15.594h2.226v15.567Z" transform="translate(-396.055 -176.047)" fill="#ffe6c7"/>
              <path id="Trazado_1175062" data-name="Trazado 1175062" d="M422.647,167.335c7.253.542,6.194-4.846,6.194-8.4,0-6.791.749-10.134,3.266-11.223.007-.1.013-.2.02-.3-6.266,0-6.269,3.939-6.269,16.994Z" transform="translate(-405.686 -147.412)" fill="#ffd5b0"/>
            </g>
          </g>
        </g>
        <g id="Grupo_1225208" data-name="Grupo 1225208" transform="translate(12.874)">
          <g id="Grupo_1225207" data-name="Grupo 1225207">
            <path id="Trazado_1175063" data-name="Trazado 1175063" d="M150.582,23.386A15.96,15.96,0,0,1,134.62,39.344q-.731,0-1.448-.065a15.959,15.959,0,0,1,0-31.787q.716-.064,1.448-.065A15.96,15.96,0,0,1,150.582,23.386Z" transform="translate(-118.659 -7.427)" fill="#fff18d"/>
            <path id="Trazado_1175064" data-name="Trazado 1175064" d="M261.388,23.386a15.96,15.96,0,0,1-15.961,15.958q-.731,0-1.448-.065a15.959,15.959,0,0,0,0-31.787q.716-.064,1.448-.065A15.96,15.96,0,0,1,261.388,23.386Z" transform="translate(-229.465 -7.427)" fill="#ffd366"/>
          </g>
          <path id="Trazado_1175065" data-name="Trazado 1175065" d="M182.446,60.053A11.164,11.164,0,1,1,171.288,48.9a11.158,11.158,0,0,1,11.159,11.156Z" transform="translate(-155.326 -44.094)" fill="#ffd366"/>
          <path id="Trazado_1175066" data-name="Trazado 1175066" d="M254.817,60.053a11.164,11.164,0,0,1-12.838,11.03,11.157,11.157,0,0,0,0-22.06,11.164,11.164,0,0,1,12.838,11.03Z" transform="translate(-227.697 -44.094)" fill="#ffaf5f"/>
        </g>
      </g>
      <g id="Grupo_1225210" data-name="Grupo 1225210" transform="translate(0 0)">
        <path id="Trazado_1175067" data-name="Trazado 1175067" d="M365.359,426.671c-1.076.837-2.158,1.639-3.214,2.382a.869.869,0,0,0-.364.8,31.31,31.31,0,0,1,0,5.577.869.869,0,0,0,.767.96.891.891,0,0,0,.1.005.869.869,0,0,0,.862-.773,31.725,31.725,0,0,0,.044-5.434c.948-.677,1.913-1.4,2.873-2.143a.869.869,0,1,0-1.067-1.371Z" transform="translate(-319.877 -377.095)"/>
        <path id="Trazado_1175068" data-name="Trazado 1175068" d="M296.861,162.886a196.186,196.186,0,0,1,0-21.6.869.869,0,0,0-.867-.925c-3.359,0-5.231,1.135-6.172,3.774a5.079,5.079,0,0,0-3.366,1.564c-2.533,2.693-2.189,8.279-1.886,13.208q.014.22.027.439a5.233,5.233,0,0,0-2.8.435c-2.34.971-5.078,3.375-9.615,7.357-.922.809-1.875,1.646-2.923,2.557a.869.869,0,0,0-.294.568,77.133,77.133,0,0,0-.067,12.336.869.869,0,0,0,.865.8l.067,0a.869.869,0,0,0,.8-.932,77.99,77.99,0,0,1,.033-11.69c.948-.825,1.82-1.591,2.665-2.333,8.464-7.431,10.38-8.942,13.463-5.942-1.2,1.071-3.9,3.437-6.962,5.917a.869.869,0,0,0,1.094,1.35c4.164-3.376,7.667-6.545,7.7-6.576a.868.868,0,0,0,.058-1.23q-.431-.471-.846-.857l2.476-2.261a.868.868,0,0,0,.283-.641c0-6.4,0-10.632.749-13.127a3.645,3.645,0,0,1,3.732-2.944,200.021,200.021,0,0,0,.032,20.491,103.936,103.936,0,0,1-8.873,8.468.869.869,0,1,0,1.124,1.324,103.14,103.14,0,0,0,9.287-8.9A.868.868,0,0,0,296.861,162.886Zm-8.005-5.064-2.421,2.211-.057-.034q-.034-.59-.072-1.2c-.282-4.577-.6-9.765,1.417-11.911a3.177,3.177,0,0,1,1.63-.925C288.867,148.647,288.856,152.48,288.856,157.822Z" transform="translate(-237.566 -124.107)"/>
        <path id="Trazado_1175069" data-name="Trazado 1175069" d="M180.7,351.257c-1.048-.911-2-1.748-2.923-2.557-1.147-1.007-2.231-1.958-3.2-2.787a.869.869,0,0,0-1.131,1.319c.958.822,1.989,1.726,3.181,2.774.845.742,1.717,1.508,2.665,2.333a78,78,0,0,1,.033,11.69.869.869,0,0,0,.8.932l.067,0a.869.869,0,0,0,.865-.8A77.113,77.113,0,0,0,181,351.825.869.869,0,0,0,180.7,351.257Z" transform="translate(-153.095 -305.667)"/>
        <path id="Trazado_1175070" data-name="Trazado 1175070" d="M18.066,161.579c-2.346-1.728-4.156-2.475-5.832-2.226l.03-.486c.306-4.915.652-10.487-1.871-13.171a5.061,5.061,0,0,0-3.353-1.559c-.94-2.64-2.813-3.774-6.172-3.774a.869.869,0,0,0-.869.869c0,.02,0,.039,0,.059.678,10.359.678,10.359,0,21.6a.869.869,0,0,0,.218.63,104.709,104.709,0,0,0,15.4,13.682,31.727,31.727,0,0,0,.044,5.434.869.869,0,0,0,.862.772.889.889,0,0,0,.1-.005.869.869,0,0,0,.767-.96,31.376,31.376,0,0,1,0-5.577.869.869,0,0,0-.364-.8,103.08,103.08,0,0,1-15.272-13.44c.642-10.632.656-11.075.04-20.491a3.642,3.642,0,0,1,3.723,2.944c.749,2.495.749,6.724.749,13.127a.869.869,0,0,0,.283.641l2.476,2.26q-.417.387-.846.858a.868.868,0,0,0,.058,1.23c.035.031,3.538,3.2,7.7,6.576a.869.869,0,1,0,1.094-1.349c-3.058-2.479-5.755-4.844-6.961-5.916a4.18,4.18,0,0,1,2.76-1.459c1.058-.026,2.353.572,4.2,1.932a.869.869,0,0,0,1.031-1.4Zm-7.535-2.82q-.039.634-.076,1.254l-.028.017-2.419-2.209c0-5.341-.012-9.174-.5-11.855a3.158,3.158,0,0,1,1.617.919C11.136,149.022,10.814,154.2,10.53,158.759Z" transform="translate(0 -124.106)"/>
        <path id="Trazado_1175071" data-name="Trazado 1175071" d="M155.064,57.183a.869.869,0,1,0-1.619.629,12.025,12.025,0,1,0-.811-4.348.869.869,0,0,0,1.737,0,10.258,10.258,0,1,1,.693,3.719Z" transform="translate(-134.956 -36.645)"/>
        <path id="Trazado_1175072" data-name="Trazado 1175072" d="M144.82,16.819a16.69,16.69,0,0,0-3.181-9.842A.869.869,0,1,0,140.231,8a15.1,15.1,0,1,1-12.242-6.258,15.119,15.119,0,0,1,9.632,3.47.869.869,0,0,0,1.109-1.337,16.817,16.817,0,1,0,6.089,12.949Z" transform="translate(-98.285 0)"/>
        <path id="Trazado_1175073" data-name="Trazado 1175073" d="M230.039,88.469a1.727,1.727,0,0,1-1.726-1.724.869.869,0,0,0-1.737,0A3.468,3.468,0,0,0,229.17,90.1v1.186a.869.869,0,0,0,1.737,0V90.1a3.462,3.462,0,0,0-.869-6.813,1.725,1.725,0,1,1,1.726-1.725.869.869,0,1,0,1.737,0,3.468,3.468,0,0,0-2.595-3.352V77.021a.869.869,0,0,0-1.737,0v1.187a3.462,3.462,0,0,0,.869,6.813,1.724,1.724,0,1,1,0,3.449Z" transform="translate(-200.334 -67.333)"/>
      </g>
    </g>
  </g>
</svg>
