<svg xmlns="http://www.w3.org/2000/svg" xmlns:xlink="http://www.w3.org/1999/xlink" width="108" height="108" viewBox="0 0 108 108">
  <defs>
    <filter id="Trazado_904820" x="0" y="0" width="108" height="108" filterUnits="userSpaceOnUse">
      <feOffset dy="3" input="SourceAlpha"/>
      <feGaussianBlur stdDeviation="3" result="blur"/>
      <feFlood flood-opacity="0.161"/>
      <feComposite operator="in" in2="blur"/>
      <feComposite in="SourceGraphic"/>
    </filter>
  </defs>
  <g id="Grupo_1225248" data-name="Grupo 1225248" transform="translate(-619 -913)">
    <g id="Grupo_1225071" data-name="Grupo 1225071" transform="translate(419.5 -2272.108)">
      <g id="Grupo_1219746" data-name="Grupo 1219746" transform="translate(0 1895.108)">
        <g id="Grupo_1202418" data-name="Grupo 1202418" transform="translate(-419.977 876.813)">
          <g id="Grupo_1177315" data-name="Grupo 1177315" transform="translate(-0.523 -112.813)">
            <g id="Grupo_1173585" data-name="Grupo 1173585" transform="translate(629 532)">
              <g id="Grupo_1173428" data-name="Grupo 1173428" transform="translate(0 0)">
                <g id="Grupo_1171958" data-name="Grupo 1171958">
                  <g id="Grupo_1167341" data-name="Grupo 1167341">
                    <g id="Grupo_1166792" data-name="Grupo 1166792">
                      <g transform="matrix(1, 0, 0, 1, -9, -6)" filter="url(#Trazado_904820)">
                        <g id="Trazado_904820-2" data-name="Trazado 904820" transform="translate(9 6)" fill="#fff4e6">
                          <path d="M 44.99999618530273 88.49999237060547 C 39.12687301635742 88.49999237060547 33.43022155761719 87.35006713867188 28.06829643249512 85.08216857910156 C 22.88852119445801 82.89130401611328 18.23629570007324 79.75457763671875 14.24084663391113 75.75914001464844 C 10.24540901184082 71.76369476318359 7.108683586120605 67.11146545410156 4.917821407318115 61.93169403076172 C 2.649921178817749 56.56976699829102 1.499996185302734 50.87311553955078 1.499996185302734 44.99999237060547 C 1.499996185302734 39.12686920166016 2.649921178817749 33.43021774291992 4.917821407318115 28.06829261779785 C 7.108683586120605 22.88851737976074 10.24540901184082 18.23630523681641 14.24084663391113 14.24085521697998 C 18.23629570007324 10.24540519714355 22.88852119445801 7.108692169189453 28.06829643249512 4.917829990386963 C 33.43022155761719 2.649929761886597 39.12687301635742 1.500004887580872 44.99999618530273 1.500004887580872 C 50.87311935424805 1.500004887580872 56.56977081298828 2.649929761886597 61.93169784545898 4.917829990386963 C 67.11147308349609 7.108692169189453 71.76369476318359 10.24540519714355 75.75914764404297 14.24085521697998 C 79.75458526611328 18.23630523681641 82.89131164550781 22.88851737976074 85.08216857910156 28.06829261779785 C 87.35007476806641 33.43021774291992 88.5 39.12686920166016 88.5 44.99999237060547 C 88.5 50.87311553955078 87.35007476806641 56.56976699829102 85.08216857910156 61.93169403076172 C 82.89131164550781 67.11146545410156 79.75458526611328 71.76369476318359 75.75914764404297 75.75914001464844 C 71.76369476318359 79.75457763671875 67.11147308349609 82.89130401611328 61.93169784545898 85.08216857910156 C 56.56977081298828 87.35006713867188 50.87311935424805 88.49999237060547 44.99999618530273 88.49999237060547 Z" stroke="none"/>
                          <path d="M 44.99999618530273 2.999992370605469 C 39.32870864868164 2.999992370605469 33.82865142822266 4.11004638671875 28.65262603759766 6.299331665039062 C 23.65165710449219 8.414566040039062 19.15968322753906 11.44333648681641 15.301513671875 15.30150604248047 C 11.44333648681641 19.15967559814453 8.414566040039062 23.65164947509766 6.299339294433594 28.65262222290039 C 4.110054016113281 33.82864761352539 2.999992370605469 39.32870483398438 2.999992370605469 44.99999237060547 C 2.999992370605469 50.67127990722656 4.110054016113281 56.17132186889648 6.299339294433594 61.34736633300781 C 8.414566040039062 66.34833526611328 11.44333648681641 70.84029388427734 15.301513671875 74.69846343994141 C 19.15968322753906 78.55663299560547 23.65165710449219 81.58540344238281 28.65262603759766 83.70063781738281 C 33.82865142822266 85.88992309570312 39.32870864868164 86.99997711181641 44.99999618530273 86.99997711181641 C 50.67128372192383 86.99997711181641 56.17134094238281 85.88992309570312 61.34736633300781 83.70063781738281 C 66.34834289550781 81.58540344238281 70.84030914306641 78.55663299560547 74.69847869873047 74.69846343994141 C 78.55665588378906 70.84029388427734 81.58542633056641 66.34833526611328 83.70065307617188 61.34736633300781 C 85.88993835449219 56.17132186889648 87 50.67127990722656 87 44.99999237060547 C 87 39.32870483398438 85.88993835449219 33.82864761352539 83.70065307617188 28.65262222290039 C 81.58542633056641 23.65164947509766 78.55665588378906 19.15967559814453 74.69847869873047 15.30150604248047 C 70.84030914306641 11.44333648681641 66.34834289550781 8.414566040039062 61.34736633300781 6.299331665039062 C 56.17134094238281 4.11004638671875 50.67128372192383 2.999992370605469 44.99999618530273 2.999992370605469 M 44.99999618530273 -7.62939453125e-06 C 69.85281372070312 -7.62939453125e-06 90 20.14717864990234 90 44.99999237060547 C 90 69.85279083251953 69.85281372070312 89.99997711181641 44.99999618530273 89.99997711181641 C 20.14717864990234 89.99997711181641 -7.62939453125e-06 69.85279083251953 -7.62939453125e-06 44.99999237060547 C -7.62939453125e-06 20.14717864990234 20.14717864990234 -7.62939453125e-06 44.99999618530273 -7.62939453125e-06 Z" stroke="none" fill="#ff9d1c"/>
                        </g>
                      </g>
                    </g>
                  </g>
                </g>
              </g>
            </g>
          </g>
        </g>
      </g>
    </g>
    <g id="economia_2_" data-name="economia (2)" transform="translate(640 931.002)">
      <g id="Grupo_1225246" data-name="Grupo 1225246" transform="translate(0.967 0.966)">
        <g id="Grupo_1225245" data-name="Grupo 1225245">
          <path id="Trazado_1175265" data-name="Trazado 1175265" d="M49.622,10.091,42.94,7.58a1.216,1.216,0,0,0-1.627,1.337l.28,1.691A30.706,30.706,0,0,0,21.367,34.739a1.9,1.9,0,1,0,3.748.59A26.9,26.9,0,0,1,42.223,14.412l.257,1.548a1.216,1.216,0,0,0,1.971.74l5.515-4.532a1.216,1.216,0,0,0-.344-2.077Z" transform="translate(-19.559 -7.501)" fill="#0ed2b3"/>
          <path id="Trazado_1175266" data-name="Trazado 1175266" d="M304.2,41.315l-1.691.28a30.706,30.706,0,0,0-24.131-20.226,1.9,1.9,0,0,0-.59,3.748,26.9,26.9,0,0,1,20.918,17.109l-1.548.257a1.216,1.216,0,0,0-.74,1.971l4.532,5.515a1.216,1.216,0,0,0,2.077-.344l2.511-6.682A1.216,1.216,0,0,0,304.2,41.315Z" transform="translate(-241.553 -19.561)" fill="#0ed2b3"/>
          <path id="Trazado_1175267" data-name="Trazado 1175267" d="M292.636,276.213a1.9,1.9,0,0,0-2.169,1.579,26.9,26.9,0,0,1-17.109,20.918l-.257-1.548a1.216,1.216,0,0,0-1.971-.74l-5.515,4.532a1.216,1.216,0,0,0,.344,2.077l6.682,2.511a1.216,1.216,0,0,0,1.627-1.337l-.28-1.691a30.706,30.706,0,0,0,20.226-24.131A1.9,1.9,0,0,0,292.636,276.213Z" transform="translate(-231.956 -241.554)" fill="#0ed2b3"/>
          <path id="Trazado_1175268" data-name="Trazado 1175268" d="M35.328,290.468a26.9,26.9,0,0,1-20.918-17.109l1.548-.257a1.216,1.216,0,0,0,.74-1.971l-4.532-5.515a1.216,1.216,0,0,0-2.077.344l-2.511,6.682a1.216,1.216,0,0,0,1.337,1.627l1.691-.28a30.706,30.706,0,0,0,24.131,20.226,1.9,1.9,0,1,0,.59-3.748Z" transform="translate(-7.5 -231.957)" fill="#0ed2b3"/>
        </g>
        <circle id="Elipse_12653" data-name="Elipse 12653" cx="18.772" cy="18.772" r="18.772" transform="translate(13.261 13.261)" fill="#fef48b"/>
        <path id="Trazado_1175269" data-name="Trazado 1175269" d="M130.8,147.843q-.816.072-1.653.072a18.773,18.773,0,1,1,0-37.545q.835,0,1.653.072a18.773,18.773,0,0,0,0,37.4Z" transform="translate(-97.112 -97.11)" fill="#fee45a"/>
        <circle id="Elipse_12654" data-name="Elipse 12654" cx="14.01" cy="14.01" r="14.01" transform="translate(18.023 18.023)" fill="#fee45a"/>
        <path id="Trazado_1175270" data-name="Trazado 1175270" d="M252.5,161.33a14.014,14.014,0,0,1-16.6,13.768,14.011,14.011,0,0,0,0-27.537,14.014,14.014,0,0,1,16.6,13.768Z" transform="translate(-206.453 -129.296)" fill="#ffd15b"/>
      </g>
      <g id="Grupo_1225247" data-name="Grupo 1225247" transform="translate(0 -0.002)">
        <path id="Trazado_1175271" data-name="Trazado 1175271" d="M16.268,31.328a2.884,2.884,0,0,0,.448.035,2.849,2.849,0,0,0,2.826-2.419A25.858,25.858,0,0,1,34.938,9.22l.06.363a2.182,2.182,0,0,0,3.538,1.329l5.515-4.532a2.182,2.182,0,0,0-.618-3.729L36.752.141a2.182,2.182,0,0,0-2.921,2.4l.149.9a31.677,31.677,0,0,0-20.1,24.616,2.863,2.863,0,0,0,2.384,3.274Zm-.474-2.973A29.739,29.739,0,0,1,35.381,4.987a.967.967,0,0,0,.638-1.072l-.28-1.691a.238.238,0,0,1,.088-.233.242.242,0,0,1,.154-.058.258.258,0,0,1,.091.018l6.682,2.511a.249.249,0,0,1,.07.425L37.309,9.419a.249.249,0,0,1-.4-.152l-.257-1.548a.967.967,0,0,0-1.292-.748A27.794,27.794,0,0,0,17.632,28.644a.928.928,0,0,1-1.063.774.93.93,0,0,1-.774-1.063Z" transform="translate(-12.063 0.002)"/>
        <path id="Trazado_1175272" data-name="Trazado 1175272" d="M299.555,34.6a2.158,2.158,0,0,0-2.042-.767l-.9.148A31.676,31.676,0,0,0,272,13.887a2.863,2.863,0,1,0-.891,5.657,25.449,25.449,0,0,1,3.118.694.967.967,0,1,0,.538-1.857,27.378,27.378,0,0,0-3.355-.747.93.93,0,0,1-.4-1.671.922.922,0,0,1,.692-.166,29.738,29.738,0,0,1,23.367,19.586.967.967,0,0,0,1.071.638l1.692-.28a.248.248,0,0,1,.272.333l-2.511,6.682a.248.248,0,0,1-.424.07l-4.531-5.514a.249.249,0,0,1,.151-.4l1.548-.257a.967.967,0,0,0,.748-1.292,27.9,27.9,0,0,0-13.968-15.308.967.967,0,1,0-.842,1.74A25.99,25.99,0,0,1,290.832,34.94l-.363.06a2.182,2.182,0,0,0-1.328,3.538l4.531,5.514a2.157,2.157,0,0,0,1.677.8,2.249,2.249,0,0,0,.367-.03,2.159,2.159,0,0,0,1.685-1.385l2.511-6.68a2.159,2.159,0,0,0-.356-2.154Z" transform="translate(-234.054 -12.066)"/>
        <path id="Trazado_1175273" data-name="Trazado 1175273" d="M286.246,268.723a2.864,2.864,0,0,0-3.274,2.384,25.856,25.856,0,0,1-15.4,19.724l-.06-.363a2.182,2.182,0,0,0-3.538-1.328l-5.514,4.531a2.182,2.182,0,0,0,.618,3.728l6.68,2.511a2.2,2.2,0,0,0,.777.143,2.186,2.186,0,0,0,2.145-2.541l-.148-.9a31.115,31.115,0,0,0,2.916-1.268.967.967,0,1,0-.862-1.731,29.287,29.287,0,0,1-3.456,1.45.966.966,0,0,0-.637,1.071l.28,1.692a.248.248,0,0,1-.333.272l-6.682-2.511a.248.248,0,0,1-.07-.424l5.514-4.531a.249.249,0,0,1,.4.151l.256,1.548a.967.967,0,0,0,1.292.748,27.794,27.794,0,0,0,17.725-21.673.93.93,0,1,1,1.837.29,29.785,29.785,0,0,1-12.456,19.75.967.967,0,0,0,1.1,1.59A31.728,31.728,0,0,0,288.628,272a2.863,2.863,0,0,0-2.382-3.275Z" transform="translate(-224.45 -234.052)"/>
        <path id="Trazado_1175274" data-name="Trazado 1175274" d="M28.946,282.974a25.857,25.857,0,0,1-19.724-15.4l.363-.06a2.182,2.182,0,0,0,1.329-3.538l-4.532-5.515a2.182,2.182,0,0,0-3.729.618L.142,265.765a2.182,2.182,0,0,0,2.4,2.921l.9-.149a31.677,31.677,0,0,0,24.616,20.1,2.881,2.881,0,0,0,.448.035,2.864,2.864,0,0,0,.443-5.693Zm.473,2.974a.928.928,0,0,1-1.063.774A29.738,29.738,0,0,1,4.989,267.135a.966.966,0,0,0-1.072-.638l-1.691.28a.249.249,0,0,1-.274-.333l2.511-6.681a.249.249,0,0,1,.425-.07l4.532,5.515a.249.249,0,0,1-.152.4l-1.548.257a.967.967,0,0,0-.748,1.292,27.8,27.8,0,0,0,21.673,17.725.93.93,0,0,1,.774,1.063Z" transform="translate(0 -224.452)"/>
        <path id="Trazado_1175275" data-name="Trazado 1175275" d="M142.355,122.616a19.738,19.738,0,1,0-19.738,19.739A19.761,19.761,0,0,0,142.355,122.616Zm-19.738,17.8a17.8,17.8,0,1,1,17.8-17.8A17.825,17.825,0,0,1,122.616,140.421Z" transform="translate(-89.616 -89.616)"/>
        <path id="Trazado_1175276" data-name="Trazado 1175276" d="M154.8,139.824a14.984,14.984,0,0,0-14.471,18.84.967.967,0,0,0,1.868-.5,13.049,13.049,0,1,1,1.712,3.812.967.967,0,0,0-1.614,1.065,14.976,14.976,0,1,0,12.5-23.218Z" transform="translate(-121.8 -121.8)"/>
        <path id="Trazado_1175277" data-name="Trazado 1175277" d="M221.336,195.169a.967.967,0,0,0-1.059,1.618,5.807,5.807,0,0,0,3.17,1.111v1.046a.967.967,0,1,0,1.933,0v-1.122a4.736,4.736,0,0,0,3.717-3.885,4.158,4.158,0,0,0-2.862-4.758c-.281-.1-.568-.2-.854-.312v-4.574a2.98,2.98,0,0,1,1.177.564.967.967,0,1,0,1.236-1.487,5.082,5.082,0,0,0-2.414-1.042v-.935a.967.967,0,1,0-1.933,0V182.4c-.143.032-.289.069-.438.113a3.937,3.937,0,0,0-2.7,3.089,3.467,3.467,0,0,0,1.135,3.416,9.338,9.338,0,0,0,2,1.145v5.8A3.97,3.97,0,0,1,221.336,195.169Zm1.305-7.671a1.559,1.559,0,0,1-.428-1.536,2.046,2.046,0,0,1,1.235-1.554v3.606A5.8,5.8,0,0,1,222.641,187.5Zm2.95,3.5a2.256,2.256,0,0,1,1.6,2.614,2.842,2.842,0,0,1-1.81,2.2v-4.886Z" transform="translate(-191.501 -157.169)"/>
      </g>
    </g>
  </g>
</svg>
