<svg xmlns="http://www.w3.org/2000/svg" width="442.524" height="375.116" viewBox="0 0 442.524 375.116">
  <g id="Grupo_1227805" data-name="Grupo 1227805" transform="translate(-266.676 -1965)">
    <path id="Trazado_1091086" data-name="Trazado 1091086" d="M247.664,1485.095v305.257H599.2" transform="translate(109 480.905)" fill="none" stroke="#707070" stroke-linecap="round" stroke-width="2"/>
    <path id="Trazado_1183340" data-name="Trazado 1183340" d="M11.408,19H9.773L8.438,15.467H3.094L1.837,19H.193L5.027,6.4H6.557ZM7.954,14.14,5.977,8.77a5.142,5.142,0,0,1-.193-.844H5.748a4.708,4.708,0,0,1-.2.844l-1.96,5.37ZM14.513,19H13.071V5.676h1.441ZM18.171,7.715a.913.913,0,0,1-.659-.264.89.89,0,0,1-.272-.668.923.923,0,0,1,.932-.94.931.931,0,0,1,.672.268.939.939,0,0,1,0,1.332A.923.923,0,0,1,18.171,7.715ZM18.874,19H17.432V10h1.441Zm15.7,0H33.131V13.832a3.9,3.9,0,0,0-.461-2.162A1.75,1.75,0,0,0,31.119,11a1.921,1.921,0,0,0-1.569.844,3.228,3.228,0,0,0-.646,2.021V19H27.462V13.656Q27.462,11,25.415,11a1.9,1.9,0,0,0-1.564.8,3.288,3.288,0,0,0-.615,2.07V19H21.793V10h1.441v1.424h.035a3.058,3.058,0,0,1,2.795-1.635,2.6,2.6,0,0,1,2.549,1.863A3.212,3.212,0,0,1,31.6,9.789q2.971,0,2.971,3.665Zm9.96-4.14H38.178a3.366,3.366,0,0,0,.809,2.32A2.788,2.788,0,0,0,41.114,18a4.422,4.422,0,0,0,2.795-1V18.35a5.224,5.224,0,0,1-3.138.861,3.8,3.8,0,0,1-3-1.226,5.018,5.018,0,0,1-1.09-3.45,4.921,4.921,0,0,1,1.191-3.423,3.819,3.819,0,0,1,2.958-1.323,3.384,3.384,0,0,1,2.733,1.143,4.764,4.764,0,0,1,.967,3.173Zm-1.477-1.222a2.933,2.933,0,0,0-.6-1.942A2.051,2.051,0,0,0,40.806,11a2.328,2.328,0,0,0-1.731.729,3.31,3.31,0,0,0-.879,1.907ZM54.185,19H52.743V13.867Q52.743,11,50.652,11a2.269,2.269,0,0,0-1.789.813,3.013,3.013,0,0,0-.708,2.052V19H46.714V10h1.441v1.494h.035a3.248,3.248,0,0,1,2.953-1.705,2.753,2.753,0,0,1,2.259.954,4.248,4.248,0,0,1,.782,2.755Zm6.892-.088a2.779,2.779,0,0,1-1.345.281q-2.364,0-2.364-2.637V11.23H55.821V10h1.547V7.8l1.441-.466V10h2.268v1.23H58.81V16.3a2.1,2.1,0,0,0,.308,1.292,1.228,1.228,0,0,0,1.02.387,1.515,1.515,0,0,0,.94-.3Zm5.688.3a4.175,4.175,0,0,1-3.186-1.261,4.672,4.672,0,0,1-1.191-3.344,4.867,4.867,0,0,1,1.239-3.542,4.455,4.455,0,0,1,3.349-1.274,4.037,4.037,0,0,1,3.142,1.239,4.914,4.914,0,0,1,1.129,3.437,4.835,4.835,0,0,1-1.217,3.45A4.265,4.265,0,0,1,66.766,19.211ZM66.871,11a2.742,2.742,0,0,0-2.2.945,3.88,3.88,0,0,0-.809,2.606,3.67,3.67,0,0,0,.817,2.522A2.778,2.778,0,0,0,66.871,18a2.635,2.635,0,0,0,2.149-.905,3.929,3.929,0,0,0,.751-2.575,4,4,0,0,0-.751-2.6A2.623,2.623,0,0,0,66.871,11Zm6.137,7.673V17.128A4.266,4.266,0,0,0,75.6,18q1.9,0,1.9-1.266a1.1,1.1,0,0,0-.163-.611,1.62,1.62,0,0,0-.439-.444,3.383,3.383,0,0,0-.65-.347q-.374-.154-.8-.321a10.357,10.357,0,0,1-1.05-.479,3.173,3.173,0,0,1-.756-.545,2.028,2.028,0,0,1-.457-.69,2.441,2.441,0,0,1-.154-.905,2.15,2.15,0,0,1,.29-1.121,2.572,2.572,0,0,1,.773-.817,3.607,3.607,0,0,1,1.1-.5,4.893,4.893,0,0,1,1.279-.167,5.164,5.164,0,0,1,2.092.4v1.459A4.077,4.077,0,0,0,76.277,11a2.671,2.671,0,0,0-.729.092,1.786,1.786,0,0,0-.558.259,1.2,1.2,0,0,0-.36.4,1.053,1.053,0,0,0-.127.514,1.233,1.233,0,0,0,.127.589,1.3,1.3,0,0,0,.374.422,2.855,2.855,0,0,0,.6.334q.352.149.8.325a11.131,11.131,0,0,1,1.072.47,3.678,3.678,0,0,1,.809.545,2.129,2.129,0,0,1,.514.7,2.254,2.254,0,0,1,.18.94,2.217,2.217,0,0,1-.294,1.16,2.523,2.523,0,0,1-.787.817,3.6,3.6,0,0,1-1.134.483,5.6,5.6,0,0,1-1.345.158A5.106,5.106,0,0,1,73.008,18.675Z" transform="translate(261 2147.905) rotate(-90)" fill="#212429"/>
    <path id="Trazado_1183341" data-name="Trazado 1183341" d="M8.332,19H1.652V6.4h6.4V7.732H3.129v4.192H7.682v1.327H3.129v4.412h5.2Zm9.7,0H16.6V13.867Q16.6,11,14.5,11a2.269,2.269,0,0,0-1.789.813,3.013,3.013,0,0,0-.708,2.052V19H10.566V10h1.441v1.494h.035A3.248,3.248,0,0,1,15,9.789a2.753,2.753,0,0,1,2.259.954,4.248,4.248,0,0,1,.782,2.755Zm6.892-.088a2.779,2.779,0,0,1-1.345.281q-2.364,0-2.364-2.637V11.23H19.674V10H21.22V7.8l1.441-.466V10h2.268v1.23H22.662V16.3a2.1,2.1,0,0,0,.308,1.292,1.228,1.228,0,0,0,1.02.387,1.515,1.515,0,0,0,.94-.3Zm6.62-7.453a1.763,1.763,0,0,0-1.09-.29,1.839,1.839,0,0,0-1.542.87,4.023,4.023,0,0,0-.62,2.373V19H26.856V10H28.3v1.854h.035a3.143,3.143,0,0,1,.94-1.481,2.144,2.144,0,0,1,1.415-.532,2.353,2.353,0,0,1,.861.123Zm8.8,3.4H33.995a3.366,3.366,0,0,0,.809,2.32A2.788,2.788,0,0,0,36.93,18a4.422,4.422,0,0,0,2.795-1V18.35a5.224,5.224,0,0,1-3.138.861,3.8,3.8,0,0,1-3-1.226,5.018,5.018,0,0,1-1.09-3.45,4.921,4.921,0,0,1,1.191-3.423,3.819,3.819,0,0,1,2.958-1.323,3.384,3.384,0,0,1,2.733,1.143,4.764,4.764,0,0,1,.967,3.173Zm-1.477-1.222a2.933,2.933,0,0,0-.6-1.942A2.051,2.051,0,0,0,36.622,11a2.328,2.328,0,0,0-1.731.729,3.31,3.31,0,0,0-.879,1.907Zm7.833,5.273a2.779,2.779,0,0,1-1.345.281Q43,19.193,43,16.557V11.23H41.449V10H43V7.8l1.441-.466V10h2.268v1.23H44.438V16.3a2.1,2.1,0,0,0,.308,1.292,1.228,1.228,0,0,0,1.02.387,1.515,1.515,0,0,0,.94-.3Zm9.16-4.052H49.511a3.366,3.366,0,0,0,.809,2.32A2.788,2.788,0,0,0,52.446,18a4.422,4.422,0,0,0,2.795-1V18.35a5.224,5.224,0,0,1-3.138.861,3.8,3.8,0,0,1-3-1.226,5.018,5.018,0,0,1-1.09-3.45,4.921,4.921,0,0,1,1.191-3.423,3.819,3.819,0,0,1,2.958-1.323A3.384,3.384,0,0,1,54.9,10.932a4.764,4.764,0,0,1,.967,3.173Zm-1.477-1.222a2.933,2.933,0,0,0-.6-1.942A2.051,2.051,0,0,0,52.139,11a2.328,2.328,0,0,0-1.731.729,3.31,3.31,0,0,0-.879,1.907ZM65.517,19H64.076V13.867Q64.076,11,61.984,11a2.269,2.269,0,0,0-1.789.813,3.013,3.013,0,0,0-.708,2.052V19H58.047V10h1.441v1.494h.035a3.248,3.248,0,0,1,2.953-1.705,2.753,2.753,0,0,1,2.259.954,4.248,4.248,0,0,1,.782,2.755ZM68.973,7.715a.913.913,0,0,1-.659-.264.89.89,0,0,1-.272-.668.923.923,0,0,1,.932-.94.931.931,0,0,1,.672.268.939.939,0,0,1,0,1.332A.923.923,0,0,1,68.973,7.715ZM69.677,19H68.235V10h1.441Zm15.7,0H83.934V13.832a3.9,3.9,0,0,0-.461-2.162A1.75,1.75,0,0,0,81.921,11a1.921,1.921,0,0,0-1.569.844,3.228,3.228,0,0,0-.646,2.021V19H78.265V13.656Q78.265,11,76.217,11a1.9,1.9,0,0,0-1.564.8,3.288,3.288,0,0,0-.615,2.07V19H72.6V10h1.441v1.424h.035a3.058,3.058,0,0,1,2.795-1.635,2.6,2.6,0,0,1,2.549,1.863A3.212,3.212,0,0,1,82.4,9.789q2.971,0,2.971,3.665ZM88.84,7.715a.913.913,0,0,1-.659-.264.89.89,0,0,1-.272-.668.923.923,0,0,1,.932-.94.931.931,0,0,1,.672.268.939.939,0,0,1,0,1.332A.923.923,0,0,1,88.84,7.715ZM89.543,19H88.1V10h1.441ZM99.7,14.86H93.342a3.366,3.366,0,0,0,.809,2.32A2.788,2.788,0,0,0,96.278,18a4.422,4.422,0,0,0,2.795-1V18.35a5.224,5.224,0,0,1-3.138.861,3.8,3.8,0,0,1-3-1.226,5.018,5.018,0,0,1-1.09-3.45,4.921,4.921,0,0,1,1.191-3.423A3.819,3.819,0,0,1,96,9.789a3.384,3.384,0,0,1,2.733,1.143A4.764,4.764,0,0,1,99.7,14.1ZM98.22,13.639a2.933,2.933,0,0,0-.6-1.942A2.051,2.051,0,0,0,95.97,11a2.328,2.328,0,0,0-1.731.729,3.31,3.31,0,0,0-.879,1.907ZM109.349,19h-1.441V13.867q0-2.865-2.092-2.865a2.269,2.269,0,0,0-1.789.813,3.013,3.013,0,0,0-.708,2.052V19h-1.441V10h1.441v1.494h.035a3.248,3.248,0,0,1,2.953-1.705,2.753,2.753,0,0,1,2.259.954,4.248,4.248,0,0,1,.782,2.755Zm6.892-.088a2.779,2.779,0,0,1-1.345.281q-2.364,0-2.364-2.637V11.23h-1.547V10h1.547V7.8l1.441-.466V10h2.268v1.23h-2.268V16.3a2.1,2.1,0,0,0,.308,1.292,1.228,1.228,0,0,0,1.02.387,1.515,1.515,0,0,0,.94-.3Zm5.688.3a4.175,4.175,0,0,1-3.186-1.261,4.672,4.672,0,0,1-1.191-3.344,4.867,4.867,0,0,1,1.239-3.542,4.455,4.455,0,0,1,3.349-1.274,4.037,4.037,0,0,1,3.142,1.239,4.914,4.914,0,0,1,1.129,3.437,4.835,4.835,0,0,1-1.217,3.45A4.265,4.265,0,0,1,121.929,19.211ZM122.035,11a2.742,2.742,0,0,0-2.2.945,3.88,3.88,0,0,0-.809,2.606,3.67,3.67,0,0,0,.817,2.522,2.778,2.778,0,0,0,2.188.923,2.635,2.635,0,0,0,2.149-.905,3.928,3.928,0,0,0,.751-2.575,4,4,0,0,0-.751-2.6A2.623,2.623,0,0,0,122.035,11Z" transform="translate(449 2320.905)" fill="#212429"/>
    <path id="Trazado_1183342" data-name="Trazado 1183342" d="M8.376,15.432a3.674,3.674,0,0,1-.321,1.551,3.425,3.425,0,0,1-.905,1.2,4.178,4.178,0,0,1-1.4.769,5.67,5.67,0,0,1-1.8.272,5.236,5.236,0,0,1-2.865-.686V16.987a4.592,4.592,0,0,0,2.918,1,3.965,3.965,0,0,0,1.191-.167,2.67,2.67,0,0,0,.914-.483,2.147,2.147,0,0,0,.589-.765A2.388,2.388,0,0,0,6.9,15.563q0-2.47-3.516-2.47H2.338V11.872h.993q3.111,0,3.111-2.32,0-2.145-2.373-2.145a4.041,4.041,0,0,0-2.5.9v-1.4A5.476,5.476,0,0,1,4.43,6.186a4.4,4.4,0,0,1,1.433.22,3.283,3.283,0,0,1,1.1.615,2.726,2.726,0,0,1,.708.949,2.93,2.93,0,0,1,.25,1.222,3.076,3.076,0,0,1-2.514,3.2v.035a3.976,3.976,0,0,1,1.187.312,3.166,3.166,0,0,1,.94.628,2.8,2.8,0,0,1,.62.91A2.9,2.9,0,0,1,8.376,15.432ZM18.67,12.646a12.381,12.381,0,0,1-.286,2.8,6.533,6.533,0,0,1-.826,2.061,3.718,3.718,0,0,1-1.327,1.274,3.633,3.633,0,0,1-1.789.435A3.393,3.393,0,0,1,12.75,18.8,3.546,3.546,0,0,1,11.5,17.585a6.17,6.17,0,0,1-.773-1.964,12.146,12.146,0,0,1-.264-2.667,13.749,13.749,0,0,1,.277-2.918,6.674,6.674,0,0,1,.813-2.123,3.619,3.619,0,0,1,1.332-1.292,3.739,3.739,0,0,1,1.824-.435Q18.67,6.186,18.67,12.646Zm-1.477.141q0-5.379-2.558-5.379-2.7,0-2.7,5.476,0,5.106,2.646,5.106Q17.193,17.989,17.193,12.786Zm11.181-.141a12.381,12.381,0,0,1-.286,2.8,6.533,6.533,0,0,1-.826,2.061,3.718,3.718,0,0,1-1.327,1.274,3.633,3.633,0,0,1-1.789.435,3.393,3.393,0,0,1-1.692-.417A3.546,3.546,0,0,1,21.2,17.585a6.17,6.17,0,0,1-.773-1.964,12.146,12.146,0,0,1-.264-2.667,13.749,13.749,0,0,1,.277-2.918,6.674,6.674,0,0,1,.813-2.123,3.619,3.619,0,0,1,1.332-1.292,3.739,3.739,0,0,1,1.824-.435Q28.375,6.186,28.375,12.646Zm-1.477.141q0-5.379-2.558-5.379-2.7,0-2.7,5.476,0,5.106,2.646,5.106Q26.9,17.989,26.9,12.786Z" transform="translate(312 2005.905)" fill="#212429"/>
    <path id="Trazado_1183343" data-name="Trazado 1183343" d="M8.051,7.732H3.129v4.359H7.682v1.327H3.129V19H1.652V6.4h6.4Zm3.869,6.5V19H10.443V6.4h3.463a4.571,4.571,0,0,1,3.133.984,3.515,3.515,0,0,1,1.112,2.777,3.82,3.82,0,0,1-1.235,2.936,4.718,4.718,0,0,1-3.335,1.143Zm0-6.5V12.9h1.547a3.458,3.458,0,0,0,2.333-.7,2.474,2.474,0,0,0,.8-1.973q0-2.5-2.953-2.5ZM22,14.236V19H20.526V6.4h3.463a4.571,4.571,0,0,1,3.133.984,3.515,3.515,0,0,1,1.112,2.777A3.82,3.82,0,0,1,27,13.094a4.718,4.718,0,0,1-3.335,1.143Zm0-6.5V12.9h1.547a3.458,3.458,0,0,0,2.333-.7,2.474,2.474,0,0,0,.8-1.973q0-2.5-2.953-2.5Z" transform="translate(616 2103.905)" fill="#212429"/>
    <path id="Trazado_1183344" data-name="Trazado 1183344" d="M6.363,19H4.922V8.11a3.336,3.336,0,0,1-.488.382,7.951,7.951,0,0,1-.721.426q-.4.211-.844.4A6.132,6.132,0,0,1,2,9.6V8.146A8.379,8.379,0,0,0,3.01,7.79q.532-.224,1.046-.5t.971-.58a7.71,7.71,0,0,0,.791-.593h.545ZM16.49,9.7a2.606,2.606,0,0,0-.18-1.011,1.957,1.957,0,0,0-1.226-1.143,2.874,2.874,0,0,0-.914-.141,3.023,3.023,0,0,0-.826.114,4.016,4.016,0,0,0-.787.316,4.839,4.839,0,0,0-.738.483,5.333,5.333,0,0,0-.664.624V7.4a4.309,4.309,0,0,1,1.358-.9,4.781,4.781,0,0,1,1.833-.312,4.424,4.424,0,0,1,1.433.224,3.285,3.285,0,0,1,1.143.655,3.027,3.027,0,0,1,.76,1.063,3.587,3.587,0,0,1,.277,1.45,4.973,4.973,0,0,1-.171,1.354,4.186,4.186,0,0,1-.519,1.143,5.513,5.513,0,0,1-.875,1.028,12.388,12.388,0,0,1-1.239,1q-.888.633-1.463,1.081a6.469,6.469,0,0,0-.914.839,2.436,2.436,0,0,0-.475.782,2.734,2.734,0,0,0-.136.9h6.275V19H10.663v-.624a5.2,5.2,0,0,1,.176-1.424,3.7,3.7,0,0,1,.58-1.169,6.487,6.487,0,0,1,1.059-1.107q.655-.554,1.6-1.248a10.141,10.141,0,0,0,1.147-.94,4.889,4.889,0,0,0,.743-.9,3.22,3.22,0,0,0,.4-.91A3.922,3.922,0,0,0,16.49,9.7Zm11.885,2.944a12.381,12.381,0,0,1-.286,2.8,6.533,6.533,0,0,1-.826,2.061,3.718,3.718,0,0,1-1.327,1.274,3.633,3.633,0,0,1-1.789.435,3.393,3.393,0,0,1-1.692-.417A3.546,3.546,0,0,1,21.2,17.585a6.17,6.17,0,0,1-.773-1.964,12.146,12.146,0,0,1-.264-2.667,13.749,13.749,0,0,1,.277-2.918,6.674,6.674,0,0,1,.813-2.123,3.619,3.619,0,0,1,1.332-1.292,3.739,3.739,0,0,1,1.824-.435Q28.375,6.186,28.375,12.646Zm-1.477.141q0-5.379-2.558-5.379-2.7,0-2.7,5.476,0,5.106,2.646,5.106Q26.9,17.989,26.9,12.786Z" transform="translate(312 2162.905)" fill="#212429"/>
    <path id="Trazado_1183345" data-name="Trazado 1183345" d="M6.785,9.7A2.606,2.606,0,0,0,6.6,8.69,1.957,1.957,0,0,0,5.379,7.548a2.874,2.874,0,0,0-.914-.141,3.023,3.023,0,0,0-.826.114,4.016,4.016,0,0,0-.787.316,4.839,4.839,0,0,0-.738.483,5.333,5.333,0,0,0-.664.624V7.4a4.309,4.309,0,0,1,1.358-.9,4.781,4.781,0,0,1,1.833-.312,4.424,4.424,0,0,1,1.433.224,3.285,3.285,0,0,1,1.143.655,3.027,3.027,0,0,1,.76,1.063,3.587,3.587,0,0,1,.277,1.45,4.973,4.973,0,0,1-.171,1.354,4.186,4.186,0,0,1-.519,1.143A5.513,5.513,0,0,1,6.688,13.1a12.388,12.388,0,0,1-1.239,1q-.888.633-1.463,1.081a6.469,6.469,0,0,0-.914.839,2.436,2.436,0,0,0-.475.782,2.734,2.734,0,0,0-.136.9H8.736V19H.958v-.624a5.2,5.2,0,0,1,.176-1.424,3.7,3.7,0,0,1,.58-1.169,6.487,6.487,0,0,1,1.059-1.107q.655-.554,1.6-1.248a10.141,10.141,0,0,0,1.147-.94,4.889,4.889,0,0,0,.743-.9,3.22,3.22,0,0,0,.4-.91A3.922,3.922,0,0,0,6.785,9.7Zm11.8-2.47q-.29.5-.7,1.248t-.866,1.679q-.457.932-.932,2T15.2,14.377q-.413,1.143-.725,2.316A17.229,17.229,0,0,0,14.02,19H12.473a17.526,17.526,0,0,1,.488-2.3q.33-1.173.747-2.3t.883-2.175q.466-1.046.905-1.925t.8-1.551q.365-.672.584-1.05H10.566V6.4h8.016Zm9.345,7.919a4.242,4.242,0,0,1-.316,1.67,3.651,3.651,0,0,1-.9,1.283,4.034,4.034,0,0,1-1.411.826,5.517,5.517,0,0,1-1.837.29,5.074,5.074,0,0,1-2.61-.527V17.163a4.8,4.8,0,0,0,2.628.826,3.556,3.556,0,0,0,1.235-.2,2.744,2.744,0,0,0,.936-.562,2.408,2.408,0,0,0,.593-.87,2.945,2.945,0,0,0,.207-1.116,2.391,2.391,0,0,0-.826-1.929,3.623,3.623,0,0,0-2.4-.7q-.255,0-.536.009t-.562.022q-.281.013-.549.031t-.488.044L21.519,6.4h5.827V7.7H22.767l-.255,3.7q.281-.018.6-.031t.563-.013a5.657,5.657,0,0,1,1.793.264,3.8,3.8,0,0,1,1.34.751,3.151,3.151,0,0,1,.835,1.2A4.2,4.2,0,0,1,27.926,15.15Z" transform="translate(312 2030.905)" fill="#212429"/>
    <path id="Trazado_1183346" data-name="Trazado 1183346" d="M6.785,9.7A2.606,2.606,0,0,0,6.6,8.69,1.957,1.957,0,0,0,5.379,7.548a2.874,2.874,0,0,0-.914-.141,3.023,3.023,0,0,0-.826.114,4.016,4.016,0,0,0-.787.316,4.839,4.839,0,0,0-.738.483,5.333,5.333,0,0,0-.664.624V7.4a4.309,4.309,0,0,1,1.358-.9,4.781,4.781,0,0,1,1.833-.312,4.424,4.424,0,0,1,1.433.224,3.285,3.285,0,0,1,1.143.655,3.027,3.027,0,0,1,.76,1.063,3.587,3.587,0,0,1,.277,1.45,4.973,4.973,0,0,1-.171,1.354,4.186,4.186,0,0,1-.519,1.143A5.513,5.513,0,0,1,6.688,13.1a12.388,12.388,0,0,1-1.239,1q-.888.633-1.463,1.081a6.469,6.469,0,0,0-.914.839,2.436,2.436,0,0,0-.475.782,2.734,2.734,0,0,0-.136.9H8.736V19H.958v-.624a5.2,5.2,0,0,1,.176-1.424,3.7,3.7,0,0,1,.58-1.169,6.487,6.487,0,0,1,1.059-1.107q.655-.554,1.6-1.248a10.141,10.141,0,0,0,1.147-.94,4.889,4.889,0,0,0,.743-.9,3.22,3.22,0,0,0,.4-.91A3.922,3.922,0,0,0,6.785,9.7ZM16.068,19H14.627V8.11a3.336,3.336,0,0,1-.488.382,7.951,7.951,0,0,1-.721.426q-.4.211-.844.4a6.132,6.132,0,0,1-.866.29V8.146a8.379,8.379,0,0,0,1.006-.356q.532-.224,1.046-.5t.971-.58a7.711,7.711,0,0,0,.791-.593h.545Zm12.306-6.354a12.381,12.381,0,0,1-.286,2.8,6.533,6.533,0,0,1-.826,2.061,3.718,3.718,0,0,1-1.327,1.274,3.633,3.633,0,0,1-1.789.435,3.393,3.393,0,0,1-1.692-.417A3.546,3.546,0,0,1,21.2,17.585a6.17,6.17,0,0,1-.773-1.964,12.146,12.146,0,0,1-.264-2.667,13.749,13.749,0,0,1,.277-2.918,6.674,6.674,0,0,1,.813-2.123,3.619,3.619,0,0,1,1.332-1.292,3.739,3.739,0,0,1,1.824-.435Q28.375,6.186,28.375,12.646Zm-1.477.141q0-5.379-2.558-5.379-2.7,0-2.7,5.476,0,5.106,2.646,5.106Q26.9,17.989,26.9,12.786Z" transform="translate(312 2083.905)" fill="#212429"/>
    <path id="Trazado_1183347" data-name="Trazado 1183347" d="M6.363,19H4.922V8.11a3.336,3.336,0,0,1-.488.382,7.951,7.951,0,0,1-.721.426q-.4.211-.844.4A6.132,6.132,0,0,1,2,9.6V8.146A8.379,8.379,0,0,0,3.01,7.79q.532-.224,1.046-.5t.971-.58a7.71,7.71,0,0,0,.791-.593h.545ZM18.67,12.646a12.381,12.381,0,0,1-.286,2.8,6.533,6.533,0,0,1-.826,2.061,3.718,3.718,0,0,1-1.327,1.274,3.633,3.633,0,0,1-1.789.435A3.393,3.393,0,0,1,12.75,18.8,3.546,3.546,0,0,1,11.5,17.585a6.17,6.17,0,0,1-.773-1.964,12.146,12.146,0,0,1-.264-2.667,13.749,13.749,0,0,1,.277-2.918,6.674,6.674,0,0,1,.813-2.123,3.619,3.619,0,0,1,1.332-1.292,3.739,3.739,0,0,1,1.824-.435Q18.67,6.186,18.67,12.646Zm-1.477.141q0-5.379-2.558-5.379-2.7,0-2.7,5.476,0,5.106,2.646,5.106Q17.193,17.989,17.193,12.786Zm11.181-.141a12.381,12.381,0,0,1-.286,2.8,6.533,6.533,0,0,1-.826,2.061,3.718,3.718,0,0,1-1.327,1.274,3.633,3.633,0,0,1-1.789.435,3.393,3.393,0,0,1-1.692-.417A3.546,3.546,0,0,1,21.2,17.585a6.17,6.17,0,0,1-.773-1.964,12.146,12.146,0,0,1-.264-2.667,13.749,13.749,0,0,1,.277-2.918,6.674,6.674,0,0,1,.813-2.123,3.619,3.619,0,0,1,1.332-1.292,3.739,3.739,0,0,1,1.824-.435Q28.375,6.186,28.375,12.646Zm-1.477.141q0-5.379-2.558-5.379-2.7,0-2.7,5.476,0,5.106,2.646,5.106Q26.9,17.989,26.9,12.786Z" transform="translate(422 2276.905)" fill="#212429"/>
    <path id="Trazado_1183348" data-name="Trazado 1183348" d="M6.785,9.7A2.606,2.606,0,0,0,6.6,8.69,1.957,1.957,0,0,0,5.379,7.548a2.874,2.874,0,0,0-.914-.141,3.023,3.023,0,0,0-.826.114,4.016,4.016,0,0,0-.787.316,4.839,4.839,0,0,0-.738.483,5.333,5.333,0,0,0-.664.624V7.4a4.309,4.309,0,0,1,1.358-.9,4.781,4.781,0,0,1,1.833-.312,4.424,4.424,0,0,1,1.433.224,3.285,3.285,0,0,1,1.143.655,3.027,3.027,0,0,1,.76,1.063,3.587,3.587,0,0,1,.277,1.45,4.973,4.973,0,0,1-.171,1.354,4.186,4.186,0,0,1-.519,1.143A5.513,5.513,0,0,1,6.688,13.1a12.388,12.388,0,0,1-1.239,1q-.888.633-1.463,1.081a6.469,6.469,0,0,0-.914.839,2.436,2.436,0,0,0-.475.782,2.734,2.734,0,0,0-.136.9H8.736V19H.958v-.624a5.2,5.2,0,0,1,.176-1.424,3.7,3.7,0,0,1,.58-1.169,6.487,6.487,0,0,1,1.059-1.107q.655-.554,1.6-1.248a10.141,10.141,0,0,0,1.147-.94,4.889,4.889,0,0,0,.743-.9,3.22,3.22,0,0,0,.4-.91A3.922,3.922,0,0,0,6.785,9.7ZM18.67,12.646a12.381,12.381,0,0,1-.286,2.8,6.533,6.533,0,0,1-.826,2.061,3.718,3.718,0,0,1-1.327,1.274,3.633,3.633,0,0,1-1.789.435A3.393,3.393,0,0,1,12.75,18.8,3.546,3.546,0,0,1,11.5,17.585a6.17,6.17,0,0,1-.773-1.964,12.146,12.146,0,0,1-.264-2.667,13.749,13.749,0,0,1,.277-2.918,6.674,6.674,0,0,1,.813-2.123,3.619,3.619,0,0,1,1.332-1.292,3.739,3.739,0,0,1,1.824-.435Q18.67,6.186,18.67,12.646Zm-1.477.141q0-5.379-2.558-5.379-2.7,0-2.7,5.476,0,5.106,2.646,5.106Q17.193,17.989,17.193,12.786Zm11.181-.141a12.381,12.381,0,0,1-.286,2.8,6.533,6.533,0,0,1-.826,2.061,3.718,3.718,0,0,1-1.327,1.274,3.633,3.633,0,0,1-1.789.435,3.393,3.393,0,0,1-1.692-.417A3.546,3.546,0,0,1,21.2,17.585a6.17,6.17,0,0,1-.773-1.964,12.146,12.146,0,0,1-.264-2.667,13.749,13.749,0,0,1,.277-2.918,6.674,6.674,0,0,1,.813-2.123,3.619,3.619,0,0,1,1.332-1.292,3.739,3.739,0,0,1,1.824-.435Q28.375,6.186,28.375,12.646Zm-1.477.141q0-5.379-2.558-5.379-2.7,0-2.7,5.476,0,5.106,2.646,5.106Q26.9,17.989,26.9,12.786Z" transform="translate(503 2276.905)" fill="#212429"/>
    <path id="Trazado_1183349" data-name="Trazado 1183349" d="M8.376,15.432a3.674,3.674,0,0,1-.321,1.551,3.425,3.425,0,0,1-.905,1.2,4.178,4.178,0,0,1-1.4.769,5.67,5.67,0,0,1-1.8.272,5.236,5.236,0,0,1-2.865-.686V16.987a4.592,4.592,0,0,0,2.918,1,3.965,3.965,0,0,0,1.191-.167,2.67,2.67,0,0,0,.914-.483,2.147,2.147,0,0,0,.589-.765A2.388,2.388,0,0,0,6.9,15.563q0-2.47-3.516-2.47H2.338V11.872h.993q3.111,0,3.111-2.32,0-2.145-2.373-2.145a4.041,4.041,0,0,0-2.5.9v-1.4A5.476,5.476,0,0,1,4.43,6.186a4.4,4.4,0,0,1,1.433.22,3.283,3.283,0,0,1,1.1.615,2.726,2.726,0,0,1,.708.949,2.93,2.93,0,0,1,.25,1.222,3.076,3.076,0,0,1-2.514,3.2v.035a3.976,3.976,0,0,1,1.187.312,3.166,3.166,0,0,1,.94.628,2.8,2.8,0,0,1,.62.91A2.9,2.9,0,0,1,8.376,15.432ZM18.67,12.646a12.381,12.381,0,0,1-.286,2.8,6.533,6.533,0,0,1-.826,2.061,3.718,3.718,0,0,1-1.327,1.274,3.633,3.633,0,0,1-1.789.435A3.393,3.393,0,0,1,12.75,18.8,3.546,3.546,0,0,1,11.5,17.585a6.17,6.17,0,0,1-.773-1.964,12.146,12.146,0,0,1-.264-2.667,13.749,13.749,0,0,1,.277-2.918,6.674,6.674,0,0,1,.813-2.123,3.619,3.619,0,0,1,1.332-1.292,3.739,3.739,0,0,1,1.824-.435Q18.67,6.186,18.67,12.646Zm-1.477.141q0-5.379-2.558-5.379-2.7,0-2.7,5.476,0,5.106,2.646,5.106Q17.193,17.989,17.193,12.786Zm11.181-.141a12.381,12.381,0,0,1-.286,2.8,6.533,6.533,0,0,1-.826,2.061,3.718,3.718,0,0,1-1.327,1.274,3.633,3.633,0,0,1-1.789.435,3.393,3.393,0,0,1-1.692-.417A3.546,3.546,0,0,1,21.2,17.585a6.17,6.17,0,0,1-.773-1.964,12.146,12.146,0,0,1-.264-2.667,13.749,13.749,0,0,1,.277-2.918,6.674,6.674,0,0,1,.813-2.123,3.619,3.619,0,0,1,1.332-1.292,3.739,3.739,0,0,1,1.824-.435Q28.375,6.186,28.375,12.646Zm-1.477.141q0-5.379-2.558-5.379-2.7,0-2.7,5.476,0,5.106,2.646,5.106Q26.9,17.989,26.9,12.786Z" transform="translate(580 2276.905)" fill="#212429"/>
    <path id="Trazado_1183350" data-name="Trazado 1183350" d="M7.471,6.4V14.72H9.088v1.318H7.471V19H6.047V16.038H.123V14.79q.826-.932,1.67-1.991T3.406,10.65q.769-1.09,1.424-2.175A19.88,19.88,0,0,0,5.933,6.4ZM1.749,14.72h4.3V8.55Q5.388,9.7,4.8,10.606T3.678,12.25q-.532.738-1.015,1.336T1.749,14.72ZM18.67,12.646a12.381,12.381,0,0,1-.286,2.8,6.533,6.533,0,0,1-.826,2.061,3.718,3.718,0,0,1-1.327,1.274,3.633,3.633,0,0,1-1.789.435A3.393,3.393,0,0,1,12.75,18.8,3.546,3.546,0,0,1,11.5,17.585a6.17,6.17,0,0,1-.773-1.964,12.146,12.146,0,0,1-.264-2.667,13.749,13.749,0,0,1,.277-2.918,6.674,6.674,0,0,1,.813-2.123,3.619,3.619,0,0,1,1.332-1.292,3.739,3.739,0,0,1,1.824-.435Q18.67,6.186,18.67,12.646Zm-1.477.141q0-5.379-2.558-5.379-2.7,0-2.7,5.476,0,5.106,2.646,5.106Q17.193,17.989,17.193,12.786Zm11.181-.141a12.381,12.381,0,0,1-.286,2.8,6.533,6.533,0,0,1-.826,2.061,3.718,3.718,0,0,1-1.327,1.274,3.633,3.633,0,0,1-1.789.435,3.393,3.393,0,0,1-1.692-.417A3.546,3.546,0,0,1,21.2,17.585a6.17,6.17,0,0,1-.773-1.964,12.146,12.146,0,0,1-.264-2.667,13.749,13.749,0,0,1,.277-2.918,6.674,6.674,0,0,1,.813-2.123,3.619,3.619,0,0,1,1.332-1.292,3.739,3.739,0,0,1,1.824-.435Q28.375,6.186,28.375,12.646Zm-1.477.141q0-5.379-2.558-5.379-2.7,0-2.7,5.476,0,5.106,2.646,5.106Q26.9,17.989,26.9,12.786Z" transform="translate(657 2276.905)" fill="#212429"/>
    <path id="Trazado_1091087" data-name="Trazado 1091087" d="M249.875,1561.5h78.8v226.75" transform="translate(109 484.028)" fill="none" stroke="#707070" stroke-linecap="round" stroke-width="1.5" stroke-dasharray="2 5"/>
    <path id="Trazado_1091088" data-name="Trazado 1091088" d="M249.875,1561.5H409.549v173.648" transform="translate(109 537.13)" fill="none" stroke="#707070" stroke-linecap="round" stroke-width="1.5" stroke-dasharray="2 5"/>
    <path id="Trazado_1091089" data-name="Trazado 1091089" d="M249.875,1561.5H486.33v101.34" transform="translate(109 609.438)" fill="none" stroke="#707070" stroke-linecap="round" stroke-width="1.5" stroke-dasharray="2 5"/>
    <path id="Trazado_1091090" data-name="Trazado 1091090" d="M249.875,1540.5s81.76,15.74,161.173,78.362,156.478,172.126,156.478,172.126" transform="translate(109 480.905)" fill="none" stroke="#707070" stroke-width="2"/>
    <path id="Trazado_1183351" data-name="Trazado 1183351" d="M7.5,0A7.5,7.5,0,1,1,0,7.5,7.5,7.5,0,0,1,7.5,0Z" transform="translate(355 2013.905)" fill="#1d7083"/>
    <path id="Trazado_1183352" data-name="Trazado 1183352" d="M7.5,0A7.5,7.5,0,1,1,0,7.5,7.5,7.5,0,0,1,7.5,0Z" transform="translate(430 2038.905)" fill="#1d7083"/>
    <path id="Trazado_1183353" data-name="Trazado 1183353" d="M7.5,0A7.5,7.5,0,1,1,0,7.5,7.5,7.5,0,0,1,7.5,0Z" transform="translate(588 2163.905)" fill="#1d7083"/>
    <path id="Trazado_1183354" data-name="Trazado 1183354" d="M7.5,0A7.5,7.5,0,1,1,0,7.5,7.5,7.5,0,0,1,7.5,0Z" transform="translate(510 2090.905)" fill="#1d7083"/>
    <path id="Trazado_1183355" data-name="Trazado 1183355" d="M7.5,0A7.5,7.5,0,1,1,0,7.5,7.5,7.5,0,0,1,7.5,0Z" transform="translate(667 2261.905)" fill="#1d7083"/>
  </g>
</svg>
