<svg xmlns="http://www.w3.org/2000/svg" xmlns:xlink="http://www.w3.org/1999/xlink" width="108" height="108" viewBox="0 0 108 108">
  <defs>
    <filter id="Trazado_904820" x="0" y="0" width="108" height="108" filterUnits="userSpaceOnUse">
      <feOffset dy="3" input="SourceAlpha"/>
      <feGaussianBlur stdDeviation="3" result="blur"/>
      <feFlood flood-opacity="0.161"/>
      <feComposite operator="in" in2="blur"/>
      <feComposite in="SourceGraphic"/>
    </filter>
  </defs>
  <g id="Grupo_1225244" data-name="Grupo 1225244" transform="translate(-199.5 -1825)">
    <g id="Grupo_1220078" data-name="Grupo 1220078" transform="translate(0 -1360.108)">
      <g id="Grupo_1219746" data-name="Grupo 1219746" transform="translate(0 1895.108)">
        <g id="Grupo_1202418" data-name="Grupo 1202418" transform="translate(-419.977 876.813)">
          <g id="Grupo_1177315" data-name="Grupo 1177315" transform="translate(-0.523 -112.813)">
            <g id="Grupo_1173585" data-name="Grupo 1173585" transform="translate(629 532)">
              <g id="Grupo_1173428" data-name="Grupo 1173428" transform="translate(0 0)">
                <g id="Grupo_1171958" data-name="Grupo 1171958">
                  <g id="Grupo_1167341" data-name="Grupo 1167341">
                    <g id="Grupo_1166792" data-name="Grupo 1166792">
                      <g transform="matrix(1, 0, 0, 1, -9, -6)" filter="url(#Trazado_904820)">
                        <g id="Trazado_904820-2" data-name="Trazado 904820" transform="translate(9 6)" fill="#f2f7e5">
                          <path d="M 44.99999618530273 88.49999237060547 C 39.12687301635742 88.49999237060547 33.43022155761719 87.35006713867188 28.06829643249512 85.08216857910156 C 22.88852119445801 82.89130401611328 18.23629570007324 79.75457763671875 14.24084663391113 75.75914001464844 C 10.24540901184082 71.76369476318359 7.108683586120605 67.11146545410156 4.917821407318115 61.93169403076172 C 2.649921178817749 56.56976699829102 1.499996185302734 50.87311553955078 1.499996185302734 44.99999237060547 C 1.499996185302734 39.12686920166016 2.649921178817749 33.43021774291992 4.917821407318115 28.06829261779785 C 7.108683586120605 22.88851737976074 10.24540901184082 18.23630523681641 14.24084663391113 14.24085521697998 C 18.23629570007324 10.24540519714355 22.88852119445801 7.108692169189453 28.06829643249512 4.917829990386963 C 33.43022155761719 2.649929761886597 39.12687301635742 1.500004887580872 44.99999618530273 1.500004887580872 C 50.87311935424805 1.500004887580872 56.56977081298828 2.649929761886597 61.93169784545898 4.917829990386963 C 67.11147308349609 7.108692169189453 71.76369476318359 10.24540519714355 75.75914764404297 14.24085521697998 C 79.75458526611328 18.23630523681641 82.89131164550781 22.88851737976074 85.08216857910156 28.06829261779785 C 87.35007476806641 33.43021774291992 88.5 39.12686920166016 88.5 44.99999237060547 C 88.5 50.87311553955078 87.35007476806641 56.56976699829102 85.08216857910156 61.93169403076172 C 82.89131164550781 67.11146545410156 79.75458526611328 71.76369476318359 75.75914764404297 75.75914001464844 C 71.76369476318359 79.75457763671875 67.11147308349609 82.89130401611328 61.93169784545898 85.08216857910156 C 56.56977081298828 87.35006713867188 50.87311935424805 88.49999237060547 44.99999618530273 88.49999237060547 Z" stroke="none"/>
                          <path d="M 44.99999618530273 2.999992370605469 C 39.32870864868164 2.999992370605469 33.82865142822266 4.11004638671875 28.65262603759766 6.299331665039062 C 23.65165710449219 8.414566040039062 19.15968322753906 11.44333648681641 15.301513671875 15.30150604248047 C 11.44333648681641 19.15967559814453 8.414566040039062 23.65164947509766 6.299339294433594 28.65262222290039 C 4.110054016113281 33.82864761352539 2.999992370605469 39.32870483398438 2.999992370605469 44.99999237060547 C 2.999992370605469 50.67127990722656 4.110054016113281 56.17132186889648 6.299339294433594 61.34736633300781 C 8.414566040039062 66.34833526611328 11.44333648681641 70.84029388427734 15.301513671875 74.69846343994141 C 19.15968322753906 78.55663299560547 23.65165710449219 81.58540344238281 28.65262603759766 83.70063781738281 C 33.82865142822266 85.88992309570312 39.32870864868164 86.99997711181641 44.99999618530273 86.99997711181641 C 50.67128372192383 86.99997711181641 56.17134094238281 85.88992309570312 61.34736633300781 83.70063781738281 C 66.34834289550781 81.58540344238281 70.84030914306641 78.55663299560547 74.69847869873047 74.69846343994141 C 78.55665588378906 70.84029388427734 81.58542633056641 66.34833526611328 83.70065307617188 61.34736633300781 C 85.88993835449219 56.17132186889648 87 50.67127990722656 87 44.99999237060547 C 87 39.32870483398438 85.88993835449219 33.82864761352539 83.70065307617188 28.65262222290039 C 81.58542633056641 23.65164947509766 78.55665588378906 19.15967559814453 74.69847869873047 15.30150604248047 C 70.84030914306641 11.44333648681641 66.34834289550781 8.414566040039062 61.34736633300781 6.299331665039062 C 56.17134094238281 4.11004638671875 50.67128372192383 2.999992370605469 44.99999618530273 2.999992370605469 M 44.99999618530273 -7.62939453125e-06 C 69.85281372070312 -7.62939453125e-06 90 20.14717864990234 90 44.99999237060547 C 90 69.85279083251953 69.85281372070312 89.99997711181641 44.99999618530273 89.99997711181641 C 20.14717864990234 89.99997711181641 -7.62939453125e-06 69.85279083251953 -7.62939453125e-06 44.99999237060547 C -7.62939453125e-06 20.14717864990234 20.14717864990234 -7.62939453125e-06 44.99999618530273 -7.62939453125e-06 Z" stroke="none" fill="#496406"/>
                        </g>
                      </g>
                    </g>
                  </g>
                </g>
              </g>
            </g>
          </g>
        </g>
      </g>
    </g>
    <g id="sostenibilidad" transform="translate(195.691 1811.088)">
      <g id="Grupo_1225243" data-name="Grupo 1225243" transform="translate(27.544 41.561)">
        <path id="Trazado_1175251" data-name="Trazado 1175251" d="M259.395,232.7l.014.531.8,19.238H257l.8-19.238.027-.531Z" transform="translate(-226.253 -213.939)" fill="#dd6e42" fill-rule="evenodd"/>
        <path id="Trazado_1175252" data-name="Trazado 1175252" d="M237.76,94.8a15.715,15.715,0,0,1,.2,22.734,15.715,15.715,0,0,1-.2-22.734Z" transform="translate(-205.516 -94.8)" fill="#718446" fill-rule="evenodd"/>
        <path id="Trazado_1175253" data-name="Trazado 1175253" d="M267.749,103.7a15.474,15.474,0,0,1,3.755,10.109,15.93,15.93,0,0,1-1.456,6.884,15.474,15.474,0,0,1-3.755-10.109A15.929,15.929,0,0,1,267.749,103.7Z" transform="translate(-234.281 -102.489)" fill="#b4c08b" fill-rule="evenodd"/>
        <path id="Trazado_1175254" data-name="Trazado 1175254" d="M138.623,227.461A15.268,15.268,0,0,0,120.8,214.427a15.268,15.268,0,0,0,17.823,13.034Z" transform="translate(-108.583 -197.897)" fill="#718446" fill-rule="evenodd"/>
        <path id="Trazado_1175255" data-name="Trazado 1175255" d="M172.822,227.428a15.046,15.046,0,0,0-5.864-8.68A15.5,15.5,0,0,0,160.7,216a14.982,14.982,0,0,0,5.864,8.68,15.585,15.585,0,0,0,6.258,2.748Z" transform="translate(-143.054 -199.511)" fill="#b4c08b" fill-rule="evenodd"/>
        <path id="Trazado_1175256" data-name="Trazado 1175256" d="M285.9,227.461a15.268,15.268,0,0,1,17.823-13.034A15.286,15.286,0,0,1,285.9,227.461Z" transform="translate(-251.221 -197.897)" fill="#718446" fill-rule="evenodd"/>
        <path id="Trazado_1175257" data-name="Trazado 1175257" d="M287.8,227.428a15.046,15.046,0,0,1,5.864-8.68A15.5,15.5,0,0,1,299.922,216a14.982,14.982,0,0,1-5.864,8.68A15.424,15.424,0,0,1,287.8,227.428Z" transform="translate(-252.862 -199.511)" fill="#b4c08b" fill-rule="evenodd"/>
        <path id="Trazado_1175258" data-name="Trazado 1175258" d="M167.249,344.788l15.251-6.748c2.871-1.279,5.973,2.462,1.85,5.007l-15.891,9.809a6.423,6.423,0,0,1-3.537.939l-15.346.027-5.646-2.49.19-7.333H143.1v-8.6h9.973a4.274,4.274,0,0,1,4.136,3.116h8.734a3.274,3.274,0,0,1,1.306,6.272Z" transform="translate(-127.849 -302.666)" fill="#e2bb92" fill-rule="evenodd"/>
        <path id="Trazado_1175259" data-name="Trazado 1175259" d="M189.226,353c2.258.218,3.8,3.143.395,5.252l-15.891,9.809a6.422,6.422,0,0,1-3.537.939l-15.347.027-5.646-2.49.122-4.653c.585-.993,1.238-2.014,1.959-3.075Q171.914,368.707,189.226,353Z" transform="translate(-133.119 -317.872)" fill="#db9876" fill-rule="evenodd"/>
        <path id="Trazado_1175260" data-name="Trazado 1175260" d="M31,331.1h6.993v17.551H31Z" transform="translate(-31 -298.951)" fill="#d04d4d" fill-rule="evenodd"/>
        <path id="Trazado_1175261" data-name="Trazado 1175261" d="M31,395.7h6.993v8.775H31Z" transform="translate(-31 -354.762)" fill="#c62a29" fill-rule="evenodd"/>
        <path id="Trazado_1175262" data-name="Trazado 1175262" d="M85.094,315.1h5.769a2.7,2.7,0,0,1,2.694,2.694V334.12a2.7,2.7,0,0,1-2.694,2.694H85.094A2.7,2.7,0,0,1,82.4,334.12V317.794A2.7,2.7,0,0,1,85.094,315.1Z" transform="translate(-75.407 -285.128)" fill="#f598a2" fill-rule="evenodd"/>
        <path id="Trazado_1175263" data-name="Trazado 1175263" d="M93.656,395.7v8.068a2.7,2.7,0,0,1-2.694,2.694H85.194a2.7,2.7,0,0,1-2.694-2.694V395.7Z" transform="translate(-75.493 -354.762)" fill="#df5356" fill-rule="evenodd"/>
      </g>
      <path id="Trazado_1175264" data-name="Trazado 1175264" d="M37.231,70.988H43A3.272,3.272,0,0,1,46.21,73.75h6.558a4.822,4.822,0,0,1,4.53,3.129h.571l.245-5.7a.536.536,0,0,1-.422.476c-6.381,1.374-13.2-2-16.517-7.578A14.408,14.408,0,0,1,39.2,58.186a.546.546,0,0,1,.422-.626c6.381-1.374,13.2,2,16.517,7.592a14.408,14.408,0,0,1,1.973,5.891c0,.027.014.054.014.1l.313-7.592a16.34,16.34,0,0,1,.993-22.353.526.526,0,0,1,.721,0c5.061,4.422,6.462,12.122,3.9,18.285a14.945,14.945,0,0,1-2.68,4.272l.313,7.415a.266.266,0,0,1,.014-.1,14.21,14.21,0,0,1,1.973-5.891C66.985,59.6,73.815,56.213,80.2,57.587a.546.546,0,0,1,.422.626A14.017,14.017,0,0,1,78.645,64.1c-3.306,5.578-10.136,8.966-16.517,7.578a.519.519,0,0,1-.422-.476l.245,5.7h3.687a3.817,3.817,0,0,1,3.537,5.224l12.789-5.66a3.354,3.354,0,0,1,3.32.3,2.905,2.905,0,0,1,1.279,2.476,4.06,4.06,0,0,1-2.258,3.2L68.441,92.2a6.874,6.874,0,0,1-3.823,1.02l-15.346.027a.564.564,0,0,1-.218-.041l-3.075-1.347A3.239,3.239,0,0,1,43,93.818H37.231a3.274,3.274,0,0,1-2.993-2H27.544A.546.546,0,0,1,27,91.274V73.723a.546.546,0,0,1,.544-.544H34.17a3.256,3.256,0,0,1,3.061-2.19Zm9.02,3.85V90.566a1.17,1.17,0,0,1-.014.218l3.143,1.388L64.6,92.144a5.949,5.949,0,0,0,3.252-.857l15.891-9.809c1.429-.884,2.122-2.082,1.524-3.17a1.833,1.833,0,0,0-.612-.68,2.271,2.271,0,0,0-2.258-.19L67.176,84.172a.5.5,0,0,1-.245.054H55.3a.544.544,0,0,1,0-1.088H66.822a2.8,2.8,0,0,0,1.1-.966,2.732,2.732,0,0,0-2.286-4.218H56.9a.549.549,0,0,1-.531-.422,3.731,3.731,0,0,0-3.605-2.707H46.251Zm-3.238-2.762H37.245a2.154,2.154,0,0,0-2.15,2.15V90.552a2.154,2.154,0,0,0,2.15,2.15h5.769a2.154,2.154,0,0,0,2.15-2.15V74.226A2.154,2.154,0,0,0,43.013,72.077Zm-9.02,2.177h-5.9V90.716h5.9Zm24.979,2.612h1.85l-.5-12.122a.532.532,0,0,1-.667-.027c-.054-.054-.109-.1-.163-.15ZM85.733,67.41a.548.548,0,0,1,1.061.272,28.2,28.2,0,0,1-2.68,6.721.545.545,0,0,1-.952-.531A26.275,26.275,0,0,0,85.733,67.41ZM35,69.982a.542.542,0,0,1-1.02.367,27.947,27.947,0,0,1-1.252-4.626l-.422,1.238a.54.54,0,0,1-1.02-.354l1.02-2.952a.55.55,0,0,1,.884-.218L35.6,65.669a.539.539,0,0,1-.735.789L33.8,65.465A25.378,25.378,0,0,0,35,69.982Zm53.237-14.53A.545.545,0,0,1,89.3,55.7l-.871,3.687a.539.539,0,0,1-.912.258l-2.694-2.258a.541.541,0,0,1,.694-.83l1.279,1.075c-2.517-10.762-9.143-19.7-20.272-22.53a26.577,26.577,0,0,0-32.312,19.21.541.541,0,0,1-1.048-.272,27.664,27.664,0,0,1,33.632-20c11.469,2.911,18.38,12.081,21.033,23.169ZM64.591,65.7a13.344,13.344,0,0,0-1.769,4.993c7.619,1.333,15.591-4.5,16.639-12.149C73.665,57.519,67.57,60.662,64.591,65.7Zm-7.605,4.979c-1.048-7.66-9.02-13.483-16.639-12.149C41.394,66.186,49.38,72.009,56.985,70.675Zm5.945-23.89A13.791,13.791,0,0,0,59.8,42.3c-5.7,5.578-5.605,15.782.2,21.265C64.346,59.315,65.353,52.322,62.931,46.785Z" transform="translate(0)"/>
    </g>
  </g>
</svg>
