<svg xmlns="http://www.w3.org/2000/svg" xmlns:xlink="http://www.w3.org/1999/xlink" width="103" height="103" viewBox="0 0 103 103">
  <defs>
    <filter id="Trazado_978624" x="0" y="0" width="103" height="103" filterUnits="userSpaceOnUse">
      <feOffset dy="3" input="SourceAlpha"/>
      <feGaussianBlur stdDeviation="3" result="blur"/>
      <feFlood flood-opacity="0.161"/>
      <feComposite operator="in" in2="blur"/>
      <feComposite in="SourceGraphic"/>
    </filter>
  </defs>
  <g id="Grupo_1225329" data-name="Grupo 1225329" transform="translate(-171 -3081)">
    <g id="Grupo_1225104" data-name="Grupo 1225104" transform="translate(0 2068)">
      <g id="Grupo_1220654" data-name="Grupo 1220654" transform="translate(180 1019)">
        <g id="Grupo_1176881" data-name="Grupo 1176881">
          <g id="Grupo_1175148" data-name="Grupo 1175148">
            <g id="Grupo_1173798" data-name="Grupo 1173798">
              <g id="Grupo_1171925" data-name="Grupo 1171925">
                <g id="Grupo_1164524" data-name="Grupo 1164524">
                  <g id="Grupo_1144123" data-name="Grupo 1144123">
                    <g transform="matrix(1, 0, 0, 1, -9, -6)" filter="url(#Trazado_978624)">
                      <g id="Trazado_978624-2" data-name="Trazado 978624" transform="translate(9 6)" fill="#e9f9fd">
                        <path d="M 42.5 83.5 C 36.96437835693359 83.5 31.59512901306152 82.41617584228516 26.54141235351562 80.27863311767578 C 21.65934181213379 78.21369171142578 17.27447128295898 75.25723266601562 13.50862312316895 71.49137878417969 C 9.742764472961426 67.72553253173828 6.786305904388428 63.34066009521484 4.721364498138428 58.45858764648438 C 2.583823442459106 53.40486907958984 1.5 48.03562164306641 1.5 42.5 C 1.5 36.96437835693359 2.583823442459106 31.59512901306152 4.721364498138428 26.54141235351562 C 6.786305904388428 21.65934181213379 9.742764472961426 17.27447128295898 13.50862312316895 13.50862312316895 C 17.27447128295898 9.742764472961426 21.65934181213379 6.786305904388428 26.54141235351562 4.721364498138428 C 31.59512901306152 2.583823442459106 36.96437835693359 1.5 42.5 1.5 C 48.03562164306641 1.5 53.40486907958984 2.583823442459106 58.45858764648438 4.721364498138428 C 63.34066009521484 6.786305904388428 67.72553253173828 9.742764472961426 71.49137878417969 13.50862312316895 C 75.25723266601562 17.27447128295898 78.21369171142578 21.65934181213379 80.27863311767578 26.54141235351562 C 82.41617584228516 31.59512901306152 83.5 36.96437835693359 83.5 42.5 C 83.5 48.03562164306641 82.41617584228516 53.40486907958984 80.27863311767578 58.45858764648438 C 78.21369171142578 63.34066009521484 75.25723266601562 67.72553253173828 71.49137878417969 71.49137878417969 C 67.72553253173828 75.25723266601562 63.34066009521484 78.21369171142578 58.45858764648438 80.27863311767578 C 53.40486907958984 82.41617584228516 48.03562164306641 83.5 42.5 83.5 Z" stroke="none"/>
                        <path d="M 42.5 3 C 37.16621398925781 3 31.99356079101562 4.043960571289062 27.125732421875 6.102882385253906 C 22.42246627807617 8.092185974121094 18.19785308837891 10.94070434570312 14.56928253173828 14.56928253173828 C 10.94070434570312 18.19785308837891 8.092185974121094 22.42246627807617 6.102882385253906 27.125732421875 C 4.043960571289062 31.99356079101562 3 37.16621398925781 3 42.5 C 3 47.83378601074219 4.043960571289062 53.00643920898438 6.102882385253906 57.87425231933594 C 8.092185974121094 62.57753372192383 10.94070434570312 66.80213165283203 14.56928253173828 70.43071746826172 C 18.19786834716797 74.05929565429688 22.42246627807617 76.90781402587891 27.125732421875 78.89711761474609 C 31.99356079101562 80.95603942871094 37.16621398925781 82 42.5 82 C 47.83378601074219 82 53.00642395019531 80.95603942871094 57.87425231933594 78.89711761474609 C 62.57753372192383 76.90781402587891 66.80213165283203 74.05929565429688 70.43071746826172 70.43071746826172 C 74.05929565429688 66.80213165283203 76.90781402587891 62.57753372192383 78.89711761474609 57.87425231933594 C 80.95603942871094 53.00642395019531 82 47.83378601074219 82 42.5 C 82 37.16621398925781 80.95603942871094 31.99356079101562 78.89711761474609 27.125732421875 C 76.90781402587891 22.42246627807617 74.05929565429688 18.19786834716797 70.43071746826172 14.56928253173828 C 66.80213165283203 10.94070434570312 62.57753372192383 8.092185974121094 57.87425231933594 6.102882385253906 C 53.00643920898438 4.043960571289062 47.83378601074219 3 42.5 3 M 42.5 0 C 65.97209167480469 0 85 19.02789306640625 85 42.5 C 85 65.97209167480469 65.97209167480469 85 42.5 85 C 19.02789306640625 85 0 65.97209167480469 0 42.5 C 0 19.02789306640625 19.02789306640625 0 42.5 0 Z" stroke="none" fill="#36ceef"/>
                      </g>
                    </g>
                  </g>
                </g>
              </g>
            </g>
          </g>
        </g>
      </g>
    </g>
    <g id="paises" transform="translate(183.206 3099.016)">
      <g id="Grupo_1225327" data-name="Grupo 1225327" transform="translate(11.422 0.878)">
        <path id="Trazado_1175470" data-name="Trazado 1175470" d="M24.7,112.209a27.872,27.872,0,0,0,21.216,45.948q.762,0,1.515-.041l6.2-6.2V139.1l-10.48-4.675V115.808Z" transform="translate(-18.042 -99.945)" fill="#5877d1"/>
        <path id="Trazado_1175471" data-name="Trazado 1175471" d="M260.263,143.549A27.894,27.894,0,0,0,256.5,113.52l-24.11,3.446v18.618l10.48,4.675Z" transform="translate(-207.28 -101.102)" fill="#5877d1"/>
        <path id="Trazado_1175472" data-name="Trazado 1175472" d="M25.429,132.732a30.866,30.866,0,0,1,6.58-19.1l-7.31-1.426a27.878,27.878,0,0,0,11.9,44.353A30.934,30.934,0,0,1,25.429,132.732Z" transform="translate(-18.043 -99.945)" fill="#385ac4"/>
        <path id="Trazado_1175473" data-name="Trazado 1175473" d="M121.2,68.551A27.876,27.876,0,0,1,97.6,84.276l-.724-1.758a2.617,2.617,0,0,1,.9-3.126,2.61,2.61,0,0,0,1.1-2.13,3.482,3.482,0,0,0-.707-2.678L96.8,73.128a2.615,2.615,0,0,1-.253-3.262l.366-.537a2.616,2.616,0,0,0-1.344-3.958l-3.963-1.3a1.557,1.557,0,0,1-.862-.7L88.031,58.7a1.559,1.559,0,0,0-2.675-.035l-.65,1.054A1.56,1.56,0,0,1,81.867,58.5l1.407-5.387a1.56,1.56,0,0,1,.8-.994l2.868-1.476a1.559,1.559,0,0,0,.809-1.725,3.021,3.021,0,0,0-2.44-2.322c-1.464-.306-2.4-.24-3.575-.953L77.571,43.12a4.813,4.813,0,0,1-2.123-2.768l-.578-1.984h0a27.871,27.871,0,0,1,42.56.155L116.3,40.536a2.721,2.721,0,0,1-2.153,1.378,2.718,2.718,0,0,0-2.178,1.424l-1.037,1.933a2.72,2.72,0,0,1-2.591,1.427c-.648-.043-.77-.064-1.078-.064a5.047,5.047,0,0,0-3.719,1.635c-1.894,2.068-.984,4.262-2.542,6.334l-2.365,3.155a1.645,1.645,0,0,0,.351,2.317l2.049,1.486a1.648,1.648,0,0,0,1.379.26c2.8-.7,2.98-.847,3.666-.847a3.177,3.177,0,0,1,2.266.949c1.718,1.746,3.592.372,5.371,1.32A17.323,17.323,0,0,1,115.8,64.4Z" transform="translate(-68.214 -26.104)" fill="#71d5b4"/>
        <path id="Trazado_1175474" data-name="Trazado 1175474" d="M89.25,35.8a27.873,27.873,0,0,0-14.377,8.949h0l.578,1.984A4.812,4.812,0,0,0,77.574,49.5l1.739,1.055A31.139,31.139,0,0,1,89.25,39.585V35.8Z" transform="translate(-68.216 -32.483)" fill="#31c695"/>
        <path id="Trazado_1175475" data-name="Trazado 1175475" d="M140.429,7.5A6.111,6.111,0,0,0,134.4,14.04c.214,3.579,2.591,6.8,4.29,8.671a2.322,2.322,0,0,0,3.435,0c1.781-1.958,4.308-5.4,4.308-9.19A6.024,6.024,0,0,0,140.429,7.5Z" transform="translate(-120.759 -7.5)" fill="#f98797"/>
        <path id="Trazado_1175476" data-name="Trazado 1175476" d="M329.019,265.041a6.111,6.111,0,0,0-6.031,6.541c.214,3.579,2.591,6.8,4.29,8.671a2.322,2.322,0,0,0,3.435,0c1.781-1.958,4.308-5.4,4.308-9.19a6.024,6.024,0,0,0-6-6.024Z" transform="translate(-287.26 -234.875)" fill="#f98797"/>
        <path id="Trazado_1175477" data-name="Trazado 1175477" d="M139.138,13.9a9.1,9.1,0,0,1,2.5-6.276,6.035,6.035,0,0,0-7.24,6.415c.214,3.579,2.591,6.8,4.29,8.671a2.322,2.322,0,0,0,3.435,0c.33-.363.686-.777,1.046-1.235a9.128,9.128,0,0,1-4.03-7.578Z" transform="translate(-120.759 -7.501)" fill="#e35b70"/>
        <path id="Trazado_1175478" data-name="Trazado 1175478" d="M327.727,271.443a9.1,9.1,0,0,1,2.5-6.276,6.035,6.035,0,0,0-7.24,6.415c.214,3.579,2.591,6.8,4.29,8.671a2.322,2.322,0,0,0,3.435,0c.33-.363.686-.777,1.046-1.235A9.128,9.128,0,0,1,327.727,271.443Z" transform="translate(-287.259 -234.875)" fill="#e35b70"/>
        <g id="Grupo_1225326" data-name="Grupo 1225326" transform="translate(17.442 3.819)">
          <circle id="Elipse_12655" data-name="Elipse 12655" cx="2.206" cy="2.206" r="2.206" fill="#e8e7f9"/>
          <circle id="Elipse_12656" data-name="Elipse 12656" cx="2.206" cy="2.206" r="2.206" transform="translate(22.089 30.165)" fill="#e8e7f9"/>
        </g>
      </g>
      <g id="Grupo_1225328" data-name="Grupo 1225328" transform="translate(10.544 -0.001)">
        <path id="Trazado_1175479" data-name="Trazado 1175479" d="M162.539,38.772a3.084,3.084,0,1,0-3.084-3.084A3.088,3.088,0,0,0,162.539,38.772Zm0-4.411a1.327,1.327,0,1,1-1.327,1.327A1.329,1.329,0,0,1,162.539,34.361Z" transform="translate(-142.013 -28.785)"/>
        <path id="Trazado_1175480" data-name="Trazado 1175480" d="M351.129,296.313a3.084,3.084,0,1,0-3.084-3.084A3.088,3.088,0,0,0,351.129,296.313Zm0-4.411a1.327,1.327,0,1,1-1.327,1.327A1.329,1.329,0,0,1,351.129,291.9Z" transform="translate(-308.514 -256.161)"/>
        <path id="Trazado_1175481" data-name="Trazado 1175481" d="M61.311,12.73a28.815,28.815,0,0,0-7.063-6.07.878.878,0,1,0-.915,1.5A27.052,27.052,0,0,1,59.571,13.4c-.616.866-.852,2.3-2.289,2.411A3.582,3.582,0,0,0,54.4,17.7L53.363,19.63c-.716,1.334-2.123.9-2.9.9a5.942,5.942,0,0,0-4.367,1.92,6.974,6.974,0,0,0-1.65,3.8,6.02,6.02,0,0,1-.838,2.451c-.09.132,0,0-2.474,3.308a2.522,2.522,0,0,0,.538,3.555l2.05,1.486a2.515,2.515,0,0,0,2.107.4l.423-.106h.006q0,.149.011.3c.2,3.428,2.205,6.666,4.517,9.209a3.2,3.2,0,0,0,4.735,0l0,0a18.54,18.54,0,0,0,3.9-6.237L63.3,43.58A26.99,26.99,0,0,1,41.382,58.132c-.085-.43-1.4-2.173.113-3.25a3.494,3.494,0,0,0,1.469-2.847,4.732,4.732,0,0,0-.424-2.558,3.46,3.46,0,0,0-.521-.721L40.653,47.3a1.747,1.747,0,0,1-.168-2.166l.367-.537a3.493,3.493,0,0,0-1.8-5.287l-3.962-1.3a.682.682,0,0,1-.377-.306L32,33.03a2.438,2.438,0,0,0-4.183-.056l-.65,1.054a.682.682,0,0,1-1.24-.529l1.408-5.389a.681.681,0,0,1,.347-.433L30.547,26.2a2.434,2.434,0,0,0,1.324-2.091,3.814,3.814,0,0,0-3.191-3.6c-1.464-.3-2.3-.24-3.284-.841l-4.161-2.525A3.924,3.924,0,0,1,19.5,14.88l-.444-1.525a27.045,27.045,0,0,1,5.287-4.613,11.766,11.766,0,0,0,.386,1.493,18.665,18.665,0,0,0,4.211,6.681,3.2,3.2,0,0,0,4.5-.233c2.448-2.691,4.535-6.14,4.537-9.778v0a6.946,6.946,0,0,0-.513-2.615c.612-.041,1.226-.062,1.835-.062A26.8,26.8,0,0,1,50.173,6.507.878.878,0,0,0,50.882,4.9,28.54,28.54,0,0,0,39.295,2.468c-.939,0-1.887.049-2.828.141A6.894,6.894,0,0,0,31.1,0a6.969,6.969,0,0,0-6.918,6.762,28.808,28.808,0,0,0-6.767,5.809l-.014.018a28.748,28.748,0,0,0,1.019,38.393.878.878,0,1,0,1.276-1.208A26.993,26.993,0,0,1,17.708,15.01a5.782,5.782,0,0,0,2.616,3.636l4.161,2.525c1.665,1.011,3.57.8,4.49,1.267a2.137,2.137,0,0,1,1.124,1.45.685.685,0,0,1-.354.751l-2.868,1.476a2.439,2.439,0,0,0-1.243,1.553l-1.408,5.388a2.439,2.439,0,0,0,4.435,1.895l.65-1.054a.68.68,0,0,1,1.168.015c2.87,4.929,2.723,4.7,2.838,4.862a2.436,2.436,0,0,0,1.227.9l3.963,1.3a1.736,1.736,0,0,1,.893,2.628c-.328.486-.407.583-.528.8a3.47,3.47,0,0,0,.5,4.1l1.365,1.456c.653.7.415,1.449.469,2.114a1.753,1.753,0,0,1-.73,1.378c-2.561,1.828-.964,4.732-.962,4.761h-.219A27.04,27.04,0,0,1,22.183,52.1a.878.878,0,0,0-1.114,1.358,28.8,28.8,0,0,0,18.226,6.516c.843,0,1.4-.035,1.562-.042.012,0,16.582-.153,24.339-16.219h0a28.473,28.473,0,0,0,2.848-12.489A28.774,28.774,0,0,0,61.311,12.73h0ZM31.07,1.756h.019A5.155,5.155,0,0,1,36.216,6.9c0,3.579-2.556,6.924-4.08,8.6A1.442,1.442,0,0,1,30,15.5c-2-2.2-3.939-5.242-4.066-8.219l0-.054s0,0,0,0A5.227,5.227,0,0,1,31.07,1.756ZM53.152,31.922h.026A5.155,5.155,0,0,1,58.3,37.068c0,3.124-1.964,6.272-4.08,8.6a1.441,1.441,0,0,1-2.135,0c-1.43-1.573-3.859-4.721-4.063-8.132a5.232,5.232,0,0,1,5.125-5.61ZM64.067,41.956l-4.154-3.2a10.325,10.325,0,0,0,.149-1.694,6.916,6.916,0,0,0-6.877-6.9h-.025a6.906,6.906,0,0,0-6.684,5.306c-1.063.277-1.353.417-1.718.153l-2.049-1.486a.766.766,0,0,1-.163-1.08L44.908,29.9a7.319,7.319,0,0,0,1.269-3.332A5.307,5.307,0,0,1,47.4,23.636a4.18,4.18,0,0,1,3.072-1.35c.762,0,3.17.547,4.443-1.826l1.037-1.933a1.838,1.838,0,0,1,1.475-.964,3.931,3.931,0,0,0,3.183-2.417l.161-.286a27.022,27.022,0,0,1,5.521,16.358,26.728,26.728,0,0,1-2.22,10.738Z" transform="translate(-10.544 0.001)"/>
      </g>
    </g>
  </g>
</svg>
