<svg xmlns="http://www.w3.org/2000/svg" xmlns:xlink="http://www.w3.org/1999/xlink" width="103" height="103" viewBox="0 0 103 103">
  <defs>
    <filter id="Trazado_904820" x="0" y="0" width="103" height="103" filterUnits="userSpaceOnUse">
      <feOffset dy="3" input="SourceAlpha"/>
      <feGaussianBlur stdDeviation="3" result="blur"/>
      <feFlood flood-opacity="0.161"/>
      <feComposite operator="in" in2="blur"/>
      <feComposite in="SourceGraphic"/>
    </filter>
  </defs>
  <g id="Grupo_1225249" data-name="Grupo 1225249" transform="translate(-171 -2044)">
    <g id="Grupo_1225073" data-name="Grupo 1225073" transform="translate(-28.5 -1141.108)">
      <g id="Grupo_1219746" data-name="Grupo 1219746" transform="translate(208.5 3191.108)">
        <g id="Grupo_1202418" data-name="Grupo 1202418" transform="translate(0 0)">
          <g id="Grupo_1177315" data-name="Grupo 1177315" transform="translate(0 0)">
            <g id="Grupo_1173585" data-name="Grupo 1173585">
              <g id="Grupo_1173428" data-name="Grupo 1173428" transform="translate(0 0)">
                <g id="Grupo_1171958" data-name="Grupo 1171958">
                  <g id="Grupo_1167341" data-name="Grupo 1167341">
                    <g id="Grupo_1166792" data-name="Grupo 1166792">
                      <g transform="matrix(1, 0, 0, 1, -9, -6)" filter="url(#Trazado_904820)">
                        <g id="Trazado_904820-2" data-name="Trazado 904820" transform="translate(9 6)" fill="#f6f3ef">
                          <path d="M 42.50017929077148 83.50035095214844 C 36.96453094482422 83.50035095214844 31.59526252746582 82.41652679443359 26.5415210723877 80.27897644042969 C 21.65942573547363 78.21401977539062 17.27454376220703 75.25755310058594 13.50867366790771 71.49168395996094 C 9.742802619934082 67.72580718994141 6.786332130432129 63.34092712402344 4.721379280090332 58.45883560180664 C 2.583826303482056 53.40509414672852 1.500002861022949 48.03582382202148 1.500002861022949 42.50017547607422 C 1.500002861022949 36.96452713012695 2.583826303482056 31.59525871276855 4.721379280090332 26.54151725769043 C 6.786332130432129 21.65942192077637 9.742802619934082 17.27453994750977 13.50867366790771 13.50866985321045 C 17.27454376220703 9.742798805236816 21.65942573547363 6.786328315734863 26.5415210723877 4.721375465393066 C 31.59526252746582 2.58382248878479 36.96453094482422 1.499999046325684 42.50017929077148 1.499999046325684 C 48.03582763671875 1.499999046325684 53.40509796142578 2.58382248878479 58.45883941650391 4.721375465393066 C 63.3409309387207 6.786328315734863 67.72581481933594 9.742798805236816 71.49168395996094 13.50866985321045 C 75.25755310058594 17.27453994750977 78.21402740478516 21.65942192077637 80.27897644042969 26.54151725769043 C 82.41653442382812 31.59525871276855 83.50035858154297 36.96452713012695 83.50035858154297 42.50017547607422 C 83.50035858154297 48.03582382202148 82.41653442382812 53.40509414672852 80.27897644042969 58.45883560180664 C 78.21402740478516 63.34092712402344 75.25755310058594 67.72580718994141 71.49168395996094 71.49168395996094 C 67.72581481933594 75.25755310058594 63.3409309387207 78.21401977539062 58.45883941650391 80.27897644042969 C 53.40509796142578 82.41652679443359 48.03582763671875 83.50035095214844 42.50017929077148 83.50035095214844 Z" stroke="none"/>
                          <path d="M 42.50017929077148 3 C 37.16636657714844 3 31.99369812011719 4.043960571289062 27.12584686279297 6.102882385253906 C 22.42255401611328 8.092216491699219 18.19792938232422 10.94073486328125 14.56932830810547 14.5693359375 C 10.94074249267578 18.19792175292969 8.092208862304688 22.42255020141602 6.102882385253906 27.1258430480957 C 4.043952941894531 31.99368286132812 2.999992370605469 37.16636276245117 2.999992370605469 42.50017547607422 C 2.999992370605469 47.83398818969727 4.043952941894531 53.00665283203125 6.102882385253906 57.87450790405273 C 8.092208862304688 62.57780456542969 10.94074249267578 66.80241394042969 14.56932830810547 70.43101501464844 C 18.19792938232422 74.05961608886719 22.42255401611328 76.90813446044922 27.12584686279297 78.89745330810547 C 31.99369812011719 80.95639038085938 37.16636657714844 82.00035095214844 42.50017929077148 82.00035095214844 C 47.83399200439453 82.00035095214844 53.00666046142578 80.95639038085938 57.87451171875 78.89745330810547 C 62.57780456542969 76.90813446044922 66.80242156982422 74.05961608886719 70.43101501464844 70.43101501464844 C 74.05961608886719 66.80241394042969 76.90814208984375 62.57780456542969 78.8974609375 57.87450790405273 C 80.95639038085938 53.00665283203125 82.00035095214844 47.83398818969727 82.00035095214844 42.50017547607422 C 82.00035095214844 37.16636276245117 80.95639038085938 31.99368286132812 78.8974609375 27.1258430480957 C 76.90814208984375 22.42255020141602 74.05961608886719 18.19792175292969 70.43101501464844 14.5693359375 C 66.80242156982422 10.94073486328125 62.57780456542969 8.092216491699219 57.87451171875 6.102882385253906 C 53.00666046142578 4.043960571289062 47.83399200439453 3 42.50017929077148 3 M 42.50017929077148 0 C 65.97238159179688 0 85.00035095214844 19.02796173095703 85.00035095214844 42.50017547607422 C 85.00035095214844 65.97237396240234 65.97238159179688 85.00035095214844 42.50017929077148 85.00035095214844 C 19.02797698974609 85.00035095214844 -7.62939453125e-06 65.97237396240234 -7.62939453125e-06 42.50017547607422 C -7.62939453125e-06 19.02796173095703 19.02797698974609 0 42.50017929077148 0 Z" stroke="none" fill="#7b776f"/>
                        </g>
                      </g>
                    </g>
                  </g>
                </g>
              </g>
            </g>
          </g>
        </g>
      </g>
    </g>
    <g id="idea_1_" data-name="idea (1)" transform="translate(192 2064.72)">
      <path id="Trazado_1175278" data-name="Trazado 1175278" d="M236.241,405.1h5.167a4.8,4.8,0,0,1,4.8,4.8v6.164H219.172V409.9a4.8,4.8,0,0,1,4.8-4.8h5.167" transform="translate(-194.979 -360.385)" fill="#515f75"/>
      <path id="Trazado_1175279" data-name="Trazado 1175279" d="M288.078,405.1l3.123,10.96h5.575L299.9,405.1" transform="translate(-256.279 -360.385)" fill="#f2f2f2"/>
      <path id="Trazado_1175280" data-name="Trazado 1175280" d="M316.54,349.282v6.159l-3.553,2-1.1-.618-2.455-1.383v-6.163h2.455Zm0,0" transform="translate(-275.277 -310.723)" fill="#f9c2af"/>
      <path id="Trazado_1175281" data-name="Trazado 1175281" d="M316.543,476.285l2.823-3.488,2.732,3.488" transform="translate(-281.602 -420.608)" fill="#f74866"/>
      <path id="Trazado_1175282" data-name="Trazado 1175282" d="M311.889,349.279h-2.455v6.162l2.455,1.384v-2.849c.363.035.73.056,1.1.056a11.137,11.137,0,0,0,3.548-.576v-4.172Zm0,0" transform="translate(-275.277 -310.723)" fill="#ea9e8f"/>
      <path id="Trazado_1175283" data-name="Trazado 1175283" d="M213.631,242.243a3.017,3.017,0,1,1,0-6h22.306a3.017,3.017,0,1,1,0,6" transform="translate(-187.07 -210.168)" fill="#ea9e8f"/>
      <path id="Trazado_1175284" data-name="Trazado 1175284" d="M262.935,176.8V187.95a11.153,11.153,0,0,1-22.306,0V176.8" transform="translate(-214.067 -157.281)" fill="#f9c2af"/>
      <path id="Trazado_1175285" data-name="Trazado 1175285" d="M251.7,199.1a11.151,11.151,0,0,1-11.074-11.152V176.793h5.021v11.154a16.71,16.71,0,0,0,1.8,7.886C248.538,197.82,250.041,199.06,251.7,199.1Zm0,0" transform="translate(-214.067 -157.278)" fill="#ea9e8f"/>
      <path id="Trazado_1175286" data-name="Trazado 1175286" d="M240.149,81.566a17.658,17.658,0,0,1-10.721.195h0a18.821,18.821,0,0,1-3.95-1.557S224.46,85.1,220.608,85.1c0,0-2.563-4.534-2.482-8.728a3.874,3.874,0,0,1,5.031-3.625,7.1,7.1,0,0,1,7.1-4.6c.486.03.976.069,1.467.113l.283.025.029,0c5.1.479,10.261,1.411,13.294-1.946,0,0,5.013,11.55-5.18,15.222Zm0,0" transform="translate(-194.046 -59.02)" fill="#515f75"/>
      <path id="Trazado_1175287" data-name="Trazado 1175287" d="M230.256,82.58c.486.03.975.069,1.467.113-4.5-.19-8.071,9.715-2.3,13.5a18.822,18.822,0,0,1-3.95-1.557s-1.017,4.895-4.869,4.895c0,0-2.563-4.534-2.482-8.728a3.874,3.874,0,0,1,5.031-3.625,7.1,7.1,0,0,1,7.1-4.6Zm0,0" transform="translate(-194.046 -73.453)" fill="#3b485b"/>
      <path id="Trazado_1175288" data-name="Trazado 1175288" d="M319.477,425.683l2.37,3.026,2.45-3.026-2.375-2.444Z" transform="translate(-284.212 -376.52)" fill="#f74866"/>
      <path id="Trazado_1175289" data-name="Trazado 1175289" d="M343.918,83.945l-.031,0,.029,0Zm0,0" transform="translate(-305.927 -74.676)" fill="#f4af9d"/>
      <path id="Trazado_1175290" data-name="Trazado 1175290" d="M96.913,161.477v5.141a3,3,0,0,1-2.991,2.99H91.749a2.99,2.99,0,0,1-2.991-2.99v-5.141Zm0,0" transform="translate(-78.96 -143.652)" fill="#3b485b"/>
      <path id="Trazado_1175291" data-name="Trazado 1175291" d="M119.762,161.477v5.141a2.676,2.676,0,1,1-5.32,0v-5.141Zm0,0" transform="translate(-101.809 -143.652)" fill="#515f75"/>
      <path id="Trazado_1175292" data-name="Trazado 1175292" d="M70.543,62.726a7.808,7.808,0,0,1-3.734,6.664H58.654a7.813,7.813,0,1,1,11.889-6.664Zm0,0" transform="translate(-48.856 -48.852)" fill="#eaad18"/>
      <path id="Trazado_1175293" data-name="Trazado 1175293" d="M103.82,64.954a7.808,7.808,0,0,1-3.734,6.664H96.06a7.813,7.813,0,0,1,2.014-14.2A7.814,7.814,0,0,1,103.82,64.954Zm0,0" transform="translate(-82.133 -51.08)" fill="#ffc627"/>
      <path id="Trazado_1175294" data-name="Trazado 1175294" d="M168.433,334.166v5.247h-6.3v-5.247a1.049,1.049,0,0,1,1.049-1.049h4.2A1.049,1.049,0,0,1,168.433,334.166Zm0,0" transform="translate(-144.239 -296.346)" fill="#f4af9d"/>
      <path id="Trazado_1175295" data-name="Trazado 1175295" d="M188.88,334.166v5.247h-3.759v-5.247a1.048,1.048,0,0,1,1.049-1.049h1.661a1.049,1.049,0,0,1,1.049,1.049Zm0,0" transform="translate(-164.687 -296.346)" fill="#f9c2af"/>
      <path id="Trazado_1175296" data-name="Trazado 1175296" d="M162.137,390.152h6.3v12.58h-6.3Zm0,0" transform="translate(-144.24 -347.086)" fill="#515f75"/>
      <path id="Trazado_1175297" data-name="Trazado 1175297" d="M162.137,390.152h2.518v12.58h-2.518Zm0,0" transform="translate(-144.24 -347.086)" fill="#3b485b"/>
      <path id="Trazado_1175298" data-name="Trazado 1175298" d="M371.683,250.776v-1.55a.84.84,0,0,0-1.679,0v1.55a.84.84,0,0,0,1.679,0Zm0,0" transform="translate(-329.161 -220.969)"/>
      <path id="Trazado_1175299" data-name="Trazado 1175299" d="M299.8,249.226a.839.839,0,1,0-1.679,0v1.55a.839.839,0,1,0,1.679,0Zm0,0" transform="translate(-265.213 -220.969)"/>
      <path id="Trazado_1175300" data-name="Trazado 1175300" d="M184.517,87.33a.84.84,0,1,0,1.518.718,11.857,11.857,0,0,0,.945-2.922,3.794,3.794,0,0,0,.2-7.554V73.8a9.063,9.063,0,0,0,2.788-3.593c2.129-4.929-.336-10.721-.442-10.966a.839.839,0,0,0-1.393-.229c-2.448,2.708-6.638,2.278-11.073,1.824-1.091-.112-2.219-.227-3.326-.295a7.9,7.9,0,0,0-7.648,4.464,4.72,4.72,0,0,0-5.372,4.579,19.508,19.508,0,0,0,2.046,8.088,3.9,3.9,0,0,0-2.913,3.655,3.966,3.966,0,0,0,3.551,3.794,12.03,12.03,0,0,0,7.394,8.963v2.045h-4.328a5.615,5.615,0,0,0-3.956,1.627V90.076a1.89,1.89,0,0,0-1.888-1.888h-4.2a1.983,1.983,0,0,0-.21.012V84.3a.839.839,0,1,0-1.679,0V97a.839.839,0,1,0,1.679,0v-.839h4.617v10.9h-4.617v-6.7a.839.839,0,1,0-1.679,0V107.9a.866.866,0,0,0,.839.87H188.7a.839.839,0,0,0,.84-.84v-6.165a5.642,5.642,0,0,0-5.636-5.636h-4.327V94.089a11.98,11.98,0,0,0,4.9-3.58.839.839,0,0,0-1.3-1.062,10.314,10.314,0,0,1-18.3-6.523V79.1a5.434,5.434,0,0,0,3.759-2.784,9.556,9.556,0,0,0,.788-1.679c2.238,1.037,8.144,3.22,14.44.952a13.411,13.411,0,0,0,1.64-.715v8.048a10.213,10.213,0,0,1-.985,4.406Zm-5.559,10.482h1.025l-1.059,3.715-2.364-2.364Zm4,0,.232,5.887-2.438.61a.839.839,0,0,0-.39,1.408l1.377,1.377h-2.659l2.644-9.281ZM170.216,104.9a.839.839,0,0,0-.6-.59l-2.439-.61.232-5.887h1.234l2.644,9.281h-2.66L170,105.716a.838.838,0,0,0,.215-.818Zm4.967-4.737,1.279,1.278L175.12,103.1l-1.262-1.61Zm3.213,3.214-.781,2.742-1.367-1.745,1.407-1.738Zm-5.734-.692,1.438,1.835-1.335,1.649-.8-2.792Zm2.566,3.11,1.019,1.3h-2.072Zm-3.784-4.265-1.059-3.715h1.024l2.4,1.351Zm-15.233-7.044V90.075a.209.209,0,0,1,.209-.209h4.2a.209.209,0,0,1,.209.209v4.408Zm6.3,7.286a3.963,3.963,0,0,1,3.215-3.886l-.254,6.432a.839.839,0,0,0,.635.848l1.662.415-1.516,1.516h-3.744Zm25.353,0v5.325h-3.744l-1.515-1.515,1.662-.416a.84.84,0,0,0,.636-.847l-.254-6.432a3.963,3.963,0,0,1,3.215,3.886ZM177.9,94.609v1.873l-2.713,1.529-2.713-1.529V94.609a12.112,12.112,0,0,0,5.427,0ZM161.525,81.332A2.211,2.211,0,0,1,163.2,79.3v3.626c0,.149,0,.3.009.445a2.213,2.213,0,0,1-1.68-2.037Zm21.768-7.32c-7.091,2.555-13.9-1.263-13.97-1.3a.841.841,0,0,0-1.24.555c-.009.04-.835,3.786-3.559,4.193a18.693,18.693,0,0,1-2.132-7.837,3.044,3.044,0,0,1,3.032-2.979,3.063,3.063,0,0,1,.912.14.84.84,0,0,0,1.036-.509,6.229,6.229,0,0,1,6.26-4.051c1.073.065,2.184.179,3.258.289,4.177.428,8.482.869,11.5-1.456.561,1.8,1.363,5.416.034,8.49a8.313,8.313,0,0,1-5.135,4.467Zm5.559,7.32a2.213,2.213,0,0,1-1.679,2.037c.005-.148.009-.3.009-.445V79.3a2.21,2.21,0,0,1,1.671,2.034Zm0,0" transform="translate(-137.474 -52.256)"/>
      <path id="Trazado_1175301" data-name="Trazado 1175301" d="M312.849,308.681a4.694,4.694,0,0,0,3.33-1.377.84.84,0,0,0-1.187-1.187,3.033,3.033,0,0,1-4.285,0,.84.84,0,0,0-1.187,1.188A4.7,4.7,0,0,0,312.849,308.681Zm0,0" transform="translate(-275.135 -272.108)"/>
      <path id="Trazado_1175302" data-name="Trazado 1175302" d="M60.881,65.051V63.079a8.652,8.652,0,1,0-9.834,0v1.972a3.834,3.834,0,0,0,3.83,3.83h2.174a3.834,3.834,0,0,0,3.83-3.83Zm-11.89-9.09A6.973,6.973,0,1,1,59.8,61.786h-1.21V56.909a.84.84,0,0,0-1.679,0v4.877h-1.89V56.909a.84.84,0,1,0-1.679,0v4.877H52.131a6.928,6.928,0,0,1-3.139-5.825ZM59.2,65.051A2.153,2.153,0,0,1,57.051,67.2H54.877a2.153,2.153,0,0,1-2.151-2.151V63.464H59.2Zm0,0" transform="translate(-42.09 -42.086)"/>
      <path id="Trazado_1175303" data-name="Trazado 1175303" d="M4.02,118.925a.84.84,0,0,0-.84-.84H.84a.84.84,0,1,0,0,1.679H3.181A.84.84,0,0,0,4.02,118.925Zm0,0" transform="translate(0 -105.051)"/>
      <path id="Trazado_1175304" data-name="Trazado 1175304" d="M202.82,61.891a.837.837,0,0,0,.419-.113l2.027-1.171a.839.839,0,1,0-.84-1.454L202.4,60.325a.839.839,0,0,0,.42,1.566Zm0,0" transform="translate(-179.685 -52.524)"/>
      <path id="Trazado_1175305" data-name="Trazado 1175305" d="M18.269,166.634l-2.027,1.171a.839.839,0,1,0,.84,1.454l2.027-1.171a.839.839,0,1,0-.84-1.454Zm0,0" transform="translate(-14.075 -148.14)"/>
      <path id="Trazado_1175306" data-name="Trazado 1175306" d="M166.941,19.413a.839.839,0,0,0,1.147-.307l1.171-2.028a.839.839,0,1,0-1.454-.839l-1.171,2.027a.839.839,0,0,0,.307,1.147Zm0,0" transform="translate(-148.14 -14.073)"/>
      <path id="Trazado_1175307" data-name="Trazado 1175307" d="M118.925,4.02a.84.84,0,0,0,.84-.84V.84a.84.84,0,0,0-1.679,0V3.181A.84.84,0,0,0,118.925,4.02Zm0,0" transform="translate(-105.051 0)"/>
      <path id="Trazado_1175308" data-name="Trazado 1175308" d="M60.325,19.106a.839.839,0,0,0,1.454-.84l-1.171-2.027a.839.839,0,1,0-1.454.839Zm0,0" transform="translate(-52.524 -14.073)"/>
      <path id="Trazado_1175309" data-name="Trazado 1175309" d="M16.239,60.608l2.027,1.171a.839.839,0,0,0,.84-1.454l-2.028-1.171a.839.839,0,1,0-.839,1.454Zm0,0" transform="translate(-14.073 -52.524)"/>
    </g>
  </g>
</svg>
